<svg xmlns="http://www.w3.org/2000/svg" version="1.1" xmlns:xlink="http://www.w3.org/1999/xlink" width="1500" height="107" viewBox="0 0 1500 107"><svg xml:space="preserve" width="1500" height="107" data-version="2" data-id="lg_mWFqItDi228cN861hG" viewBox="0 0 547 107" x="0" y="0"><rect width="100%" height="100%" fill="transparent"></rect><path fill="#a3ffd6" d="M185.435 79.858q.87 1.1 1.05 1.78.18.68.43 1.35.25.68.43 1.29.19.62.19.74 0 .86-.31 1.42-.31.55-.92 1.41-4.93 1.85-9.73 3.63-4.79 1.79-9.84 3.51-1.35.37-2.46.8-1.11.43-2.46.68-.25.24-.8.43-.55.18-1.29.43-.74.24-1.42.43-.67.18-.92.18-.98.25-2.15.19t-2.28.06q-.62.12-.86.61-.25.5-.56 1.05-.3.55-.92.98-.61.44-1.72.44-1.11 0-2.22-.13-1.1-.12-2.33-.61-.25-.37-.19-.93.06-.55-.18-.92-1.11-.12-1.73.19-.61.3-1.23.43-.36-.5-.55-1.17-.18-.68-.68-1.17-.12-.62-.12-1.23v-1.23q0-.86.06-2.03t.43-1.79q.37-7.01.37-14.09v-15.87q0-1.17-.06-2.4t-.12-2.27q-.06-1.05-.19-1.54.13-.86.13-1.66v-3.02q0-.61-.25-1.23.12-.49.12-1.35 0-.62-.12-1.23-.12-.62-.12-1.23 0-.99.06-1.91.06-.92.06-1.91 0-3.2-.31-6.33-.31-3.14-.31-6.34 0-4.19-.06-8.37-.06-4.18-.18-8.37.49-1.23.49-2.09 1.72-.86 2.71-.61.98.24 1.97.24.61 0 1.1-.12.5-.12.99-.37.61.12 1.04.31.43.18 1.05.18 1.85-.37 2.03-.12.19.25.55.49.5-.12.8-.43.31-.31.8-.31.74 0 1.11.93.37.92.86 1.53 0 1.36.49 2.47.25 5.04.19 9.96-.06 4.92.31 9.85.12 2.21.3 4.61.19 2.4.19 4.61 0 3.7.06 7.45t.06 7.57q0 .61.06 1.1.07.5.07 1.11 0 1.48-.13 2.83-.12 1.36-.12 2.71v9.6q0 1.23-.06 2.52t.06 2.52l.49 1.48q1.35-.49 2.77-1.05 1.41-.55 3.01-.8.99-.24 1.85-.49.86-.25 1.85-.49 1.72-.99 2.7-1.36.99-.36 1.97-.73 2.09-.74 4.06-1.54 1.97-.8 4.06-1.54.99.25 1.6-.25 1.23.25 2.22.25 1.35 1.35 1.66 2.09.31.74.92 1.36-.24.61.06.73.31.13.43.62.5.24.13.68-.37.43-.5.8"></path><rect width="48.36" height="92.66" x="-24.18" y="-46.33" fill="none" rx="0" ry="0" transform="translate(163.85 55.44)"></rect><path fill="#a3ffd6" d="M244.875 86.128q-1.23.12-1.48-.12-.49.24-.92.49-.43.25-.93.61-1.72.62-3.38 1.6-1.66.99-3.38 1.85-.99.49-1.91.8-.92.31-1.91.8-1.47.74-2.95 1.54-1.48.8-3.08 1.41-.86.25-1.66.5-.8.24-1.66.49-.98.37-1.78.8-.8.43-1.67.8-.61.24-1.29.43-.67.18-1.41.55-.62.25-1.05.62-.43.37-1.04.61-.99.37-2.03.74-1.05.37-2.03.86-.99.49-1.42.92-.43.43-1.66.8-1.23.74-1.35.8-.13.07-.37.07-.37.24-.68.43-.31.18-.68.43-.74 0-1.47.12-.74.12-1.48.12-.86-.49-1.17-.98-.31-.49-.31-1.36-.49-.61-.92-1.35-.43-.74-.92-1.35-.86.49-1.05-.06-.18-.56-.31-1.23l-.24-1.36q-.13-.67-.25-.92-.61-2.34-.61-3.45 0-.61.24-.8.25-.18.25-.55.12-1.23.24-2.83.13-1.6.13-3.32v-6.52q0-5.54-.13-10.77-.12-5.23-.12-10.52 0-2.46.12-4.92.13-2.46.13-4.92 0-6.03.18-11.94.19-5.91.19-11.94 0-2.46-.25-4.98-.25-2.52-.37-5.1-.12-1.36.12-2.16.25-.8.13-1.66.37-.12 1.35-.12.99 0 2.03-.06l1.97-.13q.92-.06 1.17-.18.86.61 1.72.61t1.6-.73q.62.24.68.36.06.13.68.13 1.1-.13 1.72-.19.61-.06 1.11-.06 1.35.99 1.66 2.4.3 1.42.43 2.95.12 1.54.18 3.08t.06 2.52q0 .74.13 1.54.12.8.12 1.66 0 .62-.06 1.23-.06.62-.06 1.23 0 3.57.06 7.26t.06 7.26q0 6.4-.19 12.86-.18 6.46-.18 12.86 0 1.35.12 2.71.13 1.35.13 2.7 0 .74-.07 1.48-.06.74-.06 1.48 0 4.55.37 9.1.49-.12 2.09-.67 1.6-.56 3.33-1.24 1.72-.67 3.2-1.35 1.47-.68 1.84-1.04.49 0 1.35-.37.87-.37 1.85-.93.98-.55 1.91-1.04.92-.49 1.29-.86-.12-2.47-.12-4.99v-4.98q0-6.77.18-13.54.19-6.76.19-13.78 0-4.3-.13-8.61-.12-4.31-.12-8.61 0-1.36.06-2.77.06-1.42.06-2.77 0-2.09-.06-4.12-.06-2.03.19-4.13 1.23-.61 1.35-.61h1.05q.3 0 .55.25.37.12.68.06.3-.06.67-.06.62 0 1.23.24.62.25 1.23.25.99-.13 1.05.24.06.37.43.37.98-.37 1.35 0 .37.25 1.36.68.98.43 2.09.92 1.11.49 1.97.93.86.43.86.8.37 1.96.25 4.18-.13 2.21-.13 4.18 0 1.73.13 3.45.12 1.72.12 3.44v1.97q0 .99.12 1.85.12.61.12 1.04v.93q0 .61.25 1.6-.12.61-.12 1.29v1.29q0 1.72.12 3.57.12 1.84.12 3.69 0 1.23-.18 2.34-.19 1.11-.19 2.21l.13 2.34q0 1.23.12 2.46t.12 2.59q0 .61-.06 1.23-.06.61-.18 1.23-.13.61-.13 1.35v1.35q0 1.73.13 3.45.12 1.72.12 3.44 0 1.11-.06 2.16-.06 1.04-.06 2.15 0 2.22.18 4.55.19 2.34.19 4.56 0 .98-.25 2.09-.25 1.11-.98 1.72"></path><rect width="51.68" height="97.45" x="-25.84" y="-48.73" fill="none" rx="0" ry="0" transform="translate(220.76 56.97)"></rect><path fill="#a3ffd6" d="M346.755 100.528q-.62.61-1.35.74-.74.12-1.48.12-1.85.86-3.94.86-1.35-.74-1.48-.49-.12.24-.49.49-1.84.86-3.32.92-1.48.06-2.46.68-.99-.74-1.05-2.15-.06-1.42-.3-2.4-.62-.86-.87-2.16-.24-1.29-.36-2.64-.13-1.36-.31-2.65-.19-1.29-.68-2.27-.12-.62-.06-1.11.06-.49-.19-1.11.13-2.09-.12-3.32-.24-1.23-.49-2.59-.12-.73-.12-1.66 0-.92-.74-1.41.37-1.72.12-2.59-.24-.86-.37-1.6-.12-.98-.12-2.15t-.25-2.15q-.74-5.91-1.6-11.81-.86-5.91-1.6-11.82-.73.62-1.04 1.85-.31 1.23-.56 2.21-.73 2.22-1.35 4.56-.61 2.33-1.23 4.55-.25.98-.43 2.28-.19 1.29-.55 2.27-1.23 3.57-2.16 6.15-.92 2.59-1.78 5.3-.25 1.47-.49 2.83l-.5 2.7q-.12.74-.37 2.09-.24 1.36-.49 1.97-.24.62-.43.86-.18.25-.06.87-1.23 1.84-1.66 4.06-.43 2.21-1.54 4.3 0 1.48-1.11 2.59-.61.12-1.17.24-.55.13-1.16.5-.62-.25-1.42-.31-.8-.06-1.54-.06-.61-.13-1.1-.43-.5-.31-1.11-.44-.62-.73-1.36-1.29-.73-.55-1.47-1.17-.74-1.84-1.36-2.46-.36-1.35-.98-2.52t-.86-2.65q-.37-1.35-.92-2.52-.56-1.17-1.17-2.52-.25-.86-.56-1.66-.3-.8-.67-1.66-.13-.99-.68-2.46-.55-1.48-.8-2.59 0-.12-.43-1.29t-.86-2.52q-.43-1.36-.86-2.46-.43-1.11-.56-1.23-.24-.62-.43-1.17-.18-.56-.43-1.29-.49-1.6-1.23-3.26-.74-1.67-1.48-3.14-.61-1.23-.86-2.4-.24-1.17-.61-2.28-.25-.61-.43-1.11-.19-.49-.43-1.1-.25-.74-.5-1.54-.24-.8-.49-1.66-.61.24-.55 1.04.06.8-.06 1.42-.25 1.35-.25 2.64 0 1.3-.12 2.65-.25 1.48-.49 2.83-.25 1.35-.37 2.71 0 3.32-.37 6.64-.25 2.95-.62 5.97-.37 3.01-.49 6.21 0 2.34-.49 4.62-.49 2.27-.25 4.73-.24.5-.24.74v.74q0 .62-.07 1.35-.06.74-.06 1.36 0 1.11.25 1.47-.37 1.11-.37 2.4v2.53q-.25.49-.31.98t-.43.99q.12 2.09-1.23 2.09-.37 0-.8-.19-.43-.18-.68-.55-1.35.12-1.53-.62-.19-.73-.8-.61-1.48.61-1.67.37-.18-.25-.79-.13-.99-.98-1.3-.86-.3.13-.55.13-1.11-.37-1.23-.19-.12.19-.49.19-.62-.62-1.66-.62-1.05 0-1.79-.12-.12-.49-.18-.92-.06-.44-.06-1.05 0-.74.06-1.42.06-.67.06-1.41 0-.62-.06-1.29-.06-.68-.06-1.54t.12-1.66q.12-.8.12-1.79 0-.37-.12-.67-.12-.31-.12-.8.73-1.6.67-2.53-.06-.92.06-1.78.25-2.09.43-4.12.19-2.03.44-4.12 0-3.45.18-5.73.18-2.27.55-4.61.25-1.11.43-2.09.19-.99.43-2.09.25-1.85.31-3.88t.31-4q.25-3.07.62-6.09.36-3.01.61-5.97.25-2.33.55-4.61.31-2.28.31-4.37 0-1.11.31-2.83t.43-2.95q.25-2.96.43-5.79.19-2.83.19-5.66v-1.35q0-.25.24-.49.25-.25.25-.86 0-1.11.55-1.54.55-.43.92-1.42.62 0 1.42.13.8.12 1.17.74.86-.25 1.72-.25t1.48-.62q.74 0 1.1.37.37.37.99.62.49-.25.98-.43.5-.19.99-.43.37.24.55.55.19.31.56.43 1.84-.49 2.46-.12.24.49.3.98.07.49.19.99 1.23 1.23 1.6 2.77.37 1.53 1.35 2.76.25.74.56 1.48.3.74.55 1.72l.37 1.48q.49 1.23 1.23 2.95.61 2.34 1.11 4.8.49 2.46 1.6 4.55.12.74.43 1.79.3 1.04.55 1.78.86 2.09 1.78 4.13.93 2.03 1.67 4.36.73 2.34 1.29 4.8.55 2.46 1.41 4.8.74 2.22 1.11 3.2.37.98.98 1.97 0 .37.19 1.23.18.86.55 1.78.37.93.74 1.73.37.8.74.92.37-.25.43-.74t.43-.86q.12-1.35.43-3.32.31-1.97.92-3.2 0-.62.31-2.28.31-1.66.8-3.57.49-1.9.92-3.5.43-1.6.8-1.97.25-1.6.43-1.97.19-.37.44-.62.12-.98.49-1.84.37-.86.49-1.85.25-2.09.61-3.44.37-1.36.99-3.33.49-1.72.92-3.5.43-1.79 1.05-3.51 1.47-4.67 2.64-8.3 1.17-3.63 2.89-7.08.37-1.11.62-1.35.25-.25.49-.5.99-.36 2.03-.36 1.05 0 2.16.12 1.23-.49 1.84-1.11.49.62 1.48.62 1.23 0 1.72-.74.49.24.8.12.31-.12.92.12.25-.24.62-.55.37-.31.74-.31.98 1.23 1.54 1.91.55.68.79 1.54.37 1.11.44 2.4.06 1.29.67 2.4-.12 1.6.19 4.86.3 3.26.74 6.89.43 3.63.92 6.7.49 3.08.86 3.82-.12 1.6.12 2.71.25 1.1.25 2.21 0 .37.12 1.54t.25 2.46q.12 1.29.31 2.46.18 1.17.3 1.66 0 2.22.74 3.45.62 3.07 1.05 6.15.43 3.08.8 6.27.24 1.6.3 3.08.07 1.48.31 3.08.13.61.31 1.23.18.61.31 1.23.24 1.23.37 2.34.12 1.1.37 2.21.12.62.36 1.29.25.68 0 1.42.25.86.19 1.84-.06.99.43 1.73 0 2.58.37 4.55.12 1.48.74 2.95.24 1.48.43 3.08.18 1.6.43 3.2"></path><rect width="87.36" height="95.98" x="-43.68" y="-47.99" fill="none" rx="0" ry="0" transform="translate(303.57 56.36)"></rect><path fill="#a3ffd6" d="M395.485 86.748q-.25.73-.25 1.35 0 .74.18 1.48.19.73.19 1.47-.25 2.22-.37 2.71-.74.61-3.02 1.41-2.27.8-5.41 1.6t-6.77 1.6q-3.63.8-6.95 1.54-3.32.74-6.09 1.29-2.77.56-4.12.8-.62.13-1.17.31-.55.19-1.17.43-.62.12-1.23.06-.62-.06-1.23.19-.37 0-.68-.37-.31-.37-.55-.62 0-.73-.25-1.1-.24-.37-.55-.62-.31-.25-.55-.55-.25-.31-.25-1.05-.25-.98-.68-1.54-.43-.55-.43-1.04-.49-1.6-.49-2.83 0-.62.12-.99.13-.37.37-.74.74-.24 1.11-.61.37-.37.98-.62.74-.37 2.1-.67 1.35-.31 2.95-.68 1.6-.37 3.07-.74 1.48-.37 2.47-.74.36-.12.73-.12t.62-.25q-.25-1.96-.31-3.93-.06-1.97-.31-3.82 0-.86-.12-1.72t-.12-1.6l.12-2.58q0-4.68-.37-9.35-.37-4.68-.37-9.36v-4.18q0-.98-.06-1.85-.06-.86-.06-1.84 0-2.34.06-4.49.06-2.16.06-4.49v-11.32q-2.7-.62-5.04.06-2.34.67-4.8.92-.86-.86-.99-1.85-.98-1.35-1.35-1.72-.37-.37-.86-2.09-.86-1.72-1.42-2.15-.55-.43-.55-1.42 0-.61.31-.86t.55-.86q1.11-.49 1.29-.68.19-.18.43-.31 1.24-.86 2.83-1.23 1.6-.36 3.08-.86 1.23-.37 2.34-.86 1.11-.49 2.46-.86l3.2-.98q1.6-.5 3.08-.87.98-.24 1.9-.18.93.06 1.91-.55 1.6.24 3.38-.07 1.79-.3 3.88-.8 2.09-.49 4.06-.86 1.97-.37 2.95-.61.62.24.86.61.25.37.74.5.13.36.25.92.12.55.49.8 0 1.35.62 1.97-.13 1.23.43 2.77.55 1.53.55 2.89-.61 1.84-2.03 2.34-1.41.49-3.08.86-1.66.37-3.26.67-1.6.31-2.58.68 0 1.72.06 3.57.06 1.84.06 3.69 0 1.72-.06 3.45-.06 1.72-.06 3.44 0 2.58-.06 5.29t-.06 5.42q0 3.81.12 7.62.12 3.82.37 7.63.12.62.12 1.85 0 4.92.19 9.66.18 4.74.67 9.78 1.6.12 2.46-.49.62 0 1.17-.25.56-.24 1.05-.49.74-.12 2.03-.43 1.29-.31 1.66-.31 1.11.12 1.35 0 .37.74 1.11 1.11.25 1.11.43 2.15.19 1.05.56 2.16"></path><rect width="43.93" height="96.1" x="-21.96" y="-48.05" fill="none" rx="0" ry="0" transform="translate(374.14 55.44)"></rect><path fill="#a3ffd6" d="M459.835 8.488q1.35 0 1.97.37.61 1.23.8 2.15.18.92.18 2.15.12 1.85.06 2.65-.06.8-.18 1.66-.12 1.97-.12 3.75v3.76q0 4.3.12 8.73.12 4.43.12 8.74 0 1.72-.06 3.38t-.06 3.39q0 .37.06.8.06.43.06.8 0 1.1-.06 2.15-.06 1.05-.06 2.03v.86q0 .37.12.99-.24.98-.24 1.35 0 1.97.12 4 .12 2.03.12 4 0 1.84.06 3.57.06 1.72.06 3.56 0 .99-.06 2.1-.06 1.1-.06 2.21 0 2.58.12 5.23.13 2.65.25 5.23v3.38q0 1.66.25 3.39 0 1.97-.19 2.89-.18.92-.43 1.78-.98.25-1.29.19-.31-.06-.68-.06-1.72.49-2.21.92-.49.43-1.11.92-.49 0-1.17.06-.67.06-1.04.43-.62-.24-.99-.12t-.74.12q-1.72.13-2.33.43-.62.31-1.73.31-.98-1.6-1.47-2.52-.5-.92-1.6-.8-1.6-2.46-2.28-5.17-.68-2.71-2.28-4.92-.12-.98-.37-1.23-.24-.25-.49-.99-.49-.98-.86-2.09-.37-1.1-.98-2.09-.99-2.09-1.97-4.12-.99-2.03-1.85-4.25-.37-.98-.61-2.03-.25-1.04-.62-2.03-.24-.49-.55-.98-.31-.49-.56-.86-.73-1.36-1.41-2.71-.68-1.35-1.54-2.71-.24-.61-.68-1.17-.43-.55-.92-1.16-.37-.87-.67-1.73-.31-.86-.68-1.72-.25-.74-.74-1.54t-.74-1.54q-.24-.61-.37-1.23-.12-.61-.74-1.1-.86 1.47-.86 1.97-.12 1.47-.18 2.39-.06.93-.06 1.67 0 .86.18 1.66.19.8.19 1.54.24 2.95.37 5.96.12 3.02.12 5.97-.12 2.34-.06 3.57t.18 2.46q.12 1.23.06 2.52t.06 2.52q0 2.83.07 5.48.06 2.65.06 5.48v2.95q0 1.35-.37 2.46-1.85 0-2.4-.12-.55-.13-1.17-.37-.74.12-1.17.55-.43.43-1.04.8-1.36-.12-1.48.06-.12.19-.49.43-.37.13-.68 0-.31-.12-.68-.12-.98-.25-1.6-.25-.74.25-1.41.5-.68.24-1.42.37-.74-1.36-.86-3.2-.12-1.85-.98-3.2.24-.49.3-.62.07-.12.07-.74 0-2.83-.13-5.66-.12-2.83-.12-5.66 0-2.33-.31-4.55-.3-2.21-.3-4.55 0-.74.12-1.48t.12-1.6q0-.37-.06-.74t-.06-.61q-.25-2.22-.31-4.55-.06-2.34-.06-4.68-.12-1.35-.19-2.83-.06-1.48-.06-3.08 0-.61.13-1.35.12-.74.12-1.48v-5.16q-.25-1.48-.19-1.97.07-.5.07-.99 0-1.11-.19-2.15-.18-1.05-.18-2.28 0-.86.18-1.66.19-.8.19-1.66 0-1.85-.19-3.57-.18-1.72-.18-3.57v-10.46q0-.86-.13-1.72-.12-.86-.12-1.84.74-1.73 1.35-1.79.62-.06 1.11-.43 1.36.25 2.34-.24 1.6.12 1.97-.37.24.24.68.18.43-.06.79.06.37-.24.62-.49t.74-.49q1.35-.74 1.6-.92.24-.19.61-.44.62 0 .8.37.19.37.8.37.25.49.62.99.37.49.86.74.98 2.09 2.34 3.56 1.1 3.2 2.52 6.16 1.41 2.95 3.01 5.9 0 .37.13.93.12.55.24.8.62 1.35 1.79 3.5 1.17 2.16 2.03 3.51.24.49.61.86t.62.86q.37.62.61 1.35.25.74.62 1.36.61 1.47 1.41 2.89.8 1.42 1.67 2.89.24.74.55 1.48.31.74.68 1.47.98 2.22 1.78 3.39t1.17 2.52q.86.99 1.35 2.15.49 1.17 1.48 1.91.12-.61.24-3.63.13-3.01.13-6.58v-11.08q0-3.32-.13-6.58-.12-3.26-.12-6.46 0-2.58.06-5.23.06-2.64.19-5.23.12-1.35.06-2.52t.06-2.4q.12-.61.49-1.23t.62-1.23q1.6-.25 2.46.61.74-.36 1.78-.36 1.05 0 1.79-.13.98-.12 1.11-.18.12-.06.36-.06.5.24.93.37.43.12 1.04.36 1.11-.36 1.85.13"></path><rect width="55.99" height="95.13" x="-28" y="-47.57" fill="none" rx="0" ry="0" transform="translate(435.91 55.67)"></rect><path fill="#a3ffd6" d="M483.085 98.928q-.36.24-.73.49t-.74.49q-1.36.74-2.46.8-1.11.06-2.46 1.29-.5-.61-.74-.61h-.86q-1.6 0-1.85-.86-.49.12-1.54.61-1.04.49-1.54.74 1.11-1.6 1.48-2.46.37-.86.43-1.6.06-.74.12-1.54.07-.8.56-2.27.24-.5.37-.99.12-.49.37-1.11.61-1.84 1.04-4.18.43-2.34 1.42-4.06 0-2.09.92-3.94.92-1.84 1.54-3.81.24-.74.68-1.48.43-.74.67-1.48.49-1.23.8-2.39.31-1.17.68-2.28.98-3.57 1.97-7.08.98-3.5 1.84-7.07.13-.62.31-1.36.19-.73.43-1.35.62-1.84.8-3.75.19-1.91 1.17-3.63-.12-.86.06-1.6.19-.74.43-1.6.25-.86.49-1.6.25-.74.37-1.11.62-1.6.93-2.89.3-1.29 1.29-2.77l.37-1.29q.37-1.29.86-2.89t.86-3.02q.37-1.41.37-1.66.25-.98.43-1.84.18-.86.43-1.85.25-.61.49-1.04.25-.44.5-1.05.36-1.35.73-3.32.37-1.97.99-3.08.37-.86 1.41-1.41 1.05-.56 1.79-1.17 2.21.24 3.26-.25 1.04-.49 2.03-1.23.61.12 1.17.31.55.18 1.17.18 2.33 2.59 3.26 5.29.92 2.71 1.78 5.42.37 1.35.74 2.64.37 1.3.86 2.53.12.36.37.8.25.43.49.92.62.98 1.05 2.09.43 1.11.8 2.22.74.86 1.11 2.03.36 1.16.67 2.33.31 1.17.68 2.22.37 1.04 1.11 1.78.24 1.36.86 2.65.61 1.29.86 2.77.74.98 1.72 3.75.99 2.77 1.97 5.97.98 3.2 1.85 6.15.86 2.95 1.23 4.18.24.99.98 2.53.74 1.53 1.35 2.76.5 1.36 1.05 2.83.55 1.48.92 2.83.25 1.36.56 2.59.3 1.23.67 2.58.25.86.74 1.54t.74 1.66q.49.99.68 1.85.18.86.8 1.84-.13 1.36.12 1.73.25.36.49.86.49 2.58 1.11 4.12.61 1.54.61 3.26 0 1.48-.55 1.85-.55.36-1.41 1.23-.99.86-1.67 1.35-.67.49-2.03.49-1.47-.12-1.78.43-.31.56-.43.8-1.48-.12-1.91-.06-.43.06-.86.06t-.86.19q-.43.18-.92.8-.86-.99-1.66-1.79-.8-.8-1.42-1.78 0-2.09-.55-4.92-.56-2.83-1.17-4.43-1.23-3.2-2.28-6.28-1.04-3.08-2.03-6.27-.37-1.36-.8-2.47-.43-1.1-.92-2.33.24.98.18 2.03-.06 1.04-.67 2.03-.25.24-.74.61t-.49.62q-1.48 1.23-2.59 2.34.13 2.21-.61 3.07-.74.86-1.6 1.6-2.09.12-2.59-.24-.49-.37-1.35-.5-.49-.12-.98-.06-.5.06-.99.06-.98 0-1.84-.49-.37-.25-.56-.49-.18-.25-.43-.49-.98-.99-2.28-1.66-1.29-.68-2.52-1.17-.98-.86-2.03-1.79-1.04-.92-2.15-1.54-.99 2.34-1.54 4.13-.55 1.78-1.29 3.5-1.36 4.19-2.22 7.32-.86 3.14-1.97 6.34-.49.12-.92.37-.43.25-1.04.25Zm12.06-26.21q.99-1.72 1.79-1.91.8-.18 1.41-.92.25-.25.56-.62.3-.37.67-.74.37-.24.86-.49.5-.24.87-.61.98-.86 1.66-1.48.67-.61 2.03-.61 2.09 0 3.44 1.04 1.36 1.05 3.32 1.42.25.73 1.6 1.04 1.36.31 2.1.8-1.23-3.07-1.91-6.21-.68-3.14-1.66-6.22-.74-2.7-1.73-5.35-.98-2.64-1.96-5.1-.87-2.47-1.48-4.8-.62-2.34-1.6-4.56-.98 2.22-1.97 5.42-.98 3.2-1.48 5.66 0 1.11-.12 1.72-.24.86-.49 1.54t-.49 1.41q-1.6 4.8-2.89 9.72-1.3 4.93-3.02 9.85Z"></path><rect width="70.26" height="96.35" x="-35.13" y="-48.17" fill="none" rx="0" ry="0" transform="translate(505.8 56.05)"></rect><path fill="#a3ffd6" d="M86.526 4.899c3.678 2.922 7.819 5.175 11.23 8.424v-2.054c-7.214 5.661-15.06 10.185-23.912 4.986-4.867-2.858-.327-5.49 2.233-7.5 3.312-2.598 6.112-6.975 10.743-3.63 1.522 1.1 2.97-1.422 1.466-2.507C83.579-.78 80.36.996 76.452 4.588c-2.335 2.146-9.28 5.527-8.139 9.68 1.334 4.849 8.427 6.971 12.74 7.428 6.976.738 13.647-4.363 18.758-8.373.613-.481.523-1.556 0-2.054-3.427-3.265-7.539-5.492-11.231-8.424-1.451-1.152-3.522.89-2.054 2.054"></path><path fill="#a3ffd6" d="M96.18 14.687c.853 4.022 2.255 7.9 2.353 12.05.044 1.87 2.949 1.874 2.904 0-.104-4.418-1.548-8.54-2.458-12.823-.39-1.832-3.188-1.055-2.8.773m-23.921 4.496c-1.688 3.085-2.558 6.438-2.206 9.96.183 1.845 3.09 1.864 2.904 0-.303-3.038.349-5.824 1.81-8.494.9-1.643-1.609-3.109-2.508-1.466"></path><path fill="#a3ffd6" d="M70.772 30.397c3.84 1.964 7.626 4.713 11.981 5.363 1.831.273 2.62-2.526.772-2.802-4.113-.612-7.656-3.212-11.287-5.068-1.665-.852-3.135 1.654-1.466 2.507"></path><path fill="#a3ffd6" d="M83.871 35.613c3.347-1.883 6.902-3.433 9.92-5.844 1.465-1.168-.605-3.21-2.053-2.054-2.801 2.237-6.226 3.641-9.333 5.39-1.631.918-.167 3.428 1.466 2.508"></path><path fill="#a3ffd6" d="M94.166 28.355c-.59-3.326-1.86-6.649-1.953-10.043-.052-1.87-2.957-1.874-2.905 0 .103 3.669 1.42 7.226 2.058 10.816.326 1.843 3.125 1.06 2.8-.773m-12.428 6.39c2.372 11.93 5.214 23.488 6.48 35.61.58 5.547 2.228 13.306-4.262 15.566-3.793 1.324-7.872 1.571-11.807 2.22-15.372 2.537-32.367 5.509-47.86 2.543-2.774-.531-5.646-1.448-7.655-3.516-3.112-3.204-1.708-11.233-2.832-15.545-1.947-7.463-4.225-14.404-5.02-22.141-.703-6.857-1.039-15.81 2.579-21.909 4.754-8.015 20.118-5.703 27.918-6.32 11.334-.897 22.892-1.792 34.233-.584 1.863.199 1.843-2.708 0-2.905-13.192-1.405-26.317.405-39.494.893-8.723.323-19.331-.278-25.166 7.451C5.196 30.952 5.54 39.49 5.62 45.191c.112 7.955 1.96 15.54 4.214 23.11 1.2 4.032 1.99 7.782 2.154 11.99.09 2.3.283 4.843 1.301 6.95 1.314 2.72 3.8 4.139 6.514 5.212 8.422 3.332 18.992 2.304 27.783 1.67 9.194-.66 18.191-2.398 27.322-3.473 4.559-.537 9.413-1.23 13.458-3.516 3.513-1.986 3.28-7.733 3.213-11.11-.282-14.332-4.266-28.096-7.041-42.051-.364-1.836-3.163-1.058-2.799.772"></path><path fill="#a3ffd6" d="M42.374 41.98c-.885 8.666-1.536 17.572.854 26.058.259.918 1.311 1.324 2.133.868 7.115-3.941 14.758-7.386 20.352-13.466.544-.59.566-1.466 0-2.054-5.875-6.11-13.475-11.145-21.155-14.665-1.69-.775-3.167 1.728-1.466 2.507 7.483 3.43 14.85 8.266 20.567 14.211v-2.054c-5.418 5.887-12.875 9.195-19.764 13.011l2.133.868c-2.32-8.228-1.61-16.89-.75-25.287.19-1.86-2.716-1.842-2.904.003"></path></svg></svg>