<svg xmlns="http://www.w3.org/2000/svg" xmlns:xlink="http://www.w3.org/1999/xlink" version="1.1" id="Layer_1" x="0px" y="0px" viewBox="0 0 4000 4000" style="enable-background:new 0 0 4000 4000;" xml:space="preserve">
<g>
	
	<g>
		<g style="opacity:0.2;">
			<g>
				<ellipse style="fill:#371A45;" cx="2197.213" cy="3417.433" rx="978.632" ry="101.683"/>
			</g>
		</g>
		<g>
			<g>
				<g>
					<path style="fill:#FFFFFF;" d="M1736.479,2751.583c0,0-117.929,97.694-183.834,92.045       c-65.906-5.649-289.985-459.457-357.774-611.982c-67.789-152.525-54.608-193.951-30.128-222.197       c24.479-28.245,112.445-66.623,112.445-66.623l56.71,10.468l171.672,84.401l252.403,670.356l-16.624,35.601"/>
				</g>
			</g>
			<g style="opacity:0.3;">
				<g>
					<path style="fill:#371A45;" d="M1761.947,2689.305c0,0-117.929,97.694-183.835,92.045       c-65.906-5.649-289.985-459.458-357.774-611.982c-67.789-152.525-31.401-166.475-6.922-194.721       c24.479-28.245,75.604-31.822,75.604-31.822l54.842,15.367l187.174,17.224l252.403,670.356l-16.624,35.601"/>
				</g>
			</g>
			<g>
				<g>
					<path style="fill:#371A45;" d="M1558.15,2859.662c-2.329,0-4.609-0.093-6.86-0.283c-15.464-1.328-51.675-4.429-190.703-259.092       c-75.679-138.623-149.209-292.568-180.166-362.222c-66.255-149.082-59.692-201.968-27.627-238.972       c26.069-30.081,108.735-66.682,118.071-70.757c2.891-1.26,6.089-1.633,9.194-1.057l56.709,10.466       c1.421,0.264,2.803,0.72,4.106,1.36l171.67,84.4c3.604,1.777,6.401,4.858,7.817,8.618l252.407,670.356       c1.499,3.984,1.333,8.403-0.469,12.261l-16.626,35.601c-0.957,2.046-2.29,3.789-3.887,5.186       c-0.796,3.115-2.554,6.021-5.22,8.228C1734.385,2773.847,1628.692,2859.662,1558.15,2859.662z M1279.121,1959.26       c-26.401,11.85-85.327,40.801-102.432,60.539c-18.765,21.655-33.267,57.173,32.627,205.425       c30.645,68.95,103.481,221.47,178.56,359.067c127.046,232.842,162.5,243.174,166.123,243.584       c48.452,4.233,140.254-61.943,172.036-88.174c0.239-0.923,0.571-1.841,0.986-2.739l13.813-29.57l-247.861-658.271       l-164.092-80.676L1279.121,1959.26z"/>
				</g>
			</g>
			<g>
				<g>
					<path style="fill:#FFFFFF;" d="M1994.655,1699.483c0,0,160.556,1.15,358.901,110.365l67.789-134.322       c0,0-26.362-85.364,0-130.556c26.362-45.193,66.533-51.469,66.533-51.469s26.362-66.533,131.812-46.448       s164.451,128.033,166.334,179.509c1.883,51.475-22.596,128.679-77.204,149.393c0,0-62.14,203.366-184.536,327.646       c-37.66,30.128-144.993,16.947-144.993,16.947l26.362,48.959c0,0,480.171-15.064,493.352-20.713s67.789-124.28,137.461-131.812       c69.672-7.532,141.227,47.076,139.344,135.578c-1.883,88.502-120.513,273.038-163.823,306.933       c-43.31,33.894-542.311,135.578-638.345,190.185c-96.034,54.608-126.162,116.748-150.642,218.431       c-24.479,101.683-13.181,474.522-33.895,506.533c-20.713,32.011-329.529,58.374-410.499,32.011s-52.725-133.695,0-154.408       c0,0,9.415-269.272-62.14-453.808c-71.555-184.536-141.227-263.623-141.227-263.623l-22.13,8.16l-56.957-75.321       c0,0-116.747,106.705-257.346,94.151s-154.408-236.005-94.151-351.497c60.257-115.492,185.792-249.652,185.792-249.652       S1790.162,1881.614,1994.655,1699.483z"/>
				</g>
			</g>
			<g>
				<g>
					<circle style="fill:#0CCCFF;" cx="2075.183" cy="2061.231" r="59.315"/>
				</g>
			</g>
			<g>
				<g style="opacity:0.3;">
					<g>
						<path style="fill:#371A45;" d="M1117.048,2294.183c0,0-1.265,186.021,145.611,173.468s283.395-176.69,296.576-209.643        c13.181-32.953,51.783-67.789,93.21-62.14c41.427,5.649,8.883-118.987,8.883-118.987s80.48,76.623,74.871,160.415        c-5.609,83.793-59.711,80.341-74.871,79.713c-15.16-0.628-20.181-3.138-32.735,5.649        c-12.554,8.788-36.583,42.054-54.168,52.725c-17.584,10.67-29.941,19.458-29.941,19.458l-39.414,60.82        c0,0-18.883,20.405-21.364,22.34s-101.575,76.911-198.345,83.808c-96.77,6.897-141.637-38.723-164.396-116.969        C1098.208,2366.595,1117.048,2294.183,1117.048,2294.183z"/>
					</g>
				</g>
				<g style="opacity:0.3;">
					<g>
						<path style="fill:#371A45;" d="M1729.404,3352.991c0,0,291.485,2.191,321.613-50.534c30.128-52.725,30.128-336.433,0-399.201        c-30.128-62.767-210.597-73.96-253.58-20.086c0,0-91.084-258.128-189.593-373.857l-31.976,14.827l-54.608-83.481        c0,0,20.487-41.289,28.76-45.438c8.273-4.149,48.896-38.234,55.286-44.386c6.391-6.153,22.658-25.041,22.658-25.041        s14.437-7.197,18.203-6.109c3.766,1.088,34.522,0,34.522,0l20.086-6.444c0,0-60.257,51.469-71.555,73.438        c-11.298,21.969,33.458,71.555,32.107,73.438c-1.351,1.883-0.203,1.883,5.553,3.138c5.757,1.256,55.863-35.4,55.863-35.4        l18.219-2.271c0,0,63.379,89.769,76.56,89.769s92.42-47.703,92.42-47.703s162.415,131.941,309.291,94.844        c146.876-37.097,215.292-229.07,238.516-217.82c23.224,11.25,3.191,102.83-9.729,139.575        c-12.919,36.746,510.613-69.324,552.04-100.708c41.427-31.384,171.664-216.517,161.153-297.816        c0,0,26.646,46.078-2.603,139.308c-29.249,93.23-137.773,232.596-156.654,240.133        c-18.882,7.537-182.755,53.135-317.339,88.843c-134.584,35.708-277.081,78.719-328.55,105.082        s-127.25,105.975-137.229,230.953c-9.979,124.979-17.677,374.752-17.677,374.752s3.757,103.944-14.997,112.96        c-18.754,9.016-100.408,31.417-229.19,38.001c-128.781,6.585-179.213-7.37-202.014-21.106        C1732.159,3380.916,1729.404,3352.991,1729.404,3352.991z"/>
					</g>
				</g>
				<g style="opacity:0.3;">
					<g>
						<path style="fill:#371A45;" d="M1717.523,2154.793l34.721-21.065c0,0,71.555,161.94,155.663,175.749        c84.108,13.809,344.279-129.301,344.279-129.301s38.076,57.254,34.152,60.338c-3.925,3.084-384.865,228.392-386.747,229.333        c-1.883,0.941-56.491,29.657-56.491,29.657s-12.182,7.532-11.034,3.766s-74.8-102.154-74.8-102.154        s-4.573-19.064-5.333-20.546c-0.761-1.482-38.862-58.935-38.862-58.935s4.213-22.917,6.279-25.533        c2.065-2.616,15.988-25.857,16.419-42.332c0.43-16.475-6.7-59.486-8.179-64.149S1717.523,2154.793,1717.523,2154.793z"/>
					</g>
				</g>
				<g style="opacity:0.3;">
					<g>
						<path style="fill:#371A45;" d="M2022.458,2045.115c0,0,18.203,31.495,55.863,34.947s56.143-17.238,56.143-17.238        s-4.101,61.718-61.192,57.68C2016.181,2116.467,2012.415,2060.696,2022.458,2045.115z"/>
					</g>
				</g>
				<g style="opacity:0.3;">
					<g>
						<path style="fill:#371A45;" d="M2245.025,2077.695c5.593-2.341,64.594-40.001,64.594-40.001l21.969,27.618        c0,0-47.344,43.279-49.265,44.808c-1.92,1.53-16.641,0-16.641,0L2245.025,2077.695z"/>
					</g>
				</g>
				<g style="opacity:0.3;">
					<g>
						<path style="fill:#371A45;" d="M2189.481,1877.962c0,0,155.916,147.806,258.54,149.061        c102.625,1.255,175.851-261.112,180.037-268.645c4.186-7.532,138.784-26.077,157.476-137.945c0,0,3.43,65.652-24.089,106.506        c-27.519,40.854-50.115,46.503-50.115,46.503l-8.787,17.575c0,0-51.734,128.684-102.443,216.239        c-50.709,87.555-69.872,99.922-94.097,106.17c-24.225,6.248-102.86,9.003-105.371,7.12c-2.51-1.883-27.51-8.798-31.111-13.935        c-3.602-5.137-25.211-32.365-25.211-32.365v-13.496l9.247-7.365l-77.832-110.471l-19.458,8.16l-18.911-20.984        L2189.481,1877.962z"/>
					</g>
				</g>
				<g style="opacity:0.3;">
					<g>
						<path style="fill:#371A45;" d="M2509.812,1575.306c0,0,55.428,28.822,77.083,29.764c21.655,0.941,29.187-14.593,29.187-17.418        s-35.058-66.999-35.058-66.999s58.125,58.525,97.668,76.414s64.964,16.476,65.435,19.301        c0.471,2.824-6.841,21.786-26.709,24.479c-19.868,2.693-58.281-0.292-72.834-4.336c-14.553-4.045-25.93-6.051-27.838-4.39        c-1.907,1.661-14.405,22.086-46.137,9.757C2538.877,1629.549,2515.582,1589.793,2509.812,1575.306z"/>
					</g>
				</g>
			</g>
			<g>
				<g>
					<path style="fill:#371A45;" d="M1891.768,3433.271c-48.208,0-92.202-3.174-118.052-11.587       c-37.949-12.358-60.386-41.953-61.553-81.196c-1.187-39.692,20.532-80.503,50.854-98.184       c0.781-48.896,0.825-277.954-61.294-438.149c-56.807-146.509-112.803-226.05-131.68-250.576l-11.465,4.229       c-6.533,2.417-13.882,0.254-18.081-5.298l-46.938-62.075c-35.347,28.008-136.621,97.783-256.157,87.114       c-47.778-4.268-86.289-30.767-111.377-76.636c-48.315-88.345-35.596-220.854,4.609-297.925       c60.562-116.064,183.086-247.595,188.271-253.137c2.354-2.517,5.469-4.194,8.862-4.78       c4.556-0.784,457.642-80.398,656.372-257.395c2.925-2.603,6.826-4.26,10.625-4.001c6.558,0.046,159.189,2.319,352.002,104.536       l57.681-114.302c-5.82-21.687-22.134-93.411,3.237-136.904c22.583-38.708,54.453-52.524,69.424-57.083       c11.382-19.392,49.644-66.658,145.537-48.398c113.76,21.667,177.114,138.113,179.18,194.46       c1.89,51.797-21.875,133.931-80.137,161.653c-12.363,37.8-73.901,213.088-186.143,327.056c-0.439,0.444-0.903,0.859-1.387,1.25       c-29.546,23.643-90.181,24.692-127.134,22.769l7.91,14.688c179.609-5.679,441.758-15.098,476.934-19.36       c3.184-3.901,9.004-12.612,13.833-19.839c26.66-39.902,71.289-106.689,129.063-112.934       c39.727-4.302,79.663,9.033,109.673,36.553c31.387,28.784,48.145,69.653,47.178,115.078       c-2.026,95.127-125.977,284.683-169.883,319.048c-21.68,16.963-119.038,42.485-276.094,82.72       c-147.515,37.793-314.712,80.625-364.185,108.76c-91.001,51.743-119.585,110.771-143.086,208.384       c-12.139,50.42-15.317,174.458-18.125,283.896c-3.794,147.92-6.47,209.912-17.866,227.524       c-16.519,25.532-114.966,38.599-194.648,45.063C1971.099,3431.264,1930.098,3433.271,1891.768,3433.271z M1575.235,2519.003       c4.458,0,8.809,1.885,11.865,5.361c2.925,3.315,72.358,83.325,144.106,268.354c71.904,185.43,63.589,448.95,63.203,460.078       c-0.22,6.294-4.155,11.86-10.02,14.165c-22.925,9.004-41.528,42.241-40.625,72.583c0.537,18.027,7.871,41.694,39.736,52.07       c33.657,10.962,118.433,13.154,215.962,5.615c106.509-8.247,166.826-23.281,176.563-31.572       c7.632-16.494,10.391-124.136,12.612-210.767c2.983-116.426,6.069-236.816,18.989-290.488       c25.063-104.087,57.695-171.323,158.203-228.472c53.149-30.22,215.225-71.743,371.963-111.899       c115.728-29.648,246.89-63.252,264.453-76.992c38.56-30.176,155.977-211.152,157.759-294.819       c0.767-36.196-12.349-68.55-36.938-91.099c-23.311-21.377-54.258-31.733-84.902-28.423       c-43.091,4.658-84.126,66.074-106.172,99.067c-12.915,19.326-18.809,28.149-26.763,31.558       c-10.562,4.531-178.481,11.924-499.077,21.982c-6.099,0.181-11.577-3.027-14.419-8.306l-26.362-48.96       c-2.798-5.2-2.466-11.533,0.869-16.411c3.335-4.883,9.102-7.495,14.976-6.777c38.608,4.717,108.286,5.269,132.52-13.076       c117.842-120.2,179.355-318.45,179.966-320.442c1.426-4.678,4.937-8.428,9.512-10.164       c48.384-18.352,68.594-90.828,67.012-134.033c-1.689-46.248-57.407-146.252-153.496-164.556       c-90.259-17.19-113.276,34.68-114.219,36.897c-2.129,5.047-6.782,8.797-12.192,9.641c-1.226,0.215-33.379,6.206-55.317,43.816       c-18.691,32.044-5.288,95.996,1.45,117.937c1.201,3.904,0.845,8.13-0.991,11.777l-67.788,134.321       c-1.934,3.83-5.342,6.711-9.443,7.978c-4.102,1.272-8.54,0.813-12.3-1.252c-171.313-94.333-315.322-106.621-345.571-108.184       c-197.905,171.609-607.769,250.027-661.899,259.775c-20.698,22.627-126.831,140.837-179.785,242.327       c-40.796,78.193-42.993,198.472-4.902,268.125c20.063,36.689,49.15,56.982,86.445,60.313       c131.831,11.802,244.16-89.063,245.283-90.083c3.291-2.993,7.729-4.453,12.104-4.058c4.429,0.41,8.481,2.656,11.162,6.201       l49.883,65.967l11.123-4.102C1571.553,2519.321,1573.403,2519.003,1575.235,2519.003z M2176.392,3365.322c0,0,0,0,0,0.005       C2176.392,3365.322,2176.392,3365.326,2176.392,3365.322z"/>
				</g>
			</g>
			<g>
				<g>
					<path style="fill:#371A45;" d="M1496.138,2483.461c-3.276,0-6.587-1.016-9.419-3.125c-7.007-5.21-8.462-15.112-3.252-22.119       l60.688-81.597c1.362-1.836,3.11-3.35,5.117-4.448c46.396-25.298,72.886-63.657,73.145-64.043       c3.574-5.244,9.946-7.866,16.182-6.621c29.014,5.806,51.675,1.611,65.557-12.139c15.029-14.883,19.907-41.021,13.726-73.608       c-11.563-60.972-76.406-189.57-193.955-174.316c-114.473,14.814-155.479,133.726-155.879,134.927       c-1.104,3.301-3.276,6.172-6.162,8.12L1203.711,2291.2c-7.227,4.893-17.065,2.979-21.948-4.263s-2.974-17.065,4.263-21.948       l153.916-103.838c9.941-25.864,58.896-135.405,179.932-151.064c141.04-18.274,215.22,126.724,229.072,199.785       c8.203,43.242,0.195,79.453-22.544,101.968c-14.102,13.965-39.873,28.613-84.053,22.373       c-11.084,13.931-36.606,42.402-74.854,64.009l-58.657,78.862C1505.738,2481.259,1500.967,2483.461,1496.138,2483.461z"/>
				</g>
			</g>
			<g>
				<g>
					<path style="fill:#371A45;" d="M1620.65,2322.441c-7.608-19.817-14.173-39.205-15.312-60.837       c0.053-4.13,1.195-8.387,3.981-11.568c4.177-4.45,8.85-5.747,13.487-6.636c15.704-2.082,29.166-3.457,43.984,5.134       c0.76,0.453,1.009,1.437,0.555,2.198c-12.291,11.531-26.559,11.411-39.553,17.978c-0.338,0.182-0.641,0.712,0.861-0.332       c1.552-1.134,2.631-3.127,3.366-4.789c0.358-0.795,0.545-1.691,0.537-2.56c0.008-0.15,0.063,0.027,0.063,0.027       c0.2,0.355,0.202,0.441,0.528,1.456c5.047,15.705,12.393,33.095,17.199,49.064       C1655.989,2330.805,1628.726,2340.688,1620.65,2322.441L1620.65,2322.441z"/>
				</g>
			</g>
			<g>
				<g>
					<path style="fill:#371A45;" d="M1357.017,2558.94c-1.24,0-2.495-0.19-3.735-0.586c-3.35-1.079-82.583-27.271-132.07-100.19       c-49.893-73.53-31.621-182.612-30.82-187.217c1.152-6.616,7.441-11.035,14.058-9.893c6.616,1.147,11.05,7.441,9.907,14.058       c-0.181,1.03-17.334,104.082,26.982,169.395c44.834,66.069,118.662,90.459,119.404,90.693       c6.392,2.061,9.902,8.916,7.847,15.308C1366.924,2555.658,1362.153,2558.94,1357.017,2558.94z"/>
				</g>
			</g>
			<g>
				<g>
					<path style="fill:#371A45;" d="M2011.618,2759.956c114.941,0.828,235.382-29.44,320.476-109.289       c22.123-20.215,41.782-44.302,58.309-69.227c26.677-40.797,46.65-86.322,62.222-133.85c0.899-2.777,3.88-4.299,6.657-3.4       c2.507,0.812,3.988,3.34,3.591,5.863c-8.037,50.26-24.705,99.73-50.305,145.015       c-65.865,117.426-192.843,182.569-325.707,182.66c-25.8,0.079-51.358-1.701-76.788-7.346c-2.845-0.631-4.64-3.45-4.009-6.295       C2006.644,2761.472,2009.051,2759.782,2011.618,2759.956L2011.618,2759.956z"/>
				</g>
			</g>
			<g>
				<g>
					<path style="fill:#371A45;" d="M2748.648,2549.74c-1.055,0-2.119-0.137-3.184-0.425c-6.484-1.753-10.317-8.428-8.564-14.912       c62.339-230.596-70.659-364.087-72.012-365.41c-4.8-4.697-4.883-12.393-0.186-17.197c4.702-4.795,12.393-4.883,17.197-0.186       c5.928,5.801,144.502,144.922,78.477,389.141C2758.911,2546.171,2754.004,2549.74,2748.648,2549.74z"/>
				</g>
			</g>
			<g>
				<g>
					<path style="fill:#371A45;" d="M1989.761,3112.797c-127.588,0-216.841-34.849-222.397-37.075       c-6.23-2.495-9.258-9.565-6.768-15.801c2.49-6.23,9.551-9.282,15.801-6.782c1.982,0.791,200.723,78.096,426.606-0.195       c6.357-2.222,13.276,1.167,15.474,7.505c2.202,6.348-1.162,13.276-7.505,15.474       C2131.211,3103.569,2055.406,3112.797,1989.761,3112.797z"/>
				</g>
			</g>
			<g>
				<g>
					<path style="fill:#371A45;" d="M1773.932,3237.141c21.434-6.6,44.408-6.113,66.231-2.086       c21.09,5.059,43.433,9.402,56.979,28.538c0.651,0.916,0.049,2.27-1.065,2.408c-11.011,2.077-20.476,0.847-30.82-0.687       c-27.811-4.244-56.074-3.212-83.48,2.313C1762.515,3270.881,1755.575,3243.51,1773.932,3237.141L1773.932,3237.141z"/>
				</g>
			</g>
			<g>
				<g>
					<path style="fill:#371A45;" d="M2907.711,2135.596c31,19.573,80.868,74.703,73.515,113.839       c-0.188,1.095-1.592,1.607-2.434,0.881c-9.849-8.115-15.774-16.35-22.03-24.719c-18.627-24.734-42.763-45.453-67.159-64.142       C2873.99,2148.949,2890.668,2125.25,2907.711,2135.596L2907.711,2135.596z"/>
				</g>
			</g>
			<g>
				<g>
					<path style="fill:#371A45;" d="M2609.234,1973.671c-148.755,0-260.596-149.968-265.483-156.628       c-3.97-5.413-2.803-13.018,2.607-16.992c5.41-3.982,13.022-2.81,16.997,2.598c1.172,1.592,118.613,159.092,263.599,145.896       c6.665-0.603,12.607,4.316,13.213,11.011c0.61,6.687-4.316,12.602-11.006,13.213       C2622.451,1973.378,2615.806,1973.671,2609.234,1973.671z"/>
				</g>
			</g>
			<g>
				<g>
					<path style="fill:#371A45;" d="M2711.733,1791.492c-14.926,3.905-30.63,4.279-46.078,3.75       c-5.22-0.119-10.633-1.266-16.85-6.697c-0.755-0.66-0.93-1.737-0.485-2.588c3.827-7.314,8.456-10.344,13.279-12.346       c14.207-6.088,28.981-11.429,44.307-13.197C2725.288,1758.64,2730.32,1786.221,2711.733,1791.492L2711.733,1791.492z"/>
				</g>
			</g>
			<g>
				<g>
					<path style="fill:#371A45;" d="M2619.702,1644.892c-1.079,0-2.173-0.112-3.271-0.342c-8.545-1.799-14.014-10.186-12.212-18.728       c0.068-0.347,8.032-41.797-17.529-78.013c-20.889-29.595-78.774-37.832-99.316-38.508c-8.721-0.286-15.566-7.583-15.288-16.304       c0.273-8.721,7.578-15.608,16.279-15.3c3.652,0.115,89.878,3.31,124.155,51.88c33.716,47.761,23.105,100.535,22.637,102.759       C2633.589,1639.782,2627.022,1644.892,2619.702,1644.892z"/>
				</g>
			</g>
			<g>
				<g>
					<path style="fill:#371A45;" d="M2514.467,1572.153c12.776,17.849,30.988,34.648,48.277,47.591       c13.8,11.194,29.497,12.654,43.206,1.099c0.5-0.359,1.809-1.721,1.628-1.454l17.445-4.874       c29.092,9.64,81.272,28.932,108.722,11.075c2.365-1.934,5.92-1.511,7.713,0.981c1.323,1.821,1.318,4.208,0.181,6       c-6.53,10.233-18.261,16.253-29.562,19.283c-32.553,7.995-66.313,1.553-97.72-8.208c0-0.001,17.444-4.875,17.444-4.875       c-10.876,13.005-27.137,20.995-44.077,21.521c-30.858,1.368-53.522-25.935-68.671-48.905       c-6.959-11.78-14.377-24.159-15.083-38.275c-0.207-4.756,6.415-6.908,9.039-2.999       C2513.01,1570.111,2514.467,1572.153,2514.467,1572.153L2514.467,1572.153z"/>
				</g>
			</g>
			<g>
				<g>
					<path style="fill:#371A45;" d="M2379.307,2136.357c-4.98,0-9.883-2.349-12.959-6.733l-34.985-49.893       c-5.015-7.148-3.281-17.007,3.867-22.021c7.158-5.015,17.012-3.276,22.021,3.867l34.985,49.893       c5.015,7.148,3.281,17.007-3.867,22.021C2385.606,2135.429,2382.442,2136.357,2379.307,2136.357z"/>
				</g>
			</g>
			<g>
				<g>
					<path style="fill:#371A45;" d="M1564.693,2550.868c-3.901,0-7.734-1.875-10.088-5.356c-3.76-5.562-2.295-13.125,3.271-16.885       c81.299-54.932,171.533-117.959,187.573-132.617c-3.086-11.606-25.102-45.127-45.513-71.567       c-4.106-5.317-3.125-12.954,2.193-17.056c5.322-4.111,12.964-3.12,17.056,2.192c60.313,78.125,52.041,91.909,48.511,97.798       c-7.764,12.93-126.26,94.146-196.206,141.406C1569.405,2550.19,1567.036,2550.868,1564.693,2550.868z"/>
				</g>
			</g>
			<g>
				<g>
					<path style="fill:#371A45;" d="M1816.763,2527.568c-7.681,0-25.977-6.504-90.542-101.978       c-3.765-5.562-2.305-13.12,3.262-16.885c5.557-3.76,13.125-2.3,16.885,3.262c25.918,38.315,59.277,81.987,71.289,90.493       c45.273-19.165,451.885-248.604,474.17-283.618c0.024-0.044,2.729-4.761-2.837-23.623       c-23.804-80.625-149.863-262.285-175.229-277.813c-32.271,4.661-268.516,132.905-411.997,213.872       c-5.85,3.291-13.267,1.235-16.567-4.614s-1.235-13.267,4.614-16.567c0.981-0.557,99.497-56.113,200.117-110.19       c207.363-111.44,220.957-108.352,229.063-106.509c30.874,7.014,150.737,188.398,184.727,271.006       c14.009,34.043,16.67,54.858,8.628,67.495c-15.713,24.692-144.995,102.842-250.684,164.048       c-44.521,25.786-227.725,130.239-243.12,131.528C1818.008,2527.519,1817.422,2527.568,1816.763,2527.568z M2112.73,1916.843       L2112.73,1916.843C2112.73,1916.84,2112.735,1916.843,2112.73,1916.843z"/>
				</g>
			</g>
			<g>
				<g>
					<path style="fill:#371A45;" d="M1893.697,2488.696c-4.106,0-8.115-2.08-10.4-5.845l-160.273-263.716       c-3.491-5.742-1.665-13.223,4.072-16.709c5.752-3.491,13.228-1.66,16.709,4.072l160.273,263.716       c3.491,5.742,1.665,13.223-4.072,16.709C1898.028,2488.124,1895.85,2488.696,1893.697,2488.696z"/>
				</g>
			</g>
			<g>
				<g>
					<path style="fill:#371A45;" d="M2147.691,2343.232c-4.229,0-8.34-2.207-10.581-6.147l-73.252-128.73       c-57.773-2.505-139.521-5.972-144.653-5.972c-8.55,0-14.727,0-97.803-151.416c-3.228-5.889-1.074-13.281,4.814-16.514       c5.889-3.213,13.281-1.074,16.514,4.814c32.603,59.429,70.293,124.658,81.348,138.921c25.249,0.85,134.087,5.571,147.554,6.157       c4.18,0.181,7.974,2.5,10.044,6.133l76.577,134.575c3.32,5.84,1.279,13.262-4.556,16.587       C2151.797,2342.719,2149.732,2343.232,2147.691,2343.232z"/>
				</g>
			</g>
			<g>
				<g>
					<path style="fill:#371A45;" d="M2075.181,2132.709c-39.409,0-71.475-32.065-71.475-71.479       c0-39.409,32.065-71.474,71.475-71.474c39.414,0,71.479,32.065,71.479,71.474       C2146.66,2100.644,2114.595,2132.709,2075.181,2132.709z M2075.181,2014.077c-26.001,0-47.148,21.152-47.148,47.153       s21.147,47.153,47.148,47.153s47.153-21.152,47.153-47.153S2101.182,2014.077,2075.181,2014.077z"/>
				</g>
			</g>
			<g>
				<g>
					<path style="fill:#371A45;" d="M2269.239,2132.709c-3.579,0-7.119-1.572-9.521-4.585c-4.185-5.254-3.32-12.905,1.934-17.09       l75.464-60.103c-22.715-33.022-53.53-77.424-65.42-93.567c-13.984,7.112-46.768,26.553-75.796,44.578       c-5.693,3.54-13.198,1.799-16.748-3.919c-3.545-5.706-1.787-13.203,3.916-16.746c89.131-55.339,91.924-53.467,99.404-48.484       c2.412,1.609,5.723,3.816,81.113,113.713c3.608,5.264,2.539,12.417-2.451,16.392l-84.326,67.158       C2274.566,2131.84,2271.89,2132.709,2269.239,2132.709z"/>
				</g>
			</g>
			<g>
				<g>
					<path style="fill:#371A45;" d="M2239.645,1957.875c-20.358-24.547-44.025-52.002-65.823-75.764       c-22.57-26.209-49.01-46.233-68.355-75.913c-0.713-1.022,0.361-2.529,1.569-2.116c34.484,10.594,59.794,35.556,86.403,58.171       c25.949,23.412,50.065,48.276,71.289,76.371C2276.646,1955.395,2252.785,1973.744,2239.645,1957.875L2239.645,1957.875z"/>
				</g>
			</g>
			<g>
				<g>
					<path style="fill:#371A45;" d="M2419.076,2161.153c15.042,23.05,24.261,48.404,30.753,74.883       c2.246,8.668,3.027,17.958-0.548,28.18c-0.298,0.85-1.228,1.298-2.077,1c-16.397-11.709-20.379-28.185-30.349-43.691       c-7.193-12.765-18.249-31.572-24.879-44.147C2383.02,2159.632,2407.703,2144.962,2419.076,2161.153L2419.076,2161.153z"/>
				</g>
			</g>
		</g>
		<g style="opacity:0.3;">
			<g>
				<path style="fill:#371A45;" d="M1307.447,1986.191c0,0,171.871,79.681,405.624,0s286.776-272.571,286.776-272.571      s-162.615,43.503-216.406,63.589c-53.792,20.086-215.732,56.491-253.392,74.066c-37.66,17.575-74.548,26.101-106.946,53.849      S1328.384,1934.06,1307.447,1986.191z"/>
			</g>
		</g>
		<g>
			<g>
				<g>
					<g>
						<path style="fill:#FFFFFF;" d="M2044.618,962.964c0,0,78.696,1.59,102.917,26.909        c37.072,38.752,106.858,183.673,70.479,331.15c-11.145,45.737-89.37,86.06-89.37,86.06S2042.212,1121.303,2044.618,962.964z"/>
					</g>
				</g>
				<g style="opacity:0.3;">
					<g>
						<path style="fill:#371A45;" d="M2011.247,983.258c0,0,74.952,5.798,102.917,26.909        c48.018,36.25,106.521,204.452,70.479,331.15c-11.145,45.737-89.37,86.06-89.37,86.06S2008.841,1141.597,2011.247,983.258z"/>
					</g>
				</g>
				<g>
					<g>
						<path style="fill:#371A45;" d="M2128.643,1422.892c-2.095,0-4.189-0.418-6.167-1.253c-4.321-1.831-7.607-5.488-8.965-9.98        c-3.56-11.765-87.114-289.964-84.697-448.936c0.127-8.643,7.173-15.571,15.806-15.571c0.029,0,0.059,0,0.088,0.003        c2.759,0.015,68.091,0.71,111.563,29.541c31.504,20.891,123.818,193.823,76.992,348.525        c-12.832,51.047-88.74,91.46-97.378,95.913C2133.618,1422.304,2131.133,1422.892,2128.643,1422.892z M2060.493,979.75        c2.866,132.185,59.478,339.934,77.695,403.599c24.141-15.095,58.413-41.226,64.463-66.069        c0.073-0.288,0.151-0.576,0.234-0.859c23.096-75.889,7.891-153.542-8.931-205.322        c-20.229-62.275-48.027-103.066-55.176-108.062C2114.771,987.116,2080.415,981.633,2060.493,979.75z"/>
					</g>
				</g>
			</g>
			<g>
				<g>
					<g>
						<path style="fill:#FFFFFF;" d="M2127.651,1295.053c-3.353,114.118-35.571,228.104-97.606,330.73        c-12.661,20.921-26.488,41.338-41.584,61.177c-7.315,9.674-15.018,19.222-22.954,28.696        c-24.068,28.423-49.949,54.426-77.382,78.01c-23.595,20.383-48.381,38.932-74.021,55.67        c-30.955,20.23-63.28,37.756-96.563,52.627c-12.156,5.383-24.417,10.433-36.781,15.152        c-226.485,85.884-491.072,52.052-689.328-111.308c-292.101-240.585-329.523-671.031-83.705-961.411        c47.384-55.893,101.809-102.648,160.943-139.735c6.87-4.4,13.896-8.62,20.998-12.688        c18.924-11.009,38.263-21.073,57.963-30.169c45.569-21.022,93.078-36.94,141.516-47.695        c48.412-10.805,97.882-16.448,147.349-16.844c15.729-0.135,31.457,0.241,47.211,1.181c23.604,1.421,47.13,3.97,70.604,7.825        c116.9,18.865,230.201,67.802,327.491,147.973C2049.837,892.631,2133.559,1093.824,2127.651,1295.053z"/>
					</g>
					<g>
						<path style="fill:#371A45;" d="M1431.748,1964.589c-159.233,0-316.055-54.016-441.484-157.366        c-141.084-116.204-227.759-280.051-244.063-461.357c-16.431-182.759,40.435-361.272,160.122-502.656        c46.733-55.12,101.025-102.256,161.372-140.105c6.563-4.204,13.457-8.369,21.06-12.722        c18.877-10.981,38.428-21.16,58.11-30.244c45.239-20.872,92.974-36.961,141.885-47.822        c48.438-10.808,98.14-16.489,147.729-16.885c15.938-0.146,31.88,0.261,47.334,1.184c24.111,1.45,47.93,4.092,70.796,7.844        c120.649,19.47,234.199,70.776,328.359,148.369c162.847,134.111,252.695,331.763,246.519,542.278l0,0        c-3.433,116.704-37.275,231.379-97.871,331.626c-12.837,21.208-26.865,41.846-41.694,61.338        c-6.758,8.938-14.287,18.347-23.008,28.762c-23.784,28.091-49.888,54.407-77.593,78.225        c-23.145,19.995-48.115,38.774-74.219,55.813c-30.518,19.946-63.091,37.7-96.816,52.766        c-12.119,5.369-24.521,10.481-36.87,15.193C1600.366,1949.565,1515.718,1964.589,1431.748,1964.589z M1442.578,599.074        c-2.021,0-4.043,0.007-6.069,0.024c-49.331,0.396-98.774,6.047-146.963,16.799c-48.657,10.806-96.143,26.812-141.147,47.571        c-19.57,9.038-39.023,19.163-57.808,30.093c-7.563,4.329-14.404,8.462-20.928,12.644        c-60.044,37.656-114.053,84.546-160.537,139.377c-119.048,140.627-175.61,318.181-159.268,499.954        c16.211,180.322,102.417,343.279,242.739,458.855c190.557,157.017,453.999,199.553,687.515,111.008        c12.28-4.688,24.629-9.775,36.685-15.115c33.54-14.985,65.942-32.644,96.299-52.485c25.967-16.951,50.806-35.63,73.828-55.522        c27.563-23.694,53.53-49.873,77.183-77.808c8.677-10.359,16.167-19.722,22.891-28.616        c14.756-19.394,28.706-39.922,41.479-61.021c60.269-99.707,93.931-213.762,97.339-329.834l1.836,0.054l-1.836-0.054        c6.147-209.373-83.218-405.955-245.181-539.338c-93.657-77.18-206.602-128.21-326.616-147.578        c-22.749-3.735-46.44-6.36-70.425-7.805C1470.181,599.477,1456.411,599.074,1442.578,599.074z"/>
					</g>
				</g>
				<g style="opacity:0.3;">
					<g>
						<path style="fill:#371A45;" d="M991.428,1805.79c198.247,163.393,462.87,197.221,689.339,111.304        c12.371-4.703,24.625-9.747,36.759-15.134c33.299-14.861,65.606-32.408,96.57-52.611        c25.631-16.761,50.438-35.299,74.018-55.664c27.457-23.585,53.322-49.583,77.414-78.019        c7.896-9.496,15.61-19.019,22.954-28.685c15.091-19.854,28.881-40.294,41.558-61.206        c62.034-102.627,94.282-216.595,97.615-330.742c1.853-62.689-5.007-125.421-20.412-186.223        c-5.708,108.852-37.78,217.072-96.957,314.985c-12.63,20.951-26.468,41.352-41.559,61.206        c-7.3,9.662-15.014,19.186-22.954,28.686c-24.092,28.436-49.957,54.433-77.369,78.016        c-23.624,20.369-48.387,38.902-74.018,55.664c-30.963,20.203-63.315,37.755-96.569,52.612        c-12.179,5.389-24.432,10.434-36.803,15.137c-226.469,85.917-491.048,52.085-689.339-111.304        c-115.701-95.282-191.391-220.368-225.393-354.689C735.334,1455.628,819.006,1663.8,991.428,1805.79z"/>
					</g>
				</g>
				<g>
					<g>
						<path style="fill:#371A45;" d="M1431.753,1976.879c-162.056,0-321.646-54.973-449.307-160.166        c-143.643-118.311-231.894-285.137-248.491-469.746c-16.728-186.06,41.157-367.786,162.983-511.702        c47.559-56.091,102.808-104.058,164.224-142.576c6.636-4.253,13.701-8.523,21.484-12.979        c19.136-11.13,39.033-21.489,59.063-30.737c46.04-21.238,94.609-37.61,144.375-48.66        c49.268-10.996,99.844-16.775,150.298-17.18c16.206-0.139,32.427,0.268,48.164,1.206c24.536,1.477,48.774,4.165,72.056,7.988        c122.768,19.812,238.345,72.034,334.185,151.011c165.801,136.543,257.285,337.788,250.991,552.129l0,0        c-3.496,118.818-37.949,235.569-99.639,337.625c-13.066,21.587-27.339,42.585-42.432,62.422        c-6.86,9.075-14.512,18.64-23.364,29.214c-24.248,28.633-50.811,55.413-79.004,79.653        c-23.54,20.334-48.955,39.446-75.513,56.787c-31.06,20.298-64.209,38.364-98.525,53.694        c-12.349,5.471-24.951,10.667-37.5,15.454C1603.335,1961.589,1517.193,1976.879,1431.753,1976.879z M1442.583,611.369        c-1.987,0-3.979,0.01-5.967,0.027c-48.472,0.386-97.051,5.94-144.395,16.504c-47.813,10.618-94.463,26.34-138.672,46.736        c-19.219,8.872-38.325,18.818-56.777,29.553c-7.456,4.268-14.126,8.298-20.479,12.368        c-59.072,37.048-112.124,83.11-157.793,136.978c-116.894,138.091-172.441,312.432-156.396,490.901        c15.913,177.019,100.547,336.997,238.311,450.464c187.163,154.224,445.938,195.986,675.337,109.004        c12.061-4.602,24.204-9.607,36.064-14.861c32.915-14.705,64.741-32.048,94.556-51.536c25.513-16.655,49.907-35,72.515-54.534        c27.095-23.293,52.603-49.006,75.84-76.448c8.496-10.151,15.864-19.358,22.466-28.088        c14.512-19.077,28.218-39.243,40.762-59.971c59.175-97.888,92.222-209.871,95.571-323.828        c6.035-205.544-81.699-398.535-240.708-529.485c-91.978-75.796-202.896-125.911-320.757-144.932        c-22.368-3.672-45.64-6.253-69.204-7.671C1469.693,611.767,1456.172,611.369,1442.583,611.369z M2127.652,1295.053h0.049        H2127.652z"/>
					</g>
				</g>
				<g>
					<g>
						<path style="fill:#371A45;" d="M1431.753,1980.732c-162.935,0-323.398-55.276-451.758-161.045        c-144.448-118.97-233.188-286.731-249.878-472.375c-16.821-187.095,41.382-369.827,163.882-514.536        c47.813-56.396,103.364-104.622,165.117-143.352c6.655-4.268,13.774-8.569,21.616-13.057        c19.214-11.179,39.224-21.594,59.36-30.891c46.289-21.355,95.122-37.815,145.151-48.926        c49.536-11.052,100.381-16.865,151.108-17.271c16.304-0.132,32.603,0.271,48.423,1.213c24.668,1.484,49.043,4.187,72.451,8.03        c123.433,19.919,239.643,72.429,336.011,151.843c166.729,137.305,258.721,339.673,252.393,555.215l0,0        c-3.511,119.482-38.159,236.882-100.195,339.507c-13.135,21.704-27.485,42.817-42.656,62.761        c-6.894,9.116-14.585,18.733-23.481,29.355c-24.39,28.804-51.099,55.73-79.448,80.1        c-23.657,20.442-49.209,39.658-75.913,57.092c-31.226,20.408-64.561,38.574-99.063,53.987        c-12.422,5.503-25.088,10.723-37.695,15.537C1604.263,1965.358,1517.656,1980.732,1431.753,1980.732z M1442.583,615.224        c-1.978,0-3.955,0.01-5.938,0.027c-48.198,0.383-96.509,5.906-143.584,16.411c-47.549,10.559-93.935,26.194-137.895,46.472        c-19.111,8.823-38.105,18.711-56.455,29.387c-7.422,4.25-14.038,8.247-20.337,12.283        c-58.769,36.858-111.518,82.659-156.929,136.223c-116.226,137.295-171.455,310.63-155.503,488.064        c15.82,175.984,99.961,335.027,236.924,447.835c186.104,153.347,443.413,194.868,671.519,108.374        c11.987-4.578,24.067-9.556,35.869-14.783c32.72-14.614,64.365-31.863,94.009-51.238        c25.366-16.56,49.624-34.802,72.104-54.224c26.948-23.167,52.31-48.735,75.415-76.023        c8.447-10.085,15.771-19.243,22.334-27.92c14.438-18.979,28.066-39.031,40.542-59.641        c58.828-97.322,91.685-208.652,95.015-321.946c6.001-204.346-81.226-396.209-239.307-526.397        c-91.45-75.361-201.733-125.19-318.921-144.102c-22.246-3.652-45.386-6.218-68.818-7.627        C1469.541,615.619,1456.094,615.224,1442.583,615.224z M2127.652,1295.053h0.049H2127.652z"/>
					</g>
				</g>
				<g>
					<g>
						<path style="fill:#371A45;" d="M2099.853,1468.067c-234.052,431.577-816.802,503.337-1062.851,87.443        c-167.397-282.95-14.864-665.466,271.833-808.996c208.662-104.463,457.93-116.643,708.079,157.648        c0,0,91.618,138.463,101.305,256.621c9.688,118.158-1.094,234.845-1.094,234.845L2099.853,1468.067z"/>
					</g>
				</g>
				<g>
					<g>
						<path style="fill:#220F2D;" d="M1037.021,1555.505c246.032,415.888,828.791,344.118,1062.844-87.423l3.486-14.689        c-361.997,271.241-878.643,237.585-1135.369-178.28C964.151,1371.399,985.377,1468.179,1037.021,1555.505z"/>
					</g>
				</g>
				<g>
					<g>
						<path style="fill:#371A45;" d="M1511.211,1918.202c-52.563,0-104.668-6.108-155.171-18.535        c-166.421-40.947-302.944-144.646-394.81-299.883c-84.346-142.556-102.915-315.808-52.29-487.842        c56.245-191.148,192.324-356.577,364.014-442.529c95.42-47.769,189.858-74.05,280.688-78.115l1.538-0.068l1.518,0.244        c122.959,19.844,238.672,72.129,334.634,151.204c166.006,136.714,257.603,338.208,251.299,552.815l0,0        c-3.496,118.967-37.993,235.862-99.761,338.044c-13.081,21.611-27.373,42.637-42.48,62.498        c-6.87,9.084-14.526,18.66-23.394,29.243c-24.277,28.674-50.874,55.486-79.102,79.753l-1.885,1.382        C1777.241,1879.877,1642.827,1918.202,1511.211,1918.202z M1553.448,621.315c-86.133,4.104-175.982,29.302-267.075,74.905        c-164.385,82.295-294.731,240.869-348.677,424.185c-48.247,163.97-30.727,328.794,49.336,464.114        c87.671,148.15,217.749,247.061,376.172,286.04c168.848,41.538,356.851,9.089,516.04-89.023        c26.699-23.037,51.875-48.457,74.824-75.564c8.491-10.137,15.85-19.333,22.441-28.052        c14.492-19.055,28.184-39.194,40.713-59.897c59.097-97.761,92.104-209.597,95.449-323.408        c6.025-205.278-81.597-398.018-240.396-528.799C1780.811,690.444,1670.586,640.497,1553.448,621.315z M2127.652,1295.053        h0.049H2127.652z"/>
					</g>
				</g>
				<g>
					<g>
						<path style="fill:#371A45;" d="M1515.186,1842.702c-203.74,0-380.776-102.28-487.066-281.938        c-74.604-126.101-91.016-279.39-46.216-431.626c49.81-169.263,170.298-315.749,322.31-391.851        c261.699-131.018,504.053-77.219,720.322,159.922l0.981,1.26c3.804,5.742,93.193,142.046,102.983,261.472        c9.648,117.693-0.991,235.459-1.104,236.636l-0.234,1.443l-17.588,73.77l-0.649,1.199        c-121.235,223.543-344.37,365.168-582.329,369.607C1522.788,1842.665,1518.97,1842.702,1515.186,1842.702z M1574.517,688.625        c-84.541,0-171.636,22.346-261.064,67.114c-146.982,73.586-263.525,215.354-311.753,379.226        c-43.164,146.682-27.476,294.17,44.185,415.291c104.37,176.423,279.448,275.466,480.327,271.706        c230.122-4.294,446.084-141.284,563.921-357.62l16.782-70.379c0.869-9.963,10.127-121.243,1.021-232.339        c-9.023-110.046-92.485-240.767-99.204-251.123C1873.745,762.734,1728.399,688.625,1574.517,688.625z M2099.854,1468.068        h0.049H2099.854z"/>
					</g>
				</g>
				<g>
					<g>
						<path style="fill:#FFFFFF;" d="M749.623,1667.328c53.882,123.308,173.006,194.696,266.091,159.416        s124.856-163.85,70.973-287.158c-0.323-0.779-0.703-1.589-1.07-2.355c-54.337-121.868-172.593-192.102-265.02-157.061        c-71.91,27.25-107.224,110.18-94.748,203.336C729.537,1610.931,737.372,1639.285,749.623,1667.328z"/>
					</g>
				</g>
				<g style="opacity:0.3;">
					<g>
						<path style="fill:#371A45;" d="M749.623,1667.328c53.882,123.308,173.006,194.696,266.091,159.416        s124.856-163.85,70.973-287.158c-0.323-0.779-0.703-1.589-1.07-2.355c-4.704,16.532-15.186,35.03-38.601,39.01        c-41.016,6.952-143.492-46.633-143.492-46.633s-77.202,22.872-177.675,53.899        C729.537,1610.931,737.372,1639.285,749.623,1667.328z"/>
					</g>
				</g>
				<g>
					<g>
						<path style="fill:#371A45;" d="M966.128,1853.605c-89.326,0.005-185.591-70.576-233.003-179.068l0,0        c-33.227-76.04-36.938-156.13-10.176-219.731c18.623-44.255,50.176-75.879,91.25-91.448        c101.777-38.572,231.387,37.253,288.96,169.011c33.227,76.042,36.938,156.133,10.176,219.734        c-18.623,44.255-50.176,75.879-91.25,91.448C1004.121,1850.358,985.279,1853.603,966.128,1853.605z M871.138,1389.072        c-15.171,0-30.029,2.559-44.185,7.925c-31.641,11.992-56.143,36.807-70.85,71.76c-22.617,53.765-18.887,125.308,9.98,191.377        l0,0c50.024,114.47,159.165,181.658,243.247,149.78c31.641-11.992,56.138-36.807,70.85-71.76        c22.617-53.765,18.887-125.308-9.98-191.379C1028.599,1451.577,946.109,1389.072,871.138,1389.072z"/>
					</g>
				</g>
				<g>
					<g>
						
							<ellipse transform="matrix(0.8737 -0.4864 0.4864 0.8737 -689.9186 632.364)" style="fill:#FFFFFF;" cx="873.097" cy="1645.1" rx="146.432" ry="193.71"/>
					</g>
					<g>
						<path style="fill:#371A45;" d="M910.337,1830.639c-46.836,0-95.518-24.4-134.033-67.307l0,0        c-70.679-78.726-84.927-195.808-31.763-260.996c22.109-27.117,52.583-41.895,88.13-42.737        c47.93-1.081,97.832,23.386,137.222,67.268c70.679,78.728,84.922,195.813,31.758,260.999        c-22.109,27.117-52.583,41.895-88.13,42.737C912.461,1830.627,911.402,1830.639,910.337,1830.639z M835.86,1463.373        c-1.035,0-2.065,0.012-3.096,0.037c-34.399,0.815-63.887,15.11-85.273,41.333c-52.021,63.796-37.827,178.657,31.646,256.045        l0,0c38.652,43.054,87.676,67.139,134.292,66.003c34.399-0.815,63.887-15.11,85.273-41.333        c52.026-63.794,37.832-178.655-31.641-256.047C929.263,1487.309,881.612,1463.373,835.86,1463.373z"/>
					</g>
				</g>
				<g style="opacity:0.3;">
					<g>
						<path style="fill:#371A45;" d="M1032.952,1665.31c-5.92-36.202-21.927-70.851-44.294-100.216        c6.453,83.724-47.806,142.491-126.987,133.624c-51.167-5.708-100.965-38.393-135.551-83.851        c0.372,5.283,1.06,10.711,1.947,16.203c15.12,92.179,95.625,174.574,179.827,184.019        C992.095,1824.535,1048.053,1757.441,1032.952,1665.31z"/>
					</g>
				</g>
				<g>
					<g>
						<path style="fill:#371A45;" d="M916.602,1846.427c-71.104,0-150.137-60.112-190.337-151.128c0-0.002,0-0.002,0-0.002        c-28.462-64.439-32.495-133.55-10.781-184.868c14.087-33.298,37.734-56.897,68.384-68.242        c79.17-29.285,182.593,35.342,230.62,144.075c28.462,64.438,32.495,133.545,10.786,184.866        c-14.087,33.301-37.734,56.902-68.384,68.247C943.99,1844.147,930.445,1846.427,916.602,1846.427z M759.165,1680.764        c40.493,91.672,123.579,147.693,185.234,124.875c21.113-7.813,37.622-24.595,47.744-48.525        c17.915-42.351,13.97-100.789-10.557-156.316c-40.498-91.68-123.608-147.683-185.229-124.875        c-21.113,7.813-37.622,24.592-47.749,48.523c-17.915,42.351-13.965,100.789,10.557,156.321V1680.764z"/>
					</g>
				</g>
				<g style="opacity:0.5;">
					<g>
						<path style="fill:#FFFFFF;" d="M1215.865,927.312c0,0,289.367-122.795,524.19-41.184c0.247,0.086,0.493,0.172,0.74,0.258        c49.407,17.219,93.101,47.381,126.723,86.975c44.463,52.361,67.288,94.939,85.911,133.198        c56.584,116.383,60.972,181.545,60.972,181.545c37.375-93.803,41.342-181.818-4.812-279.227        c-4.576-9.59-9.654-19.31-15.187-29.122c-1.267-2.265-2.574-4.482-3.925-6.696c0.041-0.047-0.007-0.086-0.1-0.122        c-12.627-19.083-30.183-43.535-52.332-69.464c-66.754-78.242-175.058-170.099-315.357-169.484        C1360.354,735.138,1200.214,919.837,1215.865,927.312z"/>
					</g>
				</g>
				<g style="opacity:0.5;">
					<g>
						
							<ellipse transform="matrix(0.9841 -0.1779 0.1779 0.9841 -212.3741 224.7403)" style="fill:#FFFFFF;" cx="1147.203" cy="1296.793" rx="92.495" ry="106.249"/>
					</g>
				</g>
				<g style="opacity:0.5;">
					<g>
						
							<ellipse transform="matrix(0.9963 -0.0857 0.0857 0.9963 -122.9944 106.8256)" style="fill:#FFFFFF;" cx="1183.157" cy="1486.454" rx="38.18" ry="43.89"/>
					</g>
				</g>
			</g>
		</g>
	</g>
</g>
</svg>