<svg xmlns="http://www.w3.org/2000/svg" xmlns:xlink="http://www.w3.org/1999/xlink" version="1.1" id="Layer_1" x="0px" y="0px" viewBox="0 0 4000 4000" style="enable-background:new 0 0 4000 4000;" xml:space="preserve">
<g>
	
	<g>
		<g>
			<path style="fill:#FFFFFF;" d="M2946.446,1564.083c-1.06,4.793-11.81,6.801-26.995,5.857     c-7.667-0.476-14.793,4.069-17.593,11.222c-5.546,14.167-11.899,23.069-16.692,22.009c-4.793-1.06-6.801-11.81-5.857-26.994     c0.477-7.667-4.07-14.794-11.223-17.594c-14.178-5.549-23.104-11.907-22.044-16.701c1.066-4.82,11.833-6.829,27.015-5.87     c7.675,0.485,14.813-4.062,17.615-11.224c5.55-14.183,11.902-23.083,16.695-22.023s6.801,11.809,5.854,27.01     c-0.478,7.675,4.076,14.807,11.24,17.603C2938.619,1552.907,2947.511,1559.263,2946.446,1564.083z"/>
		</g>
		<g>
			
				<ellipse transform="matrix(0.9785 -0.2062 0.2062 0.9785 -220.491 221.9899)" style="fill:#FFFFFF;" cx="954.985" cy="1169.033" rx="23.975" ry="23.975"/>
		</g>
		<g>
			
				<ellipse transform="matrix(0.6185 -0.7858 0.7858 0.6185 -308.6776 931.8336)" style="fill:#FFFFFF;" cx="805.373" cy="783.829" rx="23.975" ry="23.975"/>
		</g>
		<g>
			
				<ellipse transform="matrix(0.5945 -0.8041 0.8041 0.5945 252.3381 3005.7126)" style="fill:#FFFFFF;" cx="3106.165" cy="1252.677" rx="23.975" ry="23.975"/>
		</g>
		<g>
			
				<ellipse transform="matrix(0.6242 -0.7813 0.7813 0.6242 533.1343 2421.9597)" style="fill:#FFFFFF;" cx="2784.08" cy="656.812" rx="23.975" ry="23.975"/>
		</g>
		<g>
			
				<ellipse transform="matrix(0.6707 -0.7417 0.7417 0.6707 -784.3426 1325.2577)" style="fill:#FFFFFF;" cx="1100.404" cy="1545.997" rx="12.33" ry="12.33"/>
		</g>
		<g>
			
				<ellipse transform="matrix(0.6707 -0.7417 0.7417 0.6707 -596.8183 1561.5831)" style="fill:#FFFFFF;" cx="1460.329" cy="1452.96" rx="12.33" ry="12.33"/>
		</g>
		<g>
			<path style="fill:#FFFFFF;" d="M3220.048,1767.748c0.342,6.801-4.894,12.591-11.695,12.933     c-6.801,0.342-12.591-4.894-12.933-11.695c-0.342-6.801,4.894-12.591,11.696-12.933     C3213.916,1755.711,3219.706,1760.947,3220.048,1767.748z"/>
		</g>
		<g>
			<path style="fill:#FFFFFF;" d="M1024.565,2115.874c0.342,6.801-4.894,12.591-11.695,12.933     c-6.801,0.342-12.591-4.894-12.933-11.695c-0.342-6.801,4.894-12.592,11.695-12.933     C1018.433,2103.836,1024.224,2109.073,1024.565,2115.874z"/>
		</g>
		<g>
			<path style="fill:#FFFFFF;" d="M805.373,1726.926c0,5.004-10.258,9.368-25.58,11.771c-7.736,1.213-13.828,7.306-15.042,15.042     c-2.403,15.322-6.767,25.58-11.771,25.58c-5.004,0-9.368-10.258-11.771-25.579c-1.213-7.737-7.307-13.83-15.043-15.042     c-15.334-2.403-25.617-6.767-25.617-11.771c0-5.032,10.275-9.402,25.597-11.788c7.746-1.206,13.85-7.303,15.063-15.048     c2.403-15.339,6.767-25.595,11.77-25.595c5.004,0,9.368,10.257,11.771,25.596c1.213,7.744,7.316,13.841,15.062,15.048     C795.123,1717.525,805.373,1721.894,805.373,1726.926z"/>
		</g>
		<g>
			<path style="fill:#FFFFFF;" d="M1214.581,731.436c0,5.004-10.258,9.368-25.58,11.771c-7.736,1.213-13.829,7.306-15.042,15.042     c-2.403,15.322-6.767,25.58-11.771,25.58s-9.368-10.258-11.771-25.579c-1.213-7.737-7.307-13.83-15.043-15.042     c-15.334-2.403-25.617-6.767-25.617-11.771c0-5.032,10.275-9.402,25.597-11.788c7.746-1.206,13.85-7.303,15.063-15.048     c2.403-15.339,6.767-25.595,11.77-25.595c5.004,0,9.368,10.257,11.771,25.596c1.213,7.744,7.316,13.841,15.062,15.048     C1204.332,722.035,1214.581,726.404,1214.581,731.436z"/>
		</g>
		<g>
			<path style="fill:#FFFFFF;" d="M2986.1,968.596c0,5.004-10.258,9.368-25.58,11.771c-7.736,1.213-13.829,7.306-15.042,15.042     c-2.403,15.322-6.767,25.58-11.771,25.58c-5.004,0-9.368-10.258-11.771-25.58c-1.213-7.736-7.307-13.83-15.043-15.042     c-15.334-2.403-25.617-6.767-25.617-11.771c0-5.032,10.275-9.402,25.597-11.788c7.746-1.206,13.85-7.303,15.063-15.048     c2.403-15.339,6.767-25.595,11.771-25.595c5.003,0,9.368,10.257,11.771,25.596c1.213,7.744,7.316,13.841,15.062,15.048     C2975.85,959.195,2986.1,963.565,2986.1,968.596z"/>
		</g>
		<g>
			<g>
				<g>
					<g>
						<g>
							<path style="fill:#FC3C53;" d="M3058.186,2631.403c0,0-11.081-183.58,64.009-224.985         c46.84-25.814,197.993-1.214,262.286,6.007c51.427,5.763,47.976-24.8,47.976-24.8s-116.125-142.143-267.607-196.248         l-0.037-0.041c-64.78-23.136-136.014-30.194-207.41-3.166c-72.821,27.519-119.007,85.805-148.313,146.405         c-45.297,93.72-50.087,193.082-50.087,193.082L3058.186,2631.403z"/>
						</g>
						<g>
							<path style="fill:#DB123D;" d="M3058.186,2631.403c0,0-11.081-183.58,64.009-224.985         c46.84-25.814,197.993-1.214,262.286,6.007c51.427,5.763,47.976-24.8,47.976-24.8s-116.125-142.143-267.607-196.248         c2.439,2.354,92.425,89.296,62.592,142.995c-15.57,28.043-79.733,11.158-136.667,32.881         c-56.959,21.735-119.393,24.52-176.895,4.258l-104.789-36.936c-45.297,93.72-50.087,193.082-50.087,193.082         L3058.186,2631.403z"/>
						</g>
						<g>
							<path style="fill:#371B45;" d="M3058.178,2651.689c-2.227,0-4.473-0.366-6.641-1.118l-299.204-103.745         c-8.506-2.949-14.053-11.157-13.618-20.156c0.557-11.538,15.898-283.447,211.504-357.485         c103.945-39.341,223.467-15.771,345.591,68.159c90.322,62.075,149.873,134.404,152.368,137.451         c2.466,3.018,4.009,6.685,4.448,10.557c0.352,3.125,1.436,19.409-12.09,32.949c-12.417,12.427-32.046,17.261-58.311,14.282         c-9.463-1.064-20.786-2.495-33.374-4.092c-63.833-8.101-182.646-23.169-216.875-4.292         c-52.261,28.818-56.362,158.462-53.53,205.981c0.4,6.768-2.603,13.296-8.003,17.388         C3066.865,2650.278,3062.548,2651.689,3058.178,2651.689z M2780.58,2513.662l256.572,88.96         c0.088-57.769,8.643-177.251,75.225-213.97c42.3-23.32,138.413-13.506,241.582-0.43c12.373,1.567,23.501,2.983,32.798,4.028         c12.075,1.343,18.657,0.151,21.978-1.011c-42.397-47.549-245.811-259.17-444.15-184.097         C2818.129,2262.578,2786.645,2457.847,2780.58,2513.662z"/>
						</g>
						<g style="opacity:0.7;">
							<g>
								<g>
									<path style="fill:#FFFFFF;" d="M2886.507,2283.292c0,0,67.804-78.312,187.184-63.031           C3073.691,2220.261,2986.307,2271.834,2886.507,2283.292"/>
								</g>
							</g>
						</g>
						<g>
							<path style="fill:#FC3C53;" d="M3058.186,2987.995c0,0-11.081,183.584,64.009,224.989         c46.84,25.811,197.993,1.214,262.286-6.011c51.427-5.763,47.976,24.804,47.976,24.804s-116.125,142.138-267.607,196.244         l-0.037,0.041c-64.78,23.136-136.014,30.198-207.41,3.166c-72.821-27.519-119.007-85.801-148.313-146.4         c-45.297-93.724-50.087-193.082-50.087-193.082L3058.186,2987.995z"/>
						</g>
						<g>
							<path style="fill:#DB123D;" d="M3058.186,2987.995c0,0-11.081,183.584,64.009,224.989         c46.84,25.811,197.993,1.214,262.286-6.011c51.427-5.763,47.976,24.804,47.976,24.804s-116.125,142.138-267.607,196.244         c2.439-2.354,92.425-89.296,62.592-142.991c-15.57-28.047-79.733-11.158-136.667-32.881         c-56.959-21.736-119.393-24.524-176.895-4.258l-104.789,36.936c-45.297-93.724-50.087-193.082-50.087-193.082         L3058.186,2987.995z"/>
						</g>
						<g>
							<path style="fill:#371B45;" d="M3052.582,3468.75c-35.4,0-69.644-6.147-102.363-18.535         c-195.605-74.033-210.947-345.942-211.504-357.48c-0.435-8.999,5.112-17.207,13.618-20.156l299.204-103.75         c6.421-2.227,13.506-1.089,18.901,3.003c5.405,4.092,8.408,10.62,8.008,17.388c-2.832,47.52,1.27,177.163,53.53,205.981         c34.224,18.882,153.018,3.813,216.836-4.282c12.603-1.597,23.94-3.032,33.413-4.097c26.25-2.969,45.884,1.841,58.306,14.272         c13.53,13.54,12.446,29.829,12.095,32.959c-0.439,3.872-1.982,7.539-4.448,10.557         c-2.495,3.047-62.046,75.376-152.368,137.451C3212.123,3439.575,3129.648,3468.75,3052.582,3468.75z M2780.58,3105.742         c6.064,55.811,37.549,251.079,184.004,306.514c198.364,75.073,401.758-136.548,444.155-184.097         c-3.32-1.167-9.912-2.368-21.978-1.006c-9.312,1.05-20.454,2.461-32.842,4.033c-103.169,13.076-199.248,22.886-241.543-0.439         c-66.582-36.719-75.137-156.201-75.225-213.97L2780.58,3105.742z M2758.984,3091.753h0.049H2758.984z"/>
						</g>
						<g>
							<path style="fill:#FC3C53;" d="M2976.374,3144.247l103.023-22.011c46.604-9.957,83.979-44.701,97.308-90.457         c39.692-136.257,41.34-280.782,4.769-417.908c-12.282-46.052-48.857-81.637-95.226-92.656l-102.491-24.354L2976.374,3144.247         z"/>
						</g>
						<g style="opacity:0.3;">
							<g>
								<g>
									<path style="fill:#FFFFFF;" d="M3207.656,2802.74c0.118,7.968,0.101,15.935-0.045,23.911           c-2.577-55.226-11.052-110.228-25.409-164.085c-6.157-23.026-18.346-43.45-34.833-59.5           c-16.483-16.004-37.216-27.674-60.417-33.186l-102.471-24.329l0.325-23.858l-1.043-24.832l102.467,24.378           c23.201,5.508,43.934,17.133,60.421,33.182c16.483,16.004,28.676,36.433,34.829,59.459           C3197.983,2675.807,3206.718,2739.215,3207.656,2802.74"/>
								</g>
							</g>
						</g>
						<g>
							<path style="fill:#DB123D;" d="M3207.656,2802.74c1.14,77.079-9.21,154.291-30.953,229.028         c-13.325,45.768-50.724,80.492-97.292,90.473l-103.019,21.999l3.836-338.796c11.905,22.105,38.263,50.513,95.23,49.669         c92.843-1.376,130.526-90.964,130.526-90.964c0.045-0.089,0.041-0.223,0.081-0.308         C3206.962,2776.772,3207.465,2789.752,3207.656,2802.74"/>
						</g>
						<g>
							<path style="fill:#FFFFFF;" d="M3038.121,2802.923c0.893,110-17.66,220.033-55.692,324.875         c-1.944,5.484-3.974,10.959-6.088,16.398c0,0-196.569,163.131-584.807,231.077c-148.84,26.094-325.844,38.149-530.742,21.711         c-315.86-25.368-557.247-112.107-736.484-212.155c-218.044-121.726-344.235-263.138-400.776-337.904         c-23.424-30.929-23.014-73.795,1.096-104.196c66.282-83.573,224.94-251.733,505.901-375.854         c76.551-33.811,162.153-64.33,257.456-89.008c60.559-15.708,125.051-29.025,193.609-39.294         c49.397-7.424,100.9-13.273,154.563-17.206c12.583-1.015,25.328-1.827,38.113-2.602         c205.376-11.73,382.186,4.424,530.413,33.896c15.469,3.044,30.645,6.287,45.5,9.62         c57.884,13.07,111.055,28.088,159.515,44.116c35.677,11.734,68.843,24.073,99.402,36.53         c25.778,10.472,49.685,21.029,71.847,31.501c135.283,63.843,202.819,122.457,202.819,122.457         c14.206,39.854,25.693,80.362,34.338,121.442c0.325,1.62,0.69,3.243,1.015,4.871         C3031.262,2682.54,3037.634,2742.689,3038.121,2802.923"/>
						</g>
						<g>
							<path style="fill:#CAD6EA;" d="M2609.701,2306.397c-82.838,78.134-297.396,133.785-549.007,133.785         c-281.318,0-516.333-69.574-572.707-162.315c60.559-15.708,125.051-29.025,193.606-39.294         c49.401-7.424,100.904-13.269,154.563-17.206c12.587-1.015,25.332-1.826,38.117-2.602         c205.376-11.726,382.186,4.424,530.413,33.896c15.468,3.044,30.645,6.291,45.5,9.62         C2508.07,2275.351,2561.242,2290.369,2609.701,2306.397"/>
						</g>
						<g>
							<path style="fill:#CAD6EA;" d="M3038.121,2802.923c0.893,110-17.66,220.033-55.692,324.875         c-1.944,5.484-3.974,10.959-6.088,16.398c0,0-196.569,163.131-584.807,231.077c-148.84,26.094-325.844,38.149-530.742,21.711         c-315.86-25.368-557.247-112.107-736.484-212.155l140.357-288.182c0,0,105.491,117.83,230.136,117.83         c107.374,0,194.762-36.205,232.741-209.2l657.01,4.424c0,0,20.315,204.775,195.367,204.775         c193.601,0,186.295-208.916,186.295-208.916L3038.121,2802.923z"/>
						</g>
						<g>
							<path style="fill:#FC3C53;" d="M1316.632,2331.872c-27.966,123.918-45.297,249.623-51.954,375.814         c-9.985,188.333,3.734,377.64,41.238,563.457c-332.059-133.006-511.665-330.715-582.412-424.155         c-23.42-30.969-22.933-73.872,1.177-104.314c1.826-2.31,3.734-4.708,5.723-7.144         C806.915,2641.161,990.053,2454.086,1316.632,2331.872"/>
						</g>
						<g>
							<path style="fill:#DB123D;" d="M1264.679,2896.65c-203.594,62.345-413.805,13.277-534.273-27.84         c76.51,94.369,259.648,281.44,586.227,403.658C1288.667,3148.55,1271.335,3022.845,1264.679,2896.65"/>
						</g>
						<g>
							<path style="fill:#371B45;" d="M1305.898,3291.436c-2.539,0-5.103-0.474-7.539-1.455         c-327.524-131.177-508.813-323.477-587.725-426.431c-31.357-40.903-30.713-97.544,1.567-137.734         c81.235-101.143,266.86-289.292,597.3-412.974c6.992-2.612,14.834-1.191,20.454,3.716c5.62,4.897,8.096,12.485,6.455,19.761         c-69.507,308.105-73.076,621.274-10.615,930.811c1.475,7.31-1.177,14.834-6.904,19.609         C1315.18,3289.824,1310.571,3291.436,1305.898,3291.436z M1288.783,2364.395         c-299.517,120.054-469.204,292.549-544.936,386.841c-20.537,25.566-20.947,61.602-0.996,87.622         c73.564,95.977,239.272,272.271,535.972,399.111C1225.087,2947.314,1228.437,2653.813,1288.783,2364.395z"/>
						</g>
						<g>
							<path style="fill:#371B45;" d="M2043.281,3424.663c-58.565,0-119.907-2.329-184.048-7.48         c-202.148-16.24-390.859-59.014-560.884-127.139c-6.738-2.7-11.396-8.721-12.495-15.659         c-63.433-314.932-59.746-633.56,10.972-947.002c1.504-6.675,6.27-12.139,12.681-14.536         c171.523-64.229,361.157-102.686,563.633-114.302c386.221-22.202,670.62,55.474,841.172,124.526         c185.82,75.234,278.911,155.093,282.778,158.457c2.632,2.285,4.629,5.205,5.801,8.486         c38.145,106.616,56.831,218.11,55.537,331.382c-1.294,113.257-22.52,224.316-63.081,330.093         c-1.25,3.252-3.311,6.133-5.996,8.354c-3.945,3.276-98.833,81.006-286.318,151.997         C2559.565,3366.157,2336.83,3424.663,2043.281,3424.663z M1323.661,3256.421c163.574,64.248,344.79,104.717,538.823,120.303         c378.135,30.381,657.974-39.16,826.172-102.842c160.181-60.649,251.162-126.992,270.757-142.104         c37.554-99.717,57.207-204.263,58.428-310.845c1.216-106.587-16.045-211.528-51.309-312.012         c-19.38-15.61-109.971-84.736-269.473-149.043c-166.396-67.08-444.004-142.48-821.597-120.815         c-194.351,11.157-376.441,47.476-541.441,107.983C1267.616,2648.125,1264.13,2953.95,1323.661,3256.421z M2976.396,3144.224         h0.049H2976.396z"/>
						</g>
						<g>
							<path style="fill:#371B45;" d="M2976.352,3164.546c-9.37,0-17.793-6.523-19.829-16.06         c-2.339-10.957,4.648-21.743,15.61-24.087l103.027-22.012c39.355-8.408,70.801-37.637,82.061-76.289         c38.657-132.705,40.264-273.442,4.644-406.997c-10.371-38.896-41.143-68.838-80.308-78.14l-102.49-24.355         c-10.903-2.593-17.642-13.535-15.054-24.438s13.521-17.661,24.438-15.054l102.49,24.355         c53.711,12.764,95.918,53.828,110.142,107.173c37.529,140.708,35.835,288.989-4.897,428.809         c-15.439,53.008-58.564,93.101-112.549,104.634l-103.027,22.012C2979.184,3164.399,2977.758,3164.546,2976.352,3164.546z"/>
						</g>
						<g>
							<path style="fill:#BAD7E8;" d="M2148.017,2489.519c129.56,37.792,227.542,153.593,235.944,296.02         c9.011,151.722-86.495,285.54-224.214,331.202l-0.041,0.041c-26.626,8.853-54.876,14.369-84.222,16.118         c-181.108,10.752-336.645-127.368-347.361-308.477c-10.756-181.149,127.368-336.649,308.476-347.406         C2075.281,2474.745,2112.826,2479.254,2148.017,2489.519"/>
						</g>
						<g style="opacity:0.7;">
							<g>
								<g>
									<path style="fill:#FFFFFF;" d="M2378.99,2759.892c-43.309-148.43-184.595-252.748-345.494-243.165           c-146.891,8.682-266.3,109.631-305.351,243.165c20.867-152.209,146.774-273.444,305.96-282.861           C2206.608,2466.799,2355.858,2591.569,2378.99,2759.892"/>
								</g>
							</g>
						</g>
						<g>
							<path style="fill:#95B5C4;" d="M2372.069,2896.273c-37.792,129.56-153.589,227.546-296.016,235.944         c-151.721,9.015-285.543-86.495-331.206-224.209c0,0,89.62,61.975,80.204-84.267h453.663         c-9.417,146.242,80.244,84.267,80.244,84.267L2372.069,2896.273z"/>
						</g>
						<g>
							<path style="fill:#371B45;" d="M2055.829,3153.779c-182.988,0.005-337.012-143.169-347.978-328.174         c-5.513-93.008,25.522-182.593,87.388-252.256c61.87-69.668,147.158-111.069,240.166-116.582         c191.953-11.362,357.456,135.566,368.833,327.554c5.518,93.008-25.518,182.593-87.383,252.256         c-61.87,69.663-147.163,111.064-240.171,116.582C2069.701,3153.574,2062.734,3153.779,2055.829,3153.779z M2056.235,2496.738         c-6.113,0-12.246,0.181-18.428,0.547c-82.183,4.873-157.549,41.455-212.217,103.018         c-54.668,61.558-82.095,140.718-77.222,222.9c9.692,163.467,145.806,289.976,307.485,289.985         c6.113,0,12.246-0.181,18.428-0.547c82.188-4.873,157.554-41.46,212.222-103.018c54.668-61.553,82.09-140.718,77.217-222.9         l0,0C2354.028,2623.257,2217.914,2496.738,2056.235,2496.738z"/>
						</g>
						<g>
							<path style="fill:#09CBFF;" d="M2280.756,2795.404c-7.477-126.114-115.772-222.294-241.89-214.817         c-126.118,7.477-222.294,115.776-214.818,241.89c7.477,126.114,115.772,222.294,241.89,214.817         C2192.053,3029.817,2288.232,2921.518,2280.756,2795.404"/>
						</g>
						<g>
							<path style="fill:#371B45;" d="M2052.099,2998.569c-46.401,0.005-90.63-16.758-125.62-47.837         c-37.871-33.633-60.371-80.015-63.359-130.596c-3.013-50.552,13.853-99.258,47.48-137.129         c33.633-37.871,80-60.371,130.566-63.364c50.562-3.003,99.292,13.857,137.168,47.505         c37.871,33.638,60.376,80.02,63.364,130.586l0,0c2.993,50.562-13.882,99.263-47.52,137.129         c-33.633,37.876-80.005,60.376-130.566,63.364C2059.765,2998.457,2055.922,2998.569,2052.099,2998.569z M2052.626,2659.893         c-3.008,0-6.025,0.088-9.058,0.269c-39.746,2.354-76.187,20.034-102.617,49.8c-26.431,29.761-39.683,68.037-37.315,107.773         c2.349,39.766,20.034,76.216,49.795,102.651c29.761,26.44,68.027,39.692,107.778,37.324         c39.746-2.349,76.187-20.034,102.622-49.8c26.436-29.761,39.697-68.042,37.349-107.783l0,0         c-2.349-39.741-20.034-76.191-49.8-102.632C2123.881,2673.071,2089.106,2659.893,2052.626,2659.893z"/>
						</g>
						<g>
							<path style="fill:#371B45;" d="M2052.24,3057.998c-130.654,0-240.62-102.222-248.452-234.321         c-3.936-66.406,18.223-130.371,62.397-180.112s105.073-79.302,171.479-83.237c137.007-8.242,255.22,96.792,263.35,233.877         c3.936,66.406-18.223,130.371-62.397,180.112s-105.073,79.302-171.479,83.237         C2062.153,3057.852,2057.172,3057.998,2052.24,3057.998z M2052.533,2600.474c-4.131,0-8.286,0.122-12.466,0.371         c-55.586,3.296-106.558,28.037-143.535,69.673c-36.973,41.636-55.522,95.176-52.227,150.757         c6.802,114.736,105.635,202.627,220.43,195.762c55.586-3.296,106.558-28.037,143.535-69.673         c36.973-41.636,55.522-95.176,52.227-150.757C2253.945,2686.045,2161.889,2600.474,2052.533,2600.474z"/>
						</g>
						<g>
							<path style="fill:#95B5C4;" d="M2038.873,2580.603c-126.11,7.468-222.306,115.756-214.838,241.87         c7.468,126.11,115.8,222.306,241.91,214.833c126.11-7.505,222.265-115.796,214.797-241.906         C2273.278,2669.29,2164.982,2573.094,2038.873,2580.603 M2221.442,2798.931c5.52,93.355-65.673,173.518-159.028,179.038         c-93.355,5.557-173.518-65.636-179.038-159.028c-5.561-93.355,65.632-173.518,158.987-179.038         C2135.762,2634.343,2215.926,2705.577,2221.442,2798.931"/>
						</g>
						<g>
							<path style="fill:#371B45;" d="M2052.089,3052.935c-59.727,0.005-116.655-21.572-161.699-61.572         c-48.735-43.276-77.7-102.939-81.553-167.993c-7.949-134.287,94.839-250.01,229.136-257.959         c64.966-3.833,127.705,17.827,176.436,61.104c48.721,43.276,77.676,102.935,81.528,167.988         c7.954,134.268-94.814,250.005-229.087,257.998C2061.918,3052.793,2056.991,3052.935,2052.089,3052.935z M2052.748,2595.415         c-4.312,0-8.633,0.127-12.974,0.386c0,0,0,0-0.005,0c-117.539,6.958-207.5,108.237-200.542,225.771         c3.369,56.934,28.721,109.15,71.377,147.031c42.656,37.881,97.515,56.904,154.443,53.506         c117.515-6.992,207.461-108.291,200.498-225.811c-3.369-56.934-28.711-109.15-71.353-147.021         C2154.799,2614.287,2104.99,2595.415,2052.748,2595.415z M2038.871,2580.605h0.049H2038.871z M2052.109,2993.496         c-45.161,0.005-88.208-16.309-122.261-46.553c-36.855-32.739-58.755-77.876-61.665-127.104         c-2.93-49.204,13.481-96.602,46.211-133.462c32.734-36.855,77.861-58.76,127.07-61.67         c49.243-2.959,96.631,13.491,133.501,46.235c36.86,32.739,58.76,77.876,61.67,127.09l0,0         c2.91,49.209-13.516,96.606-46.25,133.462c-32.734,36.86-77.861,58.76-127.07,61.67         C2059.57,2993.384,2055.829,2993.496,2052.109,2993.496z M2052.636,2654.819c-3.115,0-6.235,0.093-9.37,0.278         c-41.099,2.432-78.779,20.718-106.108,51.494s-41.035,70.356-38.584,111.445c2.427,41.113,20.713,78.809,51.489,106.143         c30.776,27.339,70.386,41.001,111.45,38.594c41.094-2.427,78.779-20.713,106.113-51.494         c27.334-30.776,41.05-70.356,38.618-111.45l0,0c-2.427-41.099-20.713-78.789-51.494-106.128         C2126.313,2668.442,2090.356,2654.819,2052.636,2654.819z"/>
						</g>
						<g>
							<path style="fill:#FC3C53;" d="M3099.362,2701.914c183.994,0,333.146,103.648,333.146,103.648         s-149.152,103.648-333.146,103.648c-183.994,0-333.151-103.648-333.151-103.648S2915.367,2701.914,3099.362,2701.914"/>
						</g>
						<g>
							<path style="fill:#FC3C53;" d="M3099.362,2701.914c183.994,0,333.146,103.648,333.146,103.648         s-149.152,103.648-333.146,103.648c-183.994,0-333.151-103.648-333.151-103.648S2915.367,2701.914,3099.362,2701.914"/>
						</g>
						<g style="opacity:0.7;">
							<g>
								<g>
									<path style="fill:#FFFFFF;" d="M2936.621,2727.132l5.642,9.011c0,0-85.399,35.552-108.819,59.219           c122.904,3.243,272.722,10.184,272.722,10.184s-149.777,6.941-272.681,10.233c23.461,23.663,108.779,59.219,108.779,59.219           l-5.682,9.007c-70.95-21.431-125.785-51.138-152.493-67.171c-11.568-6.941-17.859-11.288-17.859-11.288           s6.251-4.339,17.778-11.239C2810.673,2778.311,2865.59,2748.559,2936.621,2727.132"/>
								</g>
							</g>
						</g>
						<g>
							<path style="fill:#DB123D;" d="M3099.342,2701.926c184.031,0,333.154,103.62,333.154,103.62         s-149.124,103.664-333.154,103.664c-31.01,0-61.046-2.918-89.499-7.829c140.519-24.191,285.418-53.245,285.418-95.835         c0-42.586-144.899-71.636-285.418-95.786C3038.296,2704.848,3068.332,2701.926,3099.342,2701.926"/>
						</g>
						<g>
							<path style="fill:#371B45;" d="M3099.36,2929.502c-188.188,0-338.428-102.896-344.731-107.275         c-5.459-3.794-8.711-10.02-8.711-16.665s3.252-12.871,8.711-16.665c6.304-4.38,156.543-107.275,344.731-107.275         s338.428,102.896,344.731,107.275c5.459,3.794,8.711,10.02,8.711,16.665s-3.252,12.871-8.711,16.665         C3437.787,2826.606,3287.548,2929.502,3099.36,2929.502z M2805.102,2805.562c50.171,28.457,163.867,83.354,294.258,83.354         c130.381,0,244.077-54.893,294.258-83.354c-50.171-28.457-163.867-83.354-294.258-83.354         C2968.979,2722.207,2855.282,2777.1,2805.102,2805.562z"/>
						</g>
						<g style="opacity:0.7;">
							<g>
								<g>
									<path style="fill:#FFFFFF;" d="M2886.507,3336.109c0,0,67.804,78.313,187.184,63.031           C3073.691,3399.14,2986.307,3347.568,2886.507,3336.109"/>
								</g>
							</g>
						</g>
						<g style="opacity:0.7;">
							<g>
								<g>
									<path style="fill:#FFFFFF;" d="M2052.407,2933.989c-9.437,13.252-69.76,0.722-107.208-45.484           c-38.799-47.871-30.06-113.008-13.252-112.095c23.099,1.25,16.475,37.378,55.514,86.666           C2011.396,2893.302,2061.844,2920.737,2052.407,2933.989"/>
								</g>
							</g>
						</g>
						<g style="opacity:0.7;">
							<g>
								<g>
									<path style="fill:#FFFFFF;" d="M2122.344,2925.098c-18.716,18.151-47.075,21.423-52.648,5.541           c-6.49-18.492,16.974-33.498,32.118-47.546C2128.026,2858.78,2154.173,2894.234,2122.344,2925.098"/>
								</g>
							</g>
						</g>
						<g>
							<path style="fill:#371B45;" d="M1727.533,2825.581H1262.07c-11.206,0-20.293-9.087-20.293-20.293s9.087-20.293,20.293-20.293         h465.464c11.206,0,20.293,9.087,20.293,20.293S1738.74,2825.581,1727.533,2825.581z"/>
						</g>
						<g>
							<path style="fill:#371B45;" d="M2766.21,2825.581h-381.646c-11.206,0-20.293-9.087-20.293-20.293s9.087-20.293,20.293-20.293         h381.646c11.206,0,20.293,9.087,20.293,20.293S2777.416,2825.581,2766.21,2825.581z"/>
						</g>
						<g>
							<path style="fill:#371B45;" d="M1328.545,2730.326c7.976,0,14.446,6.47,14.446,14.45c0,7.972-6.47,14.441-14.446,14.441         c-7.98,0-14.446-6.47-14.446-14.441C1314.099,2736.796,1320.565,2730.326,1328.545,2730.326"/>
						</g>
						<g>
							<path style="fill:#371B45;" d="M1511.911,2730.326c7.976,0,14.446,6.47,14.446,14.45c0,7.972-6.47,14.441-14.446,14.441         c-7.976,0-14.446-6.47-14.446-14.441C1497.465,2736.796,1503.935,2730.326,1511.911,2730.326"/>
						</g>
						<g>
							<path style="fill:#371B45;" d="M1695.277,2730.326c7.98,0,14.446,6.47,14.446,14.45c0,7.972-6.466,14.441-14.446,14.441         c-7.976,0-14.446-6.47-14.446-14.441C1680.832,2736.796,1687.301,2730.326,1695.277,2730.326"/>
						</g>
						<g>
							<path style="fill:#371B45;" d="M2491.636,2730.326c7.979,0,14.446,6.47,14.446,14.45c0,7.972-6.466,14.441-14.446,14.441         c-7.98,0-14.446-6.47-14.446-14.441C2477.19,2736.796,2483.656,2730.326,2491.636,2730.326"/>
						</g>
						<g>
							<path style="fill:#371B45;" d="M2675.004,2730.326c7.976,0,14.445,6.47,14.445,14.45c0,7.972-6.47,14.441-14.445,14.441         c-7.98,0-14.446-6.47-14.446-14.441C2660.559,2736.796,2667.024,2730.326,2675.004,2730.326"/>
						</g>
						<g style="opacity:0.7;">
							<g>
								<g>
									<path style="fill:#FFFFFF;" d="M818.814,2715.311c46.142-79.4,250.012-224.258,315.47-175.969           C1196.548,2585.272,772.672,2794.716,818.814,2715.311"/>
								</g>
							</g>
						</g>
						<g>
							<path style="fill:#FFFFFF;" d="M2336.942,2308.458h-562.876c-82.806,0-151.864-61.565-159.677-142.041         c-18.582-191.491-18.586-383.095,0-574.586c7.813-80.476,76.872-142.041,159.677-142.041h562.876         c82.805,0,151.868,61.565,159.677,142.045c18.586,191.487,18.582,383.091,0,574.578         C2488.806,2246.893,2419.743,2308.458,2336.942,2308.458"/>
						</g>
						<g>
							<path style="fill:#371B45;" d="M2336.943,2328.75h-562.876c-93.672,0-171.001-68.945-179.878-160.371         c-18.628-191.936-18.628-386.572,0-578.508c8.877-91.428,86.206-160.376,179.878-160.376h562.876         c93.672,0,171.001,68.95,179.878,160.381c18.623,191.907,18.623,386.541,0,578.494         C2507.944,2259.805,2430.615,2328.75,2336.943,2328.75z M1774.067,1470.085c-72.671,0-132.632,53.181-139.478,123.706         c-18.374,189.333-18.374,381.333,0,570.667c6.846,70.522,66.807,123.706,139.478,123.706h562.876         c72.671,0,132.632-53.188,139.478-123.716c18.374-189.351,18.374-381.345,0-570.652         c-6.846-70.527-66.807-123.711-139.478-123.711H1774.067z"/>
						</g>
						<g>
							<path style="fill:#FFFFFF;" d="M1849.391,1462.187l-12.299,129.601l-10.513,110.849         c-37.91,112.107-112.553,214.513-186.019,263.301c-84.141,55.891-202.012,10.959-225.432-2.72         c-52.563-30.645,22.811-82.355-26.505-160.976c92.096-5.52,184.842-78.946,188.942-82.842         c9.051-8.564,53.415-133.822,143.482-206.355C1756.523,1484.43,1799.101,1464.055,1849.391,1462.187"/>
						</g>
						<g>
							<path style="fill:#CAD6EA;" d="M1849.391,1462.187l-12.299,129.601c-43.511-20.781-82.68-47.448-116.044-78.743         C1756.523,1484.43,1799.101,1464.055,1849.391,1462.187"/>
						</g>
						<g>
							<path style="fill:#CAD6EA;" d="M2395.963,1517.064c-34.708,31.7-75.414,58.448-120.59,78.865l-12.708-133.741         C2315.313,1464.136,2359.514,1486.379,2395.963,1517.064"/>
						</g>
						<g>
							<path style="fill:#CAD6EA;" d="M2351.882,1552.377c-79.352,55.729-180.743,89.134-291.186,89.134         c-113.812,0-218.004-35.475-298.41-94.288c52.035-81.543,143.482-171.935,293.175-171.935         C2208.318,1375.287,2300.455,1469.535,2351.882,1552.377"/>
						</g>
						<g>
							<path style="fill:#371B45;" d="M1541.547,2013.55c-63.169,0.005-119.976-23.054-136.66-32.788         c-38.364-22.378-30.391-56.926-24.57-82.151c5.923-25.662,12.046-52.197-8.896-85.569l-18.193-28.992l34.16-2.056         c81.494-4.902,164.16-67.822,175.254-76.584c1.807-3.159,5.425-10.618,8.667-17.295         c31.89-65.725,116.606-240.315,277.344-246.223c11.143-0.435,20.615,8.333,21.03,19.536         c0.41,11.201-8.335,20.613-19.536,21.025c-136.367,5.012-213.34,163.657-242.319,223.379         c-8.408,17.327-11.553,23.811-16.348,28.337c-10.088,9.548-88.389,68.318-172.222,84.546         c12.93,35.632,5.972,65.776,0.61,89.021c-6.348,27.498-5.781,31.401,5.469,37.966c17.295,10.085,128.359,53.55,203.994,3.328         c71.357-47.395,142.896-149.026,178.013-252.898c3.589-10.615,15.102-16.311,25.723-12.727         c10.62,3.589,16.318,15.107,12.725,25.725c-38.359,113.477-114.512,220.916-194.009,273.713         C1617.343,2005.718,1578.359,2013.55,1541.547,2013.55z"/>
						</g>
						<g>
							<path style="fill:#FFFFFF;" d="M2262.685,1462.174c177.971,6.539,259.197,245.287,271.853,257.245         c4.1,3.872,96.813,77.294,188.938,82.834c-49.316,78.593,26.026,130.335-26.505,160.98         c-23.42,13.662-141.307,58.578-225.439,2.703c-73.486-48.804-148.117-151.202-186.015-263.305"/>
						</g>
						<g>
							<path style="fill:#CAD6EA;" d="M2395.963,1517.064c-34.708,31.7-75.414,58.448-120.59,78.865l-12.708-133.741         C2315.313,1464.136,2359.514,1486.379,2395.963,1517.064"/>
						</g>
						<g>
							<path style="fill:#371B45;" d="M2570.541,2013.555c-36.821,0-75.791-7.837-110.234-30.71         c-79.502-52.8-155.654-160.239-194.014-273.713c-3.594-10.618,2.104-22.136,12.725-25.725         c10.61-3.586,22.129,2.109,25.723,12.727c35.112,103.87,106.655,205.5,178.018,252.898         c75.62,50.225,186.699,6.76,203.989-3.328c11.255-6.565,11.816-10.469,5.469-37.969         c-5.361-23.245-12.319-53.386,0.615-89.021c-83.774-16.23-162.119-74.988-172.231-84.546         c-4.79-4.524-7.935-11.008-16.343-28.335c-28.979-59.722-105.952-218.367-242.319-223.379         c-11.201-0.413-19.946-9.824-19.536-21.025c0.415-11.204,9.941-19.973,21.03-19.536         c160.737,5.908,245.454,180.498,277.344,246.223c3.257,6.716,6.899,14.221,8.701,17.349         c9.98,7.881,93.218,71.599,175.22,76.531l34.16,2.056l-18.188,28.989c-20.942,33.374-14.819,59.91-8.901,85.571         c5.82,25.225,13.794,59.773-24.57,82.151C2690.512,1990.493,2633.696,2013.55,2570.541,2013.555z"/>
						</g>
						<g>
							<path style="fill:#FFFFFF;" d="M2471.171,2173.876c-39.367,99.971-160.489,129.885-261.88,136.501         c-83.614,5.52-153.832-4.834-153.832-4.834s-79.879,11.775-170.677,3.535c-97.576-8.808-207.816-40.711-245.036-135.202         c-27.925-70.909-23.055-169.134-4.993-264.478c16.723-88.565,44.851-174.654,68.595-234.077         c0,0,79.352-300.034,352.11-300.034c272.758,0,352.109,300.034,352.109,300.034c24.029,60.072,52.526,147.419,69.204,237.04         C2494.347,2006.771,2498.816,2103.698,2471.171,2173.876"/>
						</g>
						<g>
							<path style="fill:#CAD6EA;" d="M2351.882,1552.377c-79.352,55.729-180.743,89.134-291.186,89.134         c-113.812,0-218.004-35.475-298.41-94.288c52.035-81.543,143.482-171.935,293.175-171.935         C2208.318,1375.287,2300.455,1469.535,2351.882,1552.377"/>
						</g>
						<g>
							<path style="fill:#CAD6EA;" d="M2471.171,2173.876c-39.367,99.971-160.489,129.885-261.88,136.501         c35.759-54.393,122.258-202.133,98.672-326.376c0,0-19.032,74.802-66.972,82.355c-34.054,5.398-193.528,6.454-193.528,6.454         s-159.474-1.055-193.528-6.454c-47.936-7.554-66.972-82.355-66.972-82.355c-23.379,123.269,61.577,269.629,97.819,325.078         c-97.576-8.808-207.816-40.711-245.036-135.202c-27.925-70.909-23.055-169.134-4.993-264.478         c185.411-30.807,412.709,23.298,412.709,23.298s241.143-57.393,429.31-20.335         C2494.347,2006.771,2498.816,2103.698,2471.171,2173.876"/>
						</g>
						<g>
							<path style="fill:#371B45;" d="M2415.112,1672.315c10.585,17.883,19.349,36.62,27.162,55.696         c7.818,19.085,14.75,38.519,20.644,58.274c11.897,39.473,22.113,79.506,30.084,120.143         c7.923,40.63,13.699,81.904,15.302,123.829c1.453,41.847-0.67,84.636-12.327,126.743         c-2.991,10.553-6.454,20.781-11.146,31.188c-4.643,10.293-10.212,20.201-16.637,29.5         c-12.802,18.683-29.192,34.541-47.059,47.542c-17.896,13.065-37.395,23.184-57.336,31.314         c-19.966,8.179-40.492,14.157-61.127,18.918c-41.332,9.396-83.244,12.891-124.848,13.683         c-20.822,0.329-41.604-0.13-62.341-1.299c-10.371-0.581-20.721-1.441-31.075-2.448c-10.423-1.031-20.522-2.18-31.306-3.795         h4.733c-10.788,1.615-20.887,2.764-31.314,3.795c-10.35,1.015-20.7,1.863-31.071,2.431         c-20.737,1.173-41.523,1.632-62.341,1.299c-41.608-0.743-83.508-4.343-124.832-13.744         c-20.631-4.761-41.157-10.732-61.115-18.91c-19.941-8.134-39.428-18.245-57.32-31.31         c-17.859-12.993-34.245-28.843-47.039-47.522c-6.417-9.299-12.006-19.19-16.617-29.496         c-4.656-10.415-8.049-20.66-11.052-31.201c-11.653-42.079-13.776-84.851-12.323-126.687         c1.705-41.904,7.493-83.159,15.4-123.784c16.195-81.06,39.233-160.903,77.614-234.162c2.09-3.994,7.022-5.536,11.012-3.446         c3.47,1.819,5.086,5.78,4.079,9.405l-0.02,0.065c-10.854,39.189-21.999,77.976-32.37,116.929         c-10.496,38.892-20.209,77.971-27.345,117.44c-7.176,39.432-12.075,79.209-13.297,118.772         c-1.141,39.444,1.38,79.075,11.832,115.618c5.256,18.411,12.485,35.024,22.823,49.981         c10.224,15.006,23.501,27.958,38.519,38.937c30.19,22.011,67.175,35.637,105.187,44.417         c38.21,8.556,77.837,12.863,117.651,14.04c19.917,0.584,39.903,0.418,59.861-0.434c19.844-0.881,40.167-2.188,59.341-4.554         c1.571-0.195,3.227-0.179,4.737,0c19.17,2.358,39.497,3.689,59.345,4.538c19.958,0.856,39.935,1.023,59.857,0.438         c39.818-1.133,79.433-5.541,117.635-14.105c38.003-8.775,74.98-22.393,105.154-44.4         c15.014-10.975,28.286-23.923,38.507-38.917c5.135-7.472,9.575-15.395,13.297-23.676c3.71-8.167,6.762-17.303,9.408-26.314         c10.452-36.518,12.968-76.129,11.828-115.561c-1.331-39.546-6.238-79.299-13.39-118.723         c-7.201-39.436-16.638-78.597-27.743-117.298c-5.614-19.333-11.044-38.734-16.451-58.192         c-5.415-19.458-10.736-38.97-15.246-58.931l-0.008-0.029c-1.003-4.428,1.778-8.828,6.202-9.827         C2409.79,1667.68,2413.338,1669.336,2415.112,1672.315"/>
						</g>
						<g>
							<path style="fill:#FFFFFF;" d="M1464.76,2160.808c22.77,208.019,486.175,208.384,486.175,208.384         s208.55,29.017,246.456-53.78c21.39-46.718,17.331-98.838-15.667-134.228c-13.638-14.656-32.228-26.464-56.049-33.815         c-76.149-23.501-179.245,0-179.245,0s-128.261-109.789-249.257-146.725c-18.712-5.682-37.22-9.66-55.039-11.203         C1513.67,1978.239,1452.462,2048.579,1464.76,2160.808"/>
						</g>
						<g>
							<path style="fill:#CAD6EA;" d="M1464.76,2160.808c22.77,208.019,486.175,208.384,486.175,208.384         s208.55,29.017,246.456-53.78c21.39-46.718,17.331-98.838-15.667-134.228c0,0,27.601,86.978-76.344,117.018         c-125.587,36.287-95.401-166.179-179.923-151.855c-84.519,14.328-46.406,172.434-241.233,100.267         c-156.714-58.042-124.892-210.576,12.948-245.969c-18.712-5.682-37.22-9.66-55.039-11.203         C1513.67,1978.239,1452.462,2048.579,1464.76,2160.808"/>
						</g>
						<g>
							<path style="fill:#371B45;" d="M2030.849,2394.722c-38.848,0-70.991-3.857-81.333-5.249         c-33.989-0.176-480.874-6.787-504.932-226.436c-6.821-62.295,7.432-113.481,41.216-148.018         c35.132-35.916,89.8-51.755,158.091-45.803c123.433,10.764,272.417,127.126,308.062,156.331         c28.706-5.439,112.695-18.262,179.717,2.446c41.543,12.827,71.88,38.33,87.744,73.75         c16.44,36.709,15.132,81.221-3.584,122.119C2188.906,2382.695,2099.448,2394.717,2030.849,2394.722z M1616.44,2008.574         c-44.326,0-79.17,11.87-101.626,34.824c-25,25.562-35.337,65.405-29.878,115.225         c10.439,95.327,133.687,142.036,235.234,164.429c115.225,25.41,229.639,25.835,230.781,25.84c0.923,0,1.855,0.063,2.768,0.19         c50.239,6.948,199.458,14.141,225.205-42.114c13.853-30.273,15.107-62.583,3.442-88.638         c-10.947-24.448-32.622-42.275-62.671-51.558c-69.956-21.602-167.764,0.176-168.74,0.4c-6.25,1.411-12.822-0.205-17.7-4.37         c-1.66-1.421-167.632-142.227-292.891-153.149C1632.114,2008.931,1624.135,2008.574,1616.44,2008.574z"/>
						</g>
						<g>
							<path style="fill:#371B45;" d="M1608.339,2325.601c-5.415,0-10.654-2.896-13.408-7.993         c-50.205-93.008-35.313-165.41-13.975-209.775c34.087-70.869,103.145-111.365,130.85-116.384         c8.247-1.504,16.191,3.989,17.691,12.266c1.499,8.269-3.989,16.189-12.261,17.688c-18.999,3.442-79.267,38.13-108.848,99.629         c-26.567,55.239-22.085,116.514,13.33,182.114c3.994,7.397,1.235,16.631-6.162,20.625         C1613.256,2325.01,1610.781,2325.601,1608.339,2325.601z"/>
						</g>
						<g>
							<path style="fill:#FFFFFF;" d="M2646.314,2160.808c-22.771,208.019-486.175,208.384-486.175,208.384         s-208.546,29.017-246.456-53.78c-21.391-46.718-17.332-98.838,15.667-134.228c13.638-14.656,32.228-26.464,56.053-33.815         c76.145-23.501,179.241,0,179.241,0s128.261-109.789,249.257-146.725c18.711-5.682,37.22-9.66,55.039-11.203         C2597.404,1978.239,2658.613,2048.579,2646.314,2160.808"/>
						</g>
						<g>
							<path style="fill:#CAD6EA;" d="M2646.314,2160.808c-22.771,208.019-486.175,208.384-486.175,208.384         s-208.546,29.017-246.456-53.78c-21.391-46.718-17.332-98.838,15.667-134.228c0,0-27.6,86.978,76.348,117.018         c125.583,36.287,158.5-117.018,158.5-117.018s67.824,137.597,262.651,65.429c156.714-58.042,124.892-210.576-12.948-245.969         c18.711-5.682,37.22-9.66,55.039-11.203C2597.404,1978.239,2658.613,2048.579,2646.314,2160.808"/>
						</g>
						<g>
							<path style="fill:#371B45;" d="M2080.224,2394.722c-68.604,0-158.057-12.021-184.98-70.859         c-18.716-40.903-20.02-85.41-3.579-122.124c15.864-35.415,46.201-60.918,87.739-73.745         c67.017-20.703,151.006-7.881,179.722-2.446c35.64-29.204,184.624-145.566,308.062-156.331         c68.291-5.962,122.959,9.88,158.091,45.803c33.784,34.541,48.032,85.723,41.211,148.022         c-24.058,219.644-470.942,226.255-504.932,226.431C2151.22,2390.864,2119.062,2394.722,2080.224,2394.722z          M2065.468,2157.227c-24.731,0-50.937,2.397-74.092,9.546c-30.049,9.282-51.719,27.109-62.666,51.558         c-11.67,26.055-10.415,58.359,3.438,88.643c25.747,56.25,174.961,49.058,225.205,42.109c0.913-0.127,1.846-0.19,2.769-0.19         c1.143-0.005,115.557-0.43,230.781-25.84c101.548-22.393,224.795-69.102,235.234-164.434         c5.459-49.814-4.873-89.653-29.873-115.215c-26.357-26.943-69.771-38.635-125.552-33.75         c-125.43,10.938-291.23,151.729-292.891,153.149c-4.883,4.175-11.445,5.796-17.715,4.365         C2159.457,2167.021,2115.463,2157.227,2065.468,2157.227z"/>
						</g>
						<g>
							<path style="fill:#371B45;" d="M2502.734,2325.601c-2.441,0-4.917-0.591-7.217-1.831         c-7.397-3.994-10.156-13.228-6.162-20.625c35.41-65.601,39.897-126.875,13.33-182.114         c-29.575-61.499-89.844-96.187-108.843-99.629c-8.271-1.499-13.76-9.419-12.261-17.688         c1.504-8.276,9.463-13.762,17.69-12.266c27.705,5.02,96.763,45.52,130.845,116.389         c21.338,44.36,36.23,116.763-13.975,209.771C2513.393,2322.705,2508.149,2325.601,2502.734,2325.601z"/>
						</g>
						<g>
							<path style="fill:#FFFFFF;" d="M2453.64,1811.984c0,0,20.238,78.073,33.23,176.4c0,0,154.668,59.337,233.525,42.602         c92.365-19.6,17.173-102.187,17.173-102.187"/>
						</g>
						<g>
							<path style="fill:#CAD6EA;" d="M2459.653,1834.227c6.656,29.995,18.427,87.429,27.235,154.157         c0,0,79.433,30.482,153.467,41.563l-24.93-124.588c0,0-84.986,69.63-150.861-63.664         C2463.021,1838.57,2461.398,1836.094,2459.653,1834.227"/>
						</g>
						<g>
							<path style="fill:#371B45;" d="M2688.53,2054.185c-85.679,0-203.242-44.673-208.931-46.851l-11.27-4.326l-1.577-11.965         c-12.686-95.984-32.559-173.198-32.754-173.967c-2.813-10.85,3.701-21.924,14.551-24.736         c10.84-2.81,21.924,3.704,24.736,14.556c0.806,3.101,19.082,74.124,32.051,166.677         c48.921,17.505,155.781,49.255,210.845,37.561c9.546-2.026,26.03-6.885,29.209-16.672         c4.346-13.403-11.069-38.972-22.856-52.031c-7.5-8.306-6.875-21.133,1.421-28.65c8.286-7.512,21.084-6.921,28.618,1.357         c4.614,5.066,44.683,50.681,31.46,91.738c-7.192,22.329-27.188,37.124-59.424,43.965         C2713.637,2053.169,2701.445,2054.185,2688.53,2054.185z"/>
						</g>
						<g>
							<path style="fill:#FFFFFF;" d="M2668.242,1835.549c31.903-22.121,79.014,18.16,79.014,18.16         c35.024,29.122,63.42,27.625,72.496,16.288c12.234-15.274-17.571-18.281-7.915-44.303         c13.829-37.277,80.947-3.539,92.762,27.276c9.806,25.571,4.789,62.945-26.635,79.733         c15.087,8.11,34.947,23.237,44.907,40.524c40.366,70.044-41.518,141.745-93.614,124.434         c-43.84-14.568-81.421-21.488-127.109-38.584c-56.552-21.163-109.939-57.344-110.256-122.656"/>
						</g>
						<g>
							<path style="fill:#CAD6EA;" d="M2591.932,1936.431c0.284,65.308,53.699,101.473,110.24,122.66         c45.703,17.088,83.248,23.988,127.125,38.56c48.301,16.073,122.295-44.486,100.458-109.266c0,0-27.357,84.222-95.218,77.444         c-76.795-7.671-65.19-25.896-48.021-64.861c53.497,10.228,90.473,42.415,89.418,30.036         c-2.313-27.154-79.879-46.312-78.418-51.467c1.624-5.48,3.247-11.487,4.713-17.737c0.929-3.978,85.03,40.224,85.923,36.205         c8.808-40.021-53.253-32.999-78.337-55.81c-9.944-9.011-3.775-29.103-4.749-31.863c27.844,7.428,55.445,20.214,77.85,25.165         c-1.701-1.015-3.328-1.948-4.912-2.801c31.416-16.763,36.408-54.146,26.626-79.717c-1.542-3.978-3.974-8.036-7.103-11.974         c-5.926,78.824-111.697,35.434-115.11,33.364c-70.499,174.817-166.983,33.648-166.983,31.051L2591.932,1936.431z"/>
						</g>
						<g>
							<path style="fill:#371B45;" d="M2658.995,1822.207c5.203-3.608,11.219-6.324,17.344-7.834         c6.137-1.534,12.311-1.916,18.107-1.55c11.649,0.783,21.861,4.197,31.14,8.357c9.299,4.225,17.697,9.323,25.681,15.111         c2.026,1.478,3.929,2.918,6.072,4.684c1.754,1.421,3.02,2.488,4.668,3.722c3.121,2.387,6.312,4.619,9.551,6.616         c6.474,3.978,13.232,7.127,19.673,8.751c3.21,0.84,6.315,1.242,9.027,1.242c2.695,0.004,4.976-0.528,6.097-1.072         c0.56-0.26,0.795-0.487,0.775-0.455c0,0-0.065,0.037-0.045,0.057c0.045-0.086,0.105-0.167,0.179-0.236         c-0.041,0.02-0.049,0.049-0.073,0.134c-0.158,0.215-0.13,0.3-0.296,0.69c-0.199,0.613-0.5,1.843-0.365,3         c0.057,1.181,0.361,2.033,0.552,2.415c0.276,0.552-0.26-0.475-1.542-2.013c-2.423-3.081-6.989-8.24-9.68-15.679         c-1.344-3.669-2.107-7.748-2.192-11.625c-0.126-3.913,0.439-7.509,1.222-10.801c1.538-6.178,4.213-12.676,9.189-18.529         c4.883-5.828,11.872-10.082,18.594-12.067c6.766-2.037,13.196-2.313,19.073-1.896c5.898,0.451,11.328,1.628,16.491,3.166         c10.273,3.15,19.491,7.72,28.08,13.309c8.552,5.662,16.532,12.234,23.558,20.834c3.483,4.331,6.766,9.177,9.307,15.184         c2.285,5.601,3.62,10.594,4.664,16.029c1.989,10.675,2.009,21.593,0,32.361c-2.038,10.74-6.222,21.394-12.859,30.673         c-6.563,9.303-15.513,17.023-25.368,22.235l0.037-28.619c11.742,6.425,22.21,13.938,31.976,23.05         c4.85,4.57,9.49,9.555,13.723,15.213c2.098,2.817,4.132,5.91,5.922,9.052c1.688,3.028,3.308,6.116,4.696,9.351         c5.743,12.81,8.609,27.41,7.817,41.762c-0.731,14.385-5.062,28.258-11.637,40.447c-6.592,12.225-15.359,22.913-25.551,31.887         c-10.216,8.95-21.894,16.26-34.927,21.24c-12.976,4.919-27.645,7.566-42.911,5.224c-3.714-0.568-7.777-1.612-11.129-2.728         l-8.183-2.643c-5.479-1.721-10.983-3.393-16.536-5.013c-22.186-6.47-45.123-12.238-68.129-19.324         c-11.495-3.527-22.973-7.395-34.326-11.641c-11.56-4.193-22.961-9.067-34.233-14.576         c-11.243-5.561-22.304-11.961-32.552-19.905c-10.196-7.943-19.714-17.299-27.398-28.25         c-3.917-5.398-7.318-11.239-10.143-17.332c-2.87-6.064-5.191-12.4-6.746-18.89c-1.616-6.47-2.5-13.062-2.825-19.58         c-0.219-6.535,0.179-13,1.218-19.292c0.739-4.485,4.976-7.517,9.461-6.778c3.409,0.564,5.975,3.146,6.689,6.32l0.085,0.382         c1.213,5.475,2.496,10.756,4.099,15.846c1.656,5.078,3.637,9.924,5.833,14.584c4.509,9.291,10.293,17.632,17.072,25.258         c6.917,7.509,14.633,14.442,23.201,20.664c8.459,6.332,17.64,12.108,27.276,17.364c9.636,5.277,19.893,9.685,30.344,13.776         c10.683,3.998,21.508,7.639,32.5,11.016c21.963,6.774,44.68,12.493,67.662,19.19c5.743,1.668,11.491,3.418,17.234,5.22         l8.605,2.78c2.236,0.722,3.88,1.133,5.983,1.478c8.061,1.274,17.388-0.081,26.326-3.511         c17.965-6.847,34.285-21.175,43.402-38.15c4.574-8.495,7.355-17.652,7.809-26.797c0.475-9.145-1.242-18.285-5.106-26.943         c-0.925-2.172-2.05-4.294-3.219-6.405c-1.128-1.973-2.326-3.799-3.738-5.699c-2.817-3.763-6.194-7.444-9.904-10.935         c-7.407-6.965-16.215-13.269-25.112-18.111l-0.163-0.089c-7.85-4.274-10.752-14.105-6.474-21.954         c1.591-2.914,3.937-5.143,6.669-6.58c11.523-6.068,19.13-16.922,21.626-30.3c1.238-6.608,1.246-13.683-0.016-20.384         c-0.593-3.255-1.624-6.831-2.687-9.417c-0.897-2.155-2.529-4.765-4.599-7.306c-8.467-10.322-22.519-19.438-35.783-23.489         c-6.559-2.058-13.232-2.476-16.694-1.307c-1.737,0.573-2.561,1.169-3.397,2.107c-0.808,0.881-1.729,2.728-2.322,5.094         c-0.491,2.155-0.341,2.805-0.065,3.685c0.292,0.962,1.465,2.772,4.562,6.539c1.469,1.908,3.649,4.424,5.792,8.999         c1.059,2.411,1.981,5.411,2.208,8.804c0.187,3.361-0.353,6.823-1.323,9.514c-0.467,1.457-1.01,2.504-1.591,3.738         c-0.56,1.051-1.153,2.021-1.761,2.987l-1.79,2.435c-0.71,0.848-1.473,1.749-2.253,2.525c-3.15,3.166-6.653,5.418-10.091,7.03         c-6.924,3.186-13.577,4.075-19.702,4.136c-6.133,0.008-11.852-0.865-17.201-2.24c-10.724-2.748-20.108-7.323-28.692-12.57         c-4.286-2.638-8.353-5.492-12.25-8.471c-1.895-1.413-4.026-3.182-5.707-4.546c-1.266-1.047-2.886-2.289-4.436-3.413         c-6.316-4.591-13.135-8.694-19.95-11.775c-6.799-3.093-13.719-5.155-19.767-5.524c-6.113-0.366-10.821,0.86-14.925,3.657         l-0.122,0.081c-7.412,5.045-17.51,3.133-22.555-4.278C2649.797,1837.318,2651.673,1827.28,2658.995,1822.207"/>
						</g>
						<g>
							<path style="fill:#FFFFFF;" d="M2651.757,1844.469c7.797-6.92,37.91-85.728,111.396-75.122         c48.991,7.071,53.042,41.23,47.761,52.157c-14.259,29.512-37.768,3.941-51.921,11.547         c-13.675,7.351-10.772,26.968,16.641,38.726l-52.754,28.575L2651.757,1844.469z"/>
						</g>
						<g>
							<path style="fill:#FFFFFF;" d="M2802.015,1910.319c0,0,42.289,7.554,75.95,22.385"/>
						</g>
						<g>
							<path style="fill:#371B45;" d="M2803.443,1902.329c6.932,0.605,13.561,1.372,20.323,2.285         c6.725,0.917,13.447,1.985,20.181,3.207c13.463,2.46,26.939,5.581,40.565,10.026l0.094,0.032         c8.572,2.797,13.256,12.014,10.456,20.583c-2.792,8.572-12.014,13.252-20.583,10.46c-1.055-0.345-2.127-0.836-3.061-1.359         c-10.63-6.097-22.247-11.503-34.196-16.333c-5.975-2.415-12.047-4.712-18.176-6.876c-6.101-2.151-12.392-4.221-18.456-6.04         l-0.203-0.065c-4.306-1.291-6.754-5.837-5.459-10.147C2796.059,1904.334,2799.672,1901.996,2803.443,1902.329"/>
						</g>
						<g>
							<path style="fill:#371B45;" d="M2805.848,1908.979c5.565,10.776,7.858,23.245,7.578,35.426         c-0.207,12.246-3.003,24.268-7.346,35.532c-4.497,11.219-10.549,21.76-18.16,31.051c-7.562,9.291-16.609,17.526-27.154,23.27         c-1.989,1.08-4.473,0.349-5.556-1.64c-0.881-1.62-0.556-3.568,0.666-4.822l0.077-0.077         c7.688-7.846,14.429-16.284,20.315-25.283c5.816-9.023,10.87-18.513,14.701-28.428c3.966-9.863,6.685-20.156,8.065-30.592         c1.319-10.46,1.104-21.053-0.853-31.757l-0.008-0.061c-0.406-2.228,1.072-4.363,3.296-4.769         C2803.283,1906.495,2805.041,1907.421,2805.848,1908.979"/>
						</g>
						<g>
							<path style="fill:#371B45;" d="M2889.881,2004.231c-13.249-8.654-27.252-16.621-41.527-23.12         c-7.148-3.215-14.425-6.08-21.666-8c-7.099-1.948-14.738-2.837-19.613-1.242c-4.266,1.4-8.861-0.925-10.261-5.191         c-1.396-4.27,0.925-8.865,5.195-10.261c0.264-0.089,0.528-0.162,0.8-0.219l0.167-0.037         c5.483-1.189,10.468-0.832,15.051-0.097c4.599,0.759,8.828,2.042,12.911,3.495c8.15,2.922,15.647,6.665,22.9,10.679         c7.245,4.039,14.202,8.414,20.993,12.997c6.794,4.603,13.362,9.344,19.868,14.462c1.758,1.384,2.062,3.937,0.678,5.699         c-1.311,1.664-3.657,2.03-5.398,0.901L2889.881,2004.231z"/>
						</g>
						<g>
							<path style="fill:#371B45;" d="M2871.223,2041.126c-6.409-4.075-13.313-7.87-20.209-11.324         c-6.933-3.446-13.991-6.575-21.155-9.279c-7.188-2.63-14.462-4.854-21.764-6.458c-7.31-1.461-14.616-2.269-21.678-2.115         l-0.187,0.004c-4.489,0.097-8.207-3.462-8.305-7.952c-0.102-4.485,3.458-8.203,7.951-8.3c0.219-0.008,0.459,0,0.682,0.012         c8.739,0.544,17.084,2.261,25.092,4.599c7.963,2.472,15.586,5.553,22.965,9.007c7.351,3.511,14.438,7.42,21.321,11.609         c6.896,4.233,13.512,8.633,20.035,13.614c1.782,1.36,2.123,3.909,0.763,5.691c-1.287,1.684-3.633,2.082-5.39,0.974         L2871.223,2041.126z"/>
						</g>
						<g>
							<path style="fill:#FFFFFF;" d="M1657.566,1811.984c0,0-1.989,8.037-5.114,22.243c-6.657,29.995-18.427,87.429-27.235,154.157         c0,0-79.433,30.482-153.467,41.563c-29.265,4.424-57.718,5.804-80.042,1.055c-92.381-19.604-17.21-102.203-17.21-102.203         L1657.566,1811.984z"/>
						</g>
						<g>
							<path style="fill:#CAD6EA;" d="M1652.453,1834.227c-6.657,29.995-18.428,87.429-27.235,154.157         c0,0-79.433,30.482-153.467,41.563l24.93-124.588c0,0,84.985,69.63,150.861-63.664         C1649.084,1838.57,1650.707,1836.094,1652.453,1834.227"/>
						</g>
						<g>
							<path style="fill:#371B45;" d="M1423.559,2054.185c-12.92,0-25.103-1.016-36.079-3.345         c-32.241-6.841-52.232-21.636-59.424-43.965c-13.223-41.057,26.841-86.672,31.455-91.738         c7.549-8.291,20.376-8.884,28.667-1.345c8.286,7.546,8.892,20.381,1.343,28.669c-11.758,13.027-27.173,38.594-22.822,51.997         c3.174,9.79,19.663,14.648,29.209,16.675c55.156,11.694,161.943-20.046,210.835-37.556         c12.891-92.454,30.366-163.379,31.133-166.477c2.695-10.879,13.696-17.529,24.58-14.812         c10.879,2.698,17.51,13.704,14.814,24.58c-0.19,0.771-19.258,78.225-31.938,174.175l-1.577,11.965l-11.269,4.326         C1626.796,2009.512,1509.228,2054.185,1423.559,2054.185z"/>
						</g>
						<g>
							<path style="fill:#371B45;" d="M1625.209,2003.608c-1.88,0-3.794-0.352-5.65-1.094c-7.803-3.123-11.602-11.98-8.477-19.785         c37.656-94.126,2.993-161.501-13.662-186.101c-18.931-27.964-40.283-40.994-48.75-40.994c-8.408,0-15.22-6.814-15.22-15.22         s6.811-15.22,15.22-15.22c22.568,0,51.602,21.34,73.96,54.368c19.375,28.621,59.79,106.814,16.714,214.475         C1636.967,1999.988,1631.249,2003.608,1625.209,2003.608z"/>
						</g>
						<g>
							<path style="fill:#371B45;" d="M2486.938,2003.608c-6.04,0-11.758-3.618-14.136-9.57         c-43.076-107.661-2.661-185.854,16.714-214.475c22.358-33.027,51.392-54.368,73.96-54.368c8.408,0,15.22,6.814,15.22,15.22         s-6.812,15.22-15.22,15.22c-8.467,0-29.819,13.03-48.75,40.994c-16.655,24.6-51.318,91.975-13.662,186.101         c3.125,7.805-0.674,16.663-8.477,19.785C2490.732,2003.257,2488.818,2003.608,2486.938,2003.608z"/>
						</g>
						<g>
							<path style="fill:#FFFFFF;" d="M1520.172,1936.431c-0.284,65.308-53.699,101.473-110.24,122.66         c-45.703,17.088-83.248,23.988-127.125,38.56c-48.301,16.073-122.295-44.486-100.458-109.266         c1.664-5.033,3.937-10.107,6.859-15.14c8.889-15.464,25.774-29.224,39.98-37.748c1.705-1.015,3.328-1.948,4.911-2.801         c-31.416-16.763-36.408-54.146-26.626-79.717c1.542-3.978,3.978-8.036,7.103-11.974         c21.228-26.383,73.628-47.773,85.683-15.302c9.66,26.018-20.173,29.021-7.915,44.283c5.723,7.225,19.28,10.431,37.342,4.384         c10.431-3.45,22.324-10.025,35.15-20.66c0,0,47.083-40.265,78.986-18.143l52.847,69.773v0.041v0.041L1520.172,1936.431z"/>
						</g>
						<g>
							<path style="fill:#CAD6EA;" d="M1520.172,1936.431c-0.284,65.308-53.699,101.473-110.24,122.66         c-45.703,17.088-83.248,23.988-127.125,38.56c-48.301,16.073-122.295-44.486-100.458-109.266         c0,0,27.357,84.222,95.222,77.444c76.794-7.671,65.186-25.896,48.017-64.861c-53.496,10.228-90.473,42.415-89.417,30.036         c2.313-27.154,79.879-46.312,78.418-51.467c-1.624-5.48-3.247-11.487-4.708-17.737c-0.934-3.978-85.034,40.224-85.927,36.205         c-8.808-40.021,53.253-32.999,78.337-55.81c9.944-9.011,3.775-29.103,4.749-31.863c-27.844,7.428-55.445,20.214-77.85,25.165         c1.705-1.015,3.328-1.948,4.911-2.801c-31.416-16.763-36.408-54.146-26.626-79.717c1.542-3.978,3.978-8.036,7.103-11.974         c5.926,78.824,111.701,35.434,115.11,33.364c70.503,174.817,166.983,33.648,166.983,31.051L1520.172,1936.431z"/>
						</g>
						<g>
							<path style="fill:#371B45;" d="M1434.59,1848.891c-4.108-2.796-8.82-4.022-14.929-3.657         c-6.048,0.365-12.968,2.431-19.767,5.52c-6.819,3.085-13.634,7.184-19.954,11.779c-1.55,1.124-3.166,2.366-4.436,3.413         c-1.676,1.364-3.807,3.134-5.703,4.542c-3.901,2.983-7.964,5.833-12.25,8.475c-8.589,5.248-17.969,9.822-28.692,12.57         c-5.35,1.376-11.069,2.249-17.202,2.24c-6.125-0.061-12.781-0.95-19.702-4.136c-3.438-1.611-6.945-3.864-10.09-7.03         c-0.779-0.775-1.542-1.676-2.257-2.524l-1.786-2.439c-0.609-0.962-1.197-1.936-1.766-2.983         c-0.576-1.234-1.116-2.281-1.587-3.738c-0.97-2.691-1.51-6.153-1.319-9.514c0.223-3.393,1.145-6.393,2.204-8.804         c2.143-4.575,4.323-7.091,5.792-8.999c3.097-3.767,4.274-5.577,4.558-6.539c0.28-0.881,0.43-1.534-0.061-3.686         c-0.597-2.366-1.514-4.213-2.326-5.098c-0.836-0.938-1.656-1.534-3.393-2.103c-3.462-1.169-10.139-0.751-16.698,1.307         c-13.26,4.051-27.312,13.167-35.779,23.489c-2.066,2.541-3.702,5.151-4.599,7.306c-1.063,2.586-2.094,6.161-2.687,9.413         c-1.262,6.705-1.258,13.776-0.012,20.388c2.492,13.378,10.094,24.228,21.618,30.3c7.911,4.164,10.943,13.954,6.778,21.861         c-1.546,2.939-3.872,5.208-6.588,6.677l-0.154,0.081c-8.897,4.846-17.705,11.15-25.113,18.115         c-3.71,3.491-7.091,7.172-9.904,10.935c-1.412,1.9-2.61,3.726-3.738,5.695c-1.169,2.111-2.293,4.233-3.219,6.409         c-3.864,8.654-5.581,17.798-5.11,26.943c0.459,9.145,3.239,18.302,7.809,26.797c9.12,16.97,25.441,31.302,43.406,38.15         c8.938,3.43,18.265,4.785,26.326,3.507c2.098-0.345,3.746-0.751,5.979-1.473l8.609-2.78         c5.743-1.806,11.495-3.552,17.234-5.224c22.982-6.693,45.695-12.412,67.662-19.187c10.991-3.377,21.817-7.022,32.5-11.016         c10.456-4.092,20.708-8.503,30.344-13.776c9.636-5.256,18.817-11.032,27.276-17.364c8.572-6.222,16.285-13.155,23.201-20.664         c6.779-7.627,12.558-15.972,17.072-25.259c2.196-4.659,4.177-9.506,5.837-14.583c1.599-5.09,2.886-10.375,4.095-15.846         l0.081-0.361c0.982-4.436,5.378-7.237,9.814-6.255c3.373,0.747,5.8,3.487,6.34,6.693c1.039,6.291,1.433,12.753,1.218,19.292         c-0.325,6.519-1.21,13.11-2.825,19.576c-1.555,6.494-3.876,12.83-6.746,18.894c-2.821,6.092-6.222,11.933-10.143,17.331         c-7.684,10.947-17.202,20.307-27.398,28.25c-10.249,7.943-21.309,14.34-32.552,19.901         c-11.276,5.512-22.673,10.387-34.233,14.58c-11.353,4.246-22.831,8.11-34.326,11.637         c-23.01,7.091-45.939,12.855-68.129,19.329c-5.549,1.619-11.057,3.292-16.536,5.013l-8.179,2.642         c-3.357,1.112-7.42,2.159-11.133,2.728c-15.266,2.342-29.934-0.304-42.911-5.224c-13.033-4.98-24.71-12.295-34.927-21.244         c-10.192-8.974-18.959-19.657-25.551-31.883c-6.575-12.189-10.906-26.062-11.637-40.447         c-0.791-14.356,2.074-28.952,7.818-41.766c1.392-3.231,3.012-6.32,4.696-9.348c1.79-3.142,3.823-6.235,5.926-9.051         c4.229-5.658,8.869-10.642,13.719-15.213c9.766-9.112,20.234-16.63,31.976-23.051l0.036,28.619         c-9.855-5.212-18.805-12.932-25.368-22.234c-6.636-9.279-10.821-19.933-12.859-30.673c-2.009-10.768-1.989-21.691,0-32.366         c1.039-5.431,2.378-10.423,4.664-16.024c2.545-6.007,5.824-10.854,9.311-15.185c7.018-8.601,15.002-15.172,23.554-20.834         c8.589-5.589,17.802-10.163,28.083-13.309c5.155-1.538,10.594-2.719,16.483-3.166c5.877-0.418,12.311-0.146,19.073,1.895         c6.725,1.985,13.715,6.239,18.598,12.067c4.98,5.853,7.647,12.351,9.189,18.529c0.784,3.292,1.344,6.884,1.226,10.801         c-0.093,3.876-0.852,7.956-2.196,11.621c-2.691,7.444-7.257,12.599-9.676,15.684c-1.287,1.538-1.823,2.565-1.547,2.009         c0.195-0.377,0.495-1.23,0.552-2.411c0.134-1.161-0.167-2.387-0.361-3.004c-0.17-0.385-0.142-0.471-0.3-0.686         c-0.02-0.085-0.028-0.114-0.073-0.134c0.073,0.069,0.134,0.146,0.179,0.235c0.016-0.02-0.045-0.057-0.045-0.057         c-0.02-0.032,0.211,0.191,0.775,0.45c1.12,0.548,3.401,1.08,6.096,1.076c2.711,0,5.816-0.406,9.027-1.242         c6.438-1.624,13.2-4.773,19.669-8.751c3.247-1.997,6.433-4.229,9.555-6.616c1.648-1.234,2.91-2.301,4.668-3.722         c2.143-1.766,4.047-3.207,6.068-4.684c7.988-5.788,16.386-10.89,25.681-15.115c9.283-4.161,19.495-7.57,31.144-8.354         c5.796-0.365,11.966,0.016,18.103,1.551c6.129,1.51,12.144,4.225,17.352,7.834c7.371,5.106,9.206,15.221,4.099,22.592         c-5.082,7.33-15.119,9.185-22.482,4.177L1434.59,1848.891z"/>
						</g>
						<g>
							<path style="fill:#FFFFFF;" d="M1460.329,1844.469c-7.797-6.92-37.906-85.728-111.397-75.122         c-48.991,7.071-53.042,41.23-47.761,52.157c14.259,29.512,37.764,3.941,51.922,11.547         c13.674,7.351,10.772,26.968-16.642,38.726l52.754,28.575L1460.329,1844.469z"/>
						</g>
						<g>
							<path style="fill:#FFFFFF;" d="M1310.07,1910.319c0,0-42.29,7.554-75.95,22.385"/>
						</g>
						<g>
							<path style="fill:#371B45;" d="M1311.497,1918.311c-6.064,1.823-12.355,3.893-18.456,6.044         c-6.133,2.163-12.201,4.461-18.18,6.876c-11.945,4.83-23.562,10.232-34.196,16.333c-7.822,4.485-17.798,1.782-22.283-6.044         c-4.485-7.822-1.782-17.798,6.04-22.283c0.962-0.552,1.96-0.998,2.975-1.335l0.179-0.053         c13.626-4.449,27.097-7.566,40.565-10.026c6.734-1.222,13.455-2.289,20.181-3.207c6.762-0.913,13.386-1.68,20.319-2.289         c4.485-0.394,8.438,2.922,8.832,7.408c0.345,3.917-2.147,7.428-5.768,8.516L1311.497,1918.311z"/>
						</g>
						<g>
							<path style="fill:#371B45;" d="M1313.901,1911.659c-1.952,10.703-2.172,21.297-0.848,31.757         c1.376,10.435,4.099,20.729,8.061,30.592c3.836,9.916,8.889,19.406,14.701,28.429c5.889,8.998,12.631,17.437,20.319,25.283         l0.069,0.073c1.587,1.616,1.559,4.209-0.057,5.792c-1.319,1.291-3.288,1.51-4.826,0.674         c-10.545-5.743-19.592-13.979-27.154-23.27c-7.61-9.291-13.662-19.836-18.16-31.051c-4.343-11.267-7.144-23.286-7.347-35.531         c-0.28-12.185,2.013-24.65,7.578-35.426c1.039-2.013,3.511-2.801,5.524-1.762c1.636,0.844,2.468,2.647,2.151,4.372         L1313.901,1911.659z"/>
						</g>
						<g>
							<path style="fill:#371B45;" d="M1217.389,1997.695c6.502-5.114,13.074-9.859,19.868-14.462         c6.786-4.578,13.747-8.958,20.989-12.993c7.257-4.018,14.75-7.761,22.904-10.683c4.079-1.449,8.313-2.732,12.911-3.491         c4.583-0.739,9.563-1.096,15.046,0.093l0.158,0.036c4.388,0.95,7.176,5.281,6.222,9.668c-0.95,4.392-5.276,7.176-9.668,6.226         c-0.272-0.061-0.552-0.134-0.812-0.219c-4.871-1.599-12.513-0.71-19.613,1.242c-7.237,1.916-14.519,4.785-21.666,7.996         c-14.275,6.502-28.278,14.47-41.523,23.12l-0.085,0.057c-1.879,1.226-4.396,0.698-5.622-1.181         C1215.343,2001.332,1215.762,1998.982,1217.389,1997.695"/>
						</g>
						<g>
							<path style="fill:#371B45;" d="M1236.112,2034.542c6.523-4.98,13.139-9.38,20.035-13.614         c6.884-4.189,13.971-8.098,21.321-11.609c7.383-3.45,15.002-6.535,22.965-9.007c8.008-2.338,16.353-4.055,25.096-4.599         c4.481-0.28,8.337,3.125,8.617,7.606c0.28,4.481-3.125,8.341-7.606,8.621c-0.223,0.012-0.447,0.016-0.666,0.012l-0.207-0.004         c-7.063-0.154-14.369,0.653-21.679,2.119c-7.302,1.599-14.576,3.823-21.76,6.454c-7.168,2.703-14.231,5.833-21.159,9.279         c-6.892,3.454-13.796,7.249-20.209,11.324l-0.105,0.069c-1.891,1.205-4.4,0.645-5.605-1.246         C1234.014,2038.163,1234.464,2035.808,1236.112,2034.542"/>
						</g>
						<g>
							<path style="fill:#FFFFFF;" d="M2228.914,1806.972c93.286,0,247.832,20.055,276.48,90.14         c23.193,56.735-19.966,80.833-19.966,80.833s-80.314-45.865-256.514-45.865"/>
						</g>
						<g>
							<path style="fill:#FFFFFF;" d="M1883.782,1806.972c-93.29,0-247.833,20.055-276.484,90.14         c-23.193,56.735,19.966,80.833,19.966,80.833s80.313-45.865,256.518-45.865"/>
						</g>
						<g>
							<path style="fill:#FFFFFF;" d="M2228.914,1806.972c93.286,0,247.832,20.055,276.48,90.14         c23.193,56.735-19.966,80.833-19.966,80.833s-80.314-45.865-256.514-45.865"/>
						</g>
						<g>
							<path style="fill:#FFFFFF;" d="M1883.782,1806.972c-93.29,0-247.833,20.055-276.484,90.14         c-23.193,56.735,19.966,80.833,19.966,80.833s80.313-45.865,256.518-45.865"/>
						</g>
						<g>
							<path style="fill:#CAD6EA;" d="M2485.421,1977.953c0,0-80.285-45.866-256.523-45.866v-38.6         c124.417,0,201.013,22.86,235.299,36.299c18.013,7.066,38.653-2.066,44.932-20.368c0.077-0.236,0.158-0.471,0.236-0.711         C2522.682,1957.172,2485.421,1977.953,2485.421,1977.953"/>
						</g>
						<g>
							<path style="fill:#CAD6EA;" d="M1883.768,1893.487v38.6c-176.197,0-256.522,45.866-256.522,45.866         s-37.22-20.782-23.907-69.204c0.069,0.211,0.138,0.422,0.211,0.629c6.235,18.33,26.911,27.471,44.936,20.404         C1682.787,1916.339,1759.395,1893.487,1883.768,1893.487"/>
						</g>
						<g>
							<path style="fill:#371B45;" d="M2485.331,1998.337l-8.706-4.973c-0.723-0.403-79.463-43.525-247.71-43.525         c-9.81,0-17.759-7.952-17.759-17.759s7.949-17.759,17.759-17.759c144.624,0,226.582,30.229,254.482,42.842         c7.783-7.856,17.378-24.417,5.562-53.333c-21.23-51.929-146.885-79.099-260.044-79.099c-9.81,0-17.759-7.952-17.759-17.759         s7.949-17.759,17.759-17.759c25.747,0,252.72,2.839,292.915,101.179c23.057,56.392-8.066,92.07-27.744,103.057         L2485.331,1998.337z"/>
						</g>
						<g>
							<path style="fill:#371B45;" d="M1627.348,1998.264l-8.74-4.814c-19.678-10.986-50.801-46.665-27.744-103.057         c40.2-98.34,267.173-101.179,292.92-101.179c9.81,0,17.759,7.952,17.759,17.759s-7.949,17.759-17.759,17.759         c-113.159,0-238.818,27.17-260.049,79.099c-11.821,28.918-1.963,45.591,5.591,53.32         c27.93-12.622,109.888-42.83,254.458-42.83c9.81,0,17.759,7.952,17.759,17.759s-7.949,17.759-17.759,17.759         c-168.252,0-246.992,43.123-247.769,43.557L1627.348,1998.264z"/>
						</g>
						<g>
							<path style="fill:#CAD6EA;" d="M2293.273,1943.001l-12.461,34.484c-9.729,26.906-35.272,44.835-63.883,44.835H1893.95         c-28.611,0-54.158-17.928-63.883-44.835l-12.461-34.484l63.38-15.306h348.907L2293.273,1943.001z"/>
						</g>
						<g>
							<path style="fill:#371B45;" d="M2216.928,2040.078h-322.979c-35.972,0-68.354-22.729-80.581-56.555l-19.199-53.13         l84.702-20.457h353.135l84.702,20.457l-19.199,53.127C2285.282,2017.349,2252.9,2040.078,2216.928,2040.078z          M1841.044,1955.608l5.723,15.842c7.158,19.805,26.123,33.11,47.183,33.11h322.979c21.06,0,40.024-13.306,47.183-33.113         l5.723-15.84l-42.056-10.154H1883.1L1841.044,1955.608z"/>
						</g>
						<g>
							<path style="fill:#FFFFFF;" d="M2249.906,1968.908h-388.977c-28.575,0-51.138-24.26-49.072-52.758l12.384-170.827         c1.867-25.725,23.282-45.642,49.072-45.642h364.205c25.794,0,47.205,19.917,49.072,45.642l12.388,170.827         C2301.044,1944.648,2278.476,1968.908,2249.906,1968.908"/>
						</g>
						<g>
							<path style="fill:#371B45;" d="M2249.906,1986.667h-388.979c-18.535,0-36.406-7.786-49.028-21.355         c-12.622-13.574-19.097-31.96-17.754-50.447l12.388-170.825c2.524-34.832,31.86-62.119,66.782-62.119h364.204         c34.917,0,64.253,27.285,66.782,62.117l12.388,170.828c1.343,18.486-5.132,36.873-17.754,50.444         C2286.308,1978.882,2268.442,1986.667,2249.906,1986.667z M1873.315,1717.439c-16.401,0-30.176,12.813-31.362,29.17         l-12.388,170.825c-0.635,8.809,2.324,17.222,8.34,23.689c6.016,6.467,14.189,10.027,23.022,10.027h388.979         c8.828,0,17.007-3.56,23.022-10.029c6.016-6.467,8.975-14.88,8.34-23.687l-12.388-170.825         c-1.191-16.355-14.966-29.17-31.362-29.17H1873.315z"/>
						</g>
						<g>
							<path style="fill:#371B45;" d="M1455.483,1851.207l-1.295-1.157l0.629,0.625c-0.67-0.576-1.473-1.335-1.965-1.867         l-1.258-1.401l-1.965-2.375c-1.222-1.514-2.285-2.967-3.369-4.384l-6.299-8.272c-4.189-5.366-8.382-10.521-12.834-15.294         c-8.828-9.575-18.476-17.794-28.863-23.408c-5.228-2.74-10.517-5.025-16.008-6.446c-5.475-1.437-11.068-2.147-16.739-2.297         c-11.138-0.252-23.846,2.277-32.962,6.636c-9.303,4.315-14.9,11.243-16.057,18.541c-0.308,1.717-0.244,3.527-0.101,4.23         c0.024,0.154,0.045,0.215-0.024,0.073c-0.252-0.503,0.162,0.337,0.382,0.771c0.239,0.524,0.491,0.954,0.735,1.348         c0.239,0.451,0.479,0.808,0.706,1.104c0.93,1.344,1.481,1.725,1.542,1.758c0.057,0.085,0.316,0.304,2.009,0.219         c1.607-0.069,4.177-0.597,7.395-1.421c3.247-0.783,7.026-1.952,12.359-2.634c2.679-0.313,5.755-0.52,9.437-0.037         c1.867,0.28,3.767,0.678,5.743,1.376c1.839,0.617,4.152,1.749,5.345,2.504c5.638,3.243,11.353,9.206,13.78,16.841         c2.545,7.598,1.51,15.464-0.824,21.281c-2.346,5.963-5.764,10.431-9.303,14.129c-7.192,7.265-15.067,11.665-22.827,15.046         c-8.219,3.576-17.786-0.187-21.366-8.406c-3.58-8.223,0.183-17.786,8.406-21.366l0.158-0.069         c5.122-2.167,9.615-5.029,12.319-7.813c1.323-1.364,2.143-2.675,2.346-3.292c0.252-0.682-0.045-0.244,0.248,0.645         c0.248,0.905,0.913,1.339,0.491,1.067c-0.3-0.166,0.394,0.24,0.584,0.272c0.317,0.097,0.491,0.162,0.621,0.158         c0.187,0.02-0.272,0.004-1.084,0.122c-1.648,0.195-4.652,1.006-8.211,1.96c-3.576,0.926-7.878,2.09-13.297,2.508         c-5.281,0.447-12.274-0.138-18.553-3.17c-6.356-2.935-11.02-7.606-14.21-11.925c-0.84-1.1-1.591-2.196-2.232-3.267         c-0.698-1.092-1.344-2.176-1.879-3.227c-0.581-1.132-1.043-1.818-1.932-3.962c-0.723-1.778-1.21-3.405-1.583-4.964         c-1.417-6.166-1.336-11.503-0.658-16.739c1.417-10.379,6.076-19.856,12.441-27.43c6.38-7.594,14.328-13.147,22.385-16.995         c8.089-3.848,16.394-6.068,24.451-7.44c8.024-1.36,16.378-1.879,24.755-1.279c16.771,0.982,33.421,6.88,46.933,16.057         c13.618,9.165,24.276,21.066,32.743,33.604c4.217,6.304,7.988,12.765,11.247,19.325c1.676,3.255,3.223,6.543,4.676,9.741         l2.127,4.627l0.93,2.026l0.325,0.714c0.057,0.154-0.114,0.004-0.195,0.081l0.637,0.625l1.023,1.404         c2.671,3.633,1.887,8.739-1.745,11.41C1462.586,1854.024,1458.296,1853.724,1455.483,1851.207"/>
						</g>
						<g>
							<path style="fill:#371B45;" d="M2644.059,1840.115l2.451-2.573l-0.523,0.43c-0.097-0.065-0.288,0.109-0.24-0.032l0.313-0.698         l0.954-1.989l2.139-4.607c1.453-3.195,3.069-6.446,4.72-9.717c3.272-6.563,7.111-12.988,11.308-19.312         c4.29-6.263,9.084-12.331,14.49-18.058c5.471-5.65,11.58-10.918,18.366-15.509c13.561-9.12,30.203-15.071,46.99-16         c8.382-0.617,16.739-0.061,24.767,1.299c8.053,1.38,16.37,3.576,24.443,7.46c8.053,3.852,16,9.404,22.385,16.994         c6.364,7.574,11.02,17.056,12.428,27.434c0.678,5.232,0.763,10.569-0.654,16.731c-0.377,1.559-0.86,3.182-1.583,4.96         c-0.889,2.143-1.352,2.833-1.932,3.966c-0.536,1.051-1.181,2.131-1.879,3.223c-0.642,1.071-1.392,2.167-2.232,3.271         c-3.19,4.319-7.85,8.982-14.206,11.921c-6.275,3.028-13.264,3.625-18.545,3.174c-5.423-0.418-9.721-1.583-13.305-2.509         c-3.555-0.954-6.559-1.766-8.207-1.96c-0.808-0.118-1.27-0.097-1.088-0.122c0.138,0.004,0.308-0.057,0.625-0.158         c0.191-0.032,0.881-0.438,0.585-0.268c-0.422,0.268,0.243-0.162,0.491-1.068c0.296-0.889-0.008-1.327,0.248-0.645         c0.207,0.617,1.023,1.928,2.346,3.292c2.703,2.785,7.197,5.646,12.319,7.813c8.26,3.491,12.124,13.017,8.633,21.277         c-3.491,8.256-13.017,12.124-21.273,8.633l-0.162-0.069c-7.761-3.381-15.635-7.781-22.823-15.047         c-3.543-3.698-6.961-8.166-9.303-14.129c-2.338-5.82-3.369-13.682-0.824-21.281c2.423-7.635,8.142-13.597,13.776-16.84         c1.193-0.755,3.507-1.887,5.35-2.504c1.977-0.694,3.876-1.092,5.743-1.372c3.677-0.487,6.758-0.276,9.433,0.033         c5.333,0.686,9.108,1.855,12.359,2.638c3.219,0.824,5.792,1.352,7.396,1.421c1.693,0.085,1.956-0.13,2.017-0.215         c0.061-0.032,0.613-0.414,1.547-1.757c0.227-0.296,0.462-0.653,0.702-1.108c0.244-0.394,0.499-0.82,0.735-1.352         c0.223-0.43,0.637-1.27,0.385-0.771c-0.069,0.146-0.049,0.081-0.024-0.069c0.146-0.706,0.207-2.516-0.102-4.237         c-1.177-7.294-6.758-14.227-16.069-18.541c-9.128-4.335-21.829-6.847-32.958-6.588c-11.328,0.26-22.365,3.048-32.687,8.796         c-5.195,2.785-10.2,6.259-14.961,10.249c-4.838,3.917-9.417,8.385-13.792,13.195c-4.469,4.749-8.593,9.944-12.773,15.306         l-6.251,8.296l-3.356,4.396l-1.944,2.419l-1.27,1.417c-0.5,0.54-1.327,1.327-2.013,1.916l-0.41,0.353l-0.114,0.077         l-3.142,1.66c-4.018,2.123-8.994,0.589-11.117-3.426C2641.047,1846.431,2641.693,1842.603,2644.059,1840.115"/>
						</g>
						<g>
							<path style="fill:#3B7CFF;" d="M2223.416,1795.323v32.512c0,23.542-21.39,42.659-47.773,42.659         c-26.424,0-47.814-19.117-47.814-42.659v-32.512H2223.416z"/>
						</g>
						<g>
							<path style="fill:#371B45;" d="M2175.644,1883.176c-33.359,0-60.503-24.827-60.503-55.342v-32.512         c0-7.004,5.679-12.683,12.686-12.683h95.591c7.007,0,12.686,5.679,12.686,12.683v32.512         C2236.103,1858.35,2208.979,1883.176,2175.644,1883.176z M2140.512,1808.005v19.829c0,16.528,15.757,29.976,35.132,29.976         c19.351,0,35.088-13.447,35.088-29.976v-19.829H2140.512z"/>
						</g>
						<g>
							<path style="fill:#39A1FF;" d="M2223.42,1795.343c0,23.566-21.395,42.671-47.79,42.671s-47.793-19.105-47.793-42.671         c0-23.566,21.398-42.671,47.793-42.671S2223.42,1771.777,2223.42,1795.343"/>
						</g>
						<g>
							<path style="fill:#3B7CFF;" d="M2223.416,1795.323c0,23.582-21.39,42.7-47.773,42.7c-26.424,0-47.814-19.117-47.814-42.7         c0-4.14,0.649-8.158,1.908-11.933c5.764,17.778,24.11,30.726,45.906,30.726c21.756,0,40.102-12.948,45.865-30.726         C2222.766,1787.164,2223.416,1791.183,2223.416,1795.323"/>
						</g>
						<g style="opacity:0.7;">
							<g>
								<g>
									<path style="fill:#FFFFFF;" d="M2223.416,1795.323c0,2.963-0.325,5.885-1.015,8.686           c-4.465-19.361-23.704-33.973-46.759-33.973c-23.095,0-42.334,14.612-46.799,33.973c-0.69-2.801-1.015-5.723-1.015-8.686           c0-23.542,21.39-42.659,47.814-42.659C2202.025,1752.664,2223.416,1771.781,2223.416,1795.323"/>
								</g>
							</g>
						</g>
						<g>
							<path style="fill:#371B45;" d="M2175.629,1850.696c-33.345,0-60.479-24.832-60.479-55.354s27.134-55.354,60.479-55.354         s60.479,24.832,60.479,55.354S2208.974,1850.696,2175.629,1850.696z M2175.629,1765.354         c-19.36,0-35.107,13.452-35.107,29.988s15.747,29.988,35.107,29.988s35.107-13.452,35.107-29.988         S2194.99,1765.354,2175.629,1765.354z"/>
						</g>
						<g>
							<path style="fill:#371B45;" d="M2018.271,1981.592c-7.007,0-12.686-5.679-12.686-12.683v-92.356         c0-17.622-9.365-34.241-24.443-43.372c-22.622-13.682-36.68-38.613-36.68-65.063v-68.438c0-7.004,5.679-12.683,12.686-12.683         s12.686,5.679,12.686,12.683v68.438c0,17.627,9.365,34.241,24.439,43.362c22.632,13.699,36.684,38.633,36.684,65.073v92.356         C2030.956,1975.913,2025.278,1981.592,2018.271,1981.592z"/>
						</g>
						<g>
							<path style="fill:#FFFFFF;" d="M2568.308,875.682c0,0,118.333,44.863,130.493,66.769         c22.547,40.613,18.362,279.325-44.003,341.56c-24.422,24.366-203.858,47.14-203.858,47.14L2568.308,875.682z"/>
						</g>
						<g>
							<path style="fill:#CAD6EA;" d="M2450.94,1331.157c0,0,179.436-22.783,203.842-47.16         c24.341-24.276,39.846-75.496,48.293-131.297c-1.981,1.786-65.353,56.484-191.783-54.698         c-0.061-0.065-0.162-0.13-0.227-0.195L2450.94,1331.157z"/>
						</g>
						<g>
							<polygon style="fill:#CAD6EA;" points="2055.328,1124.827 2055.328,1126.861 2054.037,1125.862        "/>
						</g>
						<g>
							<polygon style="fill:#CAD6EA;" points="2054.036,1125.863 2052.737,1126.862 2052.737,1124.828        "/>
						</g>
						<g>
							<path style="fill:#FFFFFF;" d="M1663.212,1331.157c0,0-179.432-22.783-203.842-47.16         c-24.341-24.276-39.842-75.496-48.293-131.297l-0.032-0.032c-13.228-87.1-9.425-185.447,4.323-210.21         c12.156-21.906,130.486-66.789,130.486-66.789l57.234,222.14L1663.212,1331.157z"/>
						</g>
						<g>
							<path style="fill:#CAD6EA;" d="M1663.212,1331.157c0,0-179.432-22.783-203.842-47.16         c-24.341-24.276-39.842-75.496-48.293-131.297c1.981,1.786,65.357,56.484,191.783-54.698c0.065-0.065,0.162-0.13,0.227-0.195         L1663.212,1331.157z"/>
						</g>
						<g>
							<path style="fill:#371B45;" d="M2423.827,1355.051l130.483-506.379l21.191,8.035         c46.787,17.737,127.324,51.184,141.045,75.894c16.011,28.84,17.607,110.518,12.319,174.202         c-4.463,53.74-18.159,150.085-59.731,191.575c-26.475,26.409-159.619,45.798-215.64,52.908L2423.827,1355.051z          M2582.24,902.944l-104.106,404.011c73.94-10.789,150.405-26.892,162.437-37.412c55.054-54.944,58.477-282.715,40.732-316.79         C2673.3,943.247,2627.367,921.199,2582.24,902.944z"/>
						</g>
						<g>
							<path style="fill:#371B45;" d="M1690.341,1355.051l-29.668-3.767c-56.021-7.109-189.17-26.499-215.64-52.908         c-41.577-41.489-55.273-137.834-59.736-191.575c-5.288-63.684-3.687-145.364,12.324-174.202         c13.716-24.709,94.253-58.157,141.045-75.894l21.191-8.032L1690.341,1355.051z M1432.865,952.754         c-17.744,34.075-14.326,261.843,40.84,316.892c11.943,10.437,88.398,26.528,162.329,37.31l-104.107-404.011         C1486.801,921.199,1440.873,943.245,1432.865,952.754z"/>
						</g>
						<g>
							<path style="fill:#FFFFFF;" d="M2605.686,1025.283c0,303.009-245.641,548.65-548.65,548.65         c-303.013,0-548.65-245.641-548.65-548.65c0-303.013,245.636-548.65,548.65-548.65         C2360.045,476.633,2605.686,722.27,2605.686,1025.283"/>
						</g>
						<g>
							<path style="fill:#CAD6EA;" d="M2605.698,1025.269c0,303.014-245.637,548.65-548.646,548.65         c-303.013,0-548.682-245.636-548.682-548.65c0-31.992,2.732-63.363,8.021-93.834         c44.514,258.296,269.641,454.779,540.662,454.779s496.111-196.483,540.621-454.779         C2602.966,961.906,2605.698,993.277,2605.698,1025.269"/>
						</g>
						<g>
							<path style="fill:#371B45;" d="M2057.035,1594.229c-313.716,0-568.94-255.229-568.94-568.945s255.225-568.945,568.94-568.945         c313.721,0,568.945,255.229,568.945,568.945S2370.756,1594.229,2057.035,1594.229z M2057.035,496.929         c-291.333,0-528.354,237.019-528.354,528.354s237.021,528.354,528.354,528.354c291.338,0,528.359-237.019,528.359-528.354         S2348.373,496.929,2057.035,496.929z"/>
						</g>
						<g>
							<path style="fill:#371B45;" d="M2586.567,896.616c-5.923,0-11.514-3.479-13.979-9.204         c-86.343-200.456-288.711-329.983-515.557-329.983c-226.694,0-429.023,129.414-515.459,329.692         c-3.159,7.332-11.48,10.964-18.994,8.34c-7.539-2.637-11.763-10.647-9.668-18.355         c66.401-244.763,290.151-415.708,544.121-415.708c254.131,0,477.925,171.072,544.229,416.016         c2.085,7.71-2.139,15.72-9.683,18.35C2589.926,896.34,2588.232,896.616,2586.567,896.616z M2057.031,526.99         c160.444,0,309.326,61.624,417.441,166.15c-99.033-124.099-251.392-201.301-417.441-201.301         c-165.957,0-318.281,77.168-417.324,201.191C1747.831,588.565,1896.664,526.99,2057.031,526.99z"/>
						</g>
						<g>
							<path style="fill:#371B45;" d="M2605.65,1025.295c0,47.489-6.016,93.623-17.348,137.548c0,0-0.049,0-0.049,0.053         c-95.177,183.88-297.314,342.1-531.245,342.1c-233.927,0-436.015-158.22-531.188-342.1c0-0.053-0.053-0.053-0.053-0.053         c-11.381-43.925-17.396-90.059-17.396-137.548c0-20.761,1.149-41.267,3.458-61.427         c74.014-204.796,290.09-352.974,545.179-352.974c255.138,0,471.271,148.28,545.232,353.124         C2604.497,984.125,2605.65,1004.582,2605.65,1025.295"/>
						</g>
						<g style="opacity:0.35;">
							<g>
								<g>
									<path style="fill:#121A27;" d="M2605.674,1025.308c0,47.489-6.015,93.623-17.348,137.548c0,0-0.053,0-0.053,0.053           c-95.173,183.885-297.31,342.093-531.241,342.093c-233.927,0-436.011-158.208-531.192-342.093           c0-0.053-0.049-0.053-0.049-0.053c-6.77-26.176-11.633-53.102-14.49-80.683           c123.005,138.201,301.873,238.745,501.002,238.745c253.689,0,474.628-163.176,588.959-359.546           c0.353,0.905,0.702,1.757,1.003,2.658C2604.521,984.139,2605.674,1004.6,2605.674,1025.308"/>
								</g>
							</g>
						</g>
						<g style="opacity:0.5;">
							<g>
								<g>
									<path style="fill:#FFFFFF;" d="M2378.941,1020.082c-7.662,47.768,14.187,90.992,48.802,96.542           c34.614,5.55,68.884-28.671,76.546-76.443c7.659-47.768-14.191-90.992-48.805-96.542           C2420.87,938.09,2386.6,972.315,2378.941,1020.082"/>
								</g>
							</g>
						</g>
						<g style="opacity:0.5;">
							<g>
								<g>
									<path style="fill:#FFFFFF;" d="M2334.399,1195.075c-6.512,21.23,2.976,42.969,21.195,48.557           c18.218,5.588,38.266-7.09,44.778-28.32c6.511-21.229-2.977-42.969-21.195-48.557           C2360.958,1161.167,2340.911,1173.846,2334.399,1195.075"/>
								</g>
							</g>
						</g>
						<g style="opacity:0.5;">
							<g>
								<g>
									<path style="fill:#FFFFFF;" d="M1654.81,1206.225c0,0-91.299-271.452,53.724-383.297           c145.027-111.846,356.854-115.699,352.178-102.01c0,0-233.352,61.52-321.353,248.765           C1671.503,1114.073,1654.81,1206.225,1654.81,1206.225"/>
								</g>
							</g>
						</g>
					</g>
				</g>
			</g>
		</g>
	</g>
</g>
</svg>