<svg xmlns="http://www.w3.org/2000/svg" xmlns:xlink="http://www.w3.org/1999/xlink" version="1.1" id="Layer_1" x="0px" y="0px" viewBox="0 0 4000 4000" style="enable-background:new 0 0 4000 4000;" xml:space="preserve">
<g>
	
	<g>
		<g>
			<path style="fill:#371A45;" d="M1891.334,2599.184c-8.896,0-16.113-7.217-16.113-16.113v-865.906     c0-8.899,7.217-16.113,16.113-16.113s16.113,7.214,16.113,16.113v865.906C1907.447,2591.967,1900.23,2599.184,1891.334,2599.184z     "/>
		</g>
		<g>
			<g>
				<path style="fill:#FFFFFF;" d="M1886.993,3090.98c-136.708-0.396-375.123-18.882-385.131-154.476      c-1.292-17.758-1.308-37.027-0.158-57.23c7.463-134.095,64.835-308.866,121.463-348.3      c32.335-22.502,89.405-25.508,150.921-14.682c122.247,21.517,262.207,97.55,261.029,183.545      C2034.037,2782.599,2023.7,3091.376,1886.993,3090.98z"/>
			</g>
			<g style="opacity:0.35;">
				<path style="fill:#371A45;" d="M1886.993,3090.98c-136.708-0.396-375.123-18.882-385.131-154.476      c-1.292-17.758-1.308-37.027-0.158-57.23c36.673,30.969,90.143,6.42,97.748-29.608      c46.95-222.422,133.294-305.391,174.636-333.375c122.247,21.517,262.207,97.55,261.029,183.545      C2034.037,2782.599,2023.7,3091.376,1886.993,3090.98z"/>
			</g>
			<g>
				<path style="fill:#371A45;" d="M1887.266,3106.781c-0.112,0-0.215,0-0.322,0c-177.217-0.522-390.605-30.278-400.825-169.106      c-9.683-131.489,53.027-367.456,128.027-419.668c66.631-46.387,215.308-18.071,314.854,34.766      c79.336,42.109,122.637,94.409,121.934,147.266C2048.907,2851.996,2024.937,3106.777,1887.266,3106.781z M1709.327,2526.323      c-32.617,0-59.946,5.659-77.124,17.622l0,0c-59.917,41.709-124.16,261.191-114.57,391.406      c8.887,120.747,235.259,139.438,369.399,139.829c0.068,0,0.146,0,0.215,0c117.925,0.024,130.913-287.422,132.085-375.562      c0.532-39.834-37.793-83.184-105.146-118.936C1848.448,2545.79,1769.805,2526.323,1709.327,2526.323z M1623.175,2530.976h0.049      H1623.175z"/>
			</g>
			<g>
				<path style="fill:#FFFFFF;" d="M1622.628,2766.222l-52.914-23.127c-11.96-5.227-25.821,1.186-29.508,13.707      c-12.685,43.078-32.976,132.563,10.139,152.428c52.251,24.075,73.032-36.429,85.091-120.094      C1636.826,2779.497,1631.551,2770.122,1622.628,2766.222z"/>
			</g>
			<g style="opacity:0.35;">
				<path style="fill:#371A45;" d="M1635.423,2789.128c-12.05,83.664-32.836,144.187-85.083,120.094      c-21.464-9.863-27.209-37.02-25.985-67.091c4.116,8.764,10.217,15.651,18.955,19.665c46.778,21.544,68.359-24.706,80.969-94.721      C1632.22,2771.301,1636.749,2780.117,1635.423,2789.128z"/>
			</g>
			<g>
				<path style="fill:#371A45;" d="M1571.929,2927.753c-8.54,0-17.598-2.188-27.095-6.567      c-48.584-22.383-36.201-103.77-17.261-168.105c2.822-9.57,9.629-17.48,18.682-21.704c9.072-4.224,19.546-4.36,28.73-0.347      l52.915,23.125c14.336,6.27,22.793,21.426,20.566,36.86c-11.148,77.314-27.28,116.494-53.955,130.991      C1587.467,2925.839,1579.923,2927.753,1571.929,2927.753z M1561.021,2754.433c-1.567,0-2.847,0.444-3.638,0.811      c-1.299,0.605-3.608,2.095-4.546,5.278c-16.968,57.617-25.088,123.804,3.013,136.748c15.698,7.231,23.516,3.003,26.084,1.602      c26.455-14.38,37.002-87.563,40.469-111.616c0.542-3.745-1.533-7.437-5.049-8.97l-52.915-23.125      C1563.214,2754.623,1562.056,2754.433,1561.021,2754.433z"/>
			</g>
		</g>
		<g>
			<path style="fill:#FFFFFF;" d="M2083.241,3409.313c0,0,64.409,66.745,8.701,117.942c-48.216,44.269-180.378,16.676-227.506-71.82     c-30.13-56.554,0.483-106.946,5.72-195.684c2.658-44.188-1.047-97.842-21.631-166.521     c-10.191-34.077-21.872-76.614-25.377-126.965l284.664,153.349c0,0,8.298,26.706,13.655,66.141     C2129.806,3246.901,2131.094,3338.781,2083.241,3409.313z"/>
		</g>
		<g style="opacity:0.35;">
			<path style="fill:#371A45;" d="M2109.585,3503.248c-3.545,8.177-9.225,16.273-17.643,24.007     c-48.216,44.269-180.378,16.676-227.506-71.82c-30.13-56.554,0.483-106.946,5.72-195.684     c2.658-44.188-1.047-97.842-21.631-166.521c-10.191-34.077-21.872-76.614-25.377-126.965l49.142,26.464l235.522,126.885     c0,0,8.298,26.706,13.655,66.141c-32.901,41.213-78.317,71.619-138.479,80.481c-57.1,8.412-99.018,60.146-90.057,117.162     c1.806,11.494,5.432,22.864,11.625,34.495C1945.601,3494.99,2051.177,3525.845,2109.585,3503.248z"/>
		</g>
		<g>
			<path style="fill:#371A45;" d="M2026.798,3564.194c-10.327,0-21.157-0.938-32.324-2.847     c-48.858-8.345-112.412-38.564-144.253-98.35c-22.402-42.061-15.171-81.147-6.797-126.411     c10.415-56.299,23.374-126.367-10.317-238.745c-11.465-38.257-22.559-80.542-26.045-130.464l-2.036-29.18l316.206,170.342     l1.953,6.274c2.241,7.188,52.529,172.778-20.005,293.223c10.913,14.219,28.472,42.09,27.534,73.286     c-0.659,21.958-10.034,41.401-27.871,57.783C2084.962,3555.536,2058.175,3564.194,2026.798,3564.194z M1842.325,2994.892     c4.785,34.414,13.105,65.19,21.65,93.696c35.928,119.834,21.597,197.3,11.133,253.857c-7.866,42.544-13.555,73.281,3.555,105.405     c26.362,49.492,79.912,74.673,121.235,81.733c34.697,5.918,65.015,0.61,81.147-14.209c11.318-10.4,17.031-21.816,17.456-34.897     c0.991-30.464-26.602-59.697-26.885-59.99l-8.989-9.404l7.275-10.801c65.288-96.279,32.554-238.564,24.243-269.731     L1842.325,2994.892z"/>
		</g>
		<g>
			<path style="fill:#371A45;" d="M2032.467,3356.401c-89.604,0-167.354-47.451-171.641-50.117     c-4.941-3.066-6.455-9.556-3.394-14.497c3.066-4.941,9.556-6.46,14.502-3.398c1.299,0.801,131.182,79.893,241.255,30.43     c5.298-2.378,11.533-0.02,13.926,5.293c2.383,5.303,0.015,11.538-5.293,13.926     C2092.203,3351.347,2061.705,3356.401,2032.467,3356.401z"/>
		</g>
		<g>
			<path style="fill:#FFFFFF;" d="M2327.584,2670.563c0,0-15.065,16.515-35.407,47.693c-13.655,20.865-29.647,48.256-45.074,81.689     c-21.51,46.564-41.933,104.77-53.332,173.207c-5.357,32.023-14.542,64.329-28.116,94.418     c-40.966,91.156-121.97,161.768-257.515,142.03c-179.693-26.142-288.572-160.479-271.654-310.686     c3.182-28.277,8.701-55.91,16.636-82.737c6.042-20.543,13.534-40.603,22.477-60.179c18.368-40.24,42.859-78.346,73.794-113.914     c26.505-30.493,57.803-59.132,94.015-85.718c32.305-23.645,68.598-45.678,108.959-65.859     c25.78-12.89,53.251-25.055,82.415-36.414C2076.715,2437.78,2327.584,2670.563,2327.584,2670.563z"/>
		</g>
		<g style="opacity:0.35;">
			<path style="fill:#371A45;" d="M2185.232,3008.68c0.806-1.772,1.571-3.545,2.336-5.317     c-5.357,21.913-12.608,43.584-21.913,64.208c-40.966,91.156-121.97,161.768-257.515,142.03     c-179.693-26.142-288.572-160.479-271.654-310.686c4.955-43.986,15.508-86.322,32.023-126.562     c-5.72,22.074-9.869,44.631-12.447,67.672c-16.918,150.207,91.961,284.544,271.654,310.686     C2063.262,3170.448,2144.266,3099.836,2185.232,3008.68z"/>
		</g>
		<g>
			<path style="fill:#371A45;" d="M1952.632,3229.062c-14.897,0-30.474-1.133-46.802-3.511     c-183.77-26.743-303.784-164.873-285.371-328.433c23.022-204.585,164.272-362.964,408.472-458.022     c12.241-4.761,35.02-13.623,178.237,104.697c67.539,55.806,130.747,114.37,131.377,114.956l11.719,10.869l-10.762,11.792     c-0.991,1.089-99.204,110.913-129.854,294.414C2188.477,3102.553,2109.869,3229.047,1952.632,3229.062z M2039.932,2469.394     c-235.205,91.743-365.561,236.86-387.451,431.328c-16.392,145.601,92.109,268.799,257.988,292.944     c208.526,30.313,257.373-163.13,267.393-223.154c26.626-159.395,100.098-264.014,127.49-298.481     c-20.361-18.56-65.625-59.307-113.828-99.351c-118.945-98.804-147.407-103.286-151.572-103.286     C2039.947,2469.394,2039.937,2469.394,2039.932,2469.394z"/>
		</g>
		<g>
			<path style="fill:#FFFFFF;" d="M1917.873,3137.389c0,0,23.916,180.343-73.288,281.37c0,0,52.193,76.677-11.399,117.687     c-55.011,35.477-180.581-14.113-212.046-109.319c-30.115-91.121,71.732-145.601,45.69-359.671     c-4.294-35.299-8.597-79.209-3.531-129.428L1917.873,3137.389z"/>
		</g>
		<g style="opacity:0.35;">
			<path style="fill:#371A45;" d="M1853.56,3517.427c-4.834,6.848-11.48,13.293-20.382,19.012     c-54.983,35.488-180.579-14.098-212.038-109.322c-30.13-91.115,71.74-145.575,45.679-359.667     c-1.772-14.622-3.545-30.734-4.632-48.136c109.201,204.184-14.34,291.794,14.098,377.753     C1702.184,3475.494,1791.97,3522.985,1853.56,3517.427z"/>
		</g>
		<g>
			<path style="fill:#371A45;" d="M1923.198,3136.683c11.145,24.619,13.701,50.519,13.374,76.286     c-0.078,25.821-3.982,51.609-10.063,76.888c-6.252,25.237-14.053,50.332-25.442,74.211c-5.63,11.956-12.344,23.465-19.692,34.585     c-7.468,11.069-16.001,21.457-25.178,31.275l1.709-20.236c1.814,2.74,2.966,4.724,4.309,7.072     c1.294,2.263,2.488,4.542,3.655,6.842c2.314,4.602,4.409,9.311,6.277,14.154c3.743,9.67,6.592,19.906,7.932,30.749     c1.279,10.808,1.086,22.357-1.987,33.688c-2.874,11.35-8.774,22.114-16.382,30.796c-3.76,4.409-7.993,8.199-12.351,11.685     c-2.188,1.725-4.475,3.215-6.724,4.812c-2.356,1.54-5.022,2.979-7.544,4.414c-10.41,5.232-21.362,8-32.053,9.263     c-21.47,2.437-42.08-0.681-61.438-6.355c-38.645-11.601-73.506-33.513-100.361-63.811c-6.648-7.625-12.725-15.791-18.196-24.398     c-5.391-8.671-10.002-17.864-13.892-27.385c-3.743-9.467-6.758-19.813-8.357-30.356c-1.672-10.565-1.729-21.393-0.62-31.777     c2.209-20.902,8.562-39.783,14.875-57.532c6.416-17.799,12.949-34.822,18.53-52.016c11.245-34.26,18.281-69.299,20.469-105.077     c1.089-17.864,1.313-35.839,0.3-53.836c-0.469-8.994-1.089-17.999-2.007-26.99l-1.426-13.487     c-0.271-2.107-0.62-3.738-0.894-5.636c-0.403-1.867-0.901-3.789-1.37-5.674c-4.211-15.51-14.548-31.654-20.063-50.978     c-2.827-9.604-4.863-19.887-4.578-30.428c0.376-10.502,2.666-21.075,8.093-30.32c1.65-2.811,5.269-3.752,8.081-2.101     c1.152,0.678,1.992,1.687,2.466,2.835l0.142,0.344c3.823,9.259,6.472,17.33,9.385,25.226c2.791,7.874,5.72,15.569,8.757,23.558     c3.125,7.952,6.309,16.223,9.475,25.052c3.186,8.817,6.565,18.075,9.358,28.287c0.596,2.631,1.304,5.197,1.851,7.87     c0.442,2.686,0.979,5.616,1.289,8.113l1.504,14.204c0.964,9.473,1.626,19.003,2.122,28.541     c1.067,19.077,0.847,38.297-0.327,57.48c-2.314,38.366-10.044,76.7-21.98,112.977c-5.886,18.128-12.666,35.779-18.835,52.908     c-6.147,17.141-11.509,33.852-13.162,49.97c-1.885,16.183,0.774,31.465,6.868,46.944c3.149,7.654,6.863,15.109,11.277,22.214     c4.5,7.051,9.517,13.817,15.068,20.194c22.346,25.364,52.8,44.517,85.244,54.17c16.162,4.8,33.076,7.086,48.579,5.268     c7.72-0.901,15.005-2.868,21.213-5.982c1.477-0.909,2.935-1.633,4.463-2.624c1.516-1.115,3.145-2.136,4.595-3.288     c2.871-2.325,5.598-4.735,7.847-7.409c9.324-10.43,12.583-24.166,10.706-39.457c-0.933-7.592-3.037-15.393-5.999-23.023     c-1.47-3.817-3.149-7.601-5.007-11.29c-0.935-1.838-1.892-3.672-2.903-5.438c-0.95-1.688-2.168-3.697-2.913-4.828l-7.107-10.76     l8.816-9.478c7.839-8.431,15.205-17.348,21.702-26.98c6.387-9.7,12.305-19.779,17.305-30.414     c10.071-21.208,17.556-43.955,22.039-67.435c4.431-23.512,6.785-47.406,9.082-71.435c2.004-24.066,3.845-48.238,9.446-73.228     l0.073-0.326c0.676-3.021,3.674-4.921,6.694-4.244C1921.091,3133.923,1922.49,3135.149,1923.198,3136.683z"/>
		</g>
		<g>
			<path style="fill:#371A45;" d="M1843.184,3361.464c-106.636,0-196.021-78.096-200.342-81.934     c-4.351-3.857-4.746-10.513-0.889-14.863c3.867-4.351,10.518-4.751,14.868-0.894c1.147,1.011,115.801,100.957,232.612,70.859     c5.591-1.426,11.372,1.938,12.827,7.573c1.45,5.635-1.938,11.377-7.573,12.827     C1877.271,3359.521,1860.01,3361.464,1843.184,3361.464z"/>
		</g>
		<g style="opacity:0.35;">
			<path style="fill:#371A45;" d="M1883.166,2950.233c-169.179-46.242-223.397-120.359-223.397-120.359s-3.907-5.115-6.646-13.695     c6.042-20.543,13.534-40.603,22.477-60.179c8.137-4.633,15.186-6.083,15.186-6.083     c51.721,96.553,211.515,123.944,211.515,123.944C1939.68,2922.157,1883.166,2950.233,1883.166,2950.233z"/>
		</g>
		<g>
			<path style="fill:#FFFFFF;" d="M1964.976,2494.093l-110.047,89.665l-82.495,67.188c-7.412-2.215-15.146-5.156-23.041-8.862     c-111.981-52.002-263.477-244.585-251.916-382.426c2.256-26.787,32.628-84.348,51.559-100.823     c82.334-71.7,104.167,63.16,107.188,64.208c3.061,1.007,28.035-55.024,60.381-33.393c25.417,16.999,2.054,101.226,2.054,101.226     s32.063,73.835,110.45,135.344c32.668,25.659,73.391,49.183,123.259,64.288     C1956.518,2491.757,1960.707,2492.965,1964.976,2494.093z"/>
		</g>
		<g style="opacity:0.35;">
			<path style="fill:#371A45;" d="M1772.434,2650.946L1772.434,2650.946c-7.412-2.215-15.146-5.156-23.041-8.862     c-111.981-52.002-263.477-244.585-251.916-382.426c2.256-26.787,32.628-84.348,51.559-100.823     c14.944-13.01,27.875-19.214,39.073-20.624c-17.965,23.645-38.992,66.705-40.845,88.819     c-9.935,118.457,123.3,300.651,222.716,366.691C1789.886,2606.945,1790.959,2635.851,1772.434,2650.946z"/>
		</g>
		<g>
			<path style="fill:#371A45;" d="M1770.952,2655.99c-10.815-0.128-21.67-2.099-31.746-5.508     c-10.303-3.106-19.89-7.711-29.158-12.766c-18.323-10.456-35.227-22.901-50.73-36.723c-15.54-13.805-29.651-28.955-43.499-44.21     c-13.677-15.423-26.921-31.196-39.272-47.674c-24.595-33.003-46.577-68.135-63.75-106.026     c-16.96-37.823-30.051-78.542-31.519-121.948c-0.063-2.708-0.195-5.407-0.193-8.122l0.354-8.182l0.188-4.09     c0.051-1.34,0.1-2.687,0.369-4.387l0.674-4.807l0.957-4.364c2.708-11.449,6.594-21.382,10.835-31.195     c8.73-19.481,18.518-37.709,31.87-55.481c3.372-4.437,7.195-8.886,12.134-13.421c4.404-3.605,8.55-7.188,13.467-10.393     c9.524-6.426,20.713-12.303,34.441-14.179c13.699-2.014,29.39,2.603,39.668,10.897c5.366,3.983,9.768,8.567,13.513,13.292     c3.87,4.711,6.924,9.63,9.812,14.563c5.579,9.906,9.814,20.011,13.34,30.117c1.763,5.049,3.362,10.116,4.827,15.106l2.095,7.237     l0.723,2.383l-0.083-0.172l-0.049-0.082c0.049,0.192,0.098,0.034-0.996-1.805c-1.677-2.748-4.902-5.116-7.742-5.935     c-1.914-0.747-5.271-1.262-8.086-0.628c-3.228,0.695-5.173,2.092-4.917,1.903c-0.823,0.475-1.602,1.063-2.275,1.72l-0.437,0.419     l-0.264,0.31l0.085-0.119c0.623-0.785,2.29-3.253,3.677-5.279c1.472-2.145,3.032-4.365,4.663-6.586     c3.306-4.449,6.885-8.926,11.157-13.24c4.243-4.301,9.155-8.521,15.42-12.004c6.123-3.473,14.243-6.055,22.703-5.665     c8.474,0.375,16.274,3.59,22.134,7.548c8.147,5.599,12.334,13.444,14.668,19.933c4.446,13.27,4.365,24.601,4.121,35.671     c-0.417,11.024-1.763,21.583-3.521,31.986c-1.807,10.48-3.909,20.42-6.726,31.012l-0.732-10.516     c2.397,5.126,5.515,11.235,8.728,16.787c3.142,5.708,6.675,11.254,10.144,16.827c3.594,5.501,7.329,10.933,11.101,16.325     c4.001,5.236,7.81,10.622,11.956,15.747c16.379,20.671,34.922,39.633,55.222,56.358l7.539,6.368     c2.593,2.021,5.295,3.894,7.935,5.851c5.352,3.811,10.52,7.898,16.011,11.5c11.199,6.869,22.432,13.701,34.48,18.921     c5.955,2.725,11.575,6.12,17.566,8.754c5.977,2.665,11.824,5.64,17.664,8.761c5.715,3.444,11.729,6.185,17.554,9.731     c5.813,3.6,11.628,7.414,17.261,12.497l0.461,0.417c2.305,2.08,2.488,5.634,0.408,7.938c-0.964,1.067-2.253,1.68-3.579,1.823     c-29.719,3.165-57.92-6.129-82.852-20.042c-24.976-14.022-48.779-29.996-70.684-48.251     c-22.002-18.146-42.014-38.629-59.697-60.933c-4.47-5.535-8.601-11.344-12.91-17.008c-4.087-5.833-8.123-11.706-12.021-17.682     c-3.782-6.061-7.607-12.087-11.086-18.39c-3.621-6.328-6.802-12.415-10.186-19.717l-2.214-4.786l1.484-5.731     c4.668-18.022,8.379-37.653,9.116-55.716c0.364-8.906-0.203-18.074-2.31-23.898c-1.028-2.902-2.253-4.088-2.439-4.251     c-2.466-1.629-4.368-2.143-5.95-2.263c-1.592-0.038-3.499,0.311-6.084,1.763c-2.537,1.387-5.408,3.677-8.191,6.533     c-2.808,2.816-5.54,6.187-8.218,9.796l-4.038,5.711c-1.472,2.098-2.537,3.853-4.98,7.044l-0.493,0.624l-0.894,1.009     c-0.369,0.389-0.483,0.542-1.077,1.109c-0.92,0.851-1.946,1.635-3.013,2.304c0.144-0.066-1.956,1.363-5.342,2.079     c-2.964,0.652-6.492,0.206-8.538-0.566c-3.02-1.074-6.431-3.697-8.289-6.7c-1.201-1.959-1.211-2.262-1.213-2.219l-0.217-0.521     l-0.417-1.051l-0.383-1.035l-0.183-0.576l-0.366-1.153l-0.608-2.035l-2.095-7.232c-1.362-4.646-2.791-9.157-4.336-13.59     c-3.079-8.854-6.697-17.318-10.979-24.922c-4.307-7.457-9.363-14.268-14.836-18.211c-2.693-2.144-5.42-3.414-8.149-4.187     c-2.698-0.931-5.583-0.859-8.684-0.613c-6.265,0.832-13.552,4.149-20.552,8.963c-3.533,2.25-6.982,5.272-10.366,7.996     c-2.429,2.29-5.283,5.389-7.957,8.97c-10.833,14.327-20.315,31.672-27.935,48.83c-3.75,8.592-7.102,17.494-8.992,25.609     l-0.674,2.988l-0.356,2.654c-0.168,0.779-0.215,1.942-0.251,3.112l-0.146,3.434l-0.315,6.867     c0.002,2.304,0.129,4.624,0.181,6.935c1.182,37.139,12.844,74.573,28.704,109.783c15.996,35.335,36.855,68.733,60.234,100.1     c23.352,31.44,50.54,60.062,80.027,85.276c14.646,12.703,29.475,25.071,44.929,36.373l23.14,17.077     c7.761,5.862,15.786,10.936,24.045,17.047l0.322,0.239c2.427,1.795,2.939,5.219,1.143,7.645     C1774.333,2655.233,1772.637,2655.999,1770.952,2655.99z"/>
		</g>
		<g>
			<g style="opacity:0.35;">
				<path style="fill:#371A45;" d="M2292.177,2718.255c20.344-31.177,35.408-47.692,35.408-47.692s-250.87-232.783-292.802-216.469      c-29.162,11.359-56.634,23.524-82.414,36.414c-49.868-15.105-90.591-38.629-123.261-64.288      c-5.316,44.188-0.484,88.819,14.301,130.147c3.304,9.305,7.169,18.449,11.521,27.391c4.189,8.66,8.862,17.119,14.018,25.337      c33.716,53.775,88.416,113.149,176.269,153.591c24.33,11.198,48.096,19.496,71.096,25.458      c45.347,11.788,87.634,14.437,125.236,12.118c9.543-20.479,25.546-46.063,50.588-63.181      C2291.902,2730.545,2291.889,2724.236,2292.177,2718.255z"/>
			</g>
			<g>
				<g>
					<g>
						<path style="fill:#FFFFFF;" d="M2569.002,2621.111L2569.002,2621.111c-4.157-1.653-6.187-6.363-4.534-10.52l86.205-216.8        c1.653-4.157,6.363-6.187,10.519-4.534h0c43.609,17.34,64.905,66.75,47.564,110.359l-29.396,73.93        C2662.021,2617.156,2612.611,2638.452,2569.002,2621.111z"/>
						<path style="fill:#371A45;" d="M2600.294,2629.008c-10.664,0-21.494-1.973-31.987-6.147h-0.005        c-5.112-2.036-7.617-7.852-5.581-12.969l86.206-216.792c0.981-2.48,2.871-4.429,5.322-5.483        c2.451-1.05,5.166-1.094,7.637-0.107c21.563,8.569,38.491,25.024,47.676,46.333c9.18,21.309,9.517,44.912,0.942,66.47        l-29.395,73.931C2667.589,2608.251,2634.844,2629.008,2600.294,2629.008z M2569.693,2619.365        c42.578,16.919,90.986-3.936,107.92-46.509l29.395-73.931c8.203-20.625,7.881-43.208-0.903-63.594        c-8.789-20.381-24.985-36.123-45.605-44.326c-1.548-0.61-3.232-0.581-4.761,0.068c-1.523,0.659-2.7,1.87-3.315,3.413        l-86.206,216.797c-1.265,3.188,0.293,6.812,3.481,8.081H2569.693z"/>
					</g>
					<g style="opacity:0.35;">
						<path style="fill:#371A45;" d="M2693.145,2538.88l-13.78,34.677c-17.34,43.592-66.749,64.896-110.374,47.568        c-4.157-1.648-6.176-6.379-4.529-10.536l22.898-57.641c0.122,3.092,2.031,5.952,5.073,7.188l5.147,2.03        C2632.039,2575.877,2670.147,2565.445,2693.145,2538.88z"/>
					</g>
					<g>
						<path style="fill:#371A45;" d="M2600.279,2639.921c-12.002,0-24.189-2.227-36.006-6.924h-0.005        c-10.703-4.263-15.942-16.436-11.685-27.134l86.206-216.797c2.056-5.181,6.016-9.258,11.143-11.47        c5.132-2.207,10.806-2.28,15.981-0.229c24.272,9.653,43.325,28.174,53.662,52.158s10.718,50.552,1.064,74.819l-29.395,73.931        C2676.026,2616.552,2639.171,2639.921,2600.279,2639.921z M2578.14,2610.82c35.889,11.655,75.21-6.479,89.336-41.997        l29.395-73.931c7.124-17.915,6.846-37.534-0.786-55.244c-7.012-16.26-19.448-29.121-35.313-36.631L2578.14,2610.82z         M2573.731,2609.228h0.005H2573.731L2573.731,2609.228z"/>
					</g>
					<g>
						<path style="fill:#FFFFFF;" d="M1945.586,2104.714L1945.586,2104.714c4.157,1.653,6.187,6.363,4.534,10.519l-86.205,216.8        c-1.653,4.157-6.363,6.187-10.519,4.534h0c-43.609-17.34-64.905-66.75-47.564-110.359l29.396-73.93        C1852.567,2108.669,1901.977,2087.374,1945.586,2104.714z"/>
						<path style="fill:#371A45;" d="M1856.378,2339.023c-1.226,0-2.471-0.225-3.682-0.708        c-44.502-17.695-66.309-68.296-48.613-112.798l29.395-73.931c17.7-44.517,68.306-66.323,112.803-48.618        c2.48,0.981,4.424,2.876,5.479,5.322c1.055,2.451,1.094,5.161,0.107,7.642l-86.201,216.797        C1864.107,2336.64,1860.347,2339.023,1856.378,2339.023z M1914.171,2100.536c-11.162,0-22.31,2.28-32.871,6.831        c-20.381,8.789-36.123,24.985-44.326,45.605l-29.395,73.931c-16.929,42.578,3.936,90.986,46.509,107.915        c3.169,1.26,6.807-0.288,8.081-3.481l86.201-216.797c0.615-1.543,0.591-3.232-0.068-4.761c-0.654-1.523-1.865-2.7-3.408-3.315        l0,0C1934.952,2102.514,1924.556,2100.536,1914.171,2100.536z"/>
					</g>
					<g style="opacity:0.35;">
						<path style="fill:#371A45;" d="M1887.847,2271.896l-23.922,60.142c-1.648,4.157-6.379,6.176-10.536,4.529        c-22.885-9.111-39.651-27.053-47.883-48.368c-7.435-19.249-7.902-41.267,0.328-61.974l12.385-31.153        c1.511,32.253,21.522,62.261,53.493,74.98l7.912,3.145C1882.514,2274.339,1885.604,2273.719,1887.847,2271.896z"/>
					</g>
					<g>
						<path style="fill:#371A45;" d="M1856.363,2349.931c-2.568,0-5.171-0.474-7.695-1.479        c-24.268-9.648-43.32-28.169-53.657-52.148c-10.337-23.979-10.713-50.552-1.064-74.819l29.394-73.931        c19.922-50.088,76.875-74.619,126.968-54.727l0,0c0,0,0,0.005,0.005,0.005l0,0c5.185,2.061,9.258,6.016,11.465,11.143        c2.212,5.127,2.29,10.806,0.225,15.991l-86.201,216.797C1872.545,2344.941,1864.669,2349.931,1856.363,2349.931z         M1914.273,2111.489c-28.711,0-55.918,17.251-67.163,45.518l-29.395,73.931c-7.124,17.915-6.841,37.534,0.786,55.239        c7.012,16.265,19.453,29.126,35.317,36.636l82.622-207.803C1929.117,2112.626,1921.646,2111.489,1914.273,2111.489z"/>
					</g>
					<g>
						<circle style="fill:#FFFFFF;" cx="2257.339" cy="2362.931" r="397.58"/>
						<path style="fill:#371A45;" d="M2257.032,2762.602c-59.287,0-118.271-13.364-173.247-39.883        c-96.104-46.357-168.403-127.363-203.579-228.101s-29.014-209.141,17.344-305.244        c46.357-96.104,127.363-168.398,228.101-203.577c100.732-35.176,209.136-29.011,305.244,17.344        c198.384,95.691,281.934,334.949,186.235,533.342v0.005c-46.357,96.099-127.363,168.398-228.101,203.574        C2345.919,2755.116,2301.387,2762.602,2257.032,2762.602z M2257.647,1967.026c-43.945,0-88.042,7.412-130.757,22.327        c-99.785,34.846-180.029,106.462-225.952,201.658c-45.923,95.2-52.021,202.583-17.178,302.368s106.465,180.029,201.66,225.952        c95.2,45.918,202.568,52.017,302.368,17.178c99.785-34.844,180.029-106.46,225.952-201.655l1.694,0.815l-1.694-0.815        c94.79-196.528,12.031-433.53-184.482-528.323C2374.805,1980.265,2316.363,1967.026,2257.647,1967.026z"/>
					</g>
					<g style="opacity:0.35;">
						<path style="fill:#371A45;" d="M2635.913,2484.441c-5.53,17.292-12.357,34.395-20.474,51.232        c-95.424,197.752-333.074,280.74-530.846,185.363c-197.752-95.423-280.74-333.073-185.363-530.846        c2.74-5.689,5.618-11.317,8.594-16.791c-59.944,185.963,24.888,392.321,205.837,479.614        C2305.744,2745.65,2535.41,2670.033,2635.913,2484.441z"/>
					</g>
					<g>
						<path style="fill:#371A45;" d="M2257.022,2776.528c-61.353,0-122.393-13.828-179.282-41.274        c-99.453-47.974-174.272-131.802-210.674-236.045c-36.401-104.248-30.024-216.426,17.949-315.879        c47.974-99.453,131.802-174.268,236.045-210.669c104.248-36.409,216.426-30.027,315.879,17.944        c205.298,99.028,291.758,346.621,192.725,551.929l0,0c-47.974,99.448-131.802,174.268-236.045,210.669        C2349.005,2768.779,2302.921,2776.528,2257.022,2776.528z M2257.633,1980.952c-42.397,0-84.941,7.151-126.152,21.54        c-96.279,33.621-173.701,102.717-218.008,194.568c-44.307,91.846-50.191,195.454-16.572,291.729        c33.618,96.279,102.72,173.701,194.57,218.008c189.59,91.46,418.271,11.611,509.736-177.993        c91.455-189.609,11.606-418.276-177.998-509.736C2370.675,1993.725,2314.288,1980.952,2257.633,1980.952z M2615.435,2535.668        h0.049H2615.435z"/>
					</g>
					<g>
						<path style="fill:#371A45;" d="M2609.852,2544.311c-32.74,70.576-86.045,125.472-150.375,161.509        c-48.229,27.017-201.979,42.133-351.709-25.696c-138.833-62.892-230.43-194.96-240.951-249.23        c-14.033-72.389-6.548-148.54,26.192-219.116c86.638-186.766,283.017-189.755,480.976-97.925        S2696.49,2357.545,2609.852,2544.311z"/>
					</g>
					<g>
						<path style="fill:#371A45;" d="M2330.968,2739.311c-65.469,0-145.967-12.695-227.52-49.639        c-143.896-65.19-235.864-199.766-246.919-256.787c-14.971-77.222-5.645-155.205,26.973-225.518        c42.524-91.665,112.07-145.288,206.709-159.39c82.51-12.305,182.178,7.197,288.184,56.367        c106.001,49.175,185.244,112.671,229.16,183.623c50.352,81.357,54.326,169.087,11.807,260.752l0,0        c-32.617,70.313-86.133,127.798-154.761,166.24C2441.451,2727.929,2392.94,2739.311,2330.968,2739.311z M2138.873,2065.317        c-91.045,0-182.612,35.015-236.358,150.869c-30.752,66.289-39.536,139.844-25.41,212.715        c10.029,51.733,99.575,180.337,234.99,241.68c150.068,67.988,299.272,50.181,342.261,26.099        c64.761-36.274,115.244-90.488,145.991-156.777c106.631-229.868-125.864-367.881-230.771-416.543        C2317.545,2099.223,2228.463,2065.317,2138.873,2065.317z M2609.854,2544.311h0.049H2609.854z"/>
					</g>
					<g style="opacity:0.6;">
						
							<ellipse transform="matrix(0.5758 -0.8176 0.8176 0.5758 -952.6118 3093.7368)" style="fill:#FFFFFF;" cx="2505.133" cy="2464.902" rx="70.359" ry="50.984"/>
					</g>
					<g style="opacity:0.6;">
						
							<ellipse transform="matrix(0.6833 -0.7302 0.7302 0.6833 -1115.9845 2557.4519)" style="fill:#FFFFFF;" cx="2389.826" cy="2565.053" rx="32.294" ry="27.713"/>
					</g>
					<g style="opacity:0.35;">
						<path style="fill:#111A28;" d="M2620.967,2337.738c24.421,62.136,23.673,131.545-11.114,206.561        c-32.745,70.591-86.062,125.476-150.366,161.527c-48.238,27.013-201.997,42.12-351.732-25.693        c-52.875-23.935-98.874-57.913-136.171-93.834c185.836,79.435,373.43,60.368,433.241,26.857        c81.651-45.736,149.306-115.421,190.837-204.983C2606.781,2384.244,2615.117,2360.741,2620.967,2337.738z"/>
					</g>
					<g>
						<path style="fill:#371A45;" d="M2655.015,2379.399c-4.253,0-8.428-2.061-10.967-5.864c-0.444-0.669-0.864-1.44-1.177-2.183        l-0.576-1.333l-0.264-1.426c-21.055-112.393-115.161-214.907-258.188-281.265c-143.799-66.704-283.438-70.727-383.12-11.021        l-1.318,0.693c-6.138,2.837-13.53,0.562-16.948-5.425c-3.608-6.313-1.416-14.351,4.897-17.959        c0.034-0.02,0.073-0.044,0.107-0.063c107.261-64.084,255.747-60.491,407.466,9.888        c150.532,69.839,249.932,178.994,272.847,299.556c1.328,5.259-0.698,11.006-5.464,14.189        C2660.064,2378.681,2657.525,2379.399,2655.015,2379.399z M2654.971,2366.166h0.049H2654.971z"/>
					</g>
					<g style="opacity:0.6;">
						<path style="fill:#FFFFFF;" d="M1921.963,2360.224c0,0,27.624-211.079,160.979-238.438        c133.355-27.36,276.076,39.207,268.485,46.819c0,0-175.915-35.078-295.797,61.247        C1963.187,2304.131,1921.963,2360.224,1921.963,2360.224z"/>
					</g>
				</g>
			</g>
		</g>
		<g>
			<path style="fill:#371A45;" d="M1573.233,2480.571c-4.805,0-7.598-0.181-7.798-0.195c-7.256-0.532-12.7-6.841-12.168-14.092     c0.532-7.246,6.792-12.646,14.077-12.173c5.557,0.391,136.655,8.228,174.614-108.662c2.241-6.924,9.673-10.708,16.592-8.457     c6.914,2.246,10.703,9.673,8.457,16.592C1728.37,2472.558,1605.489,2480.571,1573.233,2480.571z"/>
		</g>
		<g>
			<g>
				<g>
					<path style="fill:#FFB200;" d="M1855.06,1543.628l-54.131,93.758c-20.471,35.457,5.118,79.779,46.06,79.779h94.415       c40.943,0,66.532-44.322,46.06-79.779l-54.131-93.758C1915.939,1513.501,1872.454,1513.501,1855.06,1543.628z"/>
				</g>
				<g style="opacity:0.25;">
					<path style="fill:#371A45;" d="M1855.06,1543.628l-54.131,93.758c-20.471,35.457,5.118,79.779,46.06,79.779h94.415       c40.943,0,66.532-44.322,46.06-79.779l-54.131-93.758C1915.939,1513.501,1872.454,1513.501,1855.06,1543.628z"/>
				</g>
				<g>
					<path style="fill:#371A45;" d="M1941.402,1733.278h-94.414c-25.049,0-47.485-12.954-60.01-34.648       c-12.529-21.694-12.529-47.603-0.005-69.299l54.131-93.76c11.084-19.192,30.928-30.652,53.091-30.652       c22.163,0,42.007,11.46,53.091,30.652l54.131,93.76c12.524,21.694,12.524,47.6,0,69.294       C1988.892,1720.324,1966.456,1733.278,1941.402,1733.278z M1894.195,1537.145c-10.513,0-19.927,5.435-25.181,14.539       l-54.131,93.76c-6.704,11.606-6.704,25.466,0,37.073c6.699,11.606,18.701,18.535,32.104,18.535h94.414       c13.403,0,25.405-6.929,32.109-18.537c6.699-11.607,6.699-25.464-0.005-37.07l-54.131-93.76       C1914.122,1542.58,1904.708,1537.145,1894.195,1537.145z M1855.059,1543.627h0.049H1855.059z"/>
				</g>
				<g>
					<path style="fill:#FFB200;" d="M2549.572,971.428c-2.419,26.333-6.434,52.424-12.054,78.138       c-7.823,36.134-18.773,71.506-32.622,105.708c-60.058,148.371-175.048,274.772-332.404,345.938       c-157.7,71.322-328.977,74.058-480.288,20.84c-33.23-11.698-65.502-26.09-96.426-43.047       c-24.27-13.271-47.692-28.138-70.156-44.485c158.384-39.834,341.438-104.078,530.888-189.759       C2245.936,1159.091,2415.065,1064.057,2549.572,971.428z"/>
				</g>
				<g>
					<path style="fill:#D66B09;" d="M2056.509,1244.762c189.427-85.671,358.556-180.705,493.063-273.334       c-2.419,26.333-6.434,52.424-12.054,78.138c-103.513,75.195-268.893,168.038-461.477,255.137       c-184.463,83.426-356.41,144.631-480.263,174.303c-24.27-13.271-47.692-28.138-70.156-44.485       C1684.005,1394.687,1867.059,1330.443,2056.509,1244.762z"/>
				</g>
				<g>
					<path style="fill:#FFB200;" d="M2523.374,722.081c-105.041,84.943-312.51,203.843-560.36,315.952       c-247.821,112.078-474.159,189.369-607.319,212.14c-13.86-22.65-26.429-46.405-37.646-71.205       c-0.522-1.167-1.045-2.305-1.567-3.504c-4.886-10.941-9.434-21.941-13.645-33.036c-9.896-25.906-18.009-52.121-24.37-78.457       c-0.277-1.076-0.523-2.12-0.768-3.196c-9.25-39.183-14.721-78.673-16.503-117.979c-3.472-74.832,6.269-149.049,27.905-219.455       c16.134-52.427,38.845-102.735,67.702-149.601c65.212-105.871,161.648-194.132,283.5-249.234       c12.108-5.469,24.278-10.542,36.54-15.211c164.169-62.632,339.954-53.689,490.907,13.091c0.953,0.431,1.906,0.83,2.858,1.29       c65.489,29.288,126.246,69.577,179.288,119.577c25.937,24.492,50.062,51.321,71.912,80.394       c2.397,3.133,4.732,6.329,7.068,9.526c1.937,2.612,3.811,5.255,5.686,7.929c15.581,22.189,29.902,45.605,42.809,70.131       c4.825,9.096,9.435,18.376,13.829,27.78c1.199,2.582,2.397,5.163,3.565,7.776       C2505.98,671.559,2515.507,696.728,2523.374,722.081z"/>
				</g>
				<g>
					<path style="fill:#D66B09;" d="M2491.186,639.028c1.215,2.564,2.407,5.139,3.586,7.746       c11.214,24.796,20.741,49.943,28.597,75.294c-105.028,84.945-312.513,203.857-560.363,315.95       c-247.827,112.083-474.164,189.372-607.31,212.144c-13.849-22.641-26.441-46.401-37.655-71.197       c-0.528-1.167-1.045-2.31-1.55-3.487c126.252-13.95,356.649-88.722,609.302-202.988       C2188.421,853.714,2403.149,724.803,2491.186,639.028z"/>
				</g>
				<g>
					<path style="fill:#D66B09;" d="M1269.82,959.633c-3.306,0-6.47-0.078-9.502-0.237l1.719-33.228       c88.833,4.609,319.922-68.713,562.178-178.279c289.15-130.774,476.211-256.655,511.543-313.415l28.252,17.583       c-45.01,72.3-261.343,206.418-526.084,326.15C1595.411,887.888,1370.123,959.633,1269.82,959.633z"/>
				</g>
				<g>
					<path style="fill:#D66B09;" d="M1291.539,739.797l-4.893-32.915c99.424-14.766,271.572-73.865,449.272-154.231       c186.206-84.214,347.432-177.205,420.747-242.686l22.168,24.819c-75.669,67.576-240.127,162.673-429.204,248.184       C1569.322,664.516,1393.795,724.609,1291.539,739.797z"/>
				</g>
				<g>
					<path style="fill:#D66B09;" d="M1278.668,1077.404c-0.352,0-0.698-0.002-1.05-0.002l0.166-33.276       c0.322,0.002,0.649,0.002,0.977,0.002c102.207,0,340.22-76.616,593.066-190.969       c266.143-120.369,489.683-255.989,543.608-329.81l26.865,19.629c-57.871,79.224-281.616,216.06-556.763,340.498       C1628.78,999.599,1385.23,1077.404,1278.668,1077.404z"/>
				</g>
				<g>
					<path style="fill:#D66B09;" d="M1692.798,1530.351l-0.596-8.269l-3.74-7.461l1.475-0.737l1.67-0.129       c87.627-6.309,254.478-60.242,425.078-137.397c171.543-77.583,318.076-164.583,382.417-227.051l11.592,11.938       c-65.63,63.716-213.979,151.951-387.153,230.274C1948.653,1470.612,1783.599,1523.81,1692.798,1530.351z"/>
				</g>
				<g>
					<path style="fill:#371A45;" d="M1906.768,1574.514c-138.159,0-275.454-43.052-390.635-126.97l-27.803-20.256l33.359-8.391       c163.13-41.028,345.771-106.318,528.179-188.813c182.388-82.488,352.021-176.518,490.562-271.924l28.33-19.509l-3.145,34.253       c-21.763,236.953-169.854,445.017-386.484,542.991C2092.237,1555.19,1999.302,1574.514,1906.768,1574.514z M1563.853,1441.244       c179.048,115.828,406.533,133.689,601.997,45.288c195.474-88.406,332.285-271.023,363.525-481.96       c-134.385,89.614-294.775,177.329-466.226,254.871C1891.69,1336.987,1719.879,1399.509,1563.853,1441.244z"/>
				</g>
				<g>
					<path style="fill:#D66B09;" d="M2532.222,562.523c0.6,1.327,1.063,2.716,1.388,4.167L2532.222,562.523z"/>
				</g>
				<g>
					<path style="fill:#FFCC4D;" d="M2866.285,579.159c38.981,86.193-89.531,235.82-316.713,392.268       c-134.507,92.629-303.635,187.663-493.063,273.334c-189.45,85.681-372.504,149.926-530.888,189.759       c-267.51,67.282-464.714,64.964-503.695-21.229c-35.402-78.278,67.299-208.82,256.535-349.319       c6.379,26.349,14.482,52.553,24.383,78.467c-52.318,42.784-78.078,76.725-69.129,96.512       c9.114,20.153,53.072,22.977,121.981,11.21c133.146-22.772,359.483-100.061,607.31-212.144       c247.85-112.093,455.335-231.005,560.363-315.95c54.319-43.964,81.227-78.838,72.113-98.991       c-8.938-19.764-51.448-22.857-118.102-11.834c-12.921-24.548-27.246-47.938-42.821-70.128       C2665.033,491.795,2830.883,500.881,2866.285,579.159z"/>
				</g>
				<g>
					<path style="fill:#FFEC90;" d="M1264.151,1319.191c-49.683,0.002-87.559-10.31-100.039-37.903       c-17.852-39.463,22.856-98.933,120.986-176.755l15.508,19.551c-123.066,97.603-118.184,137.131-113.76,146.922       c15.366,33.965,135.952,36.472,370.698-34.507c129.102-39.067,275.103-94.888,422.222-161.423       c147.1-66.528,285.425-139.299,400.024-210.444c208.34-129.412,286.099-221.619,270.737-255.591       c-4.434-9.79-30.894-39.553-185.449-11.602l-4.443-24.556c123.237-22.295,194.775-13.591,212.627,25.874       c34.702,76.731-160.728,212.795-280.308,287.075c-115.508,71.711-254.829,145.012-402.905,211.982       c-148.091,66.975-295.151,123.191-425.278,162.571C1478.487,1286.474,1352.618,1319.186,1264.151,1319.191z"/>
				</g>
				<g>
					<path style="fill:#FFEC90;" d="M1228.077,1406.283c-70.22,0.002-127.734-14.253-146.494-55.737       c-34.766-76.86,87.124-190.964,195.498-273.149l15.078,19.883c-138.818,105.276-209.038,196.111-187.842,242.983       c12.568,27.788,59.912,42.422,133.286,41.167c76.299-1.289,179.712-19.309,299.058-52.112       c147.061-40.41,312.451-101.416,478.301-176.423c165.835-75,320.864-158.906,448.32-242.651       c103.447-67.961,185.273-133.716,236.636-190.161c49.399-54.289,69.683-99.49,57.119-127.278       c-21.201-46.875-135.776-54.126-306.514-19.412l-4.971-24.453c133.281-27.104,299.463-43.274,334.219,33.582       c47.1,104.141-196.06,278.464-302.788,348.579c-128.525,84.448-284.736,169.006-451.738,244.534       c-167.017,75.535-333.677,136.999-481.973,177.747C1469.19,1373.744,1334.151,1406.281,1228.077,1406.283z"/>
				</g>
				<g>
					<path style="fill:#371A45;" d="M1209.947,1497.953c-108.809,0.005-179.253-26.169-202.705-78.02       c-51.45-113.772,141.826-279.961,261.616-368.896l19.541-14.507l5.723,23.655c6.26,25.854,14.258,51.594,23.774,76.504       l4.155,10.864l-9.004,7.361c-59.683,48.804-66.904,72.417-64.649,77.397c2.31,5.122,25.591,15.454,104.585,1.968       c135.859-23.232,367.065-104.063,603.384-210.94c236.323-106.882,449.702-227.122,556.87-313.799       c62.251-50.386,69.878-74.705,67.563-79.824c-2.246-4.981-24.751-15.159-100.796-2.578l-11.47,1.897l-5.415-10.288       c-12.407-23.579-26.455-46.582-41.748-68.376l-13.979-19.919l23.794-5.09c145.898-31.223,398.325-66.611,449.78,47.161       c41.694,92.197-75.762,242.429-322.256,412.175c-140.093,96.477-311.455,191.482-495.562,274.746       c-184.126,83.271-368.643,149.216-533.599,190.703C1402.54,1482.092,1294.62,1497.948,1209.947,1497.953z M1268.961,1091.286       c-175.029,133.489-261.636,250.623-232.354,315.369c33.623,74.346,219.497,79.033,485.083,12.241       c163.13-41.028,345.771-106.318,528.179-188.813c182.388-82.488,352.021-176.518,490.562-271.924       c225.562-155.332,344.795-298.013,311.172-372.358v-0.003c-29.277-64.741-174.438-77.065-390.259-33.782       c8.77,13.535,17.07,27.424,24.819,41.54c72.617-10.73,112.124-3.376,124.004,22.881c12.671,28.025-11.689,65.569-76.66,118.154       c-110.811,89.622-321.597,208.54-563.858,318.108c-242.266,109.565-470.762,189.321-611.24,213.345       c-82.422,14.067-126.699,7.573-139.375-20.454c-11.875-26.257,8.711-60.786,64.731-108.232       C1278.282,1122.206,1273.331,1106.803,1268.961,1091.286z"/>
				</g>
				<g style="opacity:0.41;">
					<g>
						<path style="fill:#FFFFFF;" d="M2523.366,722.061c-12.224,9.892-25.812,20.214-40.726,30.969        c-6.024-16.985-12.818-33.883-20.354-50.572c-1.194-2.601-2.39-5.164-3.587-7.725c-4.384-9.447-8.985-18.714-13.805-27.801        c-12.915-24.547-27.265-47.949-42.813-70.143c-1.869-2.667-3.781-5.297-5.694-7.929        c-23.718-32.727-50.219-62.795-79.01-89.915c-53.788-50.745-115.519-91.467-182.112-120.866        c-162.219-71.743-353.131-76.744-527.457,2.113c-116.371,52.637-209.584,135.501-274.533,235.126        c64.439-124.3,169.548-228.638,307.054-290.83c174.322-78.818,365.237-73.856,527.418-2.117        c66.589,29.439,128.364,70.125,182.148,120.91c28.75,27.116,55.256,57.143,78.974,89.871c1.952,2.635,3.821,5.301,5.69,7.968        c15.588,22.198,29.902,45.556,42.817,70.103c4.816,9.127,9.417,18.394,13.805,27.801c1.237,2.566,2.434,5.128,3.583,7.766        C2505.972,671.574,2515.501,696.717,2523.366,722.061z"/>
					</g>
				</g>
				<g>
					<path style="fill:#371A45;" d="M1347.647,1267.885l-5.698-9.316c-14.243-23.291-27.226-47.842-38.589-72.966       c-5.601-12.383-10.84-24.978-15.576-37.439c-9.995-26.157-18.403-53.218-24.981-80.401       c-74.536-308.281,81.436-627.041,370.869-757.939c289.434-130.893,631.802-37.522,814.072,222.031       c16.084,22.915,30.85,47.1,43.892,71.882c6.226,11.782,12.227,24.038,17.817,36.396c11.367,25.137,21.226,51.099,29.307,77.163       l3.232,10.432l-8.491,6.865c-110.806,89.619-321.592,208.538-563.853,318.105c-242.266,109.565-470.762,189.321-611.24,213.345       L1347.647,1267.885z M1906.158,283.212c-87.271,0-175.547,18.137-259.204,55.972       c-275.347,124.529-423.73,427.754-352.832,721.003c6.26,25.852,14.258,51.592,23.774,76.502       c4.512,11.872,9.497,23.852,14.824,35.635c9.297,20.557,19.727,40.701,31.079,60.022       c137.104-25.532,362.407-104.915,592.568-209.006c230.161-104.097,438.56-220.862,548.271-306.951       c-7.012-21.277-15.249-42.412-24.551-62.974l0,0c-5.317-11.763-11.025-23.418-16.953-34.646       c-12.422-23.599-26.47-46.604-41.763-68.398C2300.665,378.491,2106.119,283.212,1906.158,283.212z"/>
				</g>
				<g style="opacity:0.25;">
					<path style="fill:#371A45;" d="M2044.864,1250.009c-185.322,83.092-364.117,145.476-519.245,184.511       c-267.503,67.271-464.728,64.951-503.711-21.227c-35.371-78.29,67.329-208.809,256.54-349.321       c6.403,26.366,14.506,52.575,24.404,78.476c-52.33,42.765-78.101,76.7-69.139,96.494       c9.126,20.171,53.092,23.004,121.968,11.232c88.329-15.111,217.675-54.225,367.147-111.574       c-3.6,19.466-2.022,37.226,5.053,52.868C1757.072,1256.046,1875.066,1273.553,2044.864,1250.009z"/>
				</g>
				<g style="opacity:0.3;">
					<path style="fill:#293856;" d="M1386.61,529.578c2.428-3.319,4.886-6.639,7.468-9.926       C1391.527,522.939,1389.038,526.229,1386.61,529.578z"/>
				</g>
				<g style="opacity:0.3;">
					<path style="fill:#293856;" d="M1402.837,508.435c5.685-7.131,11.555-14.137,17.609-21.02       C1414.423,494.298,1408.552,501.304,1402.837,508.435z"/>
				</g>
				<g style="opacity:0.3;">
					<path style="fill:#293856;" d="M1458.461,447.524c-6.3,6.086-12.477,12.263-18.5,18.562       C1445.984,459.756,1452.161,453.578,1458.461,447.524z"/>
				</g>
				<g style="opacity:0.3;">
					<path style="fill:#293856;" d="M1468.541,438.028c6.792-6.269,13.737-12.416,20.836-18.378       C1482.278,425.644,1475.333,431.79,1468.541,438.028z"/>
				</g>
				<g style="opacity:0.3;">
					<path style="fill:#293856;" d="M1511.135,402.103c-7.406,5.716-14.659,11.556-21.758,17.548       C1496.476,413.627,1503.729,407.757,1511.135,402.103z"/>
				</g>
				<g style="opacity:0.25;">
					<path style="fill:#371A45;" d="M2549.572,971.428c-2.419,26.333-6.434,52.424-12.054,78.138       c-7.823,36.134-18.773,71.506-32.622,105.708c-60.058,148.371-175.048,274.772-332.404,345.938       c-157.7,71.322-328.977,74.058-480.288,20.84c-33.23-11.698-65.502-26.09-96.426-43.047       c-24.27-13.271-47.692-28.138-70.156-44.485c158.384-39.834,341.438-104.078,530.888-189.759       C2245.936,1159.091,2415.065,1064.057,2549.572,971.428z"/>
				</g>
				<g style="opacity:0.25;">
					<path style="fill:#371A45;" d="M2523.389,722.1c-105.052,84.912-312.539,203.821-560.387,315.922       c-247.808,112.102-474.145,189.4-607.314,212.159c-13.857-22.638-26.424-46.404-37.622-71.216       c-0.524-1.168-1.047-2.296-1.571-3.504c-4.914-10.916-9.466-21.953-13.655-33.03c-9.909-25.901-18.005-52.123-24.37-78.467       c-0.282-1.088-0.524-2.095-0.765-3.182c-9.265-39.193-14.743-78.668-16.515-117.982c-3.464-74.842,6.284-149.039,27.915-219.45       c16.112-52.446,38.831-102.756,67.712-149.603c35.93-58.367,81.367-111.377,135.343-156.41       c-15.589,19.697-29.969,40.241-43.06,61.509c-28.841,46.847-51.559,97.157-67.672,149.603       c-21.631,70.411-31.379,144.608-27.914,219.45c1.772,39.314,7.25,78.789,16.515,117.982c0.242,1.088,0.484,2.135,0.765,3.182       c0.133,0.549,0.282,1.144,0.447,1.783c28.466,110.315,144.215,173.572,252.998,139.719       c122.3-38.06,272.285-95.605,431.087-167.443c184.204-83.341,346.133-170.388,460.248-244.505       C2518.354,706.431,2520.932,714.245,2523.389,722.1z"/>
				</g>
			</g>
			<g>
				<path style="fill:#371A45;" d="M1922.9,1604.237l27.253,104.853c2.253,8.67-2.949,17.525-11.619,19.779      c-8.672,2.253-17.527-2.948-19.78-11.619c-0.313-1.207-0.481-2.503-0.515-3.699l-2.549-108.306      c-0.049-2.023,1.553-3.702,3.577-3.75C1921.003,1601.454,1922.483,1602.627,1922.9,1604.237z"/>
			</g>
			<g>
				<path style="fill:#371A45;" d="M1879.81,1605.245l-2.549,108.306c-0.21,8.956-7.642,16.045-16.597,15.834      s-16.045-7.641-15.835-16.597c0.029-1.247,0.225-2.539,0.518-3.699l27.251-104.853c0.51-1.959,2.51-3.134,4.47-2.625      C1878.745,1602.048,1879.849,1603.583,1879.81,1605.245z"/>
			</g>
		</g>
		<g style="opacity:0.35;">
			<path style="fill:#371A45;" d="M2193.771,2973.152c8.217-49.344,21.107-93.371,35.769-131.517     c-6.364,22.718-11.923,46.927-16.193,72.626c-5.035,30.13-13.494,60.542-25.78,89.101     C2190.025,2993.333,2192.08,2983.223,2193.771,2973.152z"/>
		</g>
		<g>
			
				<ellipse transform="matrix(0.7071 -0.7071 0.7071 0.7071 -1442.4608 2423.6985)" style="fill:#FFFFFF;" cx="2204.432" cy="2953.053" rx="43.571" ry="43.572"/>
		</g>
		<g style="opacity:0.35;">
			<path style="fill:#371A45;" d="M2245.731,2966.916c-7.661,22.812-32.357,35.117-55.168,27.457s-35.106-32.39-27.446-55.201     c2.116-6.302,5.545-11.834,9.902-16.325c1.946,16.176,12.938,30.643,29.416,36.176c16.477,5.533,33.973,0.635,45.255-11.099     C2248.453,2954.134,2247.847,2960.614,2245.731,2966.916z"/>
		</g>
		<g>
			<path style="fill:#371A45;" d="M2204.483,3009.823c-6.079,0-12.183-0.991-18.11-2.983c-14.37-4.824-25.996-14.956-32.744-28.525     c-6.748-13.574-7.808-28.96-2.983-43.325s14.956-25.991,28.525-32.739c13.574-6.753,28.955-7.813,43.325-2.983     c14.365,4.824,25.991,14.956,32.739,28.525s7.808,28.955,2.983,43.32c-4.824,14.37-14.956,25.996-28.525,32.744     C2221.724,3007.822,2213.131,3009.823,2204.483,3009.823z M2204.405,2922.631c-4.634,0-9.238,1.074-13.511,3.198     c-7.271,3.613-12.7,9.849-15.288,17.544c-2.583,7.7-2.017,15.942,1.602,23.218c3.613,7.271,9.849,12.7,17.544,15.288     c7.695,2.573,15.938,2.012,23.218-1.602c7.271-3.613,12.7-9.849,15.288-17.544c2.583-7.7,2.017-15.947-1.602-23.218     c-3.613-7.271-9.849-12.7-17.544-15.288C2210.933,2923.163,2207.662,2922.631,2204.405,2922.631z"/>
		</g>
		<g>
			<path style="fill:#FFFFFF;" d="M2126.964,3041.059l-222.327-60.238c-26.316-7.121-42.032-34.496-34.9-60.845l32.062-118.309     c6.249-23.066,28.016-37.963,51.017-36.521c3.262,0.183,6.546,0.738,9.828,1.621l222.295,60.227     c26.349,7.132,42.065,34.507,34.9,60.845l-25.371,93.711l-6.658,24.609C2180.677,3032.508,2153.28,3048.18,2126.964,3041.059z"/>
		</g>
		<g style="opacity:0.35;">
			<path style="fill:#371A45;" d="M2126.964,3041.059l-222.327-60.238c-26.316-7.121-42.032-34.496-34.9-60.845l32.062-118.309     c6.249-23.066,28.016-37.963,51.017-36.521c10.353,11.804,16.917,19.341,16.917,19.341     c-14.906,97.901-0.693,152.585,116.713,186.462c50.683,14.611,84.919,15.552,108.022,10.601l-6.658,24.609     C2180.677,3032.508,2153.28,3048.18,2126.964,3041.059z"/>
		</g>
		<g>
			<path style="fill:#371A45;" d="M2139.913,3055.961c-5.42,0-10.923-0.703-16.396-2.188l-222.314-60.229     c-33.403-9.053-53.218-43.589-44.17-76.992l32.056-118.33c9.053-33.398,43.574-53.203,76.997-44.175l222.314,60.229     c33.403,9.053,53.218,43.594,44.17,76.997l-32.056,118.33C2192.945,3037.533,2167.554,3055.961,2139.913,3055.961z      M1908.087,2968.124l222.315,60.229c19.36,5.269,39.443-6.24,44.692-25.635l32.056-118.33     c5.254-19.39-6.245-39.438-25.635-44.692l-222.314-60.229c-19.356-5.229-39.443,6.245-44.693,25.64l-32.056,118.33     c-2.534,9.341-1.25,19.15,3.613,27.622C1890.928,2959.535,1898.746,2965.595,1908.087,2968.124L1908.087,2968.124z"/>
		</g>
		<g>
			<path style="fill:#FFFFFF;" d="M2136.125,3042.602c-3.043-0.182-6.086-0.693-9.161-1.543l-222.327-60.238     c-19.281-5.233-32.876-21.304-35.933-39.935c-1.124-6.769-0.855-13.875,1.065-20.899l14.22-52.567l4.693-17.344l13.116-48.409     c7.132-26.349,34.529-42.021,60.846-34.9l48.037,13.028c-23.274-1.826-45.424,13.124-51.751,36.421l-17.334,63.903l-14.74,54.438     c-7.121,26.316,8.584,53.724,34.9,60.845L2136.125,3042.602z"/>
		</g>
		<g style="opacity:0.35;">
			<path style="fill:#371A45;" d="M2136.125,3042.602c-3.043-0.182-6.086-0.693-9.161-1.543l-222.327-60.238     c-26.316-7.121-42.032-34.496-34.867-60.834l18.913-69.911c2.246,13.866,8.184,31.749,23.828,37.696     c8.576,3.282,18.976-0.712,29.087-7.654l-14.74,54.438c-7.121,26.316,8.584,53.724,34.9,60.845L2136.125,3042.602z"/>
		</g>
		<g>
			<path style="fill:#371A45;" d="M2135.255,3055.751c-3.975-0.264-7.944-0.938-11.792-2.002l-222.271-60.21     c-16.123-4.36-29.609-14.795-37.974-29.375c-8.359-14.58-10.552-31.489-6.177-47.612l32.056-118.33     c9.038-33.389,43.579-53.218,76.992-44.18l48.027,13.027l-4.468,25.83c-17.495-1.323-33.442,9.907-38.008,26.772l-32.061,118.325     c-2.539,9.346-1.255,19.155,3.608,27.637c4.863,8.472,12.676,14.526,21.997,17.046l174.39,47.227L2135.255,3055.751z      M1949.703,2778.193c-16.055,0-30.801,10.698-35.185,26.909l-32.061,118.345c-2.534,9.331-1.255,19.141,3.608,27.617     c4.858,8.477,12.676,14.531,22.007,17.056l8.242,2.231c-4.922-12.48-5.713-26.123-2.149-39.248l32.056-118.315     c3.423-12.632,10.552-23.438,19.99-31.426l-7.007-1.904C1956.031,2778.603,1952.843,2778.193,1949.703,2778.193z      M1869.752,2919.994h0.049H1869.752z"/>
		</g>
		<g>
			<path style="fill:#371A45;" d="M2058.087,3029.379c-0.747,0-1.499-0.103-2.251-0.327c-4.185-1.24-6.567-5.635-5.327-9.819     l21.528-72.617c2.412-8.13,8.691-14.463,16.802-16.943l26.553-8.115c3.101-0.947,5.469-3.384,6.328-6.514l26.875-97.852     c1.152-4.214,5.518-6.699,9.707-5.527c4.209,1.157,6.685,5.503,5.527,9.707l-26.875,97.856     c-2.305,8.384-8.638,14.902-16.943,17.437l-26.553,8.115c-3.027,0.928-5.376,3.291-6.274,6.328l-21.528,72.617     C2064.639,3027.157,2061.495,3029.379,2058.087,3029.379z"/>
		</g>
		<g>
			<path style="fill:#FFFFFF;" d="M1694.827,2705.922c0,0-27.729,5.728-36.778,30.366c-10.463,28.485,5.746,49.616,5.746,49.616     s54.211,74.083,223.402,120.35c0,0,56.529-28.077,19.117-76.39C1906.314,2829.863,1746.539,2802.481,1694.827,2705.922z"/>
		</g>
		<g style="opacity:0.35;">
			<path style="fill:#371A45;" d="M1887.194,2906.246c-169.179-46.242-223.397-120.359-223.397-120.359s-16.807-21.908-5.144-51.199     c0.061,0.005,0.008,0,0.069,0.005c2.618,10.833,7.693,17.479,7.693,17.479s49.536,67.68,201.657,114.075     c18.326,5.589,38.542-1.542,48.132-18.128c0.092-0.16,0.184-0.32,0.274-0.481     C1929.972,2884.978,1887.194,2906.246,1887.194,2906.246z"/>
		</g>
		<g>
			<path style="fill:#371A45;" d="M1881.436,2916.493c-4.326,0-8.696-0.615-12.959-1.875     c-159.849-47.124-213.12-117.949-215.308-120.942c-0.664-0.859-20.293-27.036-7.48-61.924     c11.445-31.157,45.054-38.428,46.479-38.726l9.624-1.987l4.643,8.667c41.157,76.855,157.93,107.676,192.739,115.293     c11.016,2.407,20.308,9.292,25.488,18.887c13.472,24.946,8.755,50.786-12.935,70.903     C1903.511,2912.406,1892.608,2916.493,1881.436,2916.493z M1688.965,2721.972c-6.499,3.125-14.902,8.911-18.559,18.857     c-7.7,20.967,3.442,36.519,3.916,37.168c0.562,0.747,51.323,67.061,201.601,111.367c6.411,1.89,13.276,0.396,17.9-3.882     c17.183-15.938,12.608-29.941,7.666-39.087c-1.528-2.837-4.424-4.902-7.939-5.674     C1857.413,2832.817,1739.337,2801.479,1688.965,2721.972z"/>
		</g>
		<g>
			<path style="fill:#22A7F0;" d="M2026.55,2899.059c-0.682,2.46-7.203,16.515-10.987,24.585c-1.546,3.298-5.243,4.989-8.753,4.016     l-13.801-3.824c-13.682-3.791-20.848-21.031-16.006-38.506c4.842-17.475,19.859-28.568,33.541-24.777l13.873,3.844     c3.486,0.966,5.776,4.282,5.444,7.884C2029.086,2880.696,2027.645,2895.108,2026.55,2899.059z"/>
		</g>
		<g>
			<path style="fill:#371A45;" d="M2014.102,2935.839c-1.367,0-2.759-0.186-4.136-0.566l-13.799-3.823     c-17.861-4.951-27.51-26.587-21.509-48.228c2.808-10.142,8.623-18.882,16.372-24.609c8.335-6.157,17.891-8.164,26.89-5.674     l13.872,3.848c7.173,1.987,11.885,8.809,11.201,16.221c-2.114,22.925-3.203,26.865-3.564,28.159v0.005     c-0.269,0.957-0.972,3.501-11.445,25.825C2025.401,2932.509,2019.937,2935.839,2014.102,2935.839z M2010.343,2867.714     c-3.276,0-6.704,1.23-9.922,3.608c-4.922,3.633-8.667,9.36-10.537,16.118c-3.608,13.022,1.201,26.206,10.503,28.784l13.452,3.726     c6.909-14.746,9.907-21.616,10.381-23.062c0.523-1.953,1.577-9.512,3.008-24.976l-13.525-3.75     C2012.608,2867.861,2011.485,2867.714,2010.343,2867.714z M2031.817,2899.057h0.049H2031.817z"/>
		</g>
		<g>
			
				<ellipse transform="matrix(0.267 -0.9637 0.9637 0.267 -1306.8127 4077.241)" style="fill:#22A7F0;" cx="2026.913" cy="2897.7" rx="32.834" ry="25.707"/>
			<path style="fill:#371A45;" d="M2023.692,2937.997c-2.568,0-5.137-0.347-7.656-1.045c-9.009-2.495-16.157-9.136-20.137-18.701     c-3.696-8.896-4.184-19.38-1.372-29.526c6.001-21.646,25.405-35.234,43.262-30.278c9.009,2.495,16.157,9.136,20.137,18.701     c3.696,8.896,4.185,19.38,1.372,29.526l0,0c-2.808,10.146-8.623,18.887-16.372,24.609     C2036.925,2935.712,2030.298,2937.997,2023.692,2937.997z M2030.245,2873.227c-8.432,0-17.305,8.223-20.493,19.717     c-1.875,6.758-1.611,13.594,0.737,19.243c2.07,4.98,5.537,8.369,9.766,9.541s8.945,0.049,13.281-3.154     c4.922-3.633,8.667-9.36,10.537-16.118l0,0c1.875-6.758,1.611-13.594-0.737-19.243c-2.07-4.98-5.537-8.369-9.766-9.541     C2032.481,2873.368,2031.368,2873.227,2030.245,2873.227z"/>
		</g>
	</g>
</g>
</svg>