<svg xmlns="http://www.w3.org/2000/svg" xmlns:xlink="http://www.w3.org/1999/xlink" version="1.1" id="Layer_1" x="0px" y="0px" viewBox="0 0 4000 4000" style="enable-background:new 0 0 4000 4000;" xml:space="preserve">
<g>
	
	<g>
		<g style="opacity:0.5;">
			<path style="fill:#FFFFFF;" d="M2405.009,2962.425c0,0-80.267,69.5-64.605,191.859     C2340.403,3154.283,2393.262,3064.717,2405.009,2962.425z"/>
		</g>
		<g>
			<path style="fill:#FFFFFF;" d="M980.862,1970.014c0,0,256.029,233.224,863.279,288.102l146.701-407.121     c0,0-658.173-126.804-763.354-201.105c-108.701-76.789-70.136-187.516-110.481-210.361     c-47.29-26.778-126.899,47.765-82.028,177.311c0,0-107.88-21.889-139.33,156.708     C864.199,1952.145,980.862,1970.014,980.862,1970.014z"/>
		</g>
		<g>
			<path style="fill:#FFFFFF;" d="M1990.833,1851.004l-74.517,206.833l-72.16,200.298     c-607.252-54.909-863.304-288.109-863.304-288.109s-116.666-17.873-85.188-196.474     c31.434-178.601,139.297-156.726,139.297-156.726c-5.869-16.984-9.604-32.99-11.56-47.974     c-12.983-99.326,52.509-152.591,93.591-129.338c40.371,22.853,1.779,133.606,110.486,210.391     C1332.673,1724.201,1990.833,1851.004,1990.833,1851.004z"/>
		</g>
		<g>
			<path style="fill:#FFFFFF;" d="M1990.833,1851.004l-52.82,146.677l-21.697,60.156l-72.16,200.298     c-607.252-54.909-863.304-288.109-863.304-288.109s-116.666-17.873-85.188-196.474     c31.434-178.601,139.297-156.726,139.297-156.726c-5.869-16.984-9.604-32.99-11.56-47.974     c-12.983-99.326,52.509-152.591,93.591-129.338c40.371,22.853,1.779,133.606,110.486,210.391     c54.421,38.415,256.719,90.879,439.41,132.583C1837.397,1821.438,1990.833,1851.004,1990.833,1851.004z"/>
		</g>
		<g style="opacity:0.25;">
			<path style="fill:#371A45;" d="M1990.833,1851.004l-52.82,146.677c-140.631-51.664-223.996-142.187-271.125-215.192     C1837.397,1821.438,1990.833,1851.004,1990.833,1851.004z"/>
		</g>
		<g style="opacity:0.25;">
			<path style="fill:#371A45;" d="M2593.949,1962.024c-72.25,34.191-164.462,62.957-279.439,73.672l-44.594-216.526     C2391.161,1833.664,2502.092,1889.107,2593.949,1962.024z"/>
		</g>
		<g style="opacity:0.25;">
			<path style="fill:#371A45;" d="M2501.292,1998.438c-98.882,31.567-224.307,50.197-380.321,37.926     c-162.861-12.805-276.06-71.449-353.556-138.23l35.569-94.213c72.739-128.671,137.608-210.435,194.696-259.209l175.177-56.466     c99.415,28.766,147.878,164.684,147.878,164.684S2431.71,1771.33,2501.292,1998.438z"/>
		</g>
		<g style="opacity:0.25;">
			<path style="fill:#371A45;" d="M1916.316,2057.838l-72.16,200.298c-607.252-54.909-863.304-288.109-863.304-288.109     s-116.666-17.873-85.188-196.474c31.434-178.601,139.297-156.726,139.297-156.726c-5.869-16.984-9.604-32.99-11.56-47.974     c88.656,20.319,147.211,109.553,141.831,250.317c-5.78,151.079,171.62,209.279,330.525,249.783     C1619.181,2100.432,1809.698,2076.067,1916.316,2057.838z"/>
		</g>
		<g>
			<path style="fill:#371A45;" d="M1844.151,2275.901c-0.534,0-1.071-0.024-1.61-0.073     c-316.242-28.58-536.326-106.165-665.265-166.22c-140.756-65.556-205.693-123.989-208.389-126.446     c-7.263-6.614-7.787-17.863-1.171-25.123c6.609-7.258,17.855-7.785,25.115-1.178c3.001,2.708,256.436,226.51,839.246,282.274     l135.004-374.656c-114.148-22.471-652.165-131.052-749.853-200.062c-73.126-51.658-85.341-119.186-93.424-163.869     c-3.972-21.959-7.404-40.924-15.56-45.542c-10.585-5.997-24.557-3.201-37.377,7.48c-25.252,21.034-45.401,72.556-19.085,148.534     c3.215,9.28-1.703,19.412-10.983,22.625c-9.285,3.22-19.409-1.703-22.625-10.983c-32.258-93.128-4.04-159.212,29.929-187.506     c24.284-20.224,54.049-24.476,77.666-11.103c22.664,12.835,27.47,39.402,33.034,70.165c7.89,43.612,17.706,97.888,78.945,141.149     c80.721,57.023,530.11,154.559,756.457,198.167c5.104,0.983,9.522,4.15,12.093,8.668s3.037,9.934,1.273,14.823l-146.701,407.121     C1858.313,2271.246,1851.584,2275.901,1844.151,2275.901z"/>
		</g>
		<g>
			<path style="fill:#371A45;" d="M1349.176,2171.416c-4.323,0-8.543-2.188-10.956-6.15c-3.679-6.043-1.761-13.925,4.281-17.606     c183.234-111.559,158.343-397.88,158.07-400.759c-0.666-7.043,4.499-13.296,11.539-13.966     c7.053-0.664,13.293,4.489,13.969,11.532c1.186,12.403,26.777,305.12-170.253,425.082     C1353.745,2170.813,1351.447,2171.416,1349.176,2171.416z"/>
		</g>
		<g>
			<path style="fill:#FFFFFF;" d="M1088.535,1987.746c-67.306,17.007-121.406,6.689-171.333-24.219     c-77.323-47.867-92.101-152.007-76.903-243.919c23.912-144.611,160.424-170.074,229.37-107.468     c88.23,80.118,61.306,341.552-150.467,284.408"/>
		</g>
		<g>
			<path style="fill:#FFFFFF;" d="M919.184,1896.532l169.353,91.234c-67.314,16.984-121.424,6.669-171.354-24.231     c-56.333-34.902-79.452-99.682-81.987-167.841c-0.934-25.343,0.978-51.175,5.113-76.073     c23.92-144.632,160.416-170.108,229.376-107.463c15.606,14.139,27.566,33.969,35.569,56.688v0.044     C1142.601,1774.753,1093.561,1943.617,919.184,1896.532z"/>
		</g>
		<g style="opacity:0.25;">
			<path style="fill:#371A45;" d="M919.184,1896.532l169.353,91.234c-67.314,16.984-121.424,6.669-171.354-24.231     c-56.333-34.902-79.452-99.682-81.987-167.841c15.295,33.701,46.062,66.87,107.641,72.161     c108.263,9.292,162.417-91.99,162.417-198.964C1142.601,1774.753,1093.561,1943.617,919.184,1896.532z"/>
		</g>
		<g>
			<path style="fill:#371A45;" d="M1088.535,1987.746c-72.577,38.135-167.229,18.261-221.072-43.005     c-36.497-41.863-50.662-97.653-52.975-151.399c-1.512-53.953,4.391-110.229,33.039-157.236     c45.773-78.364,154.351-104.407,227.614-47.551c45.608,35.293,62.298,96.682,61.728,151.745     c-0.961,54.814-19.361,112.427-63.553,148.456c-43.641,36.015-107.766,34.774-154.113,7.791     c73.718,2.613,140.757-14.28,167.286-89.262c27.617-77.789,3.557-200.051-95.434-204.862     c-70.342-3.985-118.673,53.562-129.238,119.149c-11.42,67.788-10.104,144.223,33.784,199.235     c14.141,17.633,33.42,30.303,53.335,40.536C991.324,1984.311,1040.505,1989.438,1088.535,1987.746L1088.535,1987.746z"/>
		</g>
		<g>
			<path style="fill:#FFFFFF;" d="M2149.914,1742.181l-15.436,125.652l-7.891,63.999L1990.843,3035.52     c0,0,75.781,4.986,177.932,3.501c19.983-0.293,40.978-0.814,62.606-1.685c161.181-6.361,357.727-31.224,435.851-109.976     c116.78-117.767,165.559-719.053,78.863-962.811c-39.703-111.745-267.121-170.993-429.303-199.514     c-18.119-3.224-35.451-6.027-51.588-8.452C2197.161,1746.223,2149.914,1742.181,2149.914,1742.181z"/>
		</g>
		<g style="opacity:0.25;">
			<path style="fill:#371A45;" d="M2134.478,1867.833l-7.891,63.999l-107.783,876.342l-27.962,227.345c0,0,1.587,0.1,4.593,0.272     c0.854,0.032,1.874,0.093,2.951,0.163c0.854,0.032,1.819,0.083,2.783,0.134c0.733,0.068,1.475,0.082,2.208,0.15     c0.288-0.008,0.621,0.049,0.909,0.042c1.364,0.062,2.895,0.153,4.491,0.198c0.334,0.057,0.677,0.059,1.076,0.07     c1.308,0.053,2.672,0.115,4.147,0.197c1.985,0.111,4.036,0.177,6.198,0.262c1.54,0.035,3.183,0.145,4.834,0.2     c1.707,0.064,3.415,0.128,5.177,0.201c2.218,0.094,4.556,0.152,6.941,0.275c4.844,0.144,9.966,0.336,15.385,0.464     c4.779,0.19,9.799,0.307,15.052,0.407c6.051,0.122,12.379,0.292,18.949,0.388c24.276,0.386,52.09,0.52,82.236,0.08     c5.856-0.083,11.834-0.203,17.867-0.313c4.195-0.082,8.511-0.2,12.827-0.319c10.414-0.274,21.126-0.613,31.912-1.053     c161.237-6.352,357.727-31.224,435.795-109.985c96.198-96.957,146.307-521.772,112.534-804.904     c-4.045,244.509-50.304,503.71-122.814,576.781c-35.845,36.135-77.63-123.549-69.724-201.468     c20.388-200.954-74.875-447.947-249.272-615.491C2333.369,1877.917,2223.941,1883.874,2134.478,1867.833z"/>
		</g>
		<g>
			<path style="fill:#371A45;" d="M2133.009,3057.309c-79.34,0-136.353-3.571-143.359-4.032l-18.782-1.234l163.491-1329.016     l17.07,1.454c1.347,0.115,136.268,11.866,277.107,45.257c193.619,45.906,306.108,109.437,334.346,188.833     c40.934,115.087,55.427,320.499,37.828,536.077c-18.016,220.662-63.197,387.11-120.857,445.25     C2579.957,3040.632,2304.426,3057.309,2133.009,3057.309z M2010.796,3018.781c95.241,4.445,523.633,17.243,643.802-103.928     c50.387-50.807,93.821-216.883,110.659-423.101c17.216-210.879,3.467-410.615-35.886-521.262     c-46.647-131.147-407.636-193.49-563.908-208.989L2010.796,3018.781z"/>
		</g>
		<g>
			<path style="fill:#FFFFFF;" d="M2821.425,2457.721c-31.491-28.712-245.731-40.257-245.731-40.257     c-23.79,0.693-44.095,17.335-49.399,40.537c-19.409,84.911-54.011,283.149,26.184,352.828     c66.583,57.851,165.201,39.43,221.004-8.035c43.54-37.034,56.725-109.973,62.716-183.258     C2842.69,2540.13,2846.001,2480.128,2821.425,2457.721z"/>
		</g>
		<g>
			<path style="fill:#FFFFFF;" d="M2836.211,2619.558c-3.05,37.79-8.112,75.48-18.251,108.185     c-9.427,30.746-23.392,57.113-44.478,75.042c-55.797,47.464-154.415,65.902-220.996,8.029     c-62.902-54.65-55.183-188.507-39.563-284.574c0.038-0.079,0.018-0.138,0.018-0.138c4.278-26.339,9.194-49.862,13.349-68.11     c5.293-23.191,25.621-39.87,49.409-40.521c0,0,214.249,11.505,245.762,40.26     C2845.97,2480.119,2842.709,2540.146,2836.211,2619.558z"/>
		</g>
		<g style="opacity:0.25;">
			<path style="fill:#371A45;" d="M2817.96,2727.743c-9.427,30.746-23.392,57.113-44.478,75.042     c-55.797,47.464-154.415,65.902-220.996,8.029c-62.902-54.65-55.183-188.507-39.563-284.574     c0.253,4.003,5.631,104.93,38.445,98.87c25.823-4.714,43.529-55.718,44.607-58.727c0.277,6.567,9.371,205.891,117.522,200.803     C2762.128,2764.929,2795.34,2748.31,2817.96,2727.743z"/>
		</g>
		<g>
			<path style="fill:#371A45;" d="M2652.4,2864.58c-39.506,0.003-79.108-12.107-111.584-40.326     c-84.558-73.468-56.254-263.486-31.858-370.213c7.104-31.075,34.334-53.424,66.22-54.354l0.737-0.022l0.737,0.042     c51.746,2.786,223.187,14.264,256.758,44.874c30.248,27.574,27.762,87.749,20.517,176.406     c-5.943,72.668-18.775,152.703-68.92,195.356C2750.183,2845.961,2701.369,2864.575,2652.4,2864.58z M2575.548,2435.266     c-15.401,0.744-28.472,11.639-31.915,26.698c-14.21,62.165-54.727,270.069,20.51,335.439     c58.284,50.643,146.348,35.623,197.818-8.156c40.504-34.454,51.478-109.569,56.513-171.161     c4.711-57.63,10.571-129.354-9.029-147.224h-0.002C2792.941,2455.817,2675.371,2440.699,2575.548,2435.266z"/>
		</g>
		<g>
			<path style="fill:#371A45;" d="M2709.666,2854.015c-38.161,4.271-72.532-21.743-91.865-51.719     c-44.142-71.039-37.89-159.062-27.791-237.859c2.773-16.221,5.501-31.555,11.626-47.235c0.971-2.4,3.706-3.559,6.106-2.586     c2.481,0.998,3.562,3.84,2.544,6.253c-4.505,14.077-6.557,30.18-8.121,45.135c-4.897,73.625-6.623,159.274,36.97,221.428     c15.398,20.753,39.535,39.221,65.816,35.54C2726.098,2819.732,2730.91,2850.772,2709.666,2854.015L2709.666,2854.015z"/>
		</g>
		<g>
			<path style="fill:#371A45;" d="M2412.906,1898.875c86.529,1.173,174.644,8.783,256.1,39.432     c-20.629-6.393-41.678-10.982-62.871-14.51c-42.47-6.528-85.432-8.953-128.341-8.851c-21.442,0.083-43.082,0.701-64.195,2.254     C2401.144,1917.763,2400.342,1899.285,2412.906,1898.875L2412.906,1898.875z"/>
		</g>
		<g>
			<path style="fill:#FFFFFF;" d="M2319.173,2443.797l-224.529,353.025c0,0,48.414,649.197,20.802,691.925     c-17.377,26.89-54.313,47.736-228.908,47.736c-132.379,0-219.311-0.073-225.404-90.932     c-5.872-87.579,86.667-98.738,86.667-98.738l-127.844-742.321"/>
		</g>
		<g>
			<path style="fill:#FFFFFF;" d="M2094.649,2796.828c0,0,48.418,649.178,20.808,691.906     c-17.384,26.899-54.332,47.751-228.931,47.751c-126.714,0-211.813-0.089-224.173-79.808c-0.534-3.557-0.934-7.247-1.201-11.115     c-5.869-87.588,86.655-98.748,86.655-98.748l-97.503-566.169l-30.367-176.155l699.241-160.683L2094.649,2796.828z"/>
		</g>
		<g style="opacity:0.25;">
			<path style="fill:#371A45;" d="M2094.649,2796.828c0,0,48.418,649.178,20.808,691.906     c-17.384,26.899-54.332,47.751-228.931,47.751c-126.714,0-211.813-0.089-224.173-79.808     c35.88,14.539,101.327,33.835,190.027,30.367c142.899-5.602,178.289-24.72,174.066-80.875     c-4.224-56.777-135.607-55.977-236.134-63.357c87.322-23.031,221.817,1.378,223.507-91.635     c2.045-112.932,8.625-231.776-155.169-312.607c-78.474-38.726-153.925-92.835-208.346-157.927l-30.367-176.155l699.241-160.683     L2094.649,2796.828z"/>
		</g>
		<g>
			<path style="fill:#371A45;" d="M2334.18,2453.342l-224.529,353.024l2.728-10.866c13.522,197.265,27.716,394.465,29.359,592.315     c-0.3,29.383-0.126,57.219-4.119,87.012c-1.244,6.78-2.067,13.431-5.538,20.556c-28.458,50.014-105.493,51.893-155.198,56.448     c-28.661,1.78-57.145,2.343-85.564,2.419c-42.687-0.161-85.875,0.726-128.829-4.186c-38.751-4.305-83.718-16.581-104.823-53.142     c-19.998-36.813-20.624-84.878,3.89-119.917c20.161-27.695,51.385-42.516,84.115-47.848c0,0-15.396,20.676-15.396,20.676     l-127.846-742.322c-3.333-22.635,30.07-29.609,35.055-6.035c0-0.001,127.843,742.319,127.843,742.319l-15.396,20.675     c-52.518,8.961-82.023,45.898-67.924,99.218c9.371,37.604,50.583,47.077,84.714,51.06c41.107,4.651,82.74,3.771,124.516,3.933     c42.341-1.129,209.525,2.976,211.211-49.167c3.484-26.12,3.522-54.852,3.721-81.763c-0.112-84.149-3.998-168.368-8.143-252.528     c-5.782-112.379-12.967-224.844-21.117-337.076c-0.297-3.969,0.743-7.748,2.73-10.868l224.529-353.026     C2316.635,2415.507,2346.375,2432.111,2334.18,2453.342L2334.18,2453.342z"/>
		</g>
		<g>
			<path style="fill:#371A45;" d="M1910.822,3113.444c-155.013,0-213.177-29.038-216.373-30.702     c-6.277-3.267-8.714-11.005-5.448-17.279c3.259-6.262,10.971-8.7,17.226-5.475c1.464,0.732,105.395,50.851,405.521,14.464     c6.997-0.854,13.408,4.15,14.259,11.176c0.852,7.024-4.152,13.408-11.176,14.26     C2033.328,3109.77,1965.949,3113.444,1910.822,3113.444z"/>
		</g>
		<g>
			<path style="fill:#FFFFFF;" d="M1671.284,2772.691c-16.842-25.926-29.952-54.403-38.551-85.39     c-62.091-223.758,30.647-531.793,102.397-703.682l67.836-179.691c350.548-620.03,517.767-151.012,517.767-151.012     s186.37,198.855,227.491,575.389c17.054,156.155,11.937,308.348-8.261,433.128c-49.575,298.67-458.305,370.982-713.677,243.899"/>
		</g>
		<g>
			<path style="fill:#FFFFFF;" d="M2555.935,2510.631c-2.934,53.309-8.403,103.995-15.961,150.812     c-49.574,298.646-458.306,370.985-713.692,243.87l-154.992-132.627c-16.851-25.921-29.967-54.376-38.548-85.366     c-18.54-66.87-23.298-141.209-18.851-217.237c10.271-178.468,70.916-365.916,121.246-486.451l67.848-179.712     c350.532-620.012,517.751-150.99,517.751-150.99s186.381,198.831,227.508,575.373     C2558.869,2325.895,2560.87,2421.886,2555.935,2510.631z"/>
		</g>
		<g style="opacity:0.25;">
			<path style="fill:#371A45;" d="M2501.292,1998.438c-98.882,31.567-224.307,50.197-380.321,37.926     c-162.861-12.805-276.06-71.449-353.556-138.23l35.569-94.213c72.739-128.671,137.608-210.435,194.696-259.209l175.177-56.466     c99.415,28.766,147.878,164.684,147.878,164.684S2431.71,1771.33,2501.292,1998.438z"/>
		</g>
		<g style="opacity:0.25;">
			<path style="fill:#371A45;" d="M2555.935,2510.631c-2.934,53.309-8.403,103.995-15.961,150.812     c-49.574,298.646-458.306,370.985-713.692,243.87l-154.992-132.627c-16.851-25.921-29.967-54.376-38.548-85.366     c-18.54-66.87-23.298-141.209-18.851-217.237C1810.276,2506.14,2200.512,2561.006,2555.935,2510.631z"/>
		</g>
		<g>
			<path style="fill:#371A45;" d="M1787.484,1795.176c61.239-105.509,135.555-225.069,238.597-293.865     c133.406-87.318,243.719-4.867,302.547,122.296c3.494,7.503,6.648,14.58,9.82,22.994l-3.991-6.545     c14.319,15.726,26.601,32.088,38.977,49.14c196.856,280.136,235.291,643.201,186.537,975.052     c-21.949,139.83-128.078,240.832-258.365,285.115c-135.934,46.976-290.615,45.417-422.075-14.55     c-18.519-8.473-36.389-18.295-53.246-29.48c113.652,39.687,231.973,51.852,349.757,36.633     c155.751-19.889,314.503-111.866,342.779-277.267c48.334-323.586,13.719-678.865-176.295-953.493     c-11.873-16.65-24.505-33.448-38.216-48.403c-20.427-54.176-54.196-110.009-102.937-141.855     c-133.465-83.235-271.818,115.147-335.438,212.55c-16.513,25.971-32.267,52.484-47.552,79.297     C1806.324,1832.846,1776.381,1815.949,1787.484,1795.176L1787.484,1795.176z"/>
		</g>
		<g>
			<path style="fill:#371A45;" d="M1671.284,2772.692c-47.008-51.928-65.373-124.226-73.46-192.519     c-14.84-138.213,10.489-277.571,52.58-408.975c21.231-65.41,47.936-129.218,84.726-187.579     c-21.582,95.622-54.075,199.807-72.899,295.852C1631.573,2432.28,1605.623,2626.487,1671.284,2772.692L1671.284,2772.692z"/>
		</g>
		<g style="opacity:0.5;">
			
				<ellipse transform="matrix(0.0487 -0.9988 0.9988 0.0487 793.4326 3875.3215)" style="fill:#FFFFFF;" cx="2431.074" cy="1521.147" rx="48.052" ry="41.801"/>
		</g>
		<g>
			<path style="fill:#FFFFFF;" d="M2101.638,2921.49c8.409,157.75,16.345,547.089,38.423,580.552     c24.555,37.217,104.69,34.441,104.69,34.441H2442.1c0,0,53.936-5.186,74.679-64.823c3.692-10.614,16.74-86.261-46.732-123.004     c19.077-112.64,57.502-379.484,65.249-544.356c3.693-78.604,13.151-189.837,19.335-272.486"/>
		</g>
		<g>
			<path style="fill:#FFFFFF;" d="M2554.646,2531.795c-6.18,82.653-15.65,193.895-19.341,272.503     c-1.823,39.17-5.424,84.076-10.048,131.338c-14.85,151.613-40.682,327.146-55.221,413     c63.491,36.77,50.419,112.398,46.729,123.024c-20.719,59.623-74.65,64.825-74.65,64.825H2244.75c0,0-80.119,2.756-104.706-34.458     c-19.652-29.834-28.144-342.751-35.702-521.975c-0.889-21.742-1.823-41.482-2.712-58.556L2554.646,2531.795z"/>
		</g>
		<g style="opacity:0.25;">
			<path style="fill:#371A45;" d="M2520.054,3451.786c-0.711,9.87-2.356,17.073-3.29,19.874     c-20.719,59.623-74.65,64.825-74.65,64.825H2244.75c0,0-80.119,2.756-104.706-34.458c-4.668-7.069-8.67-30.1-12.227-63.446     c34.235,34.858,85.788,41.155,181.34,41.155C2404.71,3479.736,2496.712,3468.459,2520.054,3451.786z"/>
		</g>
		<g style="opacity:0.25;">
			<path style="fill:#371A45;" d="M2554.646,2531.795c-6.18,82.653-15.65,193.895-19.341,272.503     c-1.823,39.17-5.424,84.076-10.048,131.338c-127.559-31.479-339.506,21.43-420.915,44.417     c-0.889-21.742-1.823-41.482-2.712-58.556L2554.646,2531.795z"/>
		</g>
		<g>
			<path style="fill:#371A45;" d="M2101.638,2921.489c18.596,72.83,23.643,147.904,27.382,222.641     c5.07,92.843,9.788,185.448,18.43,277.709c2.65,23.019,4.352,45.815,10.507,67.162c0,0,0.327,1.085,0.327,1.085     c0.051-0.02,0.078-0.053,0.078-0.053s-0.02-0.015-0.059-0.003c-0.017,0.024-0.215-0.034,0.122,0.281l1.234,1.393     c26.031,26.444,78.901,22.425,114.45,22.806c0-0.001,55.999,0.055,55.999,0.055c-2.396,0.054,120.431,0.396,109.942,0.612     c26.299-3.908,48.561-24.526,57.329-49.817c9.505-37.403-1.881-80.772-36.227-101.3c-6.485-3.868-9.876-11.298-8.641-18.375     c32.988-202.139,59.458-405.441,68.986-610.214c4.58-68.52,10.271-136.811,15.397-204.985c0.729-9.795,9.26-17.143,19.055-16.413     s17.146,9.26,16.416,19.055c-7.957,102.913-16.206,204.157-21.329,307.226c-12.532,171.517-35.993,341.573-63.455,511.272     c-0.001,0-8.625-18.36-8.625-18.36c20.703,11.472,38.925,30.101,49.096,52.278c13.057,29.941,16.131,62.345,7.739,93.372     c-11.268,33.735-37.828,62.631-71.957,74.06c-7.074,2.362-14.096,4.528-21.736,4.911c-37.034,0.177-131.554,0.645-167.343,0.571     c-40.948,0.008-80.645,1.639-119.705-16.787c-12.321-5.552-26.288-16.323-34.235-29.667c-1.294-2.463-3.013-5.904-3.771-8.58     c-7.658-25.48-9.179-52.243-11.788-77.598c-7.889-93.323-9.828-186.998-12.61-280.251     C2090.323,3070.556,2090.503,2996.186,2101.638,2921.489L2101.638,2921.489z"/>
		</g>
		<g>
			<g>
				<path style="fill:#FFFFFF;" d="M1714.76,2413.183c0,0-71.897,3.551-95.526-22.424c0,0-96.874,48.347-33.971,136.13      c48.298,67.401,186.908,57.559,186.908,57.559"/>
			</g>
			<g style="opacity:0.25;">
				<path style="fill:#371A45;" d="M1772.175,2584.446c0,0-138.599,9.855-186.906-57.547c-32-44.708-22.62-79.182-5.682-102.213      c3.285,10.464,8.886,21.627,17.419,33.545c32.864,45.957,107.797,55.96,152.167,57.713L1772.175,2584.446z"/>
			</g>
			<g>
				<path style="fill:#371A45;" d="M1753.213,2602.77c-42.556,0-140.281-6.736-182.407-65.522      c-21.695-30.278-29.09-60.17-21.981-88.844c11.859-47.818,60.406-72.529,62.468-73.558l12.039-6.009l9.056,9.954      c12.347,13.569,55.066,17.872,81.509,16.631c9.817-0.52,18.143,7.094,18.621,16.899c0.476,9.805-7.075,18.143-16.882,18.626      c-11.788,0.578-65.978,2.003-97.844-18.468c-11.249,7.799-29.246,23.205-34.486,44.669      c-4.411,18.051,1.112,38.031,16.413,59.384c41.897,58.464,169.912,50.262,171.205,50.177c9.819-0.69,18.292,6.701,18.98,16.494      c0.69,9.792-6.682,18.292-16.474,18.987C1772.144,2602.279,1764.682,2602.77,1753.213,2602.77z"/>
			</g>
			<g>
				<path style="fill:#FFFFFF;" d="M1713.355,2675.882l419.261,37.939c49.621,4.506,93.937-32.428,98.445-82.113l20.177-223.11      c3.937-43.497-23.907-82.848-64.241-94.981c-5.707-1.759-11.686-2.892-17.873-3.463l-419.198-37.937      c-49.685-4.509-94,32.426-98.445,82.113l-16.023,176.706l-4.217,46.401C1626.734,2627.122,1663.734,2671.376,1713.355,2675.882z      "/>
			</g>
			<g>
				<path style="fill:#FFFFFF;" d="M1713.355,2675.882l419.261,37.939c49.621,4.506,93.937-32.428,98.445-82.113l20.177-223.11      c3.937-43.497-23.907-82.848-64.241-94.981c-5.707-1.759-11.686-2.892-17.873-3.463l-419.198-37.937      c-49.685-4.509-94,32.426-98.445,82.113l-16.023,176.706l-4.217,46.401C1626.734,2627.122,1663.734,2671.376,1713.355,2675.882z      "/>
			</g>
			<g>
				<path style="fill:#FFFFFF;" d="M2251.24,2408.597l-8.754,96.841l-11.428,126.277c-4.492,49.679-48.818,86.635-98.443,82.129      l-419.262-37.936c-49.626-4.505-86.622-48.764-82.129-98.442l4.221-46.409l3.759-41.374l12.256-135.348      c4.492-49.679,48.765-86.622,98.443-82.13l419.208,37.948c6.205,0.57,12.208,1.705,17.9,3.432      C2227.329,2325.73,2255.163,2365.122,2251.24,2408.597z"/>
			</g>
			<g style="opacity:0.25;">
				<path style="fill:#371A45;" d="M2242.486,2505.437l-11.428,126.277c-4.492,49.679-48.818,86.635-98.443,82.129l-419.262-37.936      c-49.626-4.505-86.622-48.764-82.129-98.442l4.221-46.409l3.759-41.374c11.222,40.443,35.198,91.664,85.676,108.083      c122.177,39.732,189.356-12.014,226.033-117.987c0,0,119.899-26.562,138.222,4.505c18.391,31.107,4.553,85.059,30.952,81.512      c26.344-3.534,29.774-90.983,29.774-90.983L2242.486,2505.437z"/>
			</g>
			<g>
				<path style="fill:#371A45;" d="M2155.277,2733.37c-2.781,0-5.582-0.125-8.404-0.381l-450.997-40.822      c-50.79-4.596-88.369-49.655-83.77-100.442l23.073-254.909c2.218-24.52,13.913-46.759,32.929-62.617      c19.016-15.86,42.971-23.378,67.513-21.151l450.997,40.822c50.787,4.596,88.366,49.655,83.768,100.442l-23.071,254.909      C2242.975,2697.184,2202.539,2733.37,2155.277,2733.37z M2150.079,2697.567c31.241,2.815,58.987-20.297,61.814-51.551      l23.071-254.909c1.361-15.06-3.269-29.807-13.045-41.526c-9.773-11.72-23.449-18.924-38.506-20.288l-450.997-40.822      c-15.035-1.364-29.804,3.269-41.526,13.044c-11.72,9.773-18.924,23.449-20.287,38.506l-23.073,254.909      c-2.828,31.256,20.297,58.984,51.553,61.814L2150.079,2697.567z"/>
			</g>
			<g>
				<path style="fill:#FFFFFF;" d="M2251.24,2408.597l-2.619,29.194l-5.633,62.088l-2.999,32.72l-8.985,99.129      c-1.168,13.217-5.229,25.611-11.442,36.483c-17.063,29.99-50.567,48.864-86.947,45.633l-107.136-11.28      c49.611,4.452,93.938-32.504,98.443-82.129l7.22-79.815l2.09-22.827l10.858-120.53c3.977-43.945-24.503-83.634-65.562-95.308      l90.582,8.198C2218.736,2314.66,2255.732,2358.918,2251.24,2408.597z"/>
			</g>
			<g style="opacity:0.25;">
				<path style="fill:#371A45;" d="M2248.621,2437.79l-5.633,62.088l-2.999,32.72l-8.985,99.129      c-1.168,13.217-5.229,25.611-11.442,36.483c-17.063,29.99-50.567,48.864-86.947,45.633l-107.136-11.28      c49.611,4.452,93.938-32.504,98.443-82.129l7.22-79.815c6.901,5.43,15.54,8.653,22.236-0.508      c13.273-18.121,25.314-100.853,55.189-109.271C2218.503,2428.022,2233.307,2431.654,2248.621,2437.79z"/>
			</g>
			<g>
				<path style="fill:#371A45;" d="M2140.923,2732.001c-3.294,0-6.599-0.149-9.917-0.451l-378.081-35.881l0.037-0.383      c-9.541-1.878-17.275-6.177-16.162-18.88l1.549-17.667l18.704,1.595c13.045,1.203,180.651,16.384,270.032,24.479      c19.241,1.73,38.128-4.172,53.132-16.684c15.008-12.517,24.225-30.029,25.957-49.306l20.197-223.146      c3.152-34.813-19.002-67.037-52.68-76.625l6.47-34.815l90.555,8.18c28.76,2.618,54.832,16.335,73.426,38.626      c18.602,22.302,27.406,50.416,24.789,79.162l-20.192,223.114c-2.583,28.75-16.292,54.832-38.601,73.441      C2190.41,2723.212,2166.143,2732.001,2140.923,2732.001z M2105.393,2693.39l28.906,2.744      c19.18,1.742,38.052-4.181,53.053-16.692c15.008-12.517,24.225-30.026,25.957-49.306l0.002-0.012l20.195-223.136      c1.757-19.285-4.169-38.162-16.682-53.161c-12.512-15.001-30.029-24.232-49.323-25.989l-25.957-2.344      c14.979,20.644,22.686,46.496,20.249,73.39l-20.195,223.131C2139.11,2649.712,2126.288,2674.942,2105.393,2693.39z"/>
			</g>
			<g>
				<path style="fill:#22A6EF;" d="M1968.522,2495.691c-0.699,8.255,5.261,75.877,5.261,75.877s21.11,1.788,47.031,3.985      c32.385,2.744,61.478-28.563,64.982-69.926c3.504-41.362-19.908-77.117-52.292-79.861c-21.855-1.852-47.031-3.985-47.031-3.985      S1969.662,2482.243,1968.522,2495.691z"/>
			</g>
			<g>
				<path style="fill:#1675DA;" d="M1968.522,2495.691c-0.699,8.255,5.261,75.877,5.261,75.877s21.11,1.788,47.031,3.985      c32.385,2.744,61.478-28.563,64.982-69.926c3.504-41.362-19.908-77.117-52.292-79.861c-21.855-1.852-47.031-3.985-47.031-3.985      S1969.662,2482.243,1968.522,2495.691z"/>
			</g>
			<g>
				<path style="fill:#371A45;" d="M2024.714,2589.057c-1.669,0-3.34-0.071-5.023-0.212l-41.331-3.503      c-9.795-0.827-17.519-8.526-18.358-18.309c-3.645-42.432-5.247-66.813-4.769-72.468c0.922-10.897,9.688-44.547,16.877-70.857      c2.564-9.361,11.442-15.589,21.115-14.74l41.407,3.508c19.836,1.681,37.465,12.844,49.638,31.434      c11.5,17.565,16.765,39.885,14.818,62.846C2095.144,2553.312,2062.313,2589.052,2024.714,2589.057z M1986.107,2559.226      l35.835,3.037c24.986,2.118,47.687-23.796,50.563-57.759c1.444-17.05-2.303-33.381-10.556-45.981      c-7.58-11.578-18.082-18.492-29.573-19.465l-35.969-3.047c-8.382,30.966-14.047,54.527-14.591,60.77      C1981.611,2500.342,1982.868,2520.971,1986.107,2559.226z M1968.523,2495.692h0.049H1968.523z"/>
			</g>
			<g>
				
					<ellipse transform="matrix(0.0844 -0.9964 0.9964 0.0844 -674.7941 4258.9688)" style="fill:#22A6EF;" cx="1980.128" cy="2496.675" rx="75.162" ry="58.847"/>
			</g>
			<g>
				<path style="fill:#1675DA;" d="M2038.761,2501.657c-3.486,41.339-32.586,72.668-64.963,69.928      c-32.424-2.741-55.831-38.511-52.297-79.897c0.455-5.584,1.422-11.011,2.805-16.191c5.923,29.115,25.661,51.177,50.812,53.27      c27.966,2.368,53.516-20.649,62.157-53.691C2038.993,2483.457,2039.517,2492.412,2038.761,2501.657z"/>
			</g>
			<g>
				<path style="fill:#FFFFFF;" d="M2038.761,2501.657c-0.228,2.815-0.596,5.58-1.103,8.292      c-3.688-32.951-24.671-58.862-52.028-61.165c-30.172-2.53-57.539,24.477-63.862,61.683c-0.706-6.091-0.795-12.35-0.268-18.78      c3.486-41.34,32.586-72.667,64.963-69.929C2018.84,2424.546,2042.249,2460.27,2038.761,2501.657z"/>
			</g>
			<g>
				<path style="fill:#371A45;" d="M1977.823,2585.078c-1.717,0-3.437-0.073-5.167-0.219c-19.836-1.681-37.462-12.842-49.636-31.431      c-11.503-17.565-16.765-39.885-14.821-62.844v-0.002c4.12-48.626,39.692-85.417,79.401-82.089      c19.836,1.678,37.465,12.842,49.636,31.431c11.503,17.565,16.765,39.885,14.82,62.844      c-1.944,22.961-10.888,44.078-25.181,59.458C2013.067,2577.083,1995.814,2585.078,1977.823,2585.078z M1934.781,2492.833      c-1.444,17.05,2.305,33.378,10.556,45.981c7.582,11.578,18.085,18.49,29.57,19.463c11.478,0.961,23.005-4.074,32.427-14.211      c10.253-11.034,16.696-26.501,18.141-43.549c1.444-17.05-2.305-33.378-10.556-45.981c-7.582-11.578-18.082-18.49-29.57-19.463      c-25.052-2.081-47.689,23.793-50.568,57.762V2492.833z"/>
			</g>
			<g>
				<path style="fill:#371A45;" d="M1843.846,2699.406c-0.298,0-0.598-0.01-0.9-0.032c-7.35-0.49-12.91-6.845-12.42-14.196      l8.443-126.529c0.893-13.398-4.95-26.26-15.625-34.4l-21.661-16.521c-18.243-13.913-27.95-35.867-25.962-58.728l15.045-172.91      c0.639-7.338,7.136-12.771,14.445-12.132c7.338,0.639,12.771,7.106,12.132,14.445l-15.045,172.91      c-1.193,13.703,4.625,26.865,15.562,35.203l21.661,16.521c17.811,13.581,27.555,35.035,26.064,57.389l-8.443,126.529      C1856.673,2694.003,1850.808,2699.406,1843.846,2699.406z"/>
			</g>
			<g>
				<path style="fill:#FFFFFF;" d="M2560.791,2464.405c0,0-104.25,9.457-312.41-5.894c0,0-63.679-0.939-72.147,61.989      c-8.989,66.802,57.785,92.508,57.785,92.508s176.594,41.588,311.097-7.653      C2626.833,2575.439,2560.791,2464.405,2560.791,2464.405z"/>
			</g>
			<g>
				<path style="fill:#FFFFFF;" d="M2545.1,2605.338c-134.473,49.26-311.065,7.692-311.065,7.692s-63.869-24.612-58.269-88.129      c0.114-1.456,0.275-2.91,0.485-4.408c8.449-62.914,72.131-61.972,72.131-61.972c57.405,4.237,106.928,6.603,148.543,7.759      c109.211,3.078,163.878-1.86,163.878-1.86S2626.836,2575.434,2545.1,2605.338z"/>
			</g>
			<g style="opacity:0.25;">
				<path style="fill:#371A45;" d="M2545.1,2605.338c-134.473,49.26-311.065,7.692-311.065,7.692s-63.869-24.612-58.269-88.129      c31.221,21.182,85.597,48.281,149.173,38.189c53.938-8.555,69.842-53.169,71.986-96.811      c109.211,3.078,163.878-1.86,163.878-1.86S2626.836,2575.434,2545.1,2605.338z"/>
			</g>
			<g>
				<path style="fill:#371A45;" d="M2388.457,2647.326c-84.753,0-153.92-15.926-158.514-17.006      c-0.785-0.185-1.559-0.424-2.313-0.715c-27.631-10.636-77.613-47.623-69.023-111.476c8.363-62.146,62.47-77.893,90.035-77.4      c0.349,0.005,0.698,0.02,1.046,0.046c203.866,15.035,308.47,6.006,309.502,5.918c6.828-0.613,13.388,2.74,16.884,8.619      c4.22,7.097,40.712,70.765,22.844,121.018c-7.56,21.261-24.052,37.072-47.689,45.728      C2498.684,2641.293,2440.618,2647.324,2388.457,2647.326z M2239.418,2595.995c16.296,3.591,177.757,37.262,299.585-7.341      c13.737-5.028,22.368-12.942,26.384-24.193c8.807-24.664-4.842-61.324-14.808-81.499c-32.751,1.991-132.947,5.833-302.854-6.667      c-6.399,0.068-47.899,2.251-53.866,46.576C2187.363,2571.15,2231.685,2592.633,2239.418,2595.995z"/>
			</g>
		</g>
		<g>
			<path style="fill:#FFFFFF;" d="M2401.56,2458.52c0,0,91.242,166.224,273.515,142.255     c218.543-28.738,212.08-259.42,107.854-427.734c-98.31-158.76-287.798-326.921-513.006-353.854L2401.56,2458.52z"/>
		</g>
		<g>
			<path style="fill:#FFFFFF;" d="M2675.091,2600.754c-182.291,24.009-273.525-142.231-273.525-142.231l-18.852-91.501     l-112.798-547.851c225.196,26.943,414.69,195.096,512.993,353.867c39.26,63.402,64.691,135.651,69.36,202.61     C2860.094,2486.489,2811.32,2582.836,2675.091,2600.754z"/>
		</g>
		<g>
			
				<rect x="1243.629" y="1975" transform="matrix(0.9988 0.0487 -0.0487 0.9988 113.6072 -85.2103)" style="fill:#FFFFFF;" width="1126.911" height="631.938"/>
		</g>
		<g>
			<polygon style="fill:#371A45;" points="2385.265,2002.78 2377.795,2155.593 2362.278,2474.514 2354.498,2633.996      1228.917,2579.131 1259.684,1947.959    "/>
		</g>
		<g>
			<defs>
				
					<rect id="SVGID_1_" x="1243.629" y="1975" transform="matrix(0.9988 0.0487 -0.0487 0.9988 113.6072 -85.2103)" width="1126.911" height="631.938"/>
			</defs>
			<clipPath id="SVGID_00000003080647803198448180000002823174334804410041_">
				<use xlink:href="#SVGID_1_" style="overflow:visible;"/>
			</clipPath>
			<g style="clip-path:url(#SVGID_00000003080647803198448180000002823174334804410041_);">
				<g style="opacity:0.2;">
					<path style="fill:#371A45;" d="M1580.085,2067.071c2.426,0.278,4.898,0.51,7.401,0.711       C1584.983,2067.596,1582.51,2067.365,1580.085,2067.071z"/>
				</g>
				<g style="opacity:0.2;">
					<path style="fill:#371A45;" d="M1605.795,2068.323c-6.227,0.093-12.361-0.093-18.309-0.541       C1593.419,2068.23,1599.568,2068.4,1605.795,2068.323z"/>
				</g>
				<g style="opacity:0.2;">
					<path style="fill:#371A45;" d="M1605.795,2068.323c3.909-0.046,7.864-0.201,11.82-0.448       C1613.66,2068.122,1609.719,2068.276,1605.795,2068.323z"/>
				</g>
				<g>
					<path style="fill:#99A4C4;" d="M1594.645,2063.416c-1.189,10.923-3.062,21.835-5.574,32.691       c-5.787,24.919-15.084,49.468-28.149,72.952c-75.285,135.485-246.13,184.281-381.615,108.996       c-107.875-59.943-160.786-180.479-139.87-295.508c5.361-29.439,15.544-58.496,30.874-86.107       c7.155-12.863,15.173-24.942,23.943-36.212c20.568-26.478,45.274-48.459,72.672-65.516c6.28-3.936,12.717-7.604,19.267-10.99       c35.281-18.302,74.129-28.968,113.841-31.188c0.359-0.011,0.707-0.045,1.054-0.056c2.434-0.135,4.856-0.235,7.312-0.292       c4.845-0.135,9.69-0.135,14.546-0.022c32.949,0.83,66.111,7.503,97.927,20.444c10.508,4.25,20.893,9.207,31.054,14.848       c2.187,1.234,4.351,2.456,6.493,3.735c1.301,0.751,2.579,1.536,3.847,2.333c15.487,9.465,29.741,20.231,42.717,32.074       C1571.61,1886.347,1604.279,1975.403,1594.645,2063.416z"/>
				</g>
				<g>
					<path style="fill:#FFD243;" d="M1594.645,2063.416c-1.189,10.923-3.062,21.835-5.574,32.691       c-5.787,24.919-15.084,49.468-28.149,72.952c-75.285,135.485-246.13,184.281-381.615,108.996       c-107.875-59.943-160.786-180.479-139.87-295.508c5.361-29.439,15.544-58.496,30.874-86.107       c7.155-12.863,15.173-24.942,23.943-36.212c20.568-26.478,45.274-48.459,72.672-65.516c6.28-3.936,12.717-7.604,19.267-10.99       c35.281-18.302,74.129-28.968,113.841-31.188c0.359-0.011,0.707-0.045,1.054-0.056c2.434-0.135,4.856-0.235,7.312-0.292       c4.845-0.135,9.69-0.135,14.546-0.022c32.949,0.83,66.111,7.503,97.927,20.444c10.508,4.25,20.893,9.207,31.054,14.848       c2.187,1.234,4.351,2.456,6.493,3.735c1.301,0.751,2.579,1.536,3.847,2.333c15.487,9.465,29.741,20.231,42.717,32.074       C1571.61,1886.347,1604.279,1975.403,1594.645,2063.416z"/>
				</g>
				<g style="opacity:0.6;">
					<path style="fill:#FFFFFF;" d="M1558.95,1937.398c-14.44-26.553-33.344-50.938-56.334-71.906       c-12.816-11.694-26.889-22.32-42.188-31.667c-1.247-0.786-2.515-1.561-3.793-2.305c-2.117-1.268-4.254-2.473-6.413-3.689       c-10.039-5.575-20.287-10.468-30.672-14.66c-31.416-12.784-64.162-19.375-96.699-20.193c-4.799-0.115-9.588-0.115-14.366,0.021       c-2.431,0.052-4.82,0.157-7.22,0.283c-0.346,0.021-0.692,0.052-1.048,0.063c-39.212,2.19-77.575,12.721-112.417,30.797       c-6.465,3.343-12.826,6.968-19.03,10.856c-27.056,16.84-51.451,38.552-71.759,64.696       c-8.666,11.129-16.588,23.053-23.651,35.764c-0.43,0.775-0.859,1.551-1.279,2.326c4.768-13.497,10.72-26.773,17.909-39.704       c6.581-11.831,13.958-22.949,22.016-33.312c18.925-24.353,41.643-44.566,66.845-60.253c5.774-3.626,11.694-7,17.72-10.112       c32.453-16.84,68.186-26.648,104.705-28.691c0.335-0.01,0.65-0.042,0.974-0.042c2.232-0.126,4.464-0.22,6.717-0.273       c4.464-0.126,8.918-0.126,13.382-0.021c30.305,0.765,60.809,6.895,90.066,18.799c9.672,3.909,19.218,8.477,28.565,13.665       c2.012,1.132,4.003,2.253,5.973,3.427c1.195,0.691,2.368,1.414,3.542,2.148c14.241,8.708,27.35,18.61,39.285,29.498       C1521.645,1861.971,1545.055,1898.06,1558.95,1937.398z"/>
				</g>
				<g>
					<path style="fill:#FF9D33;" d="M1569.069,2106.605c-5.302,16.918-12.383,33.546-21.342,49.653       c-71.239,128.195-232.891,174.368-361.085,103.129c-61.935-34.413-104.73-89.946-124.371-152.615       c24.787,28.122,54.71,52.554,89.346,71.806C1293.039,2257.164,1466.473,2223.384,1569.069,2106.605z"/>
				</g>
				<g>
					<path style="fill:#FF9D33;" d="M1486.334,2063.521c-7.662,34.194,2.83,61.873,23.433,61.821s45.378-26.936,53.04-61.131       c7.662-34.195-4.69-62.75-25.294-62.698C1516.91,2001.564,1493.996,2029.326,1486.334,2063.521z"/>
				</g>
				<g>
					<path style="fill:#371B45;" d="M1470.902,2040.748c-13.932,30.383-9.523,82.397,24.866,96.757       c1.94,0.498,1.492,3.568-0.499,3.495c-44.566-4.062-55.817-74.071-27.984-102.722       C1468.929,2036.444,1472.025,2038.566,1470.902,2040.748L1470.902,2040.748z"/>
				</g>
				<g>
					
						<ellipse transform="matrix(0.998 -0.064 0.064 0.998 -116.852 79.8156)" style="fill:#FF9D33;" cx="1188.21" cy="1865.014" rx="27.891" ry="23.791"/>
				</g>
				<g>
					
						<ellipse transform="matrix(0.9378 -0.3471 0.3471 0.9378 -575.9249 531.1052)" style="fill:#FFD243;" cx="1194.397" cy="1873.007" rx="20.956" ry="16.909"/>
				</g>
				<g>
					<path style="fill:#371B45;" d="M1189.087,1891.697c-20.885,3.851-42.056-16.548-32.246-37.636       c8.992-19.187,36.043-24.313,52.358-11.783c11.099,7.48,14.669,24.772,5.815,35.037c-1.066,1.34-3.236-0.074-2.483-1.579       c10.704-22.783-18.535-38.2-36.867-27.537c-22.621,12.574-10.265,38.613,13.272,39.849       C1191.093,1888.119,1191.199,1891.46,1189.087,1891.697L1189.087,1891.697z"/>
				</g>
				<g>
					<path style="fill:#371B45;" d="M1224.688,1847.831c8.582,9.388,10.064,24.431,4.086,35.754       c-11.9,23.547-44.74,30.276-66.307,16.604c-10.646-6.36-18.382-18.66-17.365-31.168c0.066-0.815,0.783-1.42,1.598-1.351       c0.698,0.056,1.242,0.595,1.342,1.259c1.664,11.007,9.19,19.604,18.443,24.198c27.805,15.279,72.261-9.574,55.21-43.203       C1220.589,1848.078,1223.352,1846.177,1224.688,1847.831L1224.688,1847.831z"/>
				</g>
				<g>
					<path style="fill:#371B45;" d="M1112.792,1928.374c60.781,8.046,64.207,88.215,21.195,121.576       c-13.198,10.876-30.516,17.131-47.23,15.428c-1.037-0.105-1.791-1.032-1.686-2.066c0.094-0.912,0.818-1.599,1.691-1.688       c15.55-1.805,29.602-9.063,40.37-19.448c33.314-30.432,33.083-94.233-15.199-109.222       C1109.296,1932.255,1110.103,1928.081,1112.792,1928.374L1112.792,1928.374z"/>
				</g>
				<g>
					
						<ellipse transform="matrix(0.1745 -0.9847 0.9847 0.1745 -1062.3892 2724.8335)" style="fill:#FF9D33;" cx="1093.947" cy="1996.046" rx="45.648" ry="40.105"/>
				</g>
				<g>
					<path style="fill:#FFD243;" d="M1093.161,2037.804c14.267,0.168,28.774-9.54,36.227-25.858       c9.914-21.731,3.561-46.965-14.189-56.368c-2.505-1.331-5.106-2.27-7.755-2.837c-10.473,4.268-19.861,13.23-25.552,25.681       C1071.823,2000.495,1076.976,2025.853,1093.161,2037.804z"/>
				</g>
				<g>
					<path style="fill:#371B45;" d="M1055.293,1978.62c18.303-45.114,82.712-38.537,82.826,13.228       c-0.4,20.433-12.993,39.655-31.446,47.788c-17.922,8.78-42.772,2.002-50.931-16.678c-0.905-1.905,1.875-3.479,3.054-1.773       c9.763,14.356,29.023,17.735,43.683,9.65c21.119-10.868,31.743-41.144,17.07-60.794c-16.18-21.288-48.439-10.224-60.342,10.552       C1057.887,1982.86,1054.264,1980.996,1055.293,1978.62L1055.293,1978.62z"/>
				</g>
				<g>
					<path style="fill:#371B45;" d="M1427.141,1983.445c6.615,33.033-11.581,69.695-42.12,85.041       c-40.785,22.016-95.076,6.002-119.777-32.305c-5.984-9.348-10.527-19.604-12.737-30.318c-0.195-0.959,0.42-1.896,1.378-2.091       c0.871-0.181,1.725,0.32,2.02,1.13c7.224,19.744,20.944,36.291,37.943,47.316c45.215,29.939,109.786,12.278,125.557-41.596       c0.783-3.614,2.047-7.555,2.494-11.231c0.712-5.084,1.005-10.261,0.886-15.474       C1422.611,1981.283,1426.739,1980.838,1427.141,1983.445L1427.141,1983.445z"/>
				</g>
				<g>
					
						<ellipse transform="matrix(0.9626 -0.2709 0.2709 0.9626 -487.9289 436.1434)" style="fill:#FF9D33;" cx="1336.09" cy="1985.734" rx="54.776" ry="56.257"/>
				</g>
				<g>
					<path style="fill:#FFD243;" d="M1287.791,2003.13c5.233,19.232,22.527,34.616,45.145,37.735       c30.117,4.139,58.279-15.047,62.912-42.856c0.659-3.926,0.806-7.816,0.484-11.613c-9.164-12.263-23.603-21.088-40.862-23.474       C1324.88,1958.72,1296.109,1976.348,1287.791,2003.13z"/>
				</g>
				<g>
					<path style="fill:#371B45;" d="M1345.037,1928.174c32.606,3.285,59.4,36.589,53.217,69.523       c-4.808,35.154-44.527,55.611-76.83,43.728c-38.653-11.776-58.621-63.358-29.603-94.265c1.475-1.565,3.976,0.526,2.727,2.247       c-21.613,28.891-3.112,72.243,30.291,81.371c33.367,10.976,68.515-15.771,62.918-51.283       c-2.983-21.843-20.707-41.409-43.504-47.012C1341.624,1931.922,1342.399,1927.787,1345.037,1928.174L1345.037,1928.174z"/>
				</g>
				<g>
					<path style="fill:#FFD243;" d="M1179.427,2145.189c-13.205,6.95-23.514,17.092-29.276,30.041       c-10.442,23.464-3.042,49.392,16.055,72.219c12.529,14.976,30.319,28.02,51.93,36.776       c54.551,22.104,112.791,8.522,130.084-30.335c6.434-14.459,6.293-30.381,0.767-45.813c-9.324-26.041-34.5-49.303-68.753-63.183       "/>
				</g>
				<g>
					<path style="fill:#371B45;" d="M1152.152,2176.12c-9.88,25.817,3.052,52.746,21.098,71.428       c36.013,36.854,98.163,54.475,145.606,30.954c23.798-11.833,37.13-39.88,29.755-65.85c-0.696-2.075,2.589-3.179,3.335-1.158       c17.628,47.718-24.322,85.283-69.704,88.399c-56.34,5.06-120.388-26.561-137.929-82.922       c-3.786-14.089-2.971-29.834,3.836-42.632C1149.458,2171.958,1153.053,2173.583,1152.152,2176.12L1152.152,2176.12z"/>
				</g>
				<g>
					
						<ellipse transform="matrix(0.2558 -0.9667 0.9667 0.2558 -1210.7224 2855.4653)" style="fill:#FF9D33;" cx="1249.209" cy="2214.074" rx="58.837" ry="80.956"/>
				</g>
				<g>
					
						<ellipse transform="matrix(0.1763 -0.9843 0.9843 0.1763 -1164.5381 3071.5508)" style="fill:#FFD243;" cx="1253.073" cy="2231.621" rx="43.272" ry="68.626"/>
				</g>
				<g>
					<path style="fill:#371B45;" d="M1300.991,2264.621c44.28-28.616,13.013-79.215-25.665-94.94       c-32.778-16.631-94.901-14.458-98.245,31.761c-0.085,28.305,25.098,51.859,49.415,63.804c2.621,1.171,0.899,5.324-1.761,4.35       c-48.465-14.329-87.761-75.169-37.235-112.233c52.903-35.571,152.473,6.962,145.909,75.32       c-1.438,8.383-4.946,16.39-10.286,22.762c-5.326,6.401-12.169,11.139-19.422,14.33c-1.474,0.649-3.196-0.022-3.845-1.498       C1299.264,2266.931,1299.768,2265.365,1300.991,2264.621L1300.991,2264.621z"/>
				</g>
				<g>
					<path style="fill:#FFD243;" d="M1422.544,1878.745c9.851-6.48,17.179-15.248,20.716-25.874       c6.409-19.255-1.402-39.078-18.174-55.562c-11.004-10.815-25.997-19.707-43.665-24.933       c-44.599-13.193-89.358,1.962-99.973,33.85c-3.95,11.866-2.615,24.376,2.916,36.088c9.333,19.764,30.92,36.124,58.924,44.407"/>
				</g>
				<g>
					<path style="fill:#371B45;" d="M1441.181,1852.179c4.568-18.064-4.138-35.402-16.641-48.057       c-25.335-25.258-64.97-36.24-99.829-28.417c-17.423,4.097-34.207,14.036-41.588,31.078c-0.39,0.898-1.437,1.307-2.332,0.917       c-0.793-0.344-1.203-1.22-1.017-2.032c2.293-9.717,8.317-18.46,15.852-25.174c46.377-38.018,132.632-14.594,151.308,43.07       c2.693,9.879,2.449,20.777-1.596,30.001C1444.308,1855.964,1440.552,1854.699,1441.181,1852.179L1441.181,1852.179z"/>
				</g>
				<g>
					
						<ellipse transform="matrix(0.1606 -0.987 0.987 0.1606 -662.5601 2880.8171)" style="fill:#FF9D33;" cx="1362.373" cy="1829.932" rx="46.492" ry="63.97"/>
				</g>
				<g>
					
						<ellipse transform="matrix(0.0798 -0.9968 0.9968 0.0798 -561.8195 3026.0278)" style="fill:#FFD243;" cx="1358.072" cy="1817.311" rx="34.193" ry="54.227"/>
				</g>
				<g>
					<path style="fill:#371B45;" d="M1317.707,1794.068c-32.932,25.624-4.208,63.805,27.441,73.057       c27.225,10.653,76.172,4.012,75.163-32.827c-2.242-22.418-23.625-38.813-43.981-46.439c-2.06-0.68-1.069-3.931,1.003-3.386       c38.635,7.35,74.622,52.37,37.752,85.1c-38.987,31.823-119.732,6.365-120.155-47.803c0.486-6.671,2.66-13.177,6.322-18.581       c3.625-5.448,8.604-9.717,14.047-12.783c1.056-0.595,2.396-0.222,2.991,0.834       C1318.831,1792.204,1318.556,1793.412,1317.707,1794.068L1317.707,1794.068z"/>
				</g>
				<g>
					
						<ellipse transform="matrix(0.3213 -0.947 0.947 0.3213 -922.9376 2835.1016)" style="fill:#FFD243;" cx="1516.429" cy="2061.435" rx="54.463" ry="28.391"/>
				</g>
				<g>
					<path style="fill:#371B45;" d="M1559.42,2019.79c-21.726-32.275-57.119,4.865-64.997,30.012       c-9.755,22.12-12.027,72.748,23.268,68.094c19.939-4.86,34.147-24.559,42.424-42.928c0.834-1.958,3.944-0.787,3.308,1.222       c-4.653,16.255-13.527,32.264-27.257,42.895c-14.999,12.793-39.2,13.313-50.709-4.539       c-24.423-37.041,3.111-109.033,48.456-115.082c6.254-0.407,12.801,1.055,18.012,4.502c5.279,3.391,9.019,8.441,11.359,13.759       c0.488,1.11-0.015,2.408-1.127,2.896C1561.154,2021.063,1559.993,2020.683,1559.42,2019.79L1559.42,2019.79z"/>
				</g>
				<g>
					<path style="fill:#371B45;" d="M1315.129,2320.245c-47.223,0-95.056-11.629-139.18-36.145       c-107.763-59.884-165.354-181.563-143.306-302.786c5.623-30.883,16.265-60.567,31.627-88.227       c23.686-42.607,57.923-78.652,99.008-104.241c6.367-3.986,13.013-7.78,19.736-11.264       c35.93-18.638,76.264-29.687,116.636-31.951l1.146-0.064c2.418-0.132,4.918-0.234,7.433-0.295       c4.825-0.127,9.839-0.132,14.876-0.015c34.579,0.871,68.345,7.919,100.369,20.951c10.822,4.377,21.529,9.497,31.81,15.213       c2.259,1.264,4.489,2.523,6.687,3.837c1.283,0.749,2.62,1.566,3.94,2.388c94.417,57.742,147.66,166.291,135.604,276.519       c-1.22,11.149-3.142,22.422-5.716,33.5c-6.043,26.062-15.745,51.214-28.838,74.756       C1514.469,2266.886,1416.234,2320.245,1315.129,2320.245z M1315.887,1758.991c-2.464,0-4.906,0.034-7.304,0.098       c-2.401,0.058-4.76,0.156-7.123,0.283l-1.132,0.063c-38.343,2.149-76.742,12.671-110.954,30.417       c-6.396,3.315-12.713,6.919-18.777,10.717c-39.114,24.359-71.699,58.672-94.248,99.23       c-14.625,26.335-24.757,54.595-30.107,83.99c-20.99,115.394,33.832,231.225,136.421,288.231       c131.927,73.304,298.911,25.611,372.221-106.312c12.466-22.415,21.702-46.357,27.455-71.165       c2.449-10.546,4.281-21.271,5.438-31.878l0,0c11.481-104.931-39.202-208.264-129.115-263.252       c-1.256-0.778-2.481-1.532-3.723-2.257c-2.147-1.286-4.259-2.476-6.384-3.667c-9.771-5.431-19.963-10.305-30.273-14.474       c-30.487-12.405-62.619-19.112-95.514-19.941C1320.464,1759.02,1318.166,1758.991,1315.887,1758.991z"/>
				</g>
			</g>
		</g>
		<g>
			<path style="fill:#371A45;" d="M2354.505,2641.656c-0.127,0-0.254-0.002-0.38-0.01l-1125.582-54.866     c-2.03-0.098-3.935-1-5.301-2.505c-1.364-1.503-2.076-3.489-1.976-5.518l30.768-631.17c0.205-4.223,3.711-7.575,8.024-7.277     l1125.582,54.82c2.03,0.098,3.935,1,5.301,2.505c1.364,1.505,2.076,3.489,1.976,5.518l-30.768,631.216     C2361.948,2638.468,2358.563,2641.656,2354.505,2641.656z M1236.94,2571.853l1110.281,54.12l30.021-615.915l-1110.281-54.073     L1236.94,2571.853z"/>
		</g>
		<g>
			<g>
				<path style="fill:#FFD243;" d="M1767.175,2048.111l3.08,11.73l11.409,4.113c3.083,1.111,3.554,5.276,0.796,7.047l-10.204,6.554      l-0.386,12.121c-0.104,3.276-3.92,5.01-6.456,2.935l-9.386-7.679l-11.647,3.379c-3.148,0.913-5.976-2.179-4.786-5.233      l4.403-11.3l-6.813-10.033c-1.841-2.711,0.226-6.357,3.498-6.169l12.108,0.696l7.437-9.58      C1762.237,2044.102,1766.343,2044.941,1767.175,2048.111z"/>
			</g>
			<g>
				<path style="fill:#FFA92C;" d="M1771.87,2089.677c-0.103,3.276-3.922,5.009-6.458,2.933l-9.383-7.676l-11.648,3.376      c-3.147,0.914-5.975-2.178-4.788-5.232l1.366-3.508c0.744,1.719,2.675,2.854,4.749,2.254l11.648-3.376l9.383,7.676      c1.667,1.365,3.892,1.084,5.251-0.205L1771.87,2089.677z"/>
			</g>
			<g style="opacity:0.6;">
				<path style="fill:#FFFFFF;" d="M1740.684,2055.575l14.036,0.876l-2.094,2.696l-11.727-0.745l-0.551-0.81      c-0.42-0.624-0.614-1.298-0.614-1.957C1740.039,2055.578,1740.356,2055.556,1740.684,2055.575z"/>
			</g>
			<g style="opacity:0.6;">
				<path style="fill:#FFFFFF;" d="M1782.511,2064.383c-0.258,0.605-0.701,1.149-1.333,1.559l-1.705,1.098      c-0.26-0.183-0.553-0.329-0.874-0.448l-11.41-4.111l-3.08-11.731c-0.594-2.265-2.864-3.339-4.844-2.822l0.959-1.236      c2.014-2.587,6.12-1.748,6.952,1.421l3.081,11.727l11.404,4.115C1781.97,2064.065,1782.253,2064.21,1782.511,2064.383z"/>
			</g>
			<g>
				<path style="fill:#FFA92C;" d="M1745.198,2073.292l-8.015-11.551c-1.481-2.182-0.43-4.971,1.747-5.866l8.358,12.058      L1745.198,2073.292z"/>
			</g>
			<g>
				<path style="fill:#FFA92C;" d="M1782.46,2071l-11.83,7.275l0.181-5.749l12.345-7.607      C1784.807,2066.597,1784.679,2069.574,1782.46,2071z"/>
			</g>
			<g>
				<path style="fill:#371A45;" d="M1767.909,2094.496c-1.115,0-2.215-0.383-3.12-1.122l-8.987-7.351l-11.146,3.233      c-1.815,0.527-3.745-0.012-5.023-1.408c-1.278-1.398-1.647-3.364-0.959-5.13l4.216-10.817l-6.521-9.605      c-1.064-1.566-1.144-3.562-0.212-5.211c0.934-1.646,2.686-2.596,4.584-2.496l11.588,0.666l7.121-9.17      c1.164-1.498,3.045-2.188,4.891-1.81c1.856,0.38,3.308,1.754,3.789,3.586l2.947,11.229l10.922,3.935      c1.783,0.642,3.023,2.21,3.235,4.094c0.212,1.883-0.646,3.688-2.242,4.711l-9.766,6.275l-0.371,11.603      c-0.059,1.893-1.166,3.557-2.891,4.34C1769.302,2094.35,1768.602,2094.496,1767.909,2094.496z M1756.25,2083.838l9.788,8.009      c0.895,0.732,2.059,0.886,3.108,0.405c1.052-0.478,1.7-1.451,1.737-2.608l0.405-12.637l10.636-6.836      c0.973-0.625,1.476-1.683,1.347-2.83c-0.129-1.149-0.856-2.066-1.942-2.457l-11.898-4.291l-3.211-12.23      c-0.293-1.117-1.144-1.925-2.276-2.157c-1.134-0.224-2.23,0.173-2.94,1.088l-7.755,9.99l-12.622-0.725      c-1.115-0.105-2.183,0.493-2.754,1.498c-0.568,1.005-0.52,2.174,0.129,3.13l7.102,10.463l-4.591,11.783      c-0.42,1.076-0.205,2.228,0.576,3.081c0.778,0.851,1.91,1.173,3.015,0.846L1756.25,2083.838z"/>
			</g>
			<g>
				<path style="fill:#371A45;" d="M1767.907,2095.709c-1.388,0-2.759-0.476-3.886-1.398l-8.492-6.948l-10.536,3.057      c-2.249,0.661-4.657-0.01-6.253-1.754c-1.593-1.742-2.052-4.189-1.193-6.387l3.984-10.224l-6.162-9.078      c-1.327-1.949-1.427-4.435-0.263-6.487c1.164-2.049,3.335-3.215,5.706-3.11l10.951,0.629l6.728-8.668      c1.449-1.861,3.781-2.728,6.094-2.254c2.31,0.473,4.118,2.186,4.716,4.467h0.002l2.784,10.612l10.324,3.72      c2.218,0.8,3.762,2.752,4.025,5.096c0.266,2.344-0.803,4.594-2.788,5.867l-9.231,5.931l-0.349,10.966      c-0.076,2.357-1.454,4.428-3.601,5.404C1769.641,2095.526,1768.77,2095.709,1767.907,2095.709z M1756.026,2082.732      c0.5,0,0.995,0.171,1.393,0.498l9.388,7.68c0.759,0.625,1.542,0.376,1.837,0.239c0.3-0.137,0.998-0.559,1.027-1.542      l0.388-12.122c0.024-0.722,0.403-1.388,1.01-1.779l10.202-6.555c0.83-0.534,0.834-1.349,0.798-1.676      c-0.037-0.324-0.222-1.12-1.149-1.451l-11.412-4.113c-0.681-0.247-1.195-0.81-1.378-1.51l-3.079-11.729      c-0.002,0-0.002,0-0.002,0c-0.249-0.954-1.025-1.21-1.344-1.276c-0.327-0.068-1.132-0.134-1.739,0.644l-7.438,9.58      c-0.444,0.569-1.117,0.893-1.864,0.847l-12.105-0.695c-0.942-0.049-1.466,0.6-1.63,0.886c-0.161,0.285-0.478,1.037,0.076,1.852      l6.811,10.034c0.407,0.598,0.493,1.359,0.232,2.032l-4.403,11.3c-0.359,0.92,0.117,1.581,0.339,1.825      c0.224,0.241,0.847,0.776,1.783,0.5l11.649-3.379C1755.616,2082.762,1755.821,2082.732,1756.026,2082.732z"/>
			</g>
		</g>
		<g>
			<g>
				<path style="fill:#FFD243;" d="M2222.46,2500.591l3.803,14.484l14.088,5.079c3.807,1.373,4.388,6.515,0.983,8.702l-12.6,8.093      l-0.477,14.968c-0.129,4.045-4.84,6.186-7.972,3.624l-11.59-9.483l-14.382,4.172c-3.887,1.127-7.379-2.691-5.91-6.462      l5.437-13.953l-8.412-12.389c-2.273-3.348,0.279-7.85,4.32-7.618l14.95,0.859l9.183-11.829      C2216.362,2495.64,2221.432,2496.677,2222.46,2500.591z"/>
			</g>
			<g>
				<path style="fill:#FFA92C;" d="M2228.257,2551.917c-0.127,4.045-4.843,6.184-7.974,3.621l-11.586-9.478l-14.383,4.168      c-3.886,1.128-7.378-2.69-5.913-6.461l1.687-4.331c0.919,2.122,3.303,3.524,5.864,2.783l14.383-4.168l11.586,9.479      c2.059,1.685,4.806,1.339,6.485-0.253L2228.257,2551.917z"/>
			</g>
			<g style="opacity:0.6;">
				<path style="fill:#FFFFFF;" d="M2189.749,2509.808l17.332,1.082l-2.585,3.329l-14.481-0.92l-0.68-1      c-0.519-0.771-0.758-1.603-0.758-2.416C2188.953,2509.811,2189.344,2509.784,2189.749,2509.808z"/>
			</g>
			<g style="opacity:0.6;">
				<path style="fill:#FFFFFF;" d="M2241.397,2520.683c-0.319,0.748-0.866,1.419-1.646,1.924l-2.105,1.356      c-0.322-0.226-0.682-0.406-1.08-0.553l-14.089-5.076l-3.803-14.486c-0.734-2.797-3.536-4.124-5.981-3.484l1.184-1.526      c2.487-3.195,7.557-2.158,8.584,1.755l3.804,14.48l14.082,5.081C2240.729,2520.291,2241.079,2520.469,2241.397,2520.683z"/>
			</g>
			<g>
				<path style="fill:#FFA92C;" d="M2195.323,2531.685l-9.896-14.263c-1.829-2.694-0.531-6.138,2.158-7.244l10.32,14.889      L2195.323,2531.685z"/>
			</g>
			<g>
				<path style="fill:#FFA92C;" d="M2241.334,2528.854l-14.608,8.983l0.223-7.099l15.244-9.393      C2244.232,2523.417,2244.074,2527.094,2241.334,2528.854z"/>
			</g>
			<g>
				<path style="fill:#371A45;" d="M2223.366,2557.867c-1.376,0-2.735-0.471-3.852-1.383l-11.095-9.078l-13.767,3.994      c-2.237,0.646-4.621-0.017-6.204-1.742c-1.578-1.727-2.03-4.155-1.181-6.333l5.204-13.357l-8.053-11.859      c-1.315-1.937-1.413-4.403-0.259-6.438c1.154-2.032,3.242-3.188,5.657-3.081l14.311,0.822l8.792-11.322      c1.432-1.847,3.738-2.691,6.038-2.237c2.293,0.469,4.086,2.167,4.681,4.428l3.637,13.864l13.486,4.862      c2.203,0.795,3.732,2.732,3.996,5.057c0.261,2.325-0.798,4.552-2.767,5.816l-12.061,7.746l-0.456,14.33      c-0.073,2.337-1.444,4.391-3.571,5.357C2225.086,2557.686,2224.222,2557.867,2223.366,2557.867z M2208.97,2544.708l12.085,9.888      c1.1,0.903,2.535,1.088,3.838,0.5c1.298-0.591,2.1-1.793,2.147-3.218l0.495-15.608l13.14-8.438      c1.2-0.771,1.823-2.076,1.661-3.493c-0.159-1.417-1.056-2.554-2.398-3.037l-14.691-5.296l-3.964-15.104      c-0.364-1.381-1.415-2.374-2.813-2.659c-1.403-0.29-2.754,0.217-3.625,1.342l-9.58,12.337l-15.589-0.895      c-1.483-0.1-2.693,0.61-3.396,1.849c-0.705,1.242-0.646,2.686,0.154,3.867l8.775,12.92l-5.672,14.547      c-0.517,1.33-0.251,2.752,0.712,3.803c0.961,1.054,2.344,1.447,3.725,1.047L2208.97,2544.708z"/>
			</g>
			<g>
				<path style="fill:#371A45;" d="M2223.364,2559.365c-1.715,0-3.406-0.588-4.796-1.725l-10.488-8.58l-13.01,3.776      c-2.801,0.808-5.755-0.02-7.724-2.171c-1.966-2.149-2.53-5.169-1.473-7.885l4.92-12.622l-7.611-11.21      c-1.637-2.41-1.759-5.482-0.322-8.014c1.432-2.532,4.057-3.969,7.043-3.837l13.525,0.778l8.309-10.702      c1.788-2.303,4.669-3.374,7.521-2.783c2.854,0.581,5.086,2.693,5.828,5.511c0,0,0,0,0,0.002l3.44,13.103l12.744,4.594      c2.742,0.99,4.647,3.403,4.974,6.299c0.327,2.893-0.993,5.667-3.445,7.241l-11.4,7.321l-0.429,13.542      c-0.093,2.913-1.798,5.469-4.448,6.675C2225.506,2559.138,2224.43,2559.365,2223.364,2559.365z M2208.694,2543.342      c0.62,0,1.227,0.212,1.72,0.615l11.59,9.483c0.937,0.768,1.901,0.463,2.271,0.295c0.368-0.168,1.23-0.688,1.269-1.905      l0.476-14.967c0.029-0.893,0.495-1.715,1.247-2.198l12.6-8.092c1.022-0.656,1.027-1.664,0.983-2.066      c-0.046-0.402-0.276-1.385-1.42-1.798l-14.089-5.079c-0.842-0.305-1.478-1-1.705-1.866l-3.801-14.484      c-0.31-1.176-1.269-1.491-1.664-1.571c-0.395-0.085-1.403-0.164-2.147,0.793l-9.185,11.83c-0.549,0.705-1.364,1.073-2.301,1.047      l-14.95-0.859c-1.21-0.076-1.81,0.742-2.01,1.095c-0.2,0.351-0.59,1.281,0.093,2.286l8.412,12.391      c0.503,0.739,0.61,1.678,0.285,2.51l-5.438,13.952c-0.442,1.135,0.146,1.952,0.419,2.252c0.273,0.298,1.037,0.964,2.206,0.617      l14.381-4.172C2208.187,2543.378,2208.441,2543.342,2208.694,2543.342z"/>
			</g>
		</g>
		<g>
			<g>
				<path style="fill:#FFD243;" d="M2114.676,2067.169l6.302,7.898l10.079-0.713c2.724-0.193,4.486,2.821,2.983,5.101l-5.565,8.434      l3.793,9.365c1.025,2.531-1.297,5.139-3.929,4.413l-9.741-2.686l-7.735,6.502c-2.09,1.757-5.288,0.354-5.411-2.374      l-0.456-10.094l-8.573-5.347c-2.317-1.445-1.971-4.92,0.585-5.88l9.459-3.552l2.436-9.806      C2109.562,2065.779,2112.973,2065.034,2114.676,2067.169z"/>
			</g>
			<g>
				<path style="fill:#FFA92C;" d="M2132.269,2097.254c1.026,2.531-1.299,5.138-3.931,4.412l-9.737-2.684l-7.736,6.499      c-2.09,1.757-5.287,0.355-5.413-2.372l-0.142-3.133c1.146,1.059,3,1.272,4.378,0.116l7.736-6.5l9.737,2.684      c1.73,0.478,3.331-0.486,3.932-1.926L2132.269,2097.254z"/>
			</g>
			<g style="opacity:0.6;">
				<path style="fill:#FFFFFF;" d="M2097.01,2081.788l10.99-4.065l-0.687,2.76l-9.186,3.386l-0.692-0.431      c-0.531-0.334-0.906-0.782-1.127-1.284C2096.52,2082.008,2096.754,2081.884,2097.01,2081.788z"/>
			</g>
			<g style="opacity:0.6;">
				<path style="fill:#FFFFFF;" d="M2131.847,2074.395c0.007,0.548-0.147,1.112-0.49,1.637l-0.929,1.411      c-0.26-0.052-0.532-0.064-0.817-0.046l-10.079,0.715l-6.302-7.9c-1.216-1.525-3.308-1.579-4.642-0.516l0.314-1.265      c0.662-2.65,4.073-3.395,5.776-1.261l6.301,7.896l10.076-0.71C2131.328,2074.335,2131.592,2074.35,2131.847,2074.395z"/>
			</g>
			<g>
				<path style="fill:#FFA92C;" d="M2106.423,2093.764l-10.001-6.098c-1.864-1.163-2.004-3.642-0.647-5.059l10.434,6.369      L2106.423,2093.764z"/>
			</g>
			<g>
				<path style="fill:#FFA92C;" d="M2134.04,2079.453l-6.56,9.532l-1.801-4.441l6.841-9.958      C2134.343,2075.307,2135.25,2077.619,2134.04,2079.453z"/>
			</g>
			<g>
				<path style="fill:#371A45;" d="M2108.752,2107.477c-0.615,0-1.232-0.127-1.82-0.383c-1.586-0.695-2.62-2.2-2.698-3.93      l-0.424-9.453l-8.031-5.009c-1.469-0.917-2.274-2.557-2.103-4.279c0.173-1.722,1.285-3.169,2.906-3.776l8.858-3.325l2.281-9.185      c0.417-1.681,1.727-2.955,3.42-3.323c1.678-0.364,3.406,0.241,4.486,1.595l5.904,7.397l9.441-0.666      c1.698-0.09,3.34,0.729,4.213,2.225c0.873,1.493,0.824,3.318-0.129,4.76l-5.211,7.902l3.552,8.77      c0.651,1.603,0.339,3.403-0.813,4.696c-1.149,1.288-2.898,1.808-4.569,1.347l-9.124-2.515l-7.246,6.089      C2110.814,2107.114,2109.792,2107.477,2108.752,2107.477z M2112.121,2067.144c-0.151,0-0.307,0.017-0.461,0.051      c-0.79,0.173-1.378,0.744-1.573,1.527l-2.593,10.429l-10.056,3.779c-0.756,0.283-1.256,0.932-1.337,1.735      c-0.081,0.805,0.281,1.542,0.966,1.969l9.119,5.687l0.483,10.734c0.037,0.808,0.5,1.483,1.242,1.808      c0.734,0.32,1.549,0.208,2.169-0.312l8.226-6.914l10.358,2.857c0.771,0.21,1.561-0.017,2.101-0.622      c0.539-0.603,0.678-1.41,0.373-2.159l-4.03-9.958l5.914-8.97c0.446-0.673,0.468-1.493,0.061-2.188      c-0.407-0.702-1.152-1.039-1.94-1.024l-10.719,0.759l-6.699-8.402C2113.319,2067.422,2112.741,2067.144,2112.121,2067.144z"/>
			</g>
			<g>
				<path style="fill:#371A45;" d="M2108.752,2108.294c-0.725,0-1.454-0.149-2.149-0.451c-1.871-0.822-3.091-2.601-3.186-4.642      l-0.405-9.024l-7.668-4.781c-1.734-1.081-2.683-3.018-2.481-5.052c0.203-2.035,1.517-3.742,3.43-4.46l8.456-3.176l2.179-8.768      c0.493-1.986,2.042-3.489,4.038-3.923c2-0.439,4.03,0.285,5.301,1.883l5.635,7.063l9.012-0.637      c2.069-0.166,3.95,0.864,4.979,2.627c1.03,1.764,0.971,3.918-0.156,5.623l-4.972,7.541l3.388,8.373      c0.769,1.893,0.403,4.021-0.956,5.545c-1.361,1.53-3.43,2.142-5.399,1.593l-8.709-2.4l-6.916,5.813      C2111.189,2107.867,2109.979,2108.294,2108.752,2108.294z M2112.119,2067.963c-0.117,0-0.217,0.015-0.285,0.029      c-0.229,0.051-0.783,0.241-0.954,0.927l-2.437,9.807c-0.161,0.651-0.634,1.181-1.261,1.415l-9.458,3.552      c-0.659,0.249-0.785,0.82-0.81,1.054c-0.022,0.234-0.012,0.82,0.588,1.193l8.575,5.347c0.569,0.354,0.925,0.966,0.957,1.637      l0.454,10.093c0.032,0.705,0.537,1,0.751,1.095c0.219,0.095,0.773,0.266,1.315-0.19l7.736-6.501      c0.515-0.429,1.21-0.583,1.852-0.402l9.741,2.686c0.683,0.178,1.117-0.202,1.274-0.375c0.156-0.176,0.493-0.656,0.227-1.31      l-3.791-9.365c-0.251-0.62-0.183-1.325,0.186-1.883l5.562-8.436c0.39-0.59,0.156-1.125,0.039-1.327      c-0.117-0.202-0.486-0.671-1.176-0.622l-10.08,0.712c-0.712,0.078-1.317-0.237-1.734-0.761l-6.302-7.899      C2112.775,2068.049,2112.395,2067.963,2112.119,2067.963z"/>
			</g>
		</g>
		<g>
			<g>
				<path style="fill:#FFD243;" d="M1588.114,2486.652l6.302,7.898l10.079-0.714c2.724-0.193,4.486,2.822,2.983,5.101l-5.565,8.434      l3.793,9.365c1.025,2.531-1.297,5.139-3.929,4.413l-9.741-2.686l-7.735,6.501c-2.09,1.757-5.288,0.354-5.411-2.373      l-0.456-10.094l-8.573-5.347c-2.317-1.445-1.971-4.919,0.585-5.879l9.459-3.552l2.436-9.806      C1583,2485.263,1586.411,2484.518,1588.114,2486.652z"/>
			</g>
			<g>
				<path style="fill:#FFA92C;" d="M1605.707,2516.738c1.026,2.531-1.299,5.138-3.931,4.412l-9.737-2.685l-7.736,6.5      c-2.09,1.757-5.287,0.355-5.413-2.372l-0.142-3.133c1.147,1.059,3,1.272,4.378,0.116l7.736-6.5l9.737,2.684      c1.73,0.478,3.331-0.486,3.932-1.927L1605.707,2516.738z"/>
			</g>
			<g style="opacity:0.6;">
				<path style="fill:#FFFFFF;" d="M1570.448,2501.271l10.99-4.065l-0.686,2.76l-9.186,3.386l-0.693-0.431      c-0.531-0.334-0.906-0.782-1.127-1.284C1569.958,2501.491,1570.192,2501.367,1570.448,2501.271z"/>
			</g>
			<g style="opacity:0.6;">
				<path style="fill:#FFFFFF;" d="M1605.285,2493.878c0.007,0.548-0.147,1.112-0.49,1.637l-0.929,1.411      c-0.26-0.052-0.532-0.064-0.817-0.046l-10.079,0.715l-6.302-7.899c-1.216-1.525-3.308-1.579-4.642-0.516l0.314-1.265      c0.662-2.65,4.073-3.395,5.776-1.261l6.302,7.896l10.076-0.71C1604.766,2493.819,1605.03,2493.833,1605.285,2493.878z"/>
			</g>
			<g>
				<path style="fill:#FFA92C;" d="M1579.861,2513.248l-10.001-6.098c-1.864-1.163-2.004-3.642-0.647-5.059l10.434,6.369      L1579.861,2513.248z"/>
			</g>
			<g>
				<path style="fill:#FFA92C;" d="M1607.478,2498.937l-6.56,9.532l-1.801-4.441l6.841-9.958      C1607.781,2494.791,1608.687,2497.102,1607.478,2498.937z"/>
			</g>
			<g>
				<path style="fill:#371A45;" d="M1582.189,2526.962c-0.612,0-1.232-0.127-1.822-0.385c-1.583-0.695-2.615-2.2-2.693-3.93      l-0.427-9.453l-8.029-5.009c-1.469-0.915-2.274-2.552-2.103-4.274c0.168-1.722,1.281-3.171,2.901-3.779l8.863-3.328l2.279-9.185      c0.417-1.681,1.727-2.952,3.418-3.32c1.696-0.364,3.413,0.239,4.491,1.595l5.904,7.394l9.439-0.666      c1.727-0.093,3.342,0.729,4.213,2.222c0.873,1.493,0.825,3.318-0.127,4.765l-5.213,7.899l3.554,8.77      c0.649,1.605,0.337,3.403-0.812,4.696c-1.151,1.288-2.901,1.81-4.572,1.347l-9.124-2.515l-7.243,6.092      C1584.253,2526.599,1583.228,2526.962,1582.189,2526.962z M1585.558,2486.629c-0.154,0-0.307,0.017-0.464,0.051      c-0.788,0.171-1.376,0.741-1.571,1.527l-2.591,10.427l-10.058,3.779c-0.756,0.283-1.256,0.935-1.334,1.737      c-0.081,0.805,0.281,1.539,0.966,1.966l9.117,5.687l0.485,10.734c0.037,0.807,0.5,1.483,1.239,1.808      c0.737,0.324,1.552,0.207,2.171-0.31l8.224-6.916l10.358,2.857c0.776,0.21,1.564-0.017,2.103-0.622      c0.537-0.603,0.676-1.41,0.373-2.159l-4.035-9.958l5.918-8.968c0.444-0.676,0.466-1.495,0.059-2.193      c-0.407-0.7-1.149-1.071-1.939-1.022l-10.717,0.759l-6.699-8.399C1586.759,2486.905,1586.18,2486.629,1585.558,2486.629z"/>
			</g>
			<g>
				<path style="fill:#371A45;" d="M1582.192,2527.78c-0.725,0-1.456-0.149-2.152-0.454c-1.871-0.822-3.091-2.601-3.184-4.643      l-0.407-9.024l-7.665-4.782c-1.732-1.081-2.683-3.015-2.484-5.047c0.203-2.035,1.515-3.745,3.428-4.464l8.461-3.177l2.176-8.768      c0.493-1.983,2.04-3.486,4.037-3.923c2-0.424,4.028,0.288,5.304,1.886l5.635,7.06l9.009-0.637      c2.054-0.132,3.947,0.864,4.977,2.625c1.032,1.761,0.976,3.918-0.149,5.625l-4.977,7.541l3.391,8.375      c0.768,1.893,0.4,4.018-0.959,5.545c-1.361,1.527-3.43,2.139-5.399,1.591l-8.709-2.401l-6.914,5.816      C1584.629,2527.353,1583.419,2527.78,1582.192,2527.78z M1585.556,2487.446c-0.12,0-0.217,0.017-0.285,0.032      c-0.232,0.049-0.783,0.241-0.954,0.925l-2.435,9.807c-0.161,0.651-0.634,1.181-1.261,1.415l-9.461,3.552      c-0.659,0.249-0.786,0.82-0.807,1.054c-0.024,0.234-0.012,0.82,0.585,1.193l8.575,5.348c0.568,0.354,0.925,0.966,0.956,1.635      l0.456,10.095c0.032,0.708,0.534,1.002,0.749,1.098c0.22,0.095,0.776,0.266,1.317-0.19l7.734-6.504      c0.512-0.429,1.21-0.583,1.852-0.403l9.741,2.686c0.676,0.183,1.117-0.203,1.276-0.376c0.156-0.176,0.49-0.656,0.227-1.31      l-3.794-9.365c-0.254-0.62-0.183-1.325,0.188-1.886l5.565-8.434c0.388-0.588,0.154-1.125,0.034-1.329      c-0.12-0.205-0.52-0.659-1.176-0.62l-10.078,0.712c-0.708,0.073-1.317-0.237-1.735-0.761l-6.301-7.897l0,0      C1586.214,2487.534,1585.834,2487.446,1585.556,2487.446z"/>
			</g>
		</g>
		<g>
			<g>
				<path style="fill:#FFD243;" d="M1395.906,2503.361l2.3,9.839l9.409,3.683c2.543,0.995,2.841,4.474,0.504,5.887l-8.647,5.228      l-0.595,10.087c-0.161,2.726-3.378,4.084-5.443,2.298l-7.644-6.608l-9.777,2.551c-2.642,0.689-4.928-1.95-3.868-4.467      l3.922-9.312l-5.447-8.51c-1.472-2.3,0.332-5.29,3.053-5.059l10.068,0.853l6.41-7.81      C1391.884,2499.91,1395.285,2500.702,1395.906,2503.361z"/>
			</g>
			<g>
				<path style="fill:#FFA92C;" d="M1398.877,2538.085c-0.16,2.726-3.38,4.083-5.445,2.297l-7.641-6.605l-9.777,2.548      c-2.642,0.69-4.927-1.949-3.87-4.466l1.217-2.891c0.581,1.448,2.163,2.437,3.904,1.985l9.777-2.549l7.641,6.605      c1.358,1.174,3.217,0.991,4.378-0.052L1398.877,2538.085z"/>
			</g>
			<g style="opacity:0.6;">
				<path style="fill:#FFFFFF;" d="M1373.674,2508.979l11.67,1.047l-1.805,2.198l-9.75-0.886l-0.44-0.687      c-0.336-0.53-0.482-1.095-0.467-1.643C1373.137,2508.966,1373.402,2508.955,1373.674,2508.979z"/>
			</g>
			<g style="opacity:0.6;">
				<path style="fill:#FFFFFF;" d="M1408.312,2517.259c-0.229,0.499-0.61,0.942-1.145,1.268l-1.445,0.876      c-0.213-0.158-0.453-0.287-0.718-0.393l-9.41-3.682l-2.3-9.84c-0.444-1.9-2.31-2.846-3.971-2.459l0.827-1.008      c1.736-2.109,5.136-1.317,5.758,1.341l2.301,9.836l9.405,3.685C1407.868,2516.982,1408.101,2517.109,1408.312,2517.259z"/>
			</g>
			<g>
				<path style="fill:#FFA92C;" d="M1377.034,2523.836l-6.414-9.801c-1.184-1.851-0.246-4.15,1.588-4.847l6.688,10.232      L1377.034,2523.836z"/>
			</g>
			<g>
				<path style="fill:#FFA92C;" d="M1408.12,2522.769l-10.017,5.792l0.281-4.784l10.454-6.057      C1410.174,2519.155,1410,2521.632,1408.12,2522.769z"/>
			</g>
			<g>
				<path style="fill:#371A45;" d="M1395.579,2542.407c-1.059,0-2.1-0.378-2.942-1.103l-7.16-6.187l-9.156,2.386      c-1.669,0.437-3.415-0.103-4.55-1.41s-1.42-3.111-0.749-4.708l3.674-8.721l-5.104-7.97c-0.932-1.456-0.956-3.283-0.061-4.764      c0.888-1.478,2.503-2.305,4.245-2.166l9.429,0.8l6.004-7.316c1.098-1.337,2.832-1.932,4.516-1.53      c1.686,0.393,2.974,1.683,3.367,3.366l2.157,9.217l8.812,3.447c1.61,0.629,2.703,2.093,2.852,3.815      c0.146,1.725-0.681,3.354-2.161,4.25l-8.099,4.896l-0.556,9.446c-0.103,1.727-1.156,3.22-2.75,3.894      C1396.772,2542.29,1396.174,2542.407,1395.579,2542.407z M1386.101,2532.434l8.131,7.026c0.61,0.527,1.42,0.656,2.164,0.342      c0.744-0.315,1.217-0.983,1.264-1.788l0.634-10.729l9.195-5.555c0.69-0.42,1.064-1.152,0.993-1.957      c-0.068-0.805-0.559-1.461-1.31-1.757l-10.007-3.916l-2.445-10.466c-0.183-0.783-0.764-1.361-1.549-1.547      c-0.781-0.188-1.566,0.078-2.078,0.705l-6.814,8.307l-10.707-0.907c-0.807-0.08-1.534,0.302-1.954,0.995      c-0.417,0.693-0.407,1.513,0.029,2.193l5.792,9.049l-4.172,9.902c-0.312,0.744-0.183,1.554,0.346,2.167      c0.529,0.61,1.305,0.849,2.093,0.649L1386.101,2532.434z"/>
			</g>
			<g>
				<path style="fill:#371A45;" d="M1395.579,2543.225c-1.251,0-2.483-0.444-3.476-1.303l-6.836-5.906l-8.739,2.279      c-1.981,0.522-4.037-0.122-5.374-1.664c-1.339-1.547-1.678-3.676-0.886-5.56l3.508-8.329l-4.872-7.607      c-1.1-1.722-1.13-3.879-0.073-5.628c1.056-1.749,2.981-2.749,5.013-2.557l9.002,0.761l5.731-6.982      c1.298-1.581,3.347-2.271,5.333-1.81c1.991,0.466,3.515,1.988,3.979,3.977l2.057,8.8l8.411,3.291      c1.903,0.744,3.193,2.471,3.367,4.508c0.176,2.034-0.803,3.959-2.552,5.018l-7.731,4.672l-0.532,9.019      c-0.12,2.04-1.366,3.801-3.247,4.596C1396.986,2543.085,1396.279,2543.225,1395.579,2543.225z M1385.789,2531.741      c0.483,0,0.956,0.171,1.332,0.495l7.646,6.606c0.537,0.461,1.093,0.298,1.313,0.208c0.215-0.093,0.724-0.381,0.766-1.086      l0.595-10.088c0.039-0.668,0.405-1.276,0.978-1.622l8.646-5.226c0.605-0.366,0.625-0.951,0.605-1.188      c-0.022-0.234-0.139-0.808-0.795-1.064l-9.41-3.681c-0.625-0.244-1.088-0.781-1.242-1.432l-2.3-9.841l0,0      c-0.159-0.686-0.708-0.885-0.937-0.937c-0.232-0.054-0.812-0.122-1.261,0.427l-6.409,7.809c-0.424,0.517-1.037,0.8-1.747,0.737      l-10.068-0.854c-0.673-0.034-1.061,0.405-1.183,0.605c-0.122,0.202-0.363,0.734,0.017,1.33l5.448,8.509      c0.361,0.563,0.422,1.271,0.161,1.888l-3.923,9.312c-0.273,0.651,0.056,1.135,0.21,1.313c0.154,0.178,0.583,0.576,1.269,0.395      l9.775-2.549C1385.445,2531.761,1385.618,2531.741,1385.789,2531.741z"/>
			</g>
		</g>
		<g>
			<g>
				<path style="fill:#FFD243;" d="M1931.106,2512.956l3.294,9.552l9.736,2.702c2.631,0.73,3.283,4.16,1.103,5.805l-8.067,6.085      l0.439,10.095c0.119,2.728-2.942,4.408-5.18,2.843l-8.28-5.792l-9.465,3.537c-2.558,0.956-5.102-1.436-4.304-4.048l2.95-9.664      l-6.289-7.909c-1.7-2.137-0.211-5.296,2.52-5.344l10.103-0.181l5.578-8.425      C1926.752,2509.934,1930.216,2510.374,1931.106,2512.956z"/>
			</g>
			<g>
				<path style="fill:#FFA92C;" d="M1937.613,2547.195c0.12,2.728-2.944,4.407-5.182,2.842l-8.277-5.789l-9.465,3.535      c-2.557,0.956-5.101-1.435-4.306-4.047l0.915-3c0.726,1.381,2.401,2.203,4.086,1.575l9.465-3.535l8.277,5.789      c1.471,1.029,3.302,0.657,4.35-0.499L1937.613,2547.195z"/>
			</g>
			<g style="opacity:0.6;">
				<path style="fill:#FFFFFF;" d="M1909.566,2520.818l11.716-0.152l-1.571,2.371l-9.79,0.116l-0.508-0.638      c-0.388-0.492-0.592-1.04-0.633-1.587C1909.03,2520.861,1909.292,2520.823,1909.566,2520.818z"/>
			</g>
			<g style="opacity:0.6;">
				<path style="fill:#FFFFFF;" d="M1944.868,2525.512c-0.177,0.519-0.51,0.999-1.01,1.378l-1.347,1.019      c-0.228-0.136-0.48-0.239-0.755-0.317l-9.737-2.7l-3.295-9.553c-0.636-1.844-2.589-2.595-4.201-2.041l0.719-1.087      c1.511-2.276,4.975-1.836,5.865,0.745l3.295,9.549l9.732,2.704C1944.399,2525.283,1944.643,2525.385,1944.868,2525.512z"/>
			</g>
			<g>
				<path style="fill:#FFA92C;" d="M1914.427,2535.254l-7.383-9.094c-1.367-1.72-0.669-4.103,1.084-4.983l7.7,9.494      L1914.427,2535.254z"/>
			</g>
			<g>
				<path style="fill:#FFA92C;" d="M1945.241,2531.013l-9.373,6.786l-0.21-4.788l9.78-7.094      C1946.915,2527.208,1946.995,2529.69,1945.241,2531.013z"/>
			</g>
			<g>
				<path style="fill:#371A45;" d="M1934.32,2551.854c-0.905,0-1.805-0.276-2.583-0.82l-7.755-5.423l-8.865,3.313      c-1.622,0.603-3.411,0.247-4.672-0.939c-1.261-1.183-1.73-2.949-1.227-4.604l2.766-9.053l-5.891-7.406      c-1.078-1.354-1.288-3.169-0.551-4.735c0.739-1.564,2.271-2.557,4.001-2.586l9.463-0.171l5.226-7.892      c0.954-1.442,2.608-2.232,4.333-1.983c1.715,0.217,3.132,1.369,3.696,3.006l3.086,8.946l9.117,2.53      c1.671,0.463,2.906,1.808,3.23,3.508c0.322,1.7-0.337,3.403-1.717,4.445l-7.555,5.699l0.412,9.453      c0.073,1.732-0.822,3.323-2.34,4.155C1935.808,2551.668,1935.062,2551.854,1934.32,2551.854z M1924.328,2542.878l8.804,6.16      c0.661,0.461,1.481,0.51,2.188,0.12c0.708-0.388,1.11-1.103,1.076-1.913l-0.466-10.734l8.575-6.47      c0.647-0.485,0.942-1.251,0.79-2.044c-0.151-0.793-0.705-1.398-1.486-1.615l-10.354-2.871l-3.501-10.156      c-0.263-0.766-0.9-1.283-1.703-1.386c-0.781-0.09-1.544,0.239-1.993,0.915l-5.928,8.96l-10.746,0.19      c-0.807,0.015-1.495,0.461-1.839,1.19c-0.344,0.732-0.251,1.547,0.254,2.179l6.687,8.412l-3.137,10.275      c-0.237,0.773-0.024,1.566,0.563,2.118c0.59,0.556,1.396,0.715,2.149,0.432L1924.328,2542.878z"/>
			</g>
			<g>
				<path style="fill:#371A45;" d="M1934.318,2552.673c-1.069,0-2.132-0.327-3.052-0.969l-7.402-5.179l-8.463,3.164      c-1.918,0.715-4.028,0.29-5.516-1.11c-1.491-1.398-2.044-3.481-1.449-5.438l2.64-8.641l-5.623-7.073      c-1.274-1.598-1.522-3.74-0.651-5.591c0.871-1.847,2.684-3.018,4.726-3.054l9.034-0.161l4.986-7.536      c1.13-1.705,3.101-2.61,5.118-2.344c2.027,0.259,3.701,1.62,4.367,3.552l2.945,8.539l8.704,2.415      c1.971,0.549,3.432,2.135,3.813,4.145c0.381,2.008-0.398,4.018-2.03,5.248l-7.209,5.44l0.393,9.026      c0.088,2.042-0.973,3.923-2.764,4.906C1936.077,2552.454,1935.196,2552.673,1934.318,2552.673z M1924.154,2542.21      c0.412,0,0.82,0.124,1.166,0.366l8.28,5.792c0.578,0.41,1.122,0.185,1.325,0.073c0.207-0.112,0.686-0.451,0.654-1.159      l-0.439-10.095c-0.029-0.668,0.273-1.31,0.807-1.712l8.065-6.084c0.566-0.427,0.525-1.01,0.481-1.239      c-0.044-0.232-0.219-0.79-0.903-0.981l-9.734-2.701c-0.646-0.178-1.161-0.663-1.381-1.298l-3.294-9.551l0,0      c-0.229-0.668-0.798-0.81-1.032-0.839c-0.232-0.042-0.817-0.037-1.208,0.554l-5.577,8.426c-0.371,0.559-0.99,0.898-1.661,0.91      l-10.105,0.181c-0.705,0.012-1.015,0.51-1.115,0.722s-0.286,0.769,0.154,1.32l6.289,7.912c0.417,0.524,0.549,1.22,0.354,1.861      l-2.952,9.663c-0.205,0.676,0.171,1.122,0.344,1.283c0.171,0.164,0.634,0.52,1.303,0.261l9.466-3.537      C1923.674,2542.251,1923.915,2542.21,1924.154,2542.21z"/>
			</g>
		</g>
		<g>
			
				<ellipse transform="matrix(0.2298 -0.9732 0.9732 0.2298 -562.3801 3476.9595)" style="fill:#FFFFFF;" cx="1915.471" cy="2093.778" rx="10.781" ry="10.781"/>
		</g>
		<g>
			<circle style="fill:#FFFFFF;" cx="1330.265" cy="2412.992" r="7.155"/>
		</g>
		<g>
			<path style="fill:#FFFFFF;" d="M1645.623,2140.978c0,2.072-1.68,3.752-3.752,3.752c-2.072,0-3.752-1.68-3.752-3.752     c0-2.072,1.68-3.752,3.752-3.752C1643.943,2137.226,1645.623,2138.906,1645.623,2140.978z"/>
		</g>
		<g>
			<circle style="fill:#FFFFFF;" cx="2094.872" cy="2514.219" r="3.501"/>
		</g>
		<g>
			<circle style="fill:#FFFFFF;" cx="1977.196" cy="2041.267" r="12.123"/>
		</g>
		<g>
			<path style="fill:#FFFFFF;" d="M2279.94,2074.585c0,1.948-1.579,3.526-3.526,3.526s-3.526-1.579-3.526-3.526     s1.579-3.526,3.526-3.526S2279.94,2072.638,2279.94,2074.585z"/>
		</g>
		<g>
			
				<ellipse transform="matrix(0.7071 -0.7071 0.7071 0.7071 -1264.9373 1982.4182)" style="fill:#FFFFFF;" cx="1760.522" cy="2518.124" rx="8.675" ry="8.675"/>
		</g>
		<g style="opacity:0.25;">
			<path style="fill:#371A45;" d="M2675.091,2600.754c-182.291,24.009-273.525-142.231-273.525-142.231l-18.852-91.501     l171.932-34.947c0,0,22.053,176.022,137.341,178.378c82.164,1.69,136.719-49.174,160.283-134.806     C2860.094,2486.489,2811.32,2582.836,2675.091,2600.754z"/>
		</g>
		<g style="opacity:0.25;">
			<path style="fill:#371A45;" d="M2593.949,1962.024c-72.25,34.191-164.462,62.957-279.439,73.672l-44.594-216.526     C2391.161,1833.664,2502.092,1889.107,2593.949,1962.024z"/>
		</g>
		<g>
			<path style="fill:#371A45;" d="M2639.851,2620.903c-167.384,0-252.974-152.176-253.882-153.825     c-4.726-8.612-1.576-19.422,7.033-24.149c8.614-4.718,19.414-1.576,24.142,7.023c3.64,6.572,88.081,155.238,255.614,133.189     c70.428-9.26,118.819-40.699,143.83-93.438c37.281-78.618,18.133-199.24-48.78-307.299     c-88.159-142.366-272.003-318.292-499.998-345.559c-9.751-1.166-16.714-10.017-15.545-19.77     c1.166-9.751,10.022-16.733,19.771-15.545c240.542,28.765,433.696,213.065,526.014,362.148     c73.107,118.061,92.999,252.016,50.677,341.265c-30.087,63.446-89.333,102.682-171.334,113.465     C2664.461,2620.108,2651.934,2620.903,2639.851,2620.903z"/>
		</g>
		<g>
			<g>
				<g>
					<g>
						<path style="fill:#FFFFFF;" d="M1399.278,1202.502c0.059,86.714,13.456,170.711,50.783,204.442        c26.816,24.229,233.849,55.085,233.849,55.085l-81.337-558.281c0,0-14.217,1.849-34.414,5.579        c-41.975,7.812-109.842,24.023-128.656,49.563C1419.052,986.624,1399.251,1096.613,1399.278,1202.502z"/>
					</g>
					<g style="opacity:0.25;">
						<path style="fill:#371A45;" d="M1399.278,1202.502c0.059,86.714,13.456,170.711,50.783,204.442        c26.816,24.229,233.849,55.085,233.849,55.085l-81.337-558.281c0,0-14.217,1.849-34.414,5.579        c-27.549,62.476-61.007,157.698-74.43,273.632C1484.455,1262.983,1428.983,1260.384,1399.278,1202.502z"/>
					</g>
					<g>
						<path style="fill:#371944;" d="M1704.126,1482.341l-22.739-3.393c-49.767-7.426-214.356-33.656-242.779-59.353        c-53.932-48.76-58.186-175.308-55.922-246.402c2.679-84.112,18.677-191.351,43.056-224.422        c30.682-41.619,150.863-58.913,174.644-61.956l16.652-2.132L1704.126,1482.341z M1588.11,923.102        c-52.195,8.324-120.252,26.113-134.87,45.942c-32.973,44.732-65.744,358.284,8.28,425.208        c13.183,11.851,110.893,32.842,202.151,47.391L1588.11,923.102z"/>
					</g>
				</g>
				<g>
					<g>
						
							<ellipse transform="matrix(0.7071 -0.7071 0.7071 0.7071 -195.8186 1916.8857)" style="fill:#FFFFFF;" cx="2215.977" cy="1194.817" rx="750.439" ry="750.438"/>
					</g>
					<g style="opacity:0.25;">
						<path style="fill:#371A45;" d="M2910.352,1479.757c-122.387,298.753-429.775,495.055-767.579,461.932        c-412.472-40.443-714.081-407.63-673.638-820.101c15.794-161.073,81.382-305.262,180.036-418.689        c27.242,378.268,471.265,713.457,1044.447,769.658C2767.268,1479.778,2839.792,1482.06,2910.352,1479.757z"/>
					</g>
					<g>
						<path style="fill:#371A45;" d="M2216.552,1962.376c-24.959,0-50.126-1.217-75.473-3.701        c-421.193-41.3-730.258-417.563-688.961-838.756c41.3-421.193,417.59-730.219,838.756-688.961        c421.193,41.3,730.258,417.563,688.961,838.756C2941.021,1665.558,2606.328,1962.376,2216.552,1962.376z M2215.427,461.424        c-372.457,0-692.22,283.581-729.306,661.828c-39.46,402.445,255.848,761.963,658.291,801.42        c402.457,39.487,761.96-255.853,801.42-658.29l17.001,1.666l-17.001-1.666c39.46-402.445-255.848-761.963-658.291-801.42        C2263.346,462.588,2239.25,461.424,2215.427,461.424z"/>
					</g>
					<g>
						<path style="fill:#371A45;" d="M2216.555,1962.403c-24.959,0-50.126-1.217-75.473-3.701        c-98.513-9.661-192.609-37.565-279.68-82.933c-220.428-114.897-372.16-330.194-405.88-575.923        c-7.589-55.122-9.107-111.496-4.508-167.553c0.344-4.118,0.69-8.273,1.091-12.364        c21.195-216.161,133.657-414.072,308.548-542.984c152.801-112.689,341.119-164.527,530.225-145.992        c204.029,20.005,388.061,118.266,518.193,276.685c130.139,158.424,190.792,358.044,170.785,562.088        C2941.038,1665.58,2606.338,1962.403,2216.555,1962.403z M2215.601,461.434c-156.006,0-308.08,49.645-434.674,143.008        c-167.113,123.179-274.569,312.28-294.82,518.82c-0.385,3.925-0.717,7.914-1.044,11.847        c-4.394,53.554-2.947,107.422,4.306,160.085c32.217,234.785,177.199,440.492,387.822,550.278        c83.175,43.341,173.083,69.996,267.224,79.228c402.462,39.477,761.977-255.853,801.438-658.305l17.001,1.666l-17.001-1.666        c19.116-194.964-38.836-385.697-163.181-537.07c-124.34-151.366-300.18-245.253-495.127-264.367        C2263.534,462.602,2239.506,461.434,2215.601,461.434z"/>
					</g>
					<g>
						<path style="fill:#371A45;" d="M2157.505,1930.298c-27.165,0-54.488-1.332-81.914-4.02        c-73.153-7.175-144.604-23.893-212.372-49.694c-0.622-0.237-1.229-0.51-1.818-0.817        c-220.428-114.894-372.16-330.192-405.88-575.921c-8.773-52.612-10.583-106.824-5.308-160.644        c0.263-2.654,0.505-5.04,0.846-7.443c0.327-3.933,0.661-7.909,1.044-11.829c21.195-216.161,133.657-414.072,308.548-542.984        c0.695-0.512,1.427-0.971,2.191-1.373c137.887-72.453,294.774-102.504,453.71-86.927        C2421.555,508.747,2607.026,602.273,2738.8,752c132.064,150.054,194.415,338.55,175.569,530.764l-17.001-1.666l17.001,1.666        c-18.851,192.241-116.629,365.053-275.323,486.608C2501.885,1874.427,2333.376,1930.298,2157.505,1930.298z         M1876.304,1845.008c64.659,24.523,132.82,40.424,202.619,47.267c196.371,19.251,387.902-34.027,539.346-150.027        c151.1-115.736,244.182-280.1,262.096-462.817l0,0c17.914-182.693-41.47-361.987-167.213-504.861        c-126.033-143.203-303.581-232.67-499.933-251.923c-151.829-14.886-301.644,13.657-433.339,82.568        c-166.516,123.194-273.564,311.936-293.774,518.047c-0.385,3.925-0.717,7.914-1.044,11.847        c-0.032,0.364-0.073,0.727-0.127,1.088c-0.303,2.047-0.495,4.059-0.698,6.114c-5.006,51.063-3.296,102.265,5.057,152.405        C1521.541,1529.649,1666.162,1735.11,1876.304,1845.008z"/>
					</g>
					<g>
						<path style="fill:#371A45;" d="M2824.932,1273.995c-34.339,350.214-366.131,604.38-741.04,567.619        c-317.799-31.161-564.608-261.369-611.447-544.09c-8.466-50.815-10.459-103.315-5.229-156.655        c0.237-2.417,0.468-4.774,0.823-7.179c38.083-346.516,367.895-596.888,740.213-560.382        C2583.161,610.068,2859.271,923.78,2824.932,1273.995z"/>
					</g>
					<g>
						<path style="fill:#220F2D;" d="M2824.932,1273.995c-34.339,350.214-366.131,604.38-741.04,567.619        c-281.964-27.647-508.043-211.967-588.114-450.699c120.536,155.584,308.526,264.703,527.778,286.201        c388.289,38.072,733.877-212.36,795.009-566.374C2828.019,1163.617,2830.388,1218.356,2824.932,1273.995z"/>
					</g>
					<g style="opacity:0.5;">
						<path style="fill:#FFFFFF;" d="M2451.404,867.365c0,0-314.65-108.618-556.768-5.274c-0.255,0.109-0.509,0.218-0.763,0.326        c-50.939,21.794-94.898,56.845-127.529,101.125c-43.153,58.559-64.16,105.203-81.043,146.98        c-51.287,127.076-51.171,196.234-51.171,196.234c-46.325-96.369-56.936-189.061-15.283-295.332        c4.134-10.465,8.79-21.104,13.919-31.872c1.173-2.485,2.392-4.922,3.658-7.36c-0.046-0.047,0.001-0.092,0.097-0.136        c11.948-21.081,28.71-48.193,50.218-77.2c64.813-87.525,172.528-192.464,320.787-202.048        C2284.747,674.887,2467.393,858.326,2451.404,867.365z"/>
					</g>
					<g style="opacity:0.5;">
						
							<ellipse transform="matrix(0.1097 -0.994 0.994 0.1097 1036.4192 3696.1389)" style="fill:#FFFFFF;" cx="2581.412" cy="1269.535" rx="118.083" ry="102.797"/>
					</g>
					<g style="opacity:0.5;">
						
							<ellipse transform="matrix(0.0168 -0.9999 0.9999 0.0168 1030.6569 4013.3088)" style="fill:#FFFFFF;" cx="2556.068" cy="1482.573" rx="48.778" ry="42.433"/>
					</g>
					<g>
						<g>
							<g>
								<path style="fill:#FFFFFF;" d="M3003.805,1168.598l-63.122,288.847l-39.319,179.922l-102.521-5.155l-9.689-0.502          c-43.867-10.524-54.477-133.275-23.719-273.95c0.674-3.169,1.424-6.41,2.167-9.572          c31.301-135.818,90.062-236.228,132.904-225.877l8.915,3.977L3003.805,1168.598z"/>
							</g>
							<g style="opacity:0.25;">
								<path style="fill:#371A45;" d="M2940.683,1457.445l-39.319,179.922l-102.521-5.155l-9.689-0.502          c-43.867-10.524-54.477-133.275-23.719-273.95c0.674-3.169,1.424-6.41,2.167-9.572l8.413-16.167c0,0,4.483,62.6,32.22,75.02          c29.329,13.197,59.507-57.623,59.507-57.623L2940.683,1457.445z"/>
							</g>
						</g>
						<g>
							<path style="fill:#371A45;" d="M2901.368,1654.477c-0.29,0-0.578-0.007-0.868-0.022l-112.194-5.65         c-1.066-0.051-2.125-0.205-3.162-0.456c-62.787-15.172-65.834-159.49-36.391-294.208         c25.784-117.971,71.468-212.365,116.387-240.481c16.672-10.437,30.612-10.107,39.373-7.987         c1.027,0.249,2.027,0.59,2.991,1.025l103.294,46.33c7.377,3.308,11.425,11.334,9.7,19.234l-102.45,468.782         C2916.325,1648.917,2909.351,1654.477,2901.368,1654.477z M2792.034,1614.785l95.727,4.821l96.397-441.083l-88.825-39.841         c-3.313-0.354-7.338,0.976-12.066,3.938c-30.692,19.209-75.288,100.54-101.135,218.815         c-14.513,66.405-20.119,130.556-15.782,180.641C2770.268,1587.357,2781.868,1610.889,2792.034,1614.785z"/>
						</g>
						<g>
							<path style="fill:#FFFFFF;" d="M3032.287,1386.795c0,0-0.077,0.072-0.085,0.149c-1.839,11.101-4.037,22.325-6.537,33.758         c-28.275,129.398-83.909,226.472-124.301,216.665c-39.176-9.459-49.615-116.274-24.166-241.204         c0.714-3.56,1.506-7.191,2.298-10.823c28.274-129.398,83.978-226.465,124.309-216.742         C3040.6,1177.52,3051.957,1272.047,3032.287,1386.795z"/>
						</g>
						<g style="opacity:0.25;">
							<path style="fill:#371A45;" d="M3032.202,1386.943c-1.839,11.101-4.037,22.325-6.537,33.758         c-28.275,129.398-83.909,226.472-124.301,216.665c-39.176-9.459-49.615-116.274-24.166-241.204         c10.157,48.702,33.925,135.549,72.686,117.935C2972.52,1503.74,3006.663,1440.38,3032.202,1386.943z"/>
						</g>
						<g>
							<path style="fill:#371A45;" d="M2907.018,1655.128c-3.686,0-6.931-0.476-9.651-1.134         c-58.645-14.167-61.765-147.702-34.539-272.286c23.798-108.888,66.078-196.088,107.715-222.15         c15.75-9.863,28.968-9.541,37.294-7.526c58.645,14.172,61.765,147.704,34.54,272.286         c-23.798,108.891-66.078,196.093-107.715,222.153C2924.059,1653.106,2914.603,1655.128,2907.018,1655.128z          M2998.127,1185.049c-3.186,0-6.802,1.805-9.458,3.467c-28.006,17.531-68.76,92.028-92.462,200.487         c-30.834,141.088-10.107,227.122,9.185,231.784c3.535,0.842,8.007-1.313,11.144-3.274         c28.006-17.531,68.76-92.026,92.462-200.489l0,0c30.834-141.086,10.107-227.122-9.185-231.784         C2999.271,1185.11,2998.705,1185.049,2998.127,1185.049z"/>
						</g>
					</g>
				</g>
			</g>
		</g>
		<g>
			<path style="fill:#FFFFFF;" d="M2448.01,2182.185c0,0-50.694-17.048-60.107-60.164c-7.643-35.008,26.569-60.103,79.91-37.101     c41.629,17.952,68.639,51.224,68.639,51.224"/>
			<path style="fill:#371A45;" d="M2448.002,2199.971c-1.876,0-3.784-0.298-5.662-0.929c-2.459-0.827-60.38-20.863-71.812-73.226     c-4.591-21.031,1.871-41.173,17.287-53.878c20.695-17.058,52.417-18.28,87.042-3.347c45.122,19.456,74.188,54.849,75.402,56.347     c6.189,7.626,5.025,18.826-2.601,25.015c-7.624,6.189-18.824,5.028-25.015-2.601c-0.222-0.271-25.013-30.207-61.873-46.101     c-25.455-10.981-42.693-8.16-50.336-1.864c-6.494,5.353-6.389,13.201-5.157,18.841c7.102,32.519,48.05,46.976,48.462,47.12     c9.261,3.191,14.23,13.283,11.073,22.556C2462.296,2195.304,2455.402,2199.971,2448.002,2199.971z"/>
		</g>
		<g>
			<path style="fill:#FFFFFF;" d="M2509.442,2476.391c0,0-58.677,35.496-134.617-10.61c0,0-46.692,26.088-93.116,3.423     c-45.72-22.321-34.988-84.252-36.537-86.835c-2.131-3.551-23.21-22.396-16.222-55.547c8.332-39.525,52.307-64.451,52.307-64.451     s-50.948,1.105-63.315-24.442c-14.239-29.413,8.353-66.75,54.469-88.047c76.069-35.128,160.145-16.014,203.775-8.604     l48.066,6.021l12.2-11.155c27.448,33.046,52.051,93.488,59.587,128.239c0,0,20.86,75.492-4.466,134.814     C2566.245,2458.52,2509.442,2476.391,2509.442,2476.391z"/>
		</g>
		<g>
			<path style="fill:#FFFFFF;" d="M2591.593,2399.211c-3.335,7.825-7.247,14.895-11.471,21.341     c-27.877,42.371-70.693,55.843-70.693,55.843s-58.644,35.48-134.584-10.626c0,0-46.729,26.099-93.146,3.424     c-39.882-19.474-36.814-69.182-36.414-83.187c0.044-2.045,0.044-3.335-0.133-3.646c-2.09-3.557-23.209-22.408-16.184-55.532     c8.314-39.526,52.287-64.469,52.287-64.469s-50.953,1.112-63.313-24.409c-14.228-29.433,8.358-66.781,54.465-88.078     c76.073-35.125,160.149-16.006,203.766-8.581l48.063,6.002l12.227-11.16c27.433,33.035,52.064,93.502,59.578,128.271     C2596.039,2264.405,2616.891,2339.855,2591.593,2399.211z"/>
		</g>
		<g>
			<path style="fill:#FFFFFF;" d="M2591.593,2399.211c-3.335,7.825-7.247,14.895-11.471,21.341     c-27.877,42.371-70.693,55.843-70.693,55.843s-58.644,35.48-134.584-10.626c0,0-46.729,26.099-93.146,3.424     c-39.882-19.474-36.814-69.182-36.414-83.187c0.044-2.045,0.044-3.335-0.133-3.646c-2.09-3.557-23.209-22.408-16.184-55.532     c3.379-15.873,12.494-29.433,22.142-39.926c14.45-15.65,30.145-24.543,30.145-24.543s-50.953,1.112-63.313-24.409     c-6.536-13.561-5.291-28.766,2.49-43.305c9.026-17.073,27.077-33.257,51.975-44.772c76.073-35.125,160.149-16.006,203.766-8.581     l48.063,6.002l12.227-11.16c27.433,33.035,52.064,93.502,59.578,128.271C2596.039,2264.405,2616.891,2339.855,2591.593,2399.211z     "/>
		</g>
		<g style="opacity:0.25;">
			<path style="fill:#371A45;" d="M2281.253,2262.359c0,0-50.953,1.112-63.313-24.409c-6.536-13.561-5.291-28.766,2.49-43.305     c4.268,11.649,12.76,23.92,29.255,29.433c45.306,15.161,92.924-21.875,130.583,2.268c0,0-84.921,35.658-129.16,60.556     C2265.559,2271.252,2281.253,2262.359,2281.253,2262.359z"/>
		</g>
		<g style="opacity:0.25;">
			<path style="fill:#371A45;" d="M2580.122,2420.508v0.044c-27.877,42.371-70.693,55.843-70.693,55.843     s-58.644,35.48-134.584-10.626c0,0-46.729,26.099-93.146,3.424c-39.882-19.474-36.814-69.182-36.414-83.187l3.334-2.001     c0,0,6.847,56.733,54.421,59.801c48.863,3.112,79.675-44.639,79.675-44.639s8.27,55.354,73.672,49.441     C2509.428,2443.806,2559.536,2383.827,2580.122,2420.508z"/>
		</g>
		<g>
			<path style="fill:#371A45;" d="M2550.132,2124.782c26.039,42.49,39.707,90.742,45.907,139.602     c-16.662-42.636-40.608-84.891-73.266-116.878C2522.772,2147.507,2550.132,2124.782,2550.132,2124.782L2550.132,2124.782z"/>
		</g>
		<g>
			<path style="fill:#371A45;" d="M2509.442,2476.391c-39.194,34.828-101.026,30.451-144.44,5.574c0,0,19.055,0.344,19.055,0.344     l-3.323,1.798c-36.621,18.841-83.947,17.913-118.381-5.84c-30.092-21.197-36.917-60.996-34.795-94.18     c0.094,2.249,1.003,5.292,2.395,7.494c-43.602-49.535-10.873-113.457,42.53-144.679c-0.001,0,0.002-0.003,0.002-0.003     l9.156,33.251c-28.074,0.633-60.843-3.095-78.831-28.293c-15.198-22.377-10.909-53.847,3.617-74.649     c38.067-54.731,110.22-69.312,172.508-65.594c34.501,2.489,67.216,12.429,97.25,29.663c-29.223,4.819-68.354,4.697-97.746,5.987     c-43.65,2.241-89.863,11.333-124.312,39.098c-13.755,12.347-24.107,26.754-17.995,42.845c1.311,2.713,3.252,4.116,6.47,6.136     c9.073,5.367,25.025,8.404,38.267,9.248l9.156,33.252c-33.51,20.823-63.208,59.432-30.297,94.326     c1.708,2.378,2.83,5.479,3.181,8.251c0.118,1.003,0.215,2.402,0.215,3.413c-0.177,7.806-0.49,15.672,0.166,22.712     c2.62,56.46,56.21,61.808,98.913,44.151c-0.001,0.001,3.388-1.443,3.388-1.443c6.01-3.281,13.584-3.47,19.058,0.347     C2420.813,2474.612,2465.697,2486.881,2509.442,2476.391L2509.442,2476.391z"/>
		</g>
		<g>
			<g>
				<path style="fill:#FFFFFF;" d="M2380.26,2226.339c0,0-30.618,0-99.003,36.032"/>
			</g>
			<g>
				<path style="fill:#371A45;" d="M2380.259,2226.339c-33.826,9.654-62.796,31.131-90.711,51.764      c-19.254,13.939-40.43-13.771-21.868-28.681c18.227-8.788,38.786-12.682,58.364-17.612      C2343.783,2228.169,2362.177,2224.805,2380.259,2226.339L2380.259,2226.339z"/>
			</g>
		</g>
		<g>
			<path style="fill:#371A45;" d="M2846.888,2498.188l-24.591-10.339c15.138-35.996,17.497-115.224-24.647-178.665     c-41.539-62.531-117.941-95.583-220.95-95.583v-26.677c141.961,0,210.594,58.457,243.17,107.498     C2870.149,2370.11,2863.125,2459.576,2846.888,2498.188z"/>
		</g>
		<g>
			<g>
				<path style="fill:#FFFFFF;" d="M2432.51,3345.05c0,0-82.558-28.182-209.581,5.159"/>
			</g>
			<g>
				<path style="fill:#371A45;" d="M2432.51,3345.051c-61.296-5.201-121.841-1.893-182.888,3.399      c-8.822,0.61-17.592,1.676-26.694,1.759C2285.041,3321.128,2369.859,3314.313,2432.51,3345.051L2432.51,3345.051z"/>
			</g>
		</g>
		<g>
			<path style="fill:#371A45;" d="M1744.815,3329.281c56.398-1.892,111.994,5.652,167.357,14.864     c-27.48,1.221-54.941,3.173-82.202,6.37c-26.401,3.23-53.689,7.052-79.184,13.83     C1725.113,3370.43,1718.532,3332.068,1744.815,3329.281L1744.815,3329.281z"/>
		</g>
		<g>
			<path style="fill:#371A45;" d="M2318.295,3106.991c-107.768,0-205.313-13.991-211.863-14.95     c-6.999-1.025-11.844-7.531-10.819-14.53c1.024-6.999,7.543-11.849,14.53-10.822c2.562,0.373,257.263,36.886,395.98-7.514     c6.743-2.152,13.952,1.561,16.108,8.297c2.156,6.741-1.559,13.952-8.297,16.109     C2458.129,3101.439,2386.181,3106.991,2318.295,3106.991z"/>
		</g>
		<g>
			<g>
				<path style="fill:#FFFFFF;" d="M1670.964,2161.281c-0.052,1.189-0.737,1.758-2.031,1.698c-2.266-0.097-11.19-0.943-26.794-2.521      c-1.014,15.028-1.653,25.508-1.915,31.454c-0.311,7.016-0.498,17.586-0.55,31.701c-0.052,14.123-0.239,24.677-0.55,31.701      c-0.049,1.122-0.34,1.833-0.894,2.094c-0.183,0.112-1.021,0.225-2.517,0.344c-3.59,0.322-8.834,0.322-15.731,0.015      c-7.667-0.337-13.038-0.8-16.112-1.421c-1.649-0.366-2.439-1.324-2.368-2.865c0.307-7.024,1.07-17.534,2.278-31.537      c1.216-14.01,1.979-24.52,2.289-31.537c0.202-4.638,0.419-14.99,0.647-31.065c-11.946,0.673-21.457,0.838-28.533,0.531      c-0.95-0.045-1.41-0.359-1.384-0.95c0.037-0.778,0.55-3.044,1.545-6.822c1.141-4.114,1.784-6.62,1.945-7.51      c0.299-2.783,0.632-5.573,0.995-8.348c0.61-4.443,1.425-6.65,2.435-6.605c0.12,0.007,0.539,0.052,1.245,0.149      c9.571,1.668,23.795,2.925,42.637,3.755c5.348,0.232,15.245,0.105,29.682-0.396c7.753-0.247,11.662-0.366,11.721-0.366      c1.197,0.052,1.874,0.15,2.042,0.307c0.172,0.157,0.266,0.74,0.281,1.75c-0.071,1.608-0.228,3.845-0.475,6.68      c-0.258,3.149-0.415,5.386-0.471,6.695c-0.067,1.474,0.03,3.673,0.295,6.575      C1670.931,2157.69,1671.028,2159.852,1670.964,2161.281z"/>
			</g>
			<g>
				<path style="fill:#FFFFFF;" d="M1763.304,2219.402c-0.595,13.554-5.225,24.378-13.891,32.457      c-8.658,8.071-19.744,11.819-33.239,11.228c-13.083-0.576-23.664-5.221-31.742-13.906c-8.079-8.699-11.819-19.591-11.243-32.674      c0.606-13.793,5.139-24.804,13.603-33.048c8.464-8.229,19.598-12.043,33.392-11.43c13.435,0.591,24.131,5.274,32.087,14.048      C1760.218,2194.86,1763.899,2205.968,1763.304,2219.402z M1734.056,2218.115c0.21-4.698-1.066-8.909-3.826-12.641      c-2.753-3.718-6.452-5.685-11.089-5.887c-4.698-0.209-8.636,1.466-11.838,5.012c-3,3.336-4.611,7.368-4.821,12.125      c-0.209,4.817,1.036,9.021,3.736,12.582c2.872,3.83,6.65,5.842,11.348,6.052c4.638,0.202,8.557-1.466,11.751-5.034      C1732.265,2227.01,1733.847,2222.933,1734.056,2218.115z"/>
			</g>
			<g>
				<path style="fill:#FFFFFF;" d="M1909.629,2171.783c-0.052,1.189-0.729,1.758-2.031,1.706c-2.266-0.105-11.19-0.943-26.794-2.521      c-1.014,15.028-1.653,25.508-1.915,31.455c-0.31,7.016-0.497,17.578-0.55,31.701c-0.052,14.115-0.239,24.677-0.55,31.701      c-0.049,1.122-0.34,1.825-0.894,2.094c-0.183,0.112-1.021,0.224-2.517,0.337c-3.59,0.322-8.827,0.322-15.731,0.022      c-7.667-0.337-13.038-0.808-16.105-1.421c-1.657-0.374-2.446-1.331-2.375-2.872c0.307-7.024,1.07-17.526,2.278-31.537      c1.216-14.003,1.978-24.513,2.289-31.529c0.202-4.638,0.419-14.998,0.647-31.073c-11.946,0.673-21.45,0.845-28.533,0.531      c-0.943-0.045-1.41-0.352-1.384-0.943c0.037-0.778,0.557-3.052,1.545-6.822c1.141-4.114,1.784-6.62,1.945-7.518      c0.299-2.782,0.632-5.565,0.995-8.348c0.61-4.443,1.425-6.643,2.435-6.598c0.12,0,0.539,0.052,1.245,0.142      c9.571,1.676,23.795,2.925,42.637,3.755c5.348,0.24,15.245,0.105,29.682-0.389c7.753-0.254,11.662-0.374,11.722-0.374      c1.197,0.052,1.874,0.15,2.05,0.307c0.172,0.165,0.266,0.741,0.281,1.758c-0.071,1.608-0.228,3.837-0.475,6.68      c-0.258,3.149-0.415,5.378-0.471,6.688c-0.067,1.474,0.03,3.68,0.295,6.583      C1909.595,2168.192,1909.692,2170.354,1909.629,2171.783z"/>
			</g>
			<g>
				<path style="fill:#FFFFFF;" d="M2006.101,2209.281l-2.887,61.517c-0.094,2.08-0.972,3.209-2.652,3.374      c-1.919,0.149-6.253,0.075-13.031-0.225c-6.545-0.284-11.086-0.718-13.614-1.309c-1.952-0.449-2.876-1.765-2.779-3.957      c0.224-5.116,0.655-12.821,1.287-23.091c0.625-10.285,1.055-17.975,1.279-23.084c0.307-6.957-3.078-10.6-10.154-10.914      c-2.371-0.105-5.214,0.733-8.513,2.491c-3.59,1.922-5.446,4.017-5.547,6.283l-0.969,22.022      c-0.123,2.857-0.254,7.151-0.385,12.896c-0.135,5.752-0.266,10.046-0.389,12.896c-0.097,2.199-1.077,3.381-2.929,3.538      c-1.851,0.15-7.031,0.037-15.536-0.337c-4.87-0.209-8.37-0.598-10.487-1.167c-2.117-0.576-3.149-1.661-3.078-3.261      c0.206-4.698,0.546-11.759,1.021-21.184c0.475-9.41,0.815-16.479,1.021-21.177c0.857-19.434,1.354-35.531,1.504-48.278      c0.019-4.466,0.063-8.939,0.142-13.397c-0.075-5.177-0.408-9.635-1.025-13.352c-0.146-0.785-0.209-1.354-0.194-1.713      c0.037-0.898,0.516-1.466,1.417-1.728c1.87-0.456,4.593-0.658,8.165-0.621c4.769,0.03,7.533,0,8.311-0.082l16.232-1.152      c0.95,0.038,1.399,0.681,1.346,1.923c-0.086,1.907-0.325,4.488-0.703,7.742c-0.404,3.807-0.64,6.388-0.699,7.75      c-0.95,13.427-1.597,24.027-1.941,31.813c-0.052,1.197,0.221,1.803,0.819,1.825c0.12,0.008,1.687-0.965,4.679-2.925      c3.564-2.281,6.942-4.062,10.158-5.356c4.791-1.878,9.384-2.708,13.782-2.521c7.608,0.337,13.887,2.611,18.828,6.814      C2003.917,2195.854,2006.431,2201.846,2006.101,2209.281z"/>
			</g>
			<g>
				<path style="fill:#FFFFFF;" d="M2101.613,2229.74c-0.265,6.007-2.337,9.343-6.242,10.001c-0.662,0.09-6.841,0.479-18.555,1.152      c-7.05,0.464-17.549,0.92-31.514,1.376c0.666,3.905,3.063,6.964,7.203,9.163c3.366,1.818,7.256,2.82,11.654,3.014      c5.289,0.232,10.678-0.958,16.154-3.575c2.33-1.332,4.641-2.648,6.964-3.979c1.223,0.643,3.19,3.778,5.891,9.373      c2.708,5.595,4.021,9.141,3.953,10.629c-0.019,0.419-0.49,1.077-1.429,1.99c-7.593,7.465-19.034,10.869-34.316,10.196      c-14.145-0.621-25.38-5.259-33.702-13.906c-8.546-8.774-12.518-20.174-11.901-34.207c0.602-13.674,5.083-24.715,13.442-33.1      c8.595-8.677,19.669-12.709,33.239-12.118c11.407,0.509,20.918,5.094,28.522,13.764      C2098.576,2208.182,2102.118,2218.265,2101.613,2229.74z M2070.637,2222.925c0.161-3.688-0.999-6.987-3.493-9.896      c-2.494-2.902-5.55-4.443-9.178-4.6c-3.74-0.165-6.908,1.279-9.485,4.309c-2.386,2.82-3.665,6.194-3.841,10.113      c-0.067,1.608,0.733,2.446,2.394,2.521c4.398,0.195,11.265-0.187,20.6-1.145      C2069.609,2224.01,2070.607,2223.576,2070.637,2222.925z"/>
			</g>
			<g>
				<path style="fill:#FFFFFF;" d="M1751.418,2422.356c-0.078,1.84-0.972,2.723-2.7,2.648l-31.574-1.391      c-1.728-0.075-2.543-1.152-2.45-3.231c0.262-6.007,0.883-15.005,1.863-26.996c0.969-11.991,1.59-20.99,1.855-26.989      c0.075-1.736-0.153-2.663-0.681-2.805c-0.673,0.329-5.057,9.343-13.158,27.026c-4.754,10.397-9.496,20.765-14.246,31.103      c-0.658,1.332-1.425,2.109-2.326,2.312c-0.303,0.045-1.492,0.022-3.579-0.067c-3.089-0.135-4.903-0.815-5.449-2.035      c-2.921-6.68-6.721-16.382-11.407-29.091c-5.008-13.442-8.778-23.174-11.314-29.18c-0.109-0.307-0.363-0.651-0.759-1.017      c-0.441,0.516-0.688,1.369-0.74,2.551c-0.258,5.834-0.494,14.579-0.707,26.248c-0.221,11.662-0.456,20.414-0.711,26.241      c-0.094,2.08-0.969,3.082-2.637,3.007l-29.786-1.309c-1.189-0.052-1.908-0.284-2.151-0.681c-0.254-0.396-0.359-1.077-0.318-2.02      c0.288-6.486,1.028-16.202,2.222-29.173c1.193-12.956,1.934-22.688,2.222-29.166c0.303-6.897,0.572-19.837,0.815-38.837      c0.157-4.929,0.213-12.282,0.172-22.059l-0.026-1.519c-0.008-1.189,1.264-1.735,3.822-1.623      c3.276,0.142,8.18,0.254,14.725,0.329c6.549,0.082,11.467,0.194,14.736,0.336c0.651,0.03,1.515,1.324,2.596,3.875l23.529,58.323      c1.668,3.935,3.134,5.939,4.383,5.992c0.651,0.03,2.147-2.139,4.481-6.5c6.557-12.223,16.281-30.654,29.154-55.279      c1.111-2.281,2.27-3.396,3.46-3.344c1.713,0.075,4.32,0.277,7.791,0.614c3.471,0.329,6.1,0.538,7.88,0.613      c1.481,0.067,3.759,0.015,6.841-0.15c3.071-0.157,5.352-0.195,6.841-0.127c1.788,0.075,2.641,0.815,2.577,2.244      c-0.31,7.017-1.025,17.489-2.132,31.41c-1.122,13.921-1.84,24.385-2.147,31.402c-0.288,6.478-0.445,16.217-0.475,29.196      C1751.859,2406.229,1751.702,2415.931,1751.418,2422.356z"/>
			</g>
			<g>
				<path style="fill:#FFFFFF;" d="M1854.989,2385.718c-0.595,13.554-5.225,24.37-13.891,32.449      c-8.658,8.086-19.744,11.826-33.239,11.228c-13.083-0.576-23.664-5.206-31.742-13.906c-8.079-8.699-11.819-19.583-11.243-32.666      c0.606-13.786,5.139-24.812,13.603-33.048c8.464-8.228,19.598-12.043,33.392-11.438c13.435,0.591,24.131,5.274,32.087,14.048      C1851.904,2361.168,1855.58,2372.283,1854.989,2385.718z M1825.741,2384.431c0.206-4.698-1.07-8.909-3.819-12.642      c-2.76-3.718-6.459-5.693-11.097-5.895c-4.69-0.202-8.636,1.474-11.83,5.019c-3.007,3.329-4.619,7.368-4.828,12.125      c-0.209,4.817,1.036,9.014,3.74,12.582c2.869,3.83,6.654,5.842,11.344,6.044c4.638,0.202,8.557-1.466,11.755-5.027      C1823.95,2393.318,1825.532,2389.249,1825.741,2384.431z"/>
			</g>
			<g>
				<path style="fill:#FFFFFF;" d="M1951.582,2389.967c-0.595,13.554-5.232,24.378-13.898,32.457      c-8.658,8.079-19.737,11.819-33.231,11.228c-13.09-0.576-23.664-5.214-31.742-13.906c-8.079-8.7-11.826-19.591-11.25-32.674      c0.606-13.786,5.146-24.804,13.61-33.048c8.464-8.228,19.591-12.043,33.392-11.43c13.434,0.591,24.124,5.274,32.079,14.048      C1948.489,2365.424,1952.173,2376.532,1951.582,2389.967z M1922.334,2388.68c0.206-4.698-1.07-8.909-3.826-12.642      c-2.76-3.718-6.452-5.685-11.089-5.887c-4.698-0.21-8.636,1.466-11.838,5.012c-3.007,3.336-4.611,7.368-4.821,12.125      c-0.209,4.817,1.029,9.021,3.733,12.582c2.876,3.83,6.654,5.842,11.351,6.052c4.638,0.202,8.55-1.474,11.748-5.034      C1920.542,2397.574,1922.125,2393.497,1922.334,2388.68z"/>
			</g>
			<g>
				<path style="fill:#FFFFFF;" d="M2049.206,2435.641c-0.071,1.601-0.939,2.483-2.618,2.655c-1.679,0.165-6.025,0.09-13.034-0.217      c-7.495-0.329-12.122-0.711-13.887-1.152c-1.773-0.434-2.611-1.698-2.517-3.77c0.123-2.798,0.396-7.009,0.827-12.657      c0.426-5.64,0.696-9.889,0.823-12.746c0.097-2.199,0.183-5.483,0.262-9.859c0.071-4.369,0.157-7.667,0.254-9.859      c0.359-8.146-3.007-12.373-10.076-12.687c-2.319-0.105-5.072,0.785-8.258,2.678c-3.422,2.109-5.188,4.264-5.285,6.47      l-2.117,48.158c-0.09,1.96-1.055,3.014-2.914,3.171c-2.083,0.15-6.347,0.083-12.765-0.202      c-6.957-0.299-11.464-0.681-13.528-1.13c-1.836-0.382-2.712-1.406-2.637-3.067c0.202-4.638,0.531-11.617,1.01-20.952      c0.464-9.328,0.8-16.352,1.01-21.05c0.651-14.803,0.004-26.472-1.937-35.015c-0.094-0.546-0.135-0.995-0.12-1.346      c0.041-0.958,0.52-1.586,1.417-1.907c3.766-0.247,8.793-0.688,15.076-1.302c9.53-1.429,14.897-2.109,16.079-2.057      c0.658,0.03,1.077,2.05,1.253,6.082c0.183,4.024,0.602,6.059,1.253,6.089c-0.651-0.03,2.633-1.96,9.863-5.782      c7.23-3.823,13.483-5.61,18.779-5.378c7.548,0.337,13.775,2.394,18.674,6.179c5.461,4.354,8.034,10.188,7.712,17.496      l-1.249,28.447c-0.172,3.875-0.396,9.65-0.677,17.362C2049.603,2425.991,2049.378,2431.774,2049.206,2435.641z"/>
			</g>
		</g>
	</g>
</g>
</svg>