<svg xmlns="http://www.w3.org/2000/svg" xmlns:xlink="http://www.w3.org/1999/xlink" version="1.1" id="Layer_1" x="0px" y="0px" viewBox="0 0 4000 4000" style="enable-background:new 0 0 4000 4000;" xml:space="preserve">
<g>
	
	<g>
		<g style="opacity:0.2;">
			<ellipse style="fill:#371A45;" cx="2041.198" cy="3438.72" rx="1202.636" ry="107.681"/>
		</g>
		<g>
			<g>
				<g>
					<path style="fill:#50B8FF;" d="M3035.992,3399.233c-110.234,20.727-204.48,1.774-282.695-56.783l-0.061-0.015       c-6.726-4.986-13.36-10.34-19.857-15.986c-17.397-15.118-21.345-40.611-8.812-59.951l47.96-73.852l292.339,72.14l7.845,85.275       C3074.901,3373.425,3059.043,3394.878,3035.992,3399.233z"/>
				</g>
				<g>
					<path style="fill:#FB132B;" d="M2708.688,2848.388l-165.182,41.824c-17.917,4.537-31.875,18.579-36.303,36.523l-23.237,94.165       c-6.492,26.308,9.134,53.003,35.251,60.223l189.971,52.517"/>
				</g>
				<g style="opacity:0.55;">
					<path style="fill:#FFFFFF;" d="M2708.722,2888.607l-137.999,34.939c-17.89,4.584-31.852,18.615-36.281,36.564l-23.238,94.168       c-1.987,8.052-1.916,16.221-0.066,23.786c-21.144-9.978-32.963-33.697-27.169-57.177l23.238-94.168       c4.429-17.948,18.39-31.98,36.265-36.503l165.203-41.855L2708.722,2888.607z"/>
				</g>
				<g>
					<path style="fill:#FB132B;" d="M3427.557,3153.83l-23.238,94.168c-6.492,26.308-32.761,42.649-59.189,36.91l-192.606-41.855       l81.725-154.923l51.42-97.386l126.074,113.276l0.693,0.627C3426.155,3116.967,3431.986,3135.882,3427.557,3153.83z"/>
				</g>
				<g style="opacity:0.3;">
					<path style="fill:#371A45;" d="M3427.557,3153.83l-23.238,94.168c-6.492,26.308-32.761,42.649-59.189,36.91l-192.606-41.855       l81.725-154.923l6.263-10.583c28.306,168.315,89.635,153.126,171.23,26.473l0.693,0.627       C3426.155,3116.967,3431.986,3135.882,3427.557,3153.83z"/>
				</g>
				<g>
					<path style="fill:#371A45;" d="M2953.14,3425.715c-88.535,0-166.245-28.564-231.812-85.381       c-24.307-21.06-29.536-57.114-12.168-83.867l47.944-73.828c5.537-8.521,16.939-10.957,25.464-5.415       c8.525,5.537,10.952,16.938,5.415,25.464l-47.944,73.828c-7.417,11.426-5.098,26.899,5.396,35.996       c78.252,67.803,172.168,90.254,287.163,68.618c13.506-2.539,23.076-15.449,21.787-29.39l-7.871-85.254       c-0.933-10.127,6.514-19.092,16.635-20.024c10.093-0.952,19.087,6.514,20.024,16.636l7.871,85.254       c3.066,33.203-19.136,62.847-51.641,68.96C3009.615,3422.917,2980.845,3425.715,2953.14,3425.715z"/>
				</g>
				<g>
					<path style="fill:#371A45;" d="M2709.199,3152.053c-1.621,0-3.271-0.215-4.912-0.669l-189.971-52.515       c-35.981-9.951-57.163-46.133-48.222-82.378l23.237-94.165c6.069-24.6,25.097-43.74,49.658-49.961l165.18-41.821       c9.834-2.49,19.863,3.472,22.363,13.33c2.495,9.854-3.472,19.868-13.33,22.364l-165.18,41.821       c-11.348,2.871-20.142,11.719-22.949,23.086l-23.238,94.165c-4.131,16.753,5.659,33.477,22.29,38.071l189.966,52.515       c9.8,2.71,15.547,12.852,12.842,22.646C2724.678,3146.701,2717.271,3152.053,2709.199,3152.053z"/>
				</g>
				<g>
					<path style="fill:#371A45;" d="M3356.031,3304.519c-4.888,0-9.858-0.522-14.844-1.606l-192.593-41.89       c-9.937-2.163-16.236-11.968-14.077-21.899c2.163-9.941,12.002-16.201,21.899-14.077l192.593,41.89       c16.861,3.677,33.311-6.587,37.441-23.335l23.237-94.16c2.808-11.367-0.864-23.291-9.575-31.113L3273.35,3004.46       c-7.563-6.797-8.188-18.433-1.396-25.996c6.797-7.568,18.433-8.179,25.996-1.396l126.763,113.867       c18.853,16.929,26.787,42.729,20.718,67.324l-23.237,94.165C3414.468,3283.713,3386.89,3304.514,3356.031,3304.519z"/>
				</g>
				<g>
					<path style="fill:#F6F6F6;" d="M3166.475,3225.367c-15.121,26.657-44.125,42.453-74.718,40.904       c-129.235-6.655-241.495-36.117-340.496-83.371c-27.065-12.939-44.53-40.203-45.543-70.188       c-0.168-4.867-0.336-9.735-0.397-14.51l-0.062-0.015c-11.716-403.347,55.378-724.124,201.218-962.344       c76.336-124.626,174.207-226.591,293.644-306.019c42.755-28.446,100.349-14.233,125.025,30.852       c13.928,25.478,26.69,51.451,38.195,77.766c45.26,103.572,71.683,213.451,79.316,329.713       C3461.22,2549.943,3369.169,2869.06,3166.475,3225.367z"/>
				</g>
				<g>
					<path style="fill:#FB132B;" d="M3442.658,2268.153c-174.059,83.556-454.513,11.089-536.18-132.312       c76.336-124.626,174.207-226.591,293.644-306.019c42.755-28.446,100.349-14.233,125.025,30.852       C3393.922,1986.548,3433.123,2122.338,3442.658,2268.153z"/>
				</g>
				<g style="opacity:0.55;">
					<path style="fill:#FFFFFF;" d="M3366.311,1945.433c-5.902-12.021-12.111-23.856-18.52-35.675       c-24.675-45.085-82.27-59.297-125.024-30.852c-116.311,77.33-212.135,176.019-287.516,296.25       c-11.217-12.419-20.961-25.518-28.773-39.314c76.336-124.626,174.207-226.591,293.644-306.019       c42.755-28.446,100.349-14.233,125.025,30.852C3340.341,1888.422,3354.093,1916.726,3366.311,1945.433z"/>
				</g>
				<g style="opacity:0.3;">
					<path style="fill:#371A45;" d="M3166.475,3225.367c-15.121,26.657-44.125,42.453-74.718,40.904       c-129.235-6.655-241.495-36.117-340.496-83.371c-27.065-12.939-44.53-40.203-45.543-70.188       c-0.168-4.867-0.336-9.735-0.397-14.51c606.268-132.688,657.866-1159.929,657.866-1159.929l0.154,0.169       c45.26,103.572,71.683,213.451,79.316,329.713C3461.22,2549.943,3369.169,2869.06,3166.475,3225.367z"/>
				</g>
				<g>
					<path style="fill:#371A45;" d="M3096.035,3290.9c-1.841,0-3.691-0.049-5.547-0.142c-126.519-6.479-244.209-35.327-349.8-85.732       c-35.386-16.885-58.189-51.943-59.517-91.484c-10.508-312.974,26.352-581.138,109.56-797.048       c83.877-217.651,217.036-388.267,395.781-507.107c26.098-17.354,58.462-23.015,88.779-15.535       c30.322,7.483,56.333,27.551,71.367,55.056c102.881,188.242,141.396,401.089,114.482,632.622       c-26.704,229.683-118.667,484.033-273.34,755.996l0,0C3168.877,3270.808,3134.077,3290.9,3096.035,3290.9z M3248.374,1839.65       c-12.197,0-24.141,3.606-34.683,10.613c-341.289,226.909-503.95,651.384-483.457,1261.633       c0.708,21.157,12.817,39.868,31.597,48.833c101.128,48.271,209.453,74.771,331.167,81.006       c21.499,1.055,41.518-9.805,52.138-28.477c301.577-530.269,354.888-981.384,158.447-1340.811       c-8.574-15.693-22.798-26.68-40.049-30.938C3258.491,1840.266,3253.408,1839.65,3248.374,1839.65z M3166.47,3225.393h0.049       H3166.47z"/>
				</g>
				<g>
					<path style="fill:#FB132B;" d="M2904.896,3288.478l-2.527-0.624c-21.934-5.413-35.327-27.581-29.914-49.515l66.686-270.239       c5.413-21.934,27.581-35.327,49.515-29.914l2.527,0.624c21.934,5.412,35.327,27.581,29.914,49.515l-66.686,270.239       C2948.998,3280.497,2926.829,3293.89,2904.896,3288.478z"/>
				</g>
				<g style="opacity:0.55;">
					<path style="fill:#FFFFFF;" d="M3017.042,2959.669c-1.137-0.411-2.352-0.776-3.581-1.079       c-22.62-5.582-45.458,8.215-51.039,30.835l-66.072,267.752c-2.594,10.51-0.98,21.147,3.823,29.962       c-20.582-6.97-32.717-28.615-27.424-50.067l66.057-267.69c5.597-22.681,28.496-36.464,51.116-30.882       c11.31,2.791,20.453,9.873,26.055,19.146C3016.393,2958.335,3016.748,2959.01,3017.042,2959.669z"/>
				</g>
				<g>
					<path style="fill:#371A45;" d="M2914.692,3305.017c-4.448,0-8.96-0.532-13.467-1.646c-0.005,0-0.005,0-0.01,0l-2.529-0.625       c-14.58-3.599-26.889-12.661-34.658-25.518c-7.768-12.861-10.068-27.979-6.465-42.563l66.685-270.239       c7.422-30.107,37.973-48.569,68.076-41.133l2.539,0.625c14.58,3.599,26.89,12.661,34.658,25.522       c7.769,12.861,10.069,27.979,6.465,42.563l-66.684,270.234C2962.988,3287.839,2939.956,3305.017,2914.692,3305.017z        M2908.579,3273.586c13.701,3.364,27.563-5.015,30.938-18.696l66.685-270.239c1.635-6.631,0.596-13.501-2.94-19.346       c-3.53-5.845-9.126-9.966-15.752-11.602l-2.539-0.625c-13.672-3.394-27.563,5.01-30.938,18.696l-66.685,270.244       c-1.636,6.631-0.596,13.501,2.939,19.341c3.531,5.845,9.126,9.966,15.752,11.602L2908.579,3273.586z"/>
				</g>
				<g>
					
						<ellipse transform="matrix(0.7071 -0.7071 0.7071 0.7071 -935.4491 2946.666)" style="fill:#50B8FF;" cx="3089.216" cy="2602.52" rx="174.106" ry="174.106"/>
				</g>
				<g style="opacity:0.3;">
					<path style="fill:#371A45;" d="M3258.234,2644.228c-23.04,93.369-117.379,150.363-210.748,127.323       c-75.666-18.672-127.444-84.204-132.045-158.049c21.939,44.279,62.49,78.936,114.246,91.707       c93.369,23.041,187.707-33.954,210.748-127.323c4.368-17.703,5.865-35.396,4.722-52.698       C3262.848,2560.789,3268.503,2602.615,3258.234,2644.228z"/>
				</g>
				<g style="opacity:0.55;">
					<path style="fill:#FFFFFF;" d="M3256.145,2553.07c-22.485-41.805-61.939-74.3-111.605-86.556       c-93.369-23.04-187.707,33.954-210.747,127.323c-7.706,31.225-6.458,62.638,2.167,91.373       c-19.828-36.716-26.595-80.642-15.795-124.406c23.04-93.369,117.378-150.363,210.747-127.323       C3193.116,2448.831,3239.171,2495.8,3256.145,2553.07z"/>
				</g>
				<g>
					<path style="fill:#371A45;" d="M3089.556,2788.972c-14.986,0-30.069-1.821-44.99-5.503       c-99.775-24.624-160.923-125.825-136.299-225.601s125.86-160.903,225.601-136.299       c99.775,24.624,160.923,125.825,136.299,225.601c-11.929,48.335-41.963,89.131-84.575,114.873       C3156.138,2779.841,3123.106,2788.972,3089.556,2788.972z M3089.224,2440.666c-72.695,0-138.95,49.409-157.129,123.081       c-21.377,86.636,31.714,174.512,118.35,195.894c41.973,10.361,85.464,3.75,122.456-18.604       c37.002-22.354,63.081-57.778,73.438-99.746l0,0c10.356-41.968,3.75-85.459-18.603-122.456       c-22.354-37.002-57.778-63.081-99.746-73.438C3115.02,2442.199,3102.017,2440.666,3089.224,2440.666z"/>
				</g>
				<g>
					
						<ellipse transform="matrix(0.7071 -0.7071 0.7071 0.7071 -935.4492 2946.666)" style="fill:#61E1FF;" cx="3089.216" cy="2602.52" rx="107.629" ry="107.629"/>
				</g>
				<g style="opacity:0.3;">
					<path style="fill:#232323;" d="M3196.466,2610.988c-11.404-33.594-39.172-60.856-76.176-69.988       c-57.718-14.243-116.038,20.991-130.28,78.708c-1.426,5.778-2.314,11.493-2.757,17.253c-6.384-18.791-7.66-39.517-2.548-60.231       c14.243-57.718,72.563-92.951,130.28-78.709C3166.925,2510.838,3200.67,2559.335,3196.466,2610.988z"/>
				</g>
				<g>
					<path style="fill:#371A45;" d="M3089.209,2722.434c-9.482,0-19.111-1.133-28.721-3.506       c-31.094-7.671-57.339-26.992-73.901-54.404c-16.558-27.412-21.455-59.634-13.779-90.728       c15.845-64.185,80.947-103.53,145.132-87.686c64.184,15.84,103.521,80.947,87.685,145.137l0,0       C3192.153,2685.827,3143.066,2722.434,3089.209,2722.434z M3089.224,2507.15c-42.832,0-81.875,29.116-92.588,72.524       c-6.104,24.731-2.212,50.356,10.962,72.158c13.169,21.797,34.043,37.163,58.769,43.267       c51.079,12.593,102.823-18.687,115.43-69.731l0,0c12.593-51.05-18.691-102.832-69.736-115.43       C3104.419,2508.054,3096.763,2507.15,3089.224,2507.15z M3193.711,2628.308h0.049H3193.711z"/>
				</g>
				<g>
					<path style="fill:#371A45;" d="M3271.328,2325.183c-44.424,0-90.591-5.706-136.626-17.251       c-113.169-28.376-205.454-88.743-246.856-161.477c-5.869-10.308-2.27-23.42,8.037-29.29c10.313-5.867,23.428-2.266,29.287,8.04       c76.787,134.895,347.505,200.718,508.194,123.569c10.698-5.134,23.521-0.627,28.657,10.066       c5.132,10.691,0.625,23.521-10.063,28.655C3399.912,2312.482,3337.573,2325.183,3271.328,2325.183z"/>
				</g>
				<g style="opacity:0.3;">
					<path style="fill:#371A45;" d="M3035.992,3399.233c-110.234,20.727-204.48,1.774-282.695-56.783       c97.879,31.718,184.881-74.56,184.881-74.56l44.936-23.277l81.751,20.174l7.845,85.275       C3074.901,3373.425,3059.043,3394.878,3035.992,3399.233z"/>
				</g>
			</g>
			<g>
				<g>
					<path style="fill:#FFFFFF;" d="M1308.504,1867.987c-62.681,133.566,39.669,556.347,181.762,765.246       c142.092,208.899,542.881,17.011,763.211-109.416s-50.042-632.839-125.199-767.045       C2010.917,1547.208,1401.384,1670.07,1308.504,1867.987z"/>
				</g>
				<g>
					<path style="fill:#D8D8D8;" d="M2253.483,2523.815c-220.328,126.427-621.114,318.279-763.245,109.413       c-18.583-27.371-36.52-58.36-53.448-91.935c87.791,15.742,151.005-73.455,129.755-138.49       c-68.309-209.061-84.293-367.217-78.203-482.58c7.047-133.511,107.543-244.598,239.888-263.561       c172.386-24.701,343.457-0.971,400.031,100.138C2203.449,1890.965,2473.812,2397.389,2253.483,2523.815z"/>
				</g>
				<g>
					<path style="fill:#371A45;" d="M1691.758,2744.436c-90.806,0.005-167.314-28.784-216.455-101.025       c-68.193-100.264-131.86-256.094-170.303-416.843c-39.634-165.73-44.321-299.234-12.871-366.265l0,0       c62.28-132.717,323.135-222.844,529.102-230.237c162.407-5.825,277.002,36.033,322.832,117.866       c55.093,98.386,130.161,245.896,174.898,389.912c64.6,207.954,45.596,343.091-56.479,401.665       C2079.356,2644.582,1860.82,2744.421,1691.758,2744.436z M1849.893,1665.727c-8.96,0-18.071,0.166-27.363,0.498       c-220.186,7.903-448.076,103.816-497.646,209.448l0,0c-27.212,57.981-21.343,189.211,15.308,342.478       c37.476,156.711,99.17,308.076,165.034,404.907c131.641,193.53,519.663,11.064,739.248-114.937       c85.39-48.994,98.823-169.963,39.936-359.543c-43.803-141.016-117.666-286.094-171.919-382.966       C2076.626,1701.567,1981.665,1665.727,1849.893,1665.727z M1308.506,1867.988h0.049H1308.506z"/>
				</g>
				<g>
					<path style="fill:#FFFFFF;" d="M1528.415,2228.32l-120.576,13.26c-27.253,2.997-45.786,29.185-39.396,55.847       c21.982,91.733,78.681,275.948,177.997,267.004c120.362-10.84,94.886-142.783,29.285-307.783       C1568.167,2237.638,1548.749,2226.083,1528.415,2228.32z"/>
				</g>
				<g>
					<path style="fill:#D8D8D8;" d="M1575.389,2256.505c65.991,164.839,91.774,296.765-28.572,307.84       c-49.403,4.613-88.388-38.746-117.759-94.73c16.695,11.615,35.03,17.733,55.139,15.852       c107.722-9.964,98.38-116.765,47.75-257.365C1550.832,2227.444,1568.332,2238.722,1575.389,2256.505z"/>
				</g>
				<g>
					<path style="fill:#371A45;" d="M1539.595,2582.78c-105.024,0.02-163.262-174.639-188.945-280.771       c-4.287-17.71-0.747-36.438,9.712-51.379c10.493-14.985,26.938-24.749,45.122-26.79l120.547-13.533       c28.301-3.181,55.615,13.044,66.187,39.48c58.921,147.222,71.328,235.557,40.215,286.411       c-16.523,27.017-44.766,42.554-83.931,46.167C1545.503,2582.644,1542.52,2582.78,1539.595,2582.78z M1530.064,2246.264       l-120.547,13.533c-7.979,0.896-14.907,5.01-19.512,11.584c-4.575,6.531-6.06,14.385-4.189,22.117       c14.863,61.392,70.444,261.079,159.355,252.842c27.563-2.549,46.011-12.041,56.396-29.023       c31.831-52.036-9.263-169.934-42.944-254.089C1554.077,2251.865,1542.388,2244.892,1530.064,2246.264L1530.064,2246.264z        M1528.047,2228.286h0.049H1528.047z"/>
				</g>
				<g>
					<path style="fill:#371A45;" d="M1295.664,1893.166c57.89-8.477,115.649-14.899,174.219-15.706       c5.005-0.049,9.097,3.968,9.146,8.968c0.047,4.709-3.519,8.619-8.101,9.092c-28.252,3.242-56.416,8.149-84.429,13.806       c-27.882,5.695-56.063,12.118-83.496,19.277C1278.463,1934.073,1270.9,1897.938,1295.664,1893.166L1295.664,1893.166z"/>
				</g>
			</g>
			<g>
				<path style="fill:#FFFFFF;" d="M2119.397,3354.006c44.459,52.691,323.018,66.259,441.38,22.071      c59.746-22.297,71.415-72.41,63.907-108.14c-1.583-7.779-4.115-14.925-7.237-20.895c-35.956-68.611-151.648-81.41-151.648-81.41      s91.315-192.535,64.675-398.775c-13.478-103.934-51.831-181.907-97.421-239.753c-93.892-119.13-218.269-153.051-218.269-153.051      l-243.01,207.596C2269.735,2705.121,2043.008,3263.369,2119.397,3354.006z"/>
			</g>
			<g>
				<path style="fill:#D8D8D8;" d="M2119.397,3354.006c44.459,52.691,323.018,66.259,441.38,22.071      c59.746-22.297,71.415-72.41,63.907-108.14c-13.025,24.74-42.921,50.746-110.175,57.078      c-136.227,12.754-342.331,46.901-347.984-105.879c-4.025-107.778,39.801-321.163,18.091-436.856      c-27.227-145.001,208.411-137.041,248.437-255.176c-93.892-119.13-218.269-153.051-218.269-153.051l-243.01,207.596      C2269.735,2705.121,2043.008,3263.369,2119.397,3354.006z"/>
			</g>
			<g>
				<path style="fill:#371A45;" d="M2360.327,3420.436c-111.533,0-223.882-18.183-254.737-54.765      c-31.392-37.217-21.992-121.221-8.984-237.48c21.44-191.67,50.81-454.17-131.768-529.805      c-9.229-3.823-13.613-14.409-9.79-23.638c3.823-9.233,14.409-13.613,23.638-9.79c207.715,86.05,176.597,364.175,153.877,567.256      c-10.635,95.034-20.679,184.8,0.684,210.127c36.489,43.257,302.851,60.947,421.221,16.797      c24.888-9.287,41.499-24.419,49.37-44.98c8.267-21.602,4.746-45.049-2.407-58.711c-31.001-59.18-136.563-71.704-137.627-71.826      c-5.801-0.654-10.942-4.072-13.784-9.175s-3.057-11.27-0.562-16.548c0.894-1.88,88.696-190.439,63.057-388.74      c-16.343-126.436-71.978-228.315-165.357-302.813c-70.127-55.942-136.509-74.683-137.168-74.863      c-9.624-2.656-15.288-12.608-12.646-22.231c2.637-9.629,12.578-15.295,22.192-12.671c2.949,0.806,73.091,20.391,148.906,80.464      c69.947,55.425,157.949,157.231,179.956,327.476c22.109,170.977-33.667,330.313-56.831,387.148      c38.36,8.042,112.295,30.444,141.914,86.992c10.615,20.259,17.275,54.131,4.146,88.433      c-8.076,21.094-26.865,49.658-70.513,65.942C2518.218,3411.276,2439.478,3420.436,2360.327,3420.436z"/>
			</g>
			<g>
				<path style="fill:#FFFDFD;" d="M2528.521,2753.18c0,0-213.695-24.626-398.529,116.1"/>
				<path style="fill:#371A45;" d="M2130.005,2887.37c-5.459,0-10.849-2.456-14.409-7.134c-6.05-7.949-4.517-19.297,3.438-25.352      c188.452-143.481,402.554-120.723,411.558-119.678c9.927,1.147,17.046,10.117,15.904,20.044      c-1.143,9.932-10.098,17.031-20.039,15.903c-2.837-0.327-209.316-21.626-385.508,112.52      C2137.676,2886.164,2133.823,2887.37,2130.005,2887.37z"/>
			</g>
			<g>
				<path style="fill:#FFFFFF;" d="M1691.586,2610.957c150.338,29.76,240.567,13.84,381.272-7.463l307.323-182.359      c-47.354-177.836-152.96-447.621-203.073-657.931c-19.448-81.772-30.529-154.544-26.549-209.451l-485.476-50.655      c0,0-49.886,49.796-88.647,128.673c-23.609,47.942-43.102,106.648-44.82,171.414      C1524.197,2083.599,1542.651,2478.348,1691.586,2610.957z"/>
			</g>
			<g>
				<path style="fill:#D8D8D8;" d="M1576.436,1631.772c111.849,143.463,173.812,232.381,404.926,222.522      c84.124-3.573,146.041-39.936,195.746-91.089c-19.448-81.772-30.529-154.544-26.549-209.451l-485.476-50.655      C1665.083,1503.098,1615.196,1552.894,1576.436,1631.772z"/>
			</g>
			<g>
				<path style="fill:#D8D8D8;" d="M1882.358,1673.743l220.033,147.443c44.956-24.649,81.32-61.103,112.798-102.622      c-13.659-14.156-27.273-27.815-40.705-40.841C2054.585,1561.533,1882.358,1673.743,1882.358,1673.743z"/>
			</g>
			<g>
				<path style="fill:#371A45;" d="M1848.174,2645.31c-48.472,0-99.785-4.673-160.103-16.631c-3.164-0.625-6.104-2.085-8.516-4.233      c-151.626-135-173.984-521.375-166.04-821.731c4.673-176.587,133.325-306.941,138.799-312.402      c3.857-3.85,9.248-5.757,14.653-5.188l485.454,50.645c9.717,1.013,16.875,9.556,16.167,19.297      c-9.458,130.945,71.552,373.652,143.027,587.791c33.565,100.559,65.264,195.544,86.055,273.645      c2.573,9.653-3.174,19.565-12.827,22.134c-9.654,2.578-19.566-3.174-22.134-12.827      c-20.503-77.017-52.036-171.484-85.415-271.497c-69.57-208.435-148.042-443.547-145.562-584.324l-459.585-47.944      c-24.414,26.97-118.716,140.078-122.461,281.628c-10.825,409.243,42.534,689.485,150.352,790.481      c138.208,26.704,224.038,13.652,353.154-5.977l16.963-2.573c9.771-1.533,19.101,5.293,20.591,15.181      c1.499,9.878-5.298,19.097-15.181,20.591l-16.934,2.573C1982.095,2635.583,1918.091,2645.31,1848.174,2645.31z"/>
			</g>
			<g>
				<path style="fill:#FFFFFF;" d="M1595.025,3169.612c-15.966,47.218-11.171,175.62,73.45,236.271      c74.4,53.369,342.285,46.765,357.572-55.857c3.03-20.307-0.951-39.891-7.78-56.218c-3.075-7.462-6.739-14.202-10.583-20.036      c-24.921-37.72-59.565-104.16-59.565-104.16c119.175-119.402,130.663-305.56,122.793-427.449      c-2.216-33.831-5.925-62.686-9.181-83.807c-1.673-10.81-3.256-19.539-4.523-25.916c-1.493-7.734-2.442-11.94-2.442-11.94      s129.985-7.191,214.969-51.062l-697.596-204.43c20.172,103.753,62.188,188.193,89.099,265.76      c8.141,23.473,14.925,46.313,19.267,68.882c2.624,13.795,4.342,27.453,4.975,41.112      C1695.068,2953.604,1626.955,3075.448,1595.025,3169.612z"/>
			</g>
			<g>
				<path style="fill:#D8D8D8;" d="M1668.475,3405.883c74.4,53.369,342.285,46.765,357.572-55.857      c3.03-20.307-0.951-39.891-7.78-56.218c-8.231,21.89-30.167,50.022-87.198,64.992c-90.185,23.654-201.672,35.866-273.765-77.43      c-55.857-87.787,21.257-156.715,51.061-292.127c21.393-97.059,12.8-151.288,124.513-174.625      c87.109-18.136,185.255-34.645,238.035-72.455c-2.216-33.831-5.925-62.686-9.181-83.807c-1.673-10.81-3.256-19.539-4.523-25.916      l-376.704,67.208c2.624,13.795,4.342,27.453,4.975,41.112c9.588,212.843-58.526,334.687-90.456,428.851      C1579.059,3216.83,1583.854,3345.232,1668.475,3405.883z"/>
			</g>
			<g>
				<path style="fill:#D8D8D8;" d="M1572.139,2365.007c20.172,103.753,62.188,188.193,89.099,265.76      c84.938,20.352,183.716,32.021,289.143,32.021c38.082,0,75.349-1.538,111.351-4.432c-3.754-23.88-6.965-37.856-6.965-37.856      s129.985-7.191,214.969-51.062L1572.139,2365.007z"/>
			</g>
			<g>
				<path style="fill:#371A45;" d="M1589.917,2361.54c19.795,108.958,74.231,206.158,103.483,312.98      c5.461,22.45,9.428,45.961,10.257,69.029c5.671,116.985-15.554,235.169-58.351,344.001      c-11.722,32.543-26.202,63.932-35.585,97.036c-11.319,62.63,3.071,134.224,44.277,183.772      c4.765,4.648,11.546,12.449,17.018,16.289c5.789,4.896,11.654,9.489,18.467,12.683c44.47,20.744,97.343,24.01,146.66,23.129      c51.881-2.377,128.632-11.327,162.994-52.617c11.975-15.208,11.418-35.992,6.831-54.091      c-3.674-15.523-12.633-29.009-21.216-42.268c-19.013-30.837-35.937-61.851-52.656-93.491c-3.787-7.16-2.237-15.732,3.242-21.14      c66.123-66.495,99.658-158.238,112.338-249.895c9.672-70.129,8.93-142.176,0.689-212.646      c-2.76-23.145-6.36-47.221-11.221-69.724c-2.519-10.803,5.595-21.451,16.621-22.136c0,0,53.574-6.526,53.574-6.526      c53.665-6.486,107.584-15.035,158.247-34.531c4.7-1.947,10.156,0.35,11.968,5.135c1.577,4.126-0.059,8.689-3.667,10.942      c-32.535,20.324-68.847,33.584-105.62,43.691c-37.046,9.708-73.897,16.711-112.495,17.415c0,0,16.626-22.136,16.626-22.136      c10.345,49.201,15.52,97.552,17.754,147.393c4.697,123.443-12.631,253.794-81.245,359.412      c-14.038,21.157-30.234,40.879-47.964,59.17l3.237-21.14c16.265,30.798,33.218,61.812,51.284,91.086      c23.29,32.68,38.161,75.467,24.653,115.052c-27.043,71.136-136.927,86.682-202.831,89.212      c-58.262,1.185-143.42-4.051-189.42-44.165c-65.362-54.494-88.822-153.624-73.463-235.745      c9.409-34.874,24.913-68.137,37.032-101.883c37.754-97.009,58.73-199.569,56.675-303.855      c-0.073-24.297-1.421-51.713-7.06-75.334c-9.149-42.104-24.938-81.699-40.947-122.654      c-26.325-66.152-52.095-133.939-65.703-204.556c-1.924-9.804,4.463-19.311,14.267-21.235      C1578.498,2345.265,1588.03,2351.702,1589.917,2361.54L1589.917,2361.54z"/>
			</g>
			<g>
				<path style="fill:#371A45;" d="M1900.337,2937.311c-63.467,0-143.491-16.235-226.958-74.204      c-8.208-5.698-10.239-16.973-4.541-25.176c5.703-8.218,16.978-10.244,25.176-4.541      c191.089,132.705,358.887,31.743,365.938,27.383c8.472-5.244,19.629-2.651,24.897,5.825c5.269,8.472,2.7,19.6-5.767,24.888      c-1.987,1.24-49.526,30.522-123.354,41.675C1939.248,2935.646,1920.635,2937.311,1900.337,2937.311z"/>
			</g>
			<g>
				<g>
					<path style="fill:#E5E5E5;" d="M879.699,2855.278c0.045,0.271,0.136,0.543,0.181,0.769       c6.423,23.157,30.302,36.725,53.55,30.574c684.569-181.409,1388.633-252.327,2095.681-211.034       c23.971,1.357,44.64-16.689,46.314-40.66c0.044-0.271,0.044-0.543,0.044-0.769c1.719-24.288-16.689-45.319-40.93-46.766       c-150.067-8.774-300.042-12.573-449.657-11.352c-37.946,0.271-75.847,0.905-113.748,1.854       c-526.454,13.071-1048.927,87.787-1560.635,223.426C887.027,2807.562,873.186,2831.85,879.699,2855.278z"/>
				</g>
			</g>
			<g>
				<g>
					<path style="fill:#E5E5E5;" d="M890.645,2874.862c10.718,10.945,26.91,15.966,42.785,11.759       c684.569-181.409,1388.633-252.327,2095.681-211.034c19.584,1.085,36.952-10.719,43.6-28.132       c-7.282-7.508-17.323-12.392-28.63-13.071c-716.546-41.881-1430.198,29.986-2123.994,213.928       C906.022,2852.067,895.439,2862.243,890.645,2874.862z"/>
				</g>
			</g>
			<g>
				<g>
					<path style="fill:#B2B2B2;" d="M890.645,2874.862c10.718,10.945,26.91,15.966,42.785,11.759       c684.569-181.409,1388.633-252.327,2095.681-211.034c19.584,1.085,36.952-10.719,43.6-28.132       c-7.282-7.508-17.323-12.392-28.63-13.071c-716.546-41.881-1430.198,29.986-2123.994,213.928       C906.022,2852.067,895.439,2862.243,890.645,2874.862z"/>
				</g>
				<g>
					<path style="fill:#B2B2B2;" d="M2438.39,2626.063v34.374l173.992-30.348l-27.499-54.047       c-37.946,0.271-75.847,0.905-113.748,1.854C2479.548,2598.428,2481.492,2624.48,2438.39,2626.063z"/>
				</g>
			</g>
			<g>
				<g>
					<path style="fill:#371A45;" d="M922.256,2906.188c-27.163,0-52.236-18.037-59.79-45.293l-0.268-0.981       c-4.399-15.85-2.285-32.666,6.011-47.129c8.262-14.414,21.641-24.692,37.666-28.94       c695.171-184.312,1411.704-256.489,2129.697-214.497c16.553,0.967,31.709,8.369,42.681,20.84       c11.015,12.52,16.44,28.574,15.283,45.21l-0.059,0.869c-2.339,33.564-31.768,59.253-65.44,57.358       c-704.575-41.138-1407.764,29.688-2089.99,210.498C932.783,2905.52,927.481,2906.188,922.256,2906.188z M897.329,2851.228       c3.74,13.486,17.852,21.519,31.45,17.925l0,0c685.942-181.807,1392.935-253.018,2101.367-211.65       c13.985,0.791,26.27-9.868,27.241-23.828l0.059-0.874c0.479-6.836-1.782-13.511-6.357-18.716       c-4.541-5.156-10.796-8.218-17.627-8.613c-714.141-41.763-1426.86,30.02-2118.311,213.345       c-6.616,1.753-12.139,6.001-15.557,11.963c-3.447,6.016-4.326,13.003-2.476,19.683l-17.222,5.6L897.329,2851.228z"/>
				</g>
			</g>
			<g>
				<path style="fill:#FFFFFF;" d="M1882.358,1673.743l307.052,205.787c9.046,111.17,116.507,342.602,116.507,342.602      c82.088,123.292,147.262,216.733,179.736,280.097c3.89,7.598-20.262,3.754-30.619,26.277      c-2.488,5.427-4.523,20.262-0.769,32.292c2.894,9.227,9.227,16.735,21.347,17.006c24.921-0.407,45.545,16.101,45.545,16.101      s16.508,15.559,9.724,41.7c-4.07,15.558-31.75,25.418-45.092,30.303c-3.03,21.438,12.347,36.635,47.082,51.017      c59.158,24.559,171.188,14.835,218.406,5.608c50.746-9.859,69.108-45.047,73.044-82.541c3.346-31.84-3.754-65.309-10.267-86.295      c-25.147-80.867-361.823-606.778-639.569-875.975C2054.585,1561.533,1882.358,1673.743,1882.358,1673.743z"/>
			</g>
			<g>
				<path style="fill:#D8D8D8;" d="M2454.265,2560.799c2.894,9.227,9.227,16.735,21.347,17.006      c24.921-0.407,45.545,16.101,45.545,16.101s16.508,15.559,9.724,41.7c-4.07,15.558-31.75,25.418-45.092,30.303      c-3.03,21.438,12.347,36.635,47.082,51.017c59.158,24.559,171.188,14.835,218.406,5.608      c50.746-9.859,69.108-45.047,73.044-82.541c-16.69,15.061-42.108,28.81-80.778,35.594      c-74.988,13.162-170.509-2.939-181.138-19.945c-10.673-17.051,23.926-103.753-96.878-100.044      C2461.863,2555.688,2458.064,2557.588,2454.265,2560.799z"/>
			</g>
			<g>
				<path style="fill:#D8D8D8;" d="M1882.358,1673.743l220.033,147.443c44.956-24.649,81.32-61.103,112.798-102.622      c-13.659-14.156-27.273-27.815-40.705-40.841C2054.585,1561.533,1882.358,1673.743,1882.358,1673.743z"/>
			</g>
			<g>
				<path style="fill:#371A45;" d="M1872.495,1658.576c94.567-57.997,226.246-79.866,312.636,4.335      c208.984,207.819,380.927,449.559,540.638,696.276c21.301,33.747,42.204,67.756,62.185,102.541      c15.685,28.259,32.288,55.557,43.385,86.684c18.827,59.739,21.959,145.018-41.5,179.542      c-29.131,15.509-62.773,16.543-94.13,20.127c-61.735,3.932-128.095,6.922-185.225-21.535      c-23.263-10.763-47.917-33.737-42.616-63.24c0.97-6.799,5.644-12.17,11.674-14.374c12.234-4.699,25.491-8.762,33.716-17.819      c2.099-6.767,1.287-15.849-3.16-22.186c-0.448-0.649-0.942-1.335-1.436-1.897c0,0-0.156-0.176-0.156-0.176      c0.019,0.017-0.161-0.164,0.225,0.212l1.118,0.967c-6.185-4.485-13.528-8.181-20.781-10.249      c-11.552-3.253-23.376-0.439-33.96-7.484c-22.352-14.151-24.66-44.309-17.359-67.304c4.635-12.351,15.988-23.443,27.535-28.403      c3.875-1.833,6.81-2.763,9.965-4.063c0,0-0.547,0.318-0.547,0.318c-0.898,0.428-2.546,2.057-3.354,3.108      c-1.581,2.045-2.78,4.5-3.198,7.539c-0.552,5.256,0.776,7.576,1.401,8.962c-0.479-0.979-2.064-3.855-2.583-4.883      c-32.108-59.714-70.853-115.508-108.344-172.195c0,0-67.764-101.198-67.764-101.198c-0.489-0.728-0.913-1.479-1.28-2.249      c-6.554-14.056-12.767-27.918-18.955-41.941c-18.712-41.768-36.171-84.015-50.527-127.561      c-18.96-58.594-37.472-117.736-39.698-180.19c0.073-10.644,15.672-13.039,17.999-1.677      c10.628,58.564,33.269,114.317,54.726,169.746c20.446,49.57,47.241,118.423,69.2,166.226      c49.49,74.569,128.938,186.569,176.68,274.214c-0.001,0.001,1.83,3.473,1.83,3.473l0.918,1.736      c4.844,8.585,2.277,21.723-7.823,27.539c-6.72,4.253-15.011,4.927-19.746,10.371c-3.845,4.138-3.876,9.577-3.863,15.667      c0.197,4.414,1.106,9.717,3.369,11.722c0.137,0.07,0.376,0.18,1.001,0.302c21.453,0.248,42.185,7.849,58.872,21.191      c8.76,8.795,14.285,20.496,16.226,32.686c6.68,42.13-24.257,57.691-57.794,69.467c0.001,0,11.69-14.482,11.69-14.482      c-2.843,18.348,33.058,30.757,47.778,35.89c45.383,12.504,93.483,11.142,141.207,7.714c33.283-4.235,74.985-3.163,97.315-30.268      c26.145-33.842,17.874-86.179,5.841-125.409c-26.794-62.135-65.164-119.973-100.639-177.823      c-127.739-199.714-267.002-393.304-423.228-571.741c-39.178-43.564-78.382-87.369-121.865-126.538      c-73.448-61.509-181.938-37.432-257.847,8.646C1872.037,1701.747,1852.329,1672.3,1872.495,1658.576L1872.495,1658.576z"/>
			</g>
			<g>
				<path style="fill:#371A45;" d="M2338.198,2299.257c-4.082,0-8.184-1.372-11.567-4.187c-7.676-6.392-8.721-17.8-2.324-25.479      c91.777-110.244,222.813-144.658,228.345-146.069c9.707-2.461,19.536,3.379,22.002,13.059      c2.471,9.675-3.369,19.519-13.042,21.995l0,0c-1.245,0.322-125.439,33.193-209.502,134.165      C2348.535,2297.038,2343.384,2299.257,2338.198,2299.257z"/>
			</g>
			<g>
				<g>
					<path style="fill:#FFFFFF;" d="M1578.923,2395.157c0,0-27.513,29.912-22.868,68.704c5.37,44.85,36.099,58.576,36.099,58.576       s131.874,43.44,321.286-28.704c0,0,46.276-81.89-24.377-112.986C1889.063,2380.748,1686.732,2441.453,1578.923,2395.157z"/>
				</g>
				<g>
					<path style="fill:#FFFFFF;" d="M2327.092,2518.32l-336.784,70.491c-39.858,8.356-79.332-17.434-87.696-57.344l-37.502-179.221       c-7.314-34.941,11.566-69.523,43.162-83.192c4.467-1.968,9.214-3.454,14.182-4.504l336.733-70.484       c39.91-8.364,79.384,17.426,87.696,57.344l29.737,141.941l7.816,37.272C2392.799,2470.534,2366.95,2509.965,2327.092,2518.32z"/>
				</g>
				<g>
					<path style="fill:#FFFFFF;" d="M2327.092,2518.32l-336.784,70.491c-39.858,8.356-79.332-17.434-87.696-57.344l-37.502-179.221       c-7.314-34.941,11.566-69.523,43.162-83.192c4.467-1.968,9.214-3.454,14.182-4.504l336.733-70.484       c39.91-8.364,79.384,17.426,87.696,57.344l29.737,141.941l7.816,37.272C2392.799,2470.534,2366.95,2509.965,2327.092,2518.32z"/>
				</g>
				<g>
					<path style="fill:#FFFFFF;" d="M2327.092,2518.32l-336.784,70.491c-39.858,8.356-79.332-17.434-87.696-57.344l-37.502-179.221       c-7.314-34.941,11.566-69.523,43.162-83.192c4.467-1.968,9.214-3.454,14.182-4.504l336.733-70.484       c39.91-8.364,79.384,17.426,87.696,57.344l29.737,141.941l7.816,37.272C2392.799,2470.534,2366.95,2509.965,2327.092,2518.32z"/>
				</g>
				<g>
					<path style="fill:#D8D8D8;" d="M2327.594,2518.242l-336.784,70.491c-39.858,8.356-79.332-17.434-87.696-57.344l-37.502-179.221       c-7.314-34.94,11.566-69.523,43.162-83.192c21.782,8.698,35.627,14.282,35.627,14.282       c46.509,140.427,102.489,203.588,281.74,169.115c77.371-14.901,123.583-36.85,150.981-59.099l7.816,37.272       C2393.301,2470.455,2367.452,2509.886,2327.594,2518.242z"/>
				</g>
				<g>
					<path style="fill:#371A45;" d="M1986.216,2605.866c-49.331,0-93.73-34.541-104.229-84.697l-31.65-151.196       c-12.031-57.483,24.946-114.041,82.427-126.072l308.711-64.624c57.5-12.039,114.038,24.949,126.07,82.427l31.65,151.199       c5.811,27.749,0.415,56.177-15.19,80.049c-15.605,23.867-39.482,40.215-67.236,46.021l-308.706,64.629       C2000.737,2605.129,1993.423,2605.866,1986.216,2605.866z M2004.356,2585.891h0.049H2004.356z M2263.311,2213.193       c-4.756,0-9.585,0.486-14.424,1.499l-308.711,64.624c-37.954,7.944-62.368,45.288-54.424,83.245l31.646,151.196       c7.944,37.959,45.308,62.388,83.252,54.424l308.706-64.619c37.959-7.949,62.373-45.293,54.428-83.247l-31.65-151.196       C2325.2,2236.003,2295.884,2213.193,2263.311,2213.193z"/>
				</g>
				<g>
					<path style="fill:#FFFFFF;" d="M2207.71,2542.01l-0.407,1.416l-217.011,45.411c-29.222,6.082-58.194-6.1-74.883-28.833       c-6.096-8.223-10.542-17.844-12.753-28.527l-16.698-79.616l-5.509-26.276l-9.625-46.135l-5.703-27.184       c-8.345-39.92,17.455-79.343,57.323-87.704l72.771-15.201c-32.216,13.34-51.556,48.26-44.201,83.525l11.115,53.205       l9.157,43.616l17.234,82.495c8.375,39.815,47.85,65.63,87.704,57.323L2207.71,2542.01z"/>
				</g>
				<g>
					<path style="fill:#D8D8D8;" d="M2242.083,2534.796l-0.407,1.416l-251.383,52.625c-29.222,6.082-58.194-6.1-74.883-28.833       c-6.096-8.223-10.542-17.844-12.753-28.527l-16.698-79.616l-5.509-26.276l-9.625-46.135c14.172-5.069,33.946-7.11,48.99,12.255       c20.85,26.823,34.231,13.636,42.315-5.614l9.157,43.616l17.234,82.495c8.375,39.815,47.85,65.63,87.704,57.323       L2242.083,2534.796z"/>
				</g>
				<g>
					<path style="fill:#371A45;" d="M1975.073,2608.508c-17.7,0-35.078-5.156-50.317-15.117       c-20.664-13.516-34.805-34.185-39.819-58.203l-37.52-179.241c-10.435-49.719,21.563-98.674,71.323-109.124l72.759-15.215       l10.635,34.417c-24.854,10.317-38.901,36.887-33.398,63.181l37.52,179.238c3.042,14.57,11.641,27.114,24.214,35.337       c12.568,8.213,27.5,11.055,42.031,8.013l209.761-42.617c1.24-0.254,2.578-0.522,3.979-0.776l5.259-1.099l0.073,0.342       c9.028-0.864,18.799,0.806,21.43,13.74l3.608,17.725l-17.793,3.623l-304.805,63.799       C1987.715,2607.854,1981.372,2608.508,1975.073,2608.508z M1939.766,2279.392l-13.608,2.844       c-30.225,6.348-49.668,36.084-43.33,66.289l37.524,179.26c3.037,14.556,11.636,27.1,24.204,35.322       c12.573,8.213,27.51,11.055,42.036,8.013l15.63-3.271c-16.074-13.271-27.085-31.406-31.382-52.002l-37.515-179.229       C1929.165,2316.762,1931.777,2296.811,1939.766,2279.392z"/>
				</g>
				<g>
					<path style="fill:#22A7F0;" d="M2102.877,2396.189c1.349,6.635,2.912,62.098,2.912,62.098s-16.969,3.45-37.805,7.687       c-26.031,5.293-52.615-17.369-59.375-50.617c-6.761-33.248,8.861-64.492,34.893-69.785c17.568-3.572,37.805-7.687,37.805-7.687       S2100.678,2385.379,2102.877,2396.189z"/>
				</g>
				<g>
					<path style="fill:#1C7AEA;" d="M2102.877,2396.189c1.349,6.635,2.912,62.098,2.912,62.098s-16.969,3.45-37.805,7.687       c-26.031,5.293-52.615-17.369-59.375-50.617c-6.761-33.248,8.861-64.492,34.893-69.785c17.568-3.572,37.805-7.687,37.805-7.687       S2100.678,2385.379,2102.877,2396.189z"/>
				</g>
				<g>
					<path style="fill:#371A45;" d="M2060.235,2480.324c-13.325,0-26.504-5.107-37.969-14.878       c-13.511-11.519-23.086-28.35-26.953-47.383c-3.872-19.038-1.631-38.267,6.309-54.148c8.496-16.995,22.412-28.23,39.175-31.638       l26.396-5.369c13.066-2.668,26.148,4.407,31.079,16.797c15.908,39.973,17.407,47.351,17.901,49.778l0,0       c0.366,1.792,1.333,6.543,2.813,52.593c0.444,13.447-8.823,25.171-22.036,27.856l-26.265,5.337       C2067.212,2479.978,2063.721,2480.324,2060.235,2480.324z M2072.686,2353.493c-0.029,0-0.059,0.002-0.088,0.007l-26.392,5.369       c-8.413,1.711-15.63,7.813-20.313,17.183c-5.239,10.483-6.66,23.481-3.989,36.602c2.666,13.125,9.048,24.536,17.969,32.139       c7.964,6.792,16.992,9.585,25.405,7.886l26.265-5.337c0.195-0.039,0.327-0.2,0.322-0.381c-1.006-31.23-1.865-45.425-2.3-48.145       c-0.786-3.716-5.517-17.466-16.504-45.071C2072.998,2353.588,2072.852,2353.493,2072.686,2353.493z"/>
				</g>
				<g>
					
						<ellipse transform="matrix(0.9799 -0.1993 0.1993 0.9799 -435.8634 465.2544)" style="fill:#22A7F0;" cx="2093.547" cy="2398.086" rx="48.099" ry="61.433"/>
				</g>
				<g style="opacity:0.7;">
					<path style="fill:#FFFFFF;" d="M2046.426,2407.686c0.509,2.505,1.121,4.917,1.841,7.271       c-0.364-27.399,14.233-50.791,36.438-55.317c24.105-4.902,48.622,14.141,57.532,43.338c-0.035-4.734-0.558-9.587-1.558-14.483       c-6.762-33.254-33.33-55.893-59.373-50.61S2039.664,2374.432,2046.426,2407.686z"/>
				</g>
				<g>
					<path style="fill:#1C7AEA;" d="M2046.426,2407.686c6.757,33.215,33.329,55.893,59.373,50.61       c26.037-5.321,41.642-36.547,34.881-69.801c-1.054-5.24-2.619-10.244-4.595-14.87c-2.309,23.822-16.171,43.143-36.139,47.202       c-21.899,4.479-44.234-10.871-54.771-35.701C2044.496,2392.32,2044.864,2399.94,2046.426,2407.686z"/>
				</g>
				<g>
					<path style="fill:#371A45;" d="M2098.291,2472.609c-29.766,0-57.773-25.85-65.176-62.236       c-8.237-40.527,12.168-79.009,45.483-85.784c33.34-6.785,67.134,20.681,75.381,61.208l0,0       c8.237,40.527-12.168,79.013-45.483,85.786C2105.093,2472.277,2101.68,2472.609,2098.291,2472.609z M2088.823,2350.7       c-1.612,0-3.218,0.156-4.815,0.481c-18.34,3.73-29.468,28.362-24.302,53.787c5.171,25.425,25.034,43.711,43.379,40.024       c18.34-3.73,29.468-28.359,24.302-53.784C2122.666,2367.998,2105.698,2350.7,2088.823,2350.7z"/>
				</g>
				<g>
					<path style="fill:#371A45;" d="M2222.115,2552.507c-6.416,0-12.119-4.565-13.33-11.104l-16.836-91.104       c-4.741-25.664,3.642-51.802,22.422-69.917c12.5-12.065,17.871-29.434,14.37-46.455l-26.313-127.917       c-1.509-7.341,3.218-14.514,10.556-16.025c7.358-1.487,14.512,3.215,16.025,10.557l26.314,127.917       c5.385,26.179-2.881,52.891-22.11,71.45c-12.212,11.782-17.661,28.774-14.575,45.459l16.836,91.104       c1.358,7.368-3.511,14.448-10.879,15.811C2223.76,2552.434,2222.93,2552.507,2222.115,2552.507z"/>
				</g>
				<g>
					<path style="fill:#FFFFFF;" d="M1578.923,2395.157c0,0-27.513,29.912-22.868,68.704c5.37,44.85,36.099,58.576,36.099,58.576       s131.874,43.44,321.286-28.704c0,0,46.276-81.89-24.377-112.986C1889.063,2380.748,1686.732,2441.453,1578.923,2395.157z"/>
				</g>
				<g>
					<path style="fill:#D8D8D8;" d="M1556.073,2463.887c5.363,44.798,36.074,58.523,36.074,58.523s131.856,43.466,321.309-28.698       c0,0,15.203-26.993,14.834-55.795c-0.707,1.536-1.194,2.353-1.194,2.353c-138.449,52.758-246.152,43.72-294.074,35.041       c-33.289-6.029-58.875-31.399-63.141-63.532c-0.059-0.442-0.115-0.887-0.168-1.335c-0.099-0.746-0.198-1.493-0.17-2.228       C1562.082,2420.588,1553.272,2440.647,1556.073,2463.887z"/>
				</g>
				<g>
					<path style="fill:#371A45;" d="M1698.062,2553.64c-67.607,0.005-108.516-13.013-111.567-14.019l-1.719-0.664       c-1.636-0.732-40.166-18.535-46.685-72.944c-5.566-46.523,26.162-81.631,27.515-83.101l8.677-9.434l11.777,5.059       c100.493,43.14,295.85-14.529,297.808-15.117l6.382-1.912l6.099,2.683c23.354,10.276,38.789,26.299,45.879,47.622       c14.019,42.178-11.929,88.853-13.037,90.82l-3.213,5.684l-6.099,2.319C1831.397,2544.343,1755.191,2553.64,1698.062,2553.64z        M1598.994,2505.607c13.11,3.804,133.73,35.576,301.46-26.328c5.806-12.773,13.755-37.212,7.397-56.162       c-3.252-9.692-9.976-17.275-20.479-23.057c-35.894,10.039-198.379,51.831-301.992,16.909       c-6.055,9.839-13.574,26.265-11.362,44.741C1577.617,2491.75,1594.961,2503.308,1598.994,2505.607z"/>
				</g>
			</g>
			<g>
				<path style="fill:#FFFFFF;" d="M1642.469,2739.268c-11.082,43.961,15.468,54.183,59.203,62.143      c25.6,4.704,174.988,9.634,212.21-49.027c16.056-25.328,25.961-45.545,31.297-66.304c6.875-26.594,6.333-54.092,1.81-94.3      c-15.65-140.343-195.521-574.666-195.521-574.666l-80.415-286.338c-46.223-29.986-102.894-37.946-136.135-26.006      c-55.993,20.172-81.954,78.154-81.954,179.871c0,334.687,199.773,705.194,206.24,757.568c2.035,16.237,5.97,36.816,5.473,55.133      C1664.133,2715.931,1658.977,2732.258,1642.469,2739.268z"/>
			</g>
			<g>
				<path style="fill:#E5E5E5;" d="M1701.672,2801.411c25.6,4.704,174.988,9.634,212.21-49.027      c16.056-25.328,25.961-45.545,31.297-66.304c-20.353,24.83-48.303,46.992-85.165,53.188      c-88.782,14.97-172.635,8.005-195.339-41.927c-0.542,18.589-5.699,34.916-22.207,41.927      C1631.387,2783.229,1657.936,2793.451,1701.672,2801.411z"/>
			</g>
			<g>
				<path style="fill:#371A45;" d="M1661.216,1745.961c-58.44-36.479-141.464-48.166-172.89,28.357      c-37.692,91.351-5.979,277.068,17.332,374.162c35.581,151.253,94.364,295.695,154.177,439.319      c7.13,18.578,16.43,39.253,18.393,59.99c5.533,35.757,13.503,89.779-28.722,108.128c0.001,0,10.484-12.237,10.484-12.237      c-2.295,9.343-2.153,17.815-0.02,21.526c5.717,9.326,19.881,11.777,30.659,14.644c36.672,7.949,76.417,5.101,113.413,0.811      c30.444-4.745,62.271-10.715,85.127-30.015c7.443-6.463,11.287-14.927,16.279-22.991      c24.009-38.311,28.079-76.302,22.869-120.796c-0.892-12.703-3.965-28.056-5.868-40.642c-0.998-4.829-4.41-19.437-5.493-24.546      c-32.875-132.703-83.273-261.637-130.454-390.037c-15.557-43.234-30.582-86.738-43.404-131.108      c-2.959-10.028,11.459-16.495,16.733-6.867c22.163,40.778,41.226,82.795,59.092,125.336      c51.438,129.203,101.49,258.485,137.009,393.4c2.079,9.571,6.329,25.19,7.532,34.93c12.907,76.712,11.511,129.696-32.76,195.866      c-26.843,39.589-78.495,50.69-121.561,56.622c-47.17,5.367-159.431,12.041-182.637-38.863c-5.56-12.471-5.57-23.822-3.75-35.982      c1.484-6.939,2.051-15.67,8.618-19.68c0,0,4.014-2.688,4.014-2.688c19.72-9.031,8.053-56.01,6.324-74.768      c-0.431-4.297-1.335-7.547-2.51-11.472c-21.181-60.33-49.052-119.447-72.006-179.915      c-61.844-158.506-114.551-324.033-128.956-494.826c-4.745-77.191-12.316-175.841,40.092-239.498      c51.005-60.664,142.844-45.222,202.58-6.513C1700.801,1729.439,1681.447,1758.414,1661.216,1745.961L1661.216,1745.961z"/>
			</g>
			<g>
				<g>
					<path style="fill:#FFFDFD;" d="M2269.735,3193.577c0,0,83.272-36.449,196.076-27.935"/>
				</g>
				<g>
					<path style="fill:#371A45;" d="M2266.108,3185.29c47.431-21.058,97.794-32.237,149.297-36.402       c17.163-1.491,34.443-1.574,51.768-1.286c10.005,0.166,17.983,8.411,17.817,18.418c-0.106,10.77-9.892,19.142-20.542,17.661       c-47.992-5.649-96.991-3.874-144.453,5.723c-15.977,3.215-32.248,7.341-47.1,12.625       C2262.175,3205.695,2255.835,3190.172,2266.108,3185.29L2266.108,3185.29z"/>
				</g>
			</g>
			<g>
				<g>
					<path style="fill:#FFFDFD;" d="M1786.089,3163.582c0,0,67.549,41.702,162.031,6.03"/>
				</g>
				<g>
					<path style="fill:#371A45;" d="M1790.84,3155.886c35.175,16.189,76.837,18.303,114.268,9.167       c12.605-2.737,24.71-7.538,36.621-12.366c9.595-4.52,21.24-0.156,25.005,9.875c3.569,9.36-1.123,19.841-10.483,23.411       c-7.793,2.302-15.563,4.595-23.447,6.406c-21.678,4.793-44.665,6.851-66.831,5.09c-22.258-1.638-44.03-6.954-64.502-15.635       c-7.79-4.558-30.187-10.182-22.876-23.029C1781.24,3154.637,1786.681,3153.484,1790.84,3155.886L1790.84,3155.886z"/>
				</g>
			</g>
			<g>
				<path style="fill:#FFFDFD;" d="M1844.924,2256.035c0,0-215.097-2.3-305.121,73.739"/>
				<path style="fill:#371A45;" d="M1539.815,2347.865c-5.142,0-10.254-2.18-13.828-6.416c-6.45-7.634-5.488-19.048,2.144-25.496      c94.082-79.47,307.896-78.11,316.987-78.01c9.985,0.107,17.998,8.291,17.891,18.281c-0.103,9.924-8.184,17.9-18.086,17.9      c-0.151-0.002-0.161-0.002-1.499-0.005c-17.852,0-211.631,1.638-291.943,69.475      C1548.081,2346.464,1543.936,2347.865,1539.815,2347.865z"/>
			</g>
			<g>
				<g>
					<path style="fill:#50B8FF;" d="M989.399,3471.466c-110.234,20.727-204.481,1.774-282.695-56.783l-0.061-0.015       c-6.726-4.986-13.36-10.34-19.857-15.986c-17.397-15.118-21.345-40.611-8.812-59.951l47.96-73.851l292.339,72.139l7.845,85.275       C1028.307,3445.658,1012.45,3467.111,989.399,3471.466z"/>
				</g>
				<g>
					<path style="fill:#FB132B;" d="M662.094,2920.621l-165.182,41.824c-17.917,4.537-31.875,18.579-36.303,36.523l-23.237,94.164       c-6.492,26.308,9.134,53.003,35.251,60.223l189.971,52.518"/>
				</g>
				<g style="opacity:0.55;">
					<path style="fill:#FFFFFF;" d="M662.128,2960.839l-137.999,34.939c-17.89,4.584-31.852,18.615-36.281,36.564l-23.238,94.168       c-1.987,8.052-1.916,16.221-0.066,23.786c-21.144-9.978-32.963-33.697-27.169-57.177l23.238-94.168       c4.429-17.948,18.39-31.979,36.266-36.503l165.203-41.855L662.128,2960.839z"/>
				</g>
				<g>
					<path style="fill:#FB132B;" d="M1380.964,3226.063l-23.238,94.168c-6.492,26.308-32.761,42.649-59.19,36.91l-192.606-41.855       l81.725-154.922l51.42-97.386l126.074,113.276l0.693,0.627C1379.562,3189.199,1385.393,3208.115,1380.964,3226.063z"/>
				</g>
				<g style="opacity:0.3;">
					<path style="fill:#371A45;" d="M1380.964,3226.063l-23.238,94.168c-6.492,26.308-32.761,42.649-59.19,36.91l-192.606-41.855       l81.725-154.922l6.263-10.583c28.306,168.315,89.635,153.126,171.231,26.473l0.693,0.627       C1379.562,3189.199,1385.393,3208.115,1380.964,3226.063z"/>
				</g>
				<g>
					<path style="fill:#371A45;" d="M906.558,3497.946c-88.545,0.005-166.25-28.564-231.826-85.381       c-24.307-21.064-29.536-57.119-12.158-83.867l47.939-73.828c5.537-8.525,16.939-10.952,25.464-5.415       s10.952,16.938,5.415,25.464l-47.944,73.833c-7.422,11.426-5.103,26.895,5.396,35.991       c78.252,67.803,172.192,90.249,287.158,68.623c13.506-2.544,23.081-15.454,21.792-29.395l-7.871-85.254       c-0.933-10.127,6.514-19.092,16.636-20.024c10.112-0.938,19.087,6.514,20.024,16.636l7.871,85.254       c3.066,33.198-19.136,62.847-51.646,68.965C963.032,3495.148,934.258,3497.946,906.558,3497.946z"/>
				</g>
				<g>
					<path style="fill:#371A45;" d="M662.607,3224.284c-1.621,0-3.271-0.215-4.912-0.669l-189.976-52.515       c-35.986-9.951-57.163-46.138-48.218-82.378l23.237-94.165c6.069-24.6,25.098-43.74,49.658-49.961l165.181-41.821       c9.839-2.49,19.863,3.477,22.363,13.33c2.495,9.854-3.472,19.868-13.33,22.363l-165.181,41.821       c-11.348,2.871-20.142,11.719-22.949,23.086l-23.237,94.165c-4.136,16.753,5.654,33.477,22.285,38.071l189.971,52.515       c9.8,2.71,15.547,12.852,12.842,22.646C678.086,3218.933,670.679,3224.284,662.607,3224.284z"/>
				</g>
				<g>
					<path style="fill:#371A45;" d="M1309.448,3376.75c-4.893,0-9.863-0.522-14.858-1.606l-192.588-41.885       c-9.937-2.163-16.235-11.968-14.077-21.899c2.163-9.941,11.982-16.211,21.899-14.077l192.593,41.885       c16.846,3.662,33.306-6.577,37.437-23.33l23.237-94.165c2.808-11.367-0.864-23.291-9.57-31.118l-126.763-113.862       c-7.563-6.797-8.188-18.433-1.396-25.996c6.802-7.573,18.438-8.179,25.996-1.396l126.763,113.867       c18.848,16.934,26.782,42.729,20.713,67.324l-23.237,94.165C1367.881,3355.944,1340.308,3376.745,1309.448,3376.75z"/>
				</g>
				<g>
					<path style="fill:#F6F6F6;" d="M1119.881,3297.6c-15.121,26.657-44.125,42.453-74.717,40.904       c-129.235-6.655-241.495-36.117-340.496-83.371c-27.065-12.939-44.53-40.203-45.543-70.188       c-0.168-4.867-0.336-9.735-0.397-14.51l-0.061-0.015c-11.716-403.347,55.378-724.124,201.218-962.344       c76.336-124.626,174.207-226.591,293.644-306.019c42.755-28.446,100.349-14.233,125.025,30.852       c13.928,25.478,26.69,51.451,38.195,77.766c45.26,103.572,71.683,213.451,79.316,329.713       C1414.626,2622.176,1322.576,2941.293,1119.881,3297.6z"/>
				</g>
				<g>
					<path style="fill:#FB132B;" d="M1396.064,2340.386c-174.059,83.556-454.513,11.089-536.18-132.312       c76.336-124.626,174.207-226.591,293.644-306.019c42.755-28.446,100.349-14.233,125.025,30.852       C1347.329,2058.781,1386.53,2194.57,1396.064,2340.386z"/>
				</g>
				<g style="opacity:0.55;">
					<path style="fill:#FFFFFF;" d="M1319.718,2017.666c-5.902-12.021-12.111-23.856-18.52-35.676       c-24.675-45.085-82.27-59.297-125.024-30.852c-116.311,77.33-212.135,176.019-287.516,296.25       c-11.216-12.419-20.961-25.518-28.773-39.314c76.336-124.626,174.207-226.591,293.644-306.019       c42.755-28.446,100.349-14.233,125.025,30.852C1293.747,1960.654,1307.5,1988.958,1319.718,2017.666z"/>
				</g>
				<g style="opacity:0.3;">
					<path style="fill:#371A45;" d="M1119.881,3297.6c-15.121,26.657-44.125,42.453-74.717,40.904       c-129.235-6.655-241.495-36.117-340.496-83.371c-27.065-12.939-44.53-40.203-45.543-70.188       c-0.168-4.867-0.336-9.735-0.397-14.51c606.268-132.688,657.866-1159.93,657.866-1159.93l0.154,0.169       c45.26,103.572,71.683,213.451,79.316,329.713C1414.626,2622.176,1322.576,2941.293,1119.881,3297.6z"/>
				</g>
				<g>
					<path style="fill:#371A45;" d="M1049.443,3363.132c-1.841,0-3.687-0.049-5.547-0.142       c-126.523-6.479-244.214-35.327-349.805-85.732c-35.376-16.885-58.184-51.938-59.517-91.479       c-10.503-312.979,26.357-581.143,109.561-797.051c83.882-217.651,217.041-388.269,395.781-507.109       c26.104-17.353,58.457-23.018,88.789-15.53c30.322,7.483,56.333,27.549,71.362,55.051       c102.881,188.245,141.396,401.089,114.478,632.622c-26.699,229.683-118.662,484.038-273.335,755.996l0,0       C1122.285,3343.039,1087.485,3363.132,1049.443,3363.132z M1201.777,1911.884c-12.197,0-24.146,3.604-34.683,10.613       c-341.284,226.909-503.945,651.387-483.457,1261.631c0.713,21.157,12.817,39.868,31.597,48.833       c101.128,48.271,209.458,74.771,331.172,81.006c21.543,1.187,41.523-9.81,52.139-28.477       c301.577-530.264,354.888-981.379,158.447-1340.811c-8.574-15.691-22.798-26.677-40.049-30.935       C1211.9,1912.499,1206.817,1911.884,1201.777,1911.884z M1119.878,3297.624h0.049H1119.878z"/>
				</g>
				<g>
					<path style="fill:#FB132B;" d="M858.302,3360.711l-2.527-0.624c-21.934-5.413-35.327-27.581-29.914-49.515l66.686-270.239       c5.413-21.934,27.581-35.327,49.515-29.914l2.527,0.624c21.934,5.412,35.327,27.581,29.914,49.515l-66.686,270.239       C902.404,3352.73,880.236,3366.123,858.302,3360.711z"/>
				</g>
				<g style="opacity:0.55;">
					<path style="fill:#FFFFFF;" d="M970.448,3031.902c-1.138-0.411-2.352-0.776-3.581-1.079       c-22.62-5.582-45.458,8.215-51.039,30.835l-66.072,267.751c-2.594,10.511-0.98,21.147,3.823,29.962       c-20.582-6.97-32.717-28.615-27.424-50.067l66.057-267.69c5.597-22.681,28.496-36.464,51.116-30.882       c11.31,2.791,20.453,9.872,26.055,19.146C969.799,3030.568,970.154,3031.242,970.448,3031.902z"/>
				</g>
				<g>
					<path style="fill:#371A45;" d="M868.101,3377.248c-4.448,0-8.965-0.532-13.477-1.646c-0.005,0-0.005,0-0.01,0l-2.524-0.625       c-30.098-7.427-48.55-37.964-41.123-68.076l66.685-270.244c7.432-30.107,38.018-48.574,68.081-41.133l2.539,0.625       c14.58,3.599,26.89,12.666,34.658,25.522c7.769,12.861,10.064,27.979,6.465,42.563l-66.685,270.239       C916.392,3360.075,893.359,3377.248,868.101,3377.248z M861.987,3345.822c6.621,1.636,13.491,0.586,19.336-2.944       c5.845-3.53,9.966-9.126,11.602-15.757l66.685-270.239c3.379-13.687-5.01-27.568-18.696-30.947l-2.534-0.625       c-13.706-3.408-27.559,5.02-30.942,18.701l-66.685,270.239c-3.374,13.686,5.015,27.563,18.696,30.942L861.987,3345.822z"/>
				</g>
				<g>
					
						<ellipse transform="matrix(0.7071 -0.7071 0.7071 0.7071 -1585.9587 1520.6622)" style="fill:#50B8FF;" cx="1042.622" cy="2674.753" rx="174.106" ry="174.106"/>
				</g>
				<g style="opacity:0.3;">
					<path style="fill:#371A45;" d="M1211.64,2716.461c-23.04,93.369-117.379,150.363-210.747,127.323       c-75.666-18.672-127.444-84.204-132.045-158.049c21.939,44.279,62.491,78.935,114.246,91.707       c93.369,23.041,187.707-33.954,210.747-127.323c4.368-17.703,5.865-35.397,4.722-52.698       C1216.254,2633.021,1221.909,2674.847,1211.64,2716.461z"/>
				</g>
				<g style="opacity:0.55;">
					<path style="fill:#FFFFFF;" d="M1209.551,2625.303c-22.485-41.805-61.939-74.3-111.605-86.556       c-93.369-23.04-187.707,33.954-210.747,127.323c-7.705,31.226-6.458,62.638,2.167,91.373       c-19.828-36.716-26.595-80.642-15.796-124.406c23.04-93.369,117.379-150.363,210.747-127.323       C1146.522,2521.063,1192.578,2568.033,1209.551,2625.303z"/>
				</g>
				<g>
					<path style="fill:#371A45;" d="M1042.612,2861.149c-14.741,0-29.707-1.763-44.644-5.449       c-99.775-24.619-160.918-125.825-136.294-225.601c24.614-99.78,125.825-160.928,225.601-136.294       c99.775,24.619,160.913,125.825,136.294,225.601l0,0C1202.637,2804.24,1126.323,2861.149,1042.612,2861.149z        M1042.329,2512.858c-29.136,0-57.813,7.925-83.389,23.379c-37.002,22.354-63.081,57.773-73.438,99.741       c-10.356,41.968-3.75,85.459,18.604,122.456c22.354,37.002,57.773,63.081,99.741,73.438       c86.655,21.377,174.517-31.714,195.894-118.345c21.377-86.636-31.709-174.517-118.345-195.894       C1068.443,2514.436,1055.342,2512.858,1042.329,2512.858z M1211.655,2716.467h0.049H1211.655z"/>
				</g>
				<g>
					
						<ellipse transform="matrix(0.7071 -0.7071 0.7071 0.7071 -1585.9587 1520.6622)" style="fill:#61E1FF;" cx="1042.622" cy="2674.753" rx="107.629" ry="107.629"/>
				</g>
				<g style="opacity:0.3;">
					<path style="fill:#232323;" d="M1149.872,2683.22c-11.404-33.594-39.172-60.856-76.176-69.988       c-57.718-14.243-116.037,20.99-130.28,78.708c-1.426,5.778-2.314,11.493-2.757,17.252c-6.384-18.791-7.66-39.517-2.548-60.231       c14.243-57.718,72.563-92.951,130.28-78.709C1120.331,2583.071,1154.076,2631.568,1149.872,2683.22z"/>
				</g>
				<g>
					<path style="fill:#371A45;" d="M1042.842,2794.699c-9.639,0-19.346-1.172-28.945-3.54       c-31.094-7.671-57.339-26.992-73.901-54.404c-16.558-27.412-21.455-59.634-13.779-90.728       c7.671-31.094,26.992-57.339,54.404-73.901c27.412-16.558,59.624-21.45,90.728-13.779       c31.094,7.671,57.339,26.992,73.901,54.404c16.558,27.412,21.45,59.634,13.779,90.728l0,0       c-7.671,31.094-26.992,57.339-54.404,73.901C1085.674,2788.825,1064.424,2794.699,1042.842,2794.699z M1042.446,2579.357       c-17.163,0-34.063,4.673-49.136,13.779c-21.797,13.169-37.163,34.043-43.267,58.77c-6.104,24.731-2.212,50.356,10.962,72.158       c13.169,21.797,34.043,37.163,58.77,43.267c24.731,6.108,50.352,2.207,72.158-10.962c21.797-13.169,37.163-34.043,43.267-58.77       l0,0c6.104-24.731,2.212-50.356-10.962-72.158c-13.169-21.797-34.043-37.163-58.77-43.267       C1057.832,2580.29,1050.112,2579.357,1042.446,2579.357z"/>
				</g>
				<g>
					<path style="fill:#371A45;" d="M1224.736,2397.419c-44.424,0-90.596-5.708-136.626-17.251       c-113.174-28.381-205.454-88.745-246.86-161.479c-5.869-10.308-2.271-23.42,8.037-29.287       c10.303-5.862,23.418-2.271,29.287,8.037c76.792,134.888,347.515,200.723,508.193,123.569       c10.693-5.132,23.521-0.627,28.657,10.066c5.132,10.691,0.625,23.521-10.063,28.655       C1353.32,2384.714,1290.982,2397.419,1224.736,2397.419z"/>
				</g>
				<g style="opacity:0.3;">
					<path style="fill:#371A45;" d="M989.399,3471.466c-110.234,20.727-204.481,1.774-282.695-56.783       c97.879,31.718,184.881-74.56,184.881-74.56l44.936-23.277l81.751,20.174l7.845,85.275       C1028.307,3445.658,1012.45,3467.111,989.399,3471.466z"/>
				</g>
			</g>
			<g>
				<g>
					<path style="fill:#FFFFFF;" d="M2562.58,1326.641c-33.248,105.235-93.303,202.726-178.087,281.781       c-17.297,16.112-35.546,31.447-54.822,45.91c-9.356,7.064-19.041,13.91-28.922,20.624       c-29.886,20.076-60.818,37.424-92.555,52.112c-27.323,12.725-55.27,23.43-83.532,32.225       c-34.126,10.639-68.814,18.402-103.69,23.444c-12.726,1.796-25.461,3.255-38.203,4.379       c-233.288,20.067-470.399-81.251-611.629-285.507c-208.109-300.846-129.259-711.005,175.998-916.132       c58.821-39.466,121.776-68.574,186.557-87.449c7.55-2.277,15.198-4.347,22.877-6.254c20.505-5.241,41.145-9.494,61.866-12.751       c47.926-7.518,96.308-9.776,144.191-6.989c47.872,2.734,95.365,10.548,141.469,23.241c14.662,4.027,29.189,8.53,43.59,13.563       c21.575,7.554,42.779,16.135,63.59,25.918c103.726,48.407,196.166,123.829,265.47,224.068       C2596.469,931.878,2621.203,1141.075,2562.58,1326.641z"/>
					<path style="fill:#371A45;" d="M1924.522,1791.499c-220.742,0-429.458-107.356-554.932-288.821       c-100.532-145.335-137.881-320.613-105.161-493.545c32.979-174.314,133.008-325.327,281.66-425.215       c58.013-38.926,120.957-68.428,187.08-87.693c7.158-2.161,14.883-4.272,22.949-6.277c20.449-5.227,41.323-9.529,62.026-12.783       c47.593-7.468,96.25-9.819,144.59-7.007c47.905,2.737,95.635,10.576,141.86,23.303c14.839,4.075,29.541,8.65,43.711,13.601       c22.021,7.71,43.476,16.455,63.769,25.994c107.07,49.963,199.131,127.666,266.221,224.7       c116.04,167.734,147.412,375.29,86.074,569.451c-34.004,107.637-95.762,205.356-178.594,282.59       c-17.524,16.323-36.016,31.814-54.976,46.04c-8.672,6.546-18.154,13.308-28.999,20.674       c-29.536,19.846-60.762,37.429-92.817,52.263c-26.816,12.49-55,23.362-83.765,32.314       c-33.633,10.488-68.618,18.398-103.979,23.511c-12.72,1.795-25.605,3.271-38.306,4.39       C1963.408,1790.668,1943.911,1791.499,1924.522,1791.499z M1923.154,472.768c-35.02,0-70,2.712-104.424,8.113       c-20.591,3.235-41.348,7.515-61.694,12.715c-8.018,1.992-15.684,4.087-22.798,6.233       c-65.771,19.163-128.364,48.503-186.05,87.212c-147.813,99.321-247.271,249.473-280.063,422.79       c-32.529,171.939,4.604,346.209,104.561,490.708c135.723,196.301,369.468,305.356,609.922,284.705       c12.632-1.113,25.454-2.583,38.101-4.368c35.161-5.083,69.951-12.949,103.394-23.376c28.608-8.904,56.631-19.717,83.296-32.136       c31.885-14.753,62.934-32.239,92.3-51.968c10.781-7.324,20.219-14.053,28.843-20.564c18.857-14.15,37.246-29.553,54.668-45.786       c82.358-76.787,143.765-173.96,177.578-280.972l0,0c60.987-193.042,29.79-399.407-85.586-566.179       c-66.709-96.487-158.252-173.748-264.722-223.433c-20.18-9.487-41.513-18.184-63.413-25.85       c-14.087-4.922-28.711-9.473-43.467-13.523c-45.971-12.659-93.437-20.454-141.079-23.176       C1949.414,473.149,1936.279,472.768,1923.154,472.768z"/>
				</g>
				<g>
					<path style="fill:#E8E8E8;" d="M1371.14,1501.592c141.213,204.284,378.359,305.608,611.64,285.506       c12.746-1.107,25.472-2.562,38.178-4.368c34.889-5.027,69.565-12.815,103.693-23.427c28.26-8.819,56.223-19.508,83.527-32.221       c31.76-14.683,62.676-32.03,92.587-52.112c9.849-6.746,19.537-13.565,28.919-20.615c19.275-14.478,37.496-29.845,54.806-45.944       c84.782-79.056,144.861-176.522,178.097-281.789c18.275-57.807,28.458-117.953,30.186-178.561       c-34.047,99.717-92.444,191.884-173.326,267.31c-17.276,16.149-35.531,31.466-54.806,45.944       c-9.34,7.058-19.028,13.877-28.919,20.615c-29.911,20.083-60.828,37.428-92.545,52.121       c-27.346,12.704-55.267,23.4-83.527,32.22c-34.127,10.612-68.846,18.392-103.692,23.428       c-12.748,1.796-25.475,3.252-38.221,4.359c-233.281,20.102-470.385-81.214-611.64-285.506       c-82.435-119.152-119.795-255.456-115.95-389.341C1225.446,1108.355,1248.292,1324.029,1371.14,1501.592z"/>
				</g>
				<g>
					<path style="fill:#371A45;" d="M1924.546,1804.099c-224.873,0-437.49-109.38-565.322-294.253       c-102.461-148.127-140.527-326.782-107.178-503.057c33.613-177.654,135.542-331.545,287.017-433.33       c59.092-39.651,123.213-69.707,190.581-89.334c7.241-2.185,15.171-4.353,23.438-6.406c20.747-5.305,42.012-9.688,63.11-13.003       c48.481-7.602,98.042-10.002,147.275-7.139c48.774,2.786,97.388,10.771,144.473,23.735       c15.102,4.146,30.088,8.809,44.521,13.853c22.437,7.854,44.292,16.765,64.976,26.487       c109.063,50.893,202.862,130.063,271.226,228.938c118.271,170.957,150.244,382.512,87.725,580.413l0,0       c-34.658,109.704-97.597,209.297-182.017,288.01c-17.851,16.631-36.689,32.41-56.006,46.902       c-8.809,6.653-18.462,13.535-29.478,21.021c-30.142,20.251-61.953,38.161-94.609,53.274       c-27.295,12.715-56.011,23.792-85.313,32.913c-34.263,10.681-69.903,18.74-105.918,23.95       c-12.983,1.831-26.089,3.333-39.009,4.47C1964.146,1803.254,1944.297,1804.099,1924.546,1804.099z M1923.154,485.371       c-34.375,0-68.691,2.661-102.471,7.959c-20.195,3.174-40.562,7.371-60.522,12.476c-7.905,1.963-15.366,4.001-22.28,6.089       c-64.644,18.833-126.06,47.624-182.671,85.61c-144.985,97.422-242.544,244.69-274.702,414.67       c-31.899,168.599,4.517,339.49,102.539,481.194c133.164,192.588,362.466,299.619,598.481,279.319       c12.388-1.091,24.99-2.537,37.422-4.289c34.458-4.983,68.594-12.7,101.401-22.93c28.076-8.738,55.571-19.346,81.728-31.528       c31.309-14.487,61.773-31.643,90.591-51.006c10.552-7.168,19.819-13.777,28.277-20.159       c18.53-13.906,36.577-29.021,53.672-44.949c80.767-75.308,140.991-170.603,174.15-275.549l0,0       c59.805-189.302,29.214-391.668-83.93-555.212c-65.445-94.653-155.244-170.444-259.688-219.185       c-19.824-9.319-40.757-17.849-62.251-25.374c-13.809-4.827-28.159-9.292-42.636-13.267       c-45.127-12.424-91.709-20.076-138.462-22.747C1948.931,485.744,1936.035,485.371,1923.154,485.371z M2562.578,1326.64h0.049       H2562.578z"/>
				</g>
				<g>
					<path style="fill:#371A45;" d="M1924.551,1808.298c-226.245,0-440.166-110.054-568.779-296.065       c-103.11-149.058-141.411-328.838-107.852-506.223c33.823-178.767,136.387-333.623,288.799-436.04       c59.458-39.893,123.965-70.129,191.753-89.878c7.266-2.192,15.264-4.38,23.599-6.45c20.845-5.33,42.241-9.739,63.467-13.076       c48.779-7.649,98.633-10.061,148.174-7.18c49.067,2.803,97.974,10.835,145.347,23.877c15.191,4.172,30.264,8.862,44.79,13.938       c22.573,7.903,44.565,16.868,65.376,26.65c109.727,51.204,204.106,130.864,272.891,230.349       c119.018,172.034,151.191,384.92,88.276,584.067l0,0c-34.873,110.396-98.208,210.613-183.159,289.819       c-17.959,16.731-36.914,32.608-56.343,47.19c-8.857,6.685-18.57,13.608-29.644,21.133       c-30.342,20.386-62.349,38.406-95.205,53.613c-27.456,12.788-56.348,23.933-85.825,33.11       c-34.473,10.747-70.332,18.855-106.568,24.094c-13.066,1.843-26.245,3.354-39.238,4.5       C1964.395,1807.448,1944.424,1808.298,1924.551,1808.298z M1923.15,489.57c-34.15,0-68.252,2.644-101.816,7.91       c-20.063,3.152-40.298,7.324-60.132,12.395c-7.866,1.953-15.259,3.975-22.109,6.04       c-64.268,18.726-125.288,47.332-181.543,85.076c-144.038,96.79-240.967,243.098-272.915,411.965       c-31.689,167.485,4.492,337.251,101.87,478.025c132.31,191.35,360.146,297.681,594.663,277.522       c12.31-1.084,24.834-2.52,37.197-4.263c34.224-4.951,68.14-12.617,100.737-22.781c27.9-8.684,55.215-19.224,81.201-31.328       c31.118-14.399,61.392-31.445,90.025-50.684c10.479-7.117,19.692-13.684,28.091-20.024       c18.418-13.823,36.352-28.843,53.34-44.67c80.24-74.817,140.069-169.478,173.008-273.74l17.813,5.628l-17.813-5.628       c59.409-188.054,29.019-389.089-83.384-551.558c-65.02-94.041-154.238-169.343-258.008-217.769       c-19.702-9.263-40.503-17.739-61.86-25.215c-13.721-4.795-27.974-9.231-42.364-13.181       c-44.844-12.346-91.133-19.949-137.588-22.603C1948.77,489.943,1935.952,489.57,1923.15,489.57z"/>
				</g>
				<g>
					<path style="fill:#371A45;" d="M2491.05,1480.191c-331.596,339.535-892.451,252.404-1011.449-199.305       c-80.959-307.316,161.877-622.752,466.377-680.527c221.619-42.05,456.633,12.437,616.831,333.55       c0,0,48.639,152.948,26.451,265.383s-63.023,218.097-63.023,218.097L2491.05,1480.191z"/>
				</g>
				<g>
					<path style="fill:#220F2D;" d="M1479.62,1280.886c118.984,451.7,679.85,538.823,1011.437,199.321l7.121-12.739       c-408.242,156.655-879.793-11.05-1008.728-465.552C1460.465,1090.444,1454.651,1186.045,1479.62,1280.886z"/>
				</g>
				<g>
					<path style="fill:#371A45;" d="M2012.271,1773.273c-116.987,0-230.884-28.608-328.931-84.473       c-144.951-82.588-245.21-215.955-289.941-385.681c-41.094-155.972-12.441-323.159,80.684-470.764       c103.379-163.865,274.634-282.478,458.105-317.288c101.914-19.338,197.261-18.833,283.384,1.509l1.865,0.439l1.738,0.813       c109.775,51.226,204.155,130.886,272.94,230.371c119.018,172.034,151.191,384.92,88.276,584.067l0,0       c-34.873,110.396-98.208,210.613-183.159,289.819c-17.959,16.731-36.914,32.608-56.343,47.19       c-8.857,6.685-18.57,13.608-29.644,21.133c-30.342,20.386-62.349,38.406-95.205,53.613l-2.729,1.013       C2146.88,1763.945,2079.067,1773.273,2012.271,1773.273z M2076.196,538.295c-43.901,0-89.668,4.492-137.046,13.482       c-173.472,32.915-335.518,145.256-433.467,300.515c-87.534,138.743-114.58,295.469-76.152,441.306       c42.114,159.8,136.279,285.234,272.305,362.739c144.985,82.603,327.08,101.958,499.834,53.162       c30.611-14.25,60.435-31.086,88.657-50.051c10.479-7.117,19.692-13.684,28.091-20.024c18.418-13.823,36.352-28.843,53.34-44.67       c80.24-74.817,140.069-169.478,173.008-273.74c59.409-188.054,29.019-389.089-83.384-551.558       c-64.653-93.513-153.242-168.499-256.265-216.951C2164.346,543.034,2121.255,538.295,2076.196,538.295z M2562.578,1326.64       h0.049H2562.578z"/>
				</g>
				<g>
					<path style="fill:#371A45;" d="M2014.204,1697.287c-52.134,0-104.238-6.548-155.171-19.988       c-195.005-51.455-336.885-195-389.263-393.823c-36.094-137.017-10.879-283.948,71.006-413.73       c91.04-144.292,241.807-248.73,403.306-279.375c278.057-52.751,489.282,61.299,627.822,338.999l0.591,1.457       c2.017,6.348,49.17,156.746,26.733,270.432c-22.1,112.009-63.101,218.728-63.51,219.793l-0.615,1.304l-35.84,63.975       l-0.942,0.962C2365.84,1622.946,2189.854,1697.287,2014.204,1697.287z M2070.034,598.303       c-39.111,0-79.824,4.009-122.163,12.043c-156.06,29.609-301.816,130.637-389.897,270.247       c-78.843,124.961-103.184,266.201-68.545,397.703c50.464,191.545,187.07,329.812,374.79,379.346       c215.054,56.741,451.968-13.604,618.623-183.596l34.165-60.981c3.467-9.111,41.431-110.09,62.28-215.74       c20.664-104.727-22.397-248.12-25.942-259.609C2440.542,712.06,2278.301,598.303,2070.034,598.303z M2491.05,1480.19h0.049       H2491.05z"/>
				</g>
				<g>
					<path style="fill:#FFFFFF;" d="M1182.839,1308.992c17.549,128.893,109.476,226.729,205.352,218.498       c95.876-8.231,159.366-119.401,141.816-248.294c-0.094-0.809-0.234-1.663-0.374-2.472       c-18.353-127.673-109.777-224.208-204.978-216.026c-74.066,6.354-128.8,74.148-141.794,164.07       C1179.051,1251.244,1178.85,1279.68,1182.839,1308.992z"/>
				</g>
				<g>
					<path style="fill:#E8E8E8;" d="M1182.839,1308.992c17.549,128.893,109.476,226.729,205.352,218.498       c95.876-8.231,159.366-119.401,141.816-248.294c-0.094-0.809-0.234-1.663-0.374-2.472       c-8.739,14.131-23.371,28.566-46.195,26.084c-39.977-4.365-121.123-81.251-121.123-81.251s-77.831,0.886-179.454,3.211       C1179.051,1251.244,1178.85,1279.68,1182.839,1308.992z"/>
				</g>
				<g>
					<path style="fill:#371A45;" d="M1377.09,1546.635c-100.791,0.007-194.692-102.276-212.778-235.12       c-10.874-79.829,6.924-155.642,48.818-207.998c29.229-36.523,67.231-57.766,109.907-61.431       c105.532-9.05,206.636,96.174,225.479,234.575c10.869,79.834-6.924,155.647-48.823,208       c-29.229,36.524-67.231,57.764-109.907,61.428C1385.552,1546.454,1381.309,1546.635,1377.09,1546.635z M1336.045,1078.894       c-3.267,0-6.533,0.139-9.814,0.42c-32.227,2.769-61.25,19.209-83.926,47.549c-35.015,43.753-50.327,110.896-40.972,179.612       v0.002c15.581,114.439,93.071,202.8,175.449,202.808c3.267,0,6.528-0.139,9.81-0.42c32.227-2.769,61.25-19.209,83.926-47.547       c35.015-43.752,50.332-110.898,40.977-179.617C1495.913,1167.26,1418.423,1078.894,1336.045,1078.894z"/>
				</g>
				<g>
					
						<ellipse transform="matrix(0.9814 -0.1917 0.1917 0.9814 -228.2154 274.108)" style="fill:#FFFFFF;" cx="1302.141" cy="1316.187" rx="131.122" ry="192.36"/>
				</g>
				<g>
					<path style="fill:#E8E8E8;" d="M1328.822,1506.365c-72.483,5.658-143.135-74.896-157.865-179.959       c-1.623-11.401-2.455-22.636-2.664-33.579c29.044,69.779,84.259,116.547,140.598,112.095       c63.62-5.034,107.809-73.815,108.475-160.819c7.406,19.182,12.899,39.986,15.978,61.831       C1448.074,1410.997,1401.264,1500.706,1328.822,1506.365z"/>
				</g>
				<g>
					<path style="fill:#371A45;" d="M1321.387,1525.341c-79.99,0.005-153.193-84.072-168.936-196.326l0,0       c-9.502-67.783,5.093-133.482,39.053-175.747c22.119-27.534,50.654-43.403,82.52-45.889       c83.418-6.545,161.494,79.583,177.808,195.979c9.502,67.783-5.093,133.482-39.053,175.747       c-22.119,27.534-50.654,43.403-82.52,45.889C1327.295,1525.226,1324.331,1525.341,1321.387,1525.341z M1282.564,1144.413       c-1.88,0-3.755,0.071-5.63,0.217c-21.333,1.665-40.801,12.744-56.304,32.039c-27.622,34.38-39.277,89.392-31.177,147.156v0.003       c13.13,93.662,76.455,168.735,137.896,163.916c21.333-1.665,40.801-12.744,56.304-32.039       c27.622-34.38,39.277-89.392,31.177-147.156C1402.1,1217.741,1342.344,1144.413,1282.564,1144.413z"/>
				</g>
				<g style="opacity:0.5;">
					<path style="fill:#FFFFFF;" d="M1811.788,743.938c0,0,281.178-83.532,477.996,54.359c0.207,0.145,0.414,0.29,0.62,0.435       c41.398,29.057,94.396,114.384,115.208,160.08c27.522,60.431,37.506,106.051,44.722,146.546       c21.89,123.166,8.767,184.919,8.767,184.919c59.522-77.361,86.449-158.16,69.248-260.928       c-1.723-10.126-3.879-20.506-6.433-31.09c-0.58-2.441-1.21-4.847-1.882-7.263c0.05-0.033,0.016-0.082-0.061-0.14       c-6.704-21.08-16.573-48.453-30.324-78.412c-41.417-90.383-117.879-204.398-248.507-240.868       C1996.889,603.382,1799.208,732.855,1811.788,743.938z"/>
				</g>
				<g style="opacity:0.5;">
					
						<ellipse transform="matrix(0.0977 -0.9952 0.9952 0.0977 395.9854 2648.614)" style="fill:#FFFFFF;" cx="1658.612" cy="1105.935" rx="102.708" ry="89.412"/>
				</g>
				<g style="opacity:0.5;">
					
						<ellipse transform="matrix(0.1897 -0.9818 0.9818 0.1897 62.1366 2658.8845)" style="fill:#FFFFFF;" cx="1641.97" cy="1291.796" rx="42.427" ry="36.908"/>
				</g>
			</g>
		</g>
	</g>
</g>
</svg>