<svg xmlns="http://www.w3.org/2000/svg" xmlns:xlink="http://www.w3.org/1999/xlink" version="1.1" id="Layer_1" x="0px" y="0px" viewBox="0 0 4000 4000" style="enable-background:new 0 0 4000 4000;" xml:space="preserve">
<g>
	
	<g>
		<g>
			<path style="fill-rule:evenodd;clip-rule:evenodd;fill:#00D6F9;" d="M1760.127,2501.093c127.014,0,191-154.235,101.156-244.12     c-55.866-55.796-146.383-55.835-202.27,0C1569.229,2346.837,1633.154,2501.093,1760.127,2501.093"/>
		</g>
		<g>
			<path style="fill-rule:evenodd;clip-rule:evenodd;fill:#EA1C24;" d="M1245.949,2368.626     c12.837-130.706-46.896-259.937-85.51-341.703l-18.677-40.244c-177.898,63.619-319.68,181.772-433.289,338.174     c113.668,134.166,245.87,245.687,398.316,327.107c43.131-69.498,93.485-133.433,121.887-223.001l0.548-1.515     C1226.782,2392.299,1243.486,2375.189,1245.949,2368.626 M2646.924,2599.247c162.414,96.325,293.295,221.974,381.572,383.514     c-4.742-196.177-141.439-356.545-283.976-480.386c-21.179-18.381-46.854-37.119-75.439-30.648     C2608.635,2485.51,2594.516,2565.83,2646.924,2599.247z M2776.136,3079.97c-72.285-102.673-114.706-220.704-33.671-318.339     c-44.514-10.183-91.289-16.337-139.323-18.983C2488.356,2885.869,2631.218,3000.787,2776.136,3079.97z M2904.026,2538.599     c130.696-4.76,240.72,181,305.214,308.726c-27.017-250.783-96.7-560.169-348.163-396.668     C2877.555,2479.303,2891.92,2508.693,2904.026,2538.599z M1763.016,2516.474c-155.946,0-214.395-149.037-104.004-259.491     c31.779-31.779,52.633-74.554,101.114-74.554c48.462,0,92.387,19.683,124.227,51.462     C1954.401,2355.789,1919.062,2516.474,1763.016,2516.474z M1853.572,2598.311l70.087-44.281l-3.417-21.106     c-13.327-66.6,34.119-134.543,79.018-178.783c6.675-167.591-164.02-257.324-280.78-231.556     c-31.271,6.896-5.533-2.565-33.794,32.592l-33.813,40.548l-133.179,136.394l3.337,25.979     C1521.033,2528.955,1697.608,2662.113,1853.572,2598.311z"/>
		</g>
		<g>
			<path style="fill-rule:evenodd;clip-rule:evenodd;fill:#FFFFFF;" d="M2230.177,1943.111     c-37.902,25.279-68.156,51.514-91.083,79.416c98.916-21.687,202.412,11.831,269.733,88.237     c65.979-68.064,176.941-68.625,208.76-96.079c3.56-8.831,20.183-10.55,26.204-57.139c5.719-44.067-2.848-107.787-26.652-194.916     c-33.325,14.283-67.544,27.742-103.291,38.9c-40.302,12.604-82.66,22.35-128.152,27.11     C2342.706,1880.336,2315.994,1898.382,2230.177,1943.111 M2647.17,1748.899c27.281,98.56,43.354,194.191,18.452,253.66     c116.068-11.627,170.104-74.502,168.172-191.862c-2.177-131.012-74.239-325.999-216.106-584.899     c-86.65,26.081-161.783,74.533-226.826,139.821c104.737,62.469,182.291,147.329,212.383,262.033     c25.979-16.419,51.573-35.756,79.487-13.194C2718.255,1643.124,2712.681,1713.141,2647.17,1748.899z M2414.971,1791.876     c69.398,2.981,145.387,3.052,213.46-51.156c73.508-32.248,45.208-116.495,18.189-101.206l-54.037,23.783     c-37.373,29.367-97.31,70.769-146.401,78.439C2436.721,1759.305,2426.304,1776.007,2414.971,1791.876z M2106.297,1537.839     c71.737-56.681,127.3-133.973,157.431-224.427c-7.202-1.14-14.241-2.817-21.037-5.004     c-64.331,196.664-250.406,328.52-457.376,323.657c15.667,3.56,31.596,6.379,47.81,8.423     C1935.095,1635.372,2029.901,1598.212,2106.297,1537.839z M2256.627,1229.694c68.4,66.202,172.831-33.571,104.471-99.752     C2292.659,1063.748,2188.267,1163.521,2256.627,1229.694z M2422.825,1155.8l-20.488,154.45     c55.054-48.025,115.967-84.787,184.245-108.562C2537.348,1163.542,2481.398,1154.082,2422.825,1155.8z M2293.411,1282.102     c-104.573-14.902-124.756-154.856-27.569-196.808c-120.97,22.188-104.348,197.112,19.531,197.112L2293.411,1282.102z      M1535.01,846.791c250.508-99.183,539.203-9.094,688.067,218.749c8.056-4.04,16.581-7.335,25.491-9.767     c-72.956-109.241-177.631-188.21-295.407-230.224c-124.004-44.219-262.593-47.567-394.205-2.348L1535.01,846.791z      M1626.929,770.945c254.576-52.167,516.986,58.104,657.307,279.895c40.058,0,73.729,15.117,99.792,41.342     C2327.244,751.199,1923.376,581.583,1626.929,770.945z M1717.566,1924.078c40.302,5.077,64.677,28.585,58.167,71.268     l63.354-17.933c219.156,5.208,469.603-45.012,580.584-255.31c24.231-47.433,45.248-107.339,61.444-157.062     c1.546,47.891,3.131,94.979-16.644,139.179c38.839-11.363,73.975-34.321,109.741-57.831     c-26.062-113.056-101.379-194.966-204.081-255.176c-20.894,41.514-47.444,79.875-78.694,114.096     c-36.54,86.658-99.935,148.833-189.066,189.564c-247.945,113.32-476.318-3.083-534.219,148.712     c-25.392,66.598-0.427,141.51,58.491,179.808C1652.096,1977.871,1667.517,1917.771,1717.566,1924.078z M1398.13,2291.235     c84.269-63.396,151.65-141.002,207.112-231.385c-95.175-10.873-154.4-58.369-171.387-125.568     c-54.81-21.048-101.604-13.194-143.148,13.642C1354.611,2043.604,1390.215,2201.696,1398.13,2291.235z M1951.168,2520.105     c4.658,31.394,25.552,49.56,61.766,55.177c68.196,10.579,185.099-25.748,346.374-144.471     c12.023-18.443-23.112-204.885,29.256-293.638c-68.685-82.031-175.943-108.358-278.097-72.104     c-34.464,64.829-35.237,140.422-5.919,233.866c6.754,21.617-32.717,28.808-77.779,73.883     C1992.895,2405.137,1943.334,2467.655,1951.168,2520.105z M1863.093,2609.674c-107.727,44.098-222.268,13.642-295.978-60.271     c-46.61-46.723-76.864-110.87-78.675-184.51c-29.196,27.933-56.6,53.019-79.773,73.477c-3.479,18.177-12.39,34.423-24.944,46.977     c-4.679,4.669-9.846,8.829-15.442,12.41c-1.056,1.321-32.633,108.835-127.929,215.758     c293.253,115.681,607.013,134.46,926.795,48.981c58.921-15.737,119.262-28.677,179.708-37.944     c130.779-170.879,171.183-371.266,114.318-580.046l-28.36-11.19c-77.821,79.183-15.177,296.151-50.171,320.708     c-171.225,126.954-298.522,165.243-374.674,153.423l-73.16-41.179C1913.507,2584.182,1889.339,2598.892,1863.093,2609.674z      M1734.166,2087.55c148.172-14.231,279.072,93.323,295.981,238.962c12.227-10.04,25.45-19.938,39.754-29.621     c-38.452-131.348-19.715-232.747,65.633-318.878c-84.635,23.885-218.22,25.025-330.809,21.931l-44.7,42.319     C1753.21,2056.504,1744.462,2071.692,1734.166,2087.55z M1682.45,1987.311c-72.793,147.379-170.612,269.795-306.151,359.12     l33.183,47.394c32.654-29.581,278.278-259.022,322.57-368.622c13.081-32.408,25.369-63.312-18.575-68.846     C1694.616,1953.986,1685.523,1981.146,1682.45,1987.311z M1278.684,2462.295c53.831,53.883,135.943-27.994,81.929-82     C1306.597,2326.279,1224.728,2408.32,1278.684,2462.295z M1574.092,2021.277c-77.839-84.444-64.004-233.368,55.156-279.185     c84.31-32.39,212.525-8.384,358.58-42.969c-54.992,10.477-112.61,9.877-172.464-3.804     C1492.936,1621.549,1341.326,1963.171,1574.092,2021.277z"/>
		</g>
		<g>
			<path style="fill-rule:evenodd;clip-rule:evenodd;fill:#FFD554;" d="M3027.173,3052.616     c-40.243-87.139-106.446-191.387-172.464-262.187l-29.623-4.15c6.49,215.656,154.295,437.641,310.566,617.419     c53.508-271.168,86.364-643.542-173.685-711.292c73.304,109.243,110.616,226.41,96.212,355.174     C3056.348,3063.908,3034.069,3067.55,3027.173,3052.616"/>
		</g>
		<g>
			<path style="fill-rule:evenodd;clip-rule:evenodd;fill:#02A9FD;" d="M1327.451,2513.757     c-32.471,2.604-62.765-11.454-81.766-36.458c-37.396,90.719-80.546,137.187-118.387,203.685     c-17.05,29.998-46.529,73.191-5.292,90.056l57.089-7.294C1246.111,2698.694,1292.559,2600.213,1327.451,2513.757      M1271.888,2351.843c37.231-18.567,60.058-16.735,74.096-24.629l21.058-13.783c17.944-110.543-50.964-303.791-117.148-375.803     c-24.25-26.367-42.439-37.362-76.844-37.362c-31.533,0-23.702,21.31-7.058,60.525     C1211.849,2068.792,1279.476,2202.235,1271.888,2351.843z M2892.163,2602.197c-18.921-159.168-160.929-329.568-393.003-440.682     c47.118,198.883,9.479,390.624-107.402,556.853c133.158-16.265,267.678-14.617,396.687,21.496     c-47.587-40.731-100.321-78.258-158.102-112.55c-78.023-48.4-57.027-167.175,31.454-187.347     c41.992-8.381,73.385,11.16,104.025,37.76C2813.509,2519.201,2855.684,2560.622,2892.163,2602.197z"/>
		</g>
		<g>
			<path style="fill-rule:evenodd;clip-rule:evenodd;fill:#CBC5CF;" d="M2629.266,2000.973c2.379-3.165,4.863-7.244,7.142-12.808     C2634.312,1992.773,2631.931,1997.046,2629.266,2000.973 M2612.706,2018.327c1.79-1.16,3.417-2.371,4.881-3.642l0.246-0.561     C2616.183,2015.611,2614.495,2017.004,2612.706,2018.327z M2230.177,1943.111c-5.492,3.673-10.865,7.375-16.031,11.087     l1.852,5.504c73.506-11.15,133.014-34.098,178.527-68.817c41.24-46.917,129.883-58.625,136.168-23.438     c6.288,35.196-55.989,140.473-193.52,185.079v0.01c26.55,15.064,50.821,34.606,71.654,58.227     c48.462-50.008,121.256-63.6,169.068-78.156l-3.663,0.59c57.066-45.054,63.619-131.998,19.652-260.812     c-25.979,10.621-52.55,20.569-80.037,29.144c-40.302,12.604-82.66,22.35-128.152,27.11     C2342.706,1880.336,2315.994,1898.382,2230.177,1943.111z M2414.971,1791.876c59.979,2.585,124.837,2.971,185.283-31.942     c0.833-0.681,1.708-1.21,2.665-1.556c8.606-5.138,17.11-10.975,25.513-17.658c33.977-14.912,46.183-40.915,46.835-63.081     c-0.875-6.154-2.156-12.51-3.885-19.083c-29.866,33.692-87.75,65.083-173.625,94.198c-20.833,4.048-9.785-17.223,4.027-27.221     l-2.238-1.923c-18.169,8.808-36.398,15.481-53.364,18.127C2436.721,1759.305,2426.304,1776.007,2414.971,1791.876z      M2647.17,1748.899c27.281,98.56,43.354,194.191,18.452,253.66c116.068-11.627,170.104-74.502,168.172-191.862     c-0.204-11.475-0.917-23.458-2.177-35.9c-28.342,159.495-86.142,198.568-110.352,183.308     c25.512-59.723,23.844-131.539-4.985-215.443c37.558-30.313,47.689-83.333,23.967-125.345     c-23.721-42.031-74.36-60.74-119.689-44.26c-45.41-114.431-101.237-183.593-167.562-207.458     c19.837-44.148,73.873-86.862,162.068-128.154c-22.969,3.287-44.716,8.077-65.306,14.375     c-58.675,27.567-111.47,66.212-158.895,113.8c104.737,62.469,182.291,147.329,212.383,262.033     c25.979-16.419,51.573-35.756,79.487-13.194C2718.255,1643.124,2712.681,1713.141,2647.17,1748.899z M2544.448,1218.402     c-27.283-18.271-68.196-36.194-122.802-53.721l-19.308,145.568C2445.814,1272.346,2492.933,1241.442,2544.448,1218.402z      M1815.364,1695.32c-32.898-7.529-63.985-10.66-93.079-10.275c-207.416,53.071-275.858,157.043-205.362,311.858     c15.564,10.367,34.525,18.748,57.169,24.394c-77.86-84.552-63.983-233.437,55.156-279.183     c84.412-32.431,212.525-8.384,358.58-42.99C1932.837,1709.601,1875.218,1709.001,1815.364,1695.32z M2011.855,1631.812     c98.979-22.633,187.195-74.431,253.397-146.148c53.346-58.431,91.654-126.393,111.266-204.762     c-21.3,18.706-48.685,30.996-78.856,33.65C2252.7,1458.341,2147.434,1573.239,2011.855,1631.812z M2242.69,1308.408     c-64.331,196.664-250.406,328.52-457.376,323.678c15.667,3.539,31.596,6.358,47.792,8.433     c102.008-5.127,196.795-42.308,273.191-102.66c71.737-56.702,127.3-133.973,157.452-224.447     C2256.525,1312.273,2249.486,1310.596,2242.69,1308.408z M2048.966,1715.715c96.312-74.889,165.995-124.379,209.064-148.508     c12.879-19.044,24.029-39.673,33.408-61.9c30.069-32.908,55.785-69.683,76.312-109.396l4.883,2.35l-2.502-7.05     c103.923,88.531,164.245,178.629,180.968,270.222c-27.994,17.833-56.152,33.885-86.629,42.785     c19.775-44.2,18.19-91.287,16.644-139.179c-16.196,49.723-37.212,109.629-61.444,157.062     c-110.981,210.297-361.428,260.518-580.584,255.31l-63.354,17.933c6.51-42.683-17.865-66.191-58.167-71.268     c-24.944-3.131-41.302,10.214-54.567,30.05l-0.529-0.417c8.892-31.554,33.265-56.417,64.656-65.877     c31.373-9.471,57.556,20.569,90.292,19.154c375.305-16.296,584.859-152.323,581.807-342.253     c-1.363-84.646-107.035-13.519-107.279-13.102C2232.171,1654.374,2150.955,1708.951,2048.966,1715.715z M2275.527,1117.165     c33.752-0.885,63.212,22.939,69.356,56.254c6.185,33.621-13.285,66.66-45.696,77.556c59.998,7.302,116.943-67.781,61.89-121.023     C2333.896,1103.625,2300.998,1103.544,2275.527,1117.165z M1897.964,692.391c218.323,58.3,347.453,177.777,387.41,358.449     c39.552,0.296,72.816,15.371,98.654,41.342C2343.54,849.078,2126.601,693.064,1897.964,692.391z M1390.907,2336.572     c-4.842,3.327-9.685,6.623-14.608,9.858l33.183,47.394c32.654-29.581,278.278-259.022,322.57-368.622     c13.081-32.408,25.369-63.312-18.575-68.846c-4.537-0.581-8.525,0.579-12.004,2.735l-3.356,2.819     c48.746,40.383-44.902,172.26-280.904,395.618C1412.188,2350.997,1411.088,2343.897,1390.907,2336.572z M2046.055,2283.97     c-2.869-6.042-5.717-12.379-8.442-18.96C2040.501,2271.185,2043.288,2277.512,2046.055,2283.97z M2135.534,1978.013     c-109.864,30.996-199.645,19.969-330.809,21.931l-44.7,42.319c-6.815,14.242-15.562,29.429-25.858,45.287     c148.172-14.231,279.072,93.323,295.981,238.962c12.227-10.04,25.45-19.938,39.754-29.621     C2031.449,2165.564,2050.186,2064.102,2135.534,1978.013z M2037.613,2265.01c-63.558-136.81-152.506-202.302-266.826-196.493     c26.471-28.654,79.875-28.258,160.585-32.906c103.066-5.942,121.966,7.577,95.744,88.764     C2010.107,2177.069,2021.397,2225.652,2037.613,2265.01z M1462.338,2417.364c20.344,100.677,91.675,183.501,188.212,218.524     c92.529,33.571,195.352,18.637,274.312-39.113c48.644,47.006,146.889,56.142,276.793-11.546     c132.181-51.24,214.783-99.304,216.449-148.61c2.767-81.808-2.421-165.943,15.971-253.347c3.867-13.102,17.335-20.873,30.6-17.69     c0.692,0.163,1.383,0.356,2.054,0.581c-1.729-7.202-3.581-14.425-5.554-21.658l-28.36-11.19     c-77.779,79.162-15.24,296.122-50.171,320.729c-171.225,126.933-298.522,165.222-374.674,153.381l-73.139-41.137     c-7.04,5.91-14.404,11.465-22.054,16.662c-15.462,10.508-32.104,19.492-49.683,26.723     c-107.727,44.098-222.268,13.642-295.978-60.271c-46.61-46.754-76.864-110.87-78.675-184.5     c-29.196,27.923-56.621,53.008-79.794,73.487c-3.458,18.167-12.369,34.402-24.923,46.956c-4.679,4.689-9.846,8.829-15.442,12.389     c-0.365,0.477-4.415,13.723-13.508,35.308c44.698-17.425,72.916-49.673,84.614-96.739L1462.338,2417.364z M1433.855,1934.282     c1.689,72.61,42.764,120.25,123.25,142.964c11.86,24.517-42.439,84.3-162.964,179.331c1.71,12.379,3.052,23.998,3.99,34.658     c84.206-63.314,151.712-141.104,207.112-231.385C1510.067,2048.977,1450.821,2001.461,1433.855,1934.282z M2127.62,2662.723     c-387.207,95.073-650.146,63.59-789.061-94.523c-17.681,35.523-44.352,80.871-82.723,127.279     c228.616,90.871,447.732,120.218,654.884,91.41c178.712-24.863,331.38-68.594,447.061-76.975     c25.311-34.76,46.956-70.689,64.86-107.646C2332.046,2606.186,2233.698,2626.336,2127.62,2662.723z M1279.172,2380.803     c25.635-9.746,54.585,0.194,68.869,23.621c14.24,23.437,9.785,53.71-10.662,72.021c35.442-13.102,58.756-60.658,23.254-96.15     C1333.594,2353.308,1299.638,2360.316,1279.172,2380.803z M1951.168,2520.105c4.658,31.394,25.552,49.56,61.766,55.177     c68.196,10.579,185.099-25.748,346.374-144.471c12.023-18.443-23.112-204.885,29.256-293.638     c-21.179-25.279-45.981-45.238-73.202-59.733l-1.058-0.215c-79.508,79.762,30.314,242.43-66.427,346.222     c-121.704,130.564-368.489,85.183-150.675-105.581c-13.102,11.811-40.527,25.044-70.433,54.952     C1992.895,2405.137,1943.334,2467.655,1951.168,2520.105z"/>
		</g>
		<g>
			<path style="fill-rule:evenodd;clip-rule:evenodd;fill:#381A46;" d="M1795.935,1623.349     c194.804-3.877,374.876-137.756,433.857-323.435c-80.181-49.367-97.719-153.616-26.631-213.756     c-78.573-120.36-196.473-201.304-326.599-235.606c-133.585-35.217-280.151-21.31-410.42,49.337     c-54.179,78.594-85.775,173.075-85.775,274.647c0,136.82,57.312,260.712,149.943,350.412     c23.985,23.204,50.373,44.139,78.735,62.419C1668.798,1612.668,1732.539,1624.63,1795.935,1623.349"/>
		</g>
		<g>
			<path style="fill-rule:evenodd;clip-rule:evenodd;fill:#271B3D;" d="M2025.691,1362.689     c58.735,116.587-46,193.266-312.499,229.054c30.252,5.829,60.954,8.423,91.594,7.823     c187.093-3.785,351.418-126.587,408.039-304.912c-77.006-47.412-85.204-153.3-16.948-211.058     c-75.458-115.591-188.699-193.318-313.657-226.268c120.441,91.829,172.443,196.268,155.985,313.303     C2029.474,1232.919,1993.83,1299.467,2025.691,1362.689"/>
		</g>
		<g style="opacity:0.5;">
			<path style="fill-rule:evenodd;clip-rule:evenodd;fill:#FFFFFF;" d="M2052.236,1204.252     c-15.402-9.012-37.029-0.671-48.339,18.635c-11.292,19.287-7.975,42.256,7.446,51.279c15.4,9.015,37.027,0.673,48.36-18.615     C2070.995,1236.244,2067.636,1213.286,2052.236,1204.252 M1969.941,986.58c32.958-19.165,79.183-1.2,103.189,40.091     c23.988,41.31,16.744,90.31-16.194,109.475c-32.96,19.177-79.162,1.21-103.191-40.079     C1929.76,1054.767,1937.001,1005.757,1969.941,986.58z M1474.398,1339.404c-91.248-296.162,13.813-449.097,315.164-458.811     C1553.315,944.253,1452.852,1112.821,1474.398,1339.404z"/>
		</g>
		<g>
			<path style="fill-rule:evenodd;clip-rule:evenodd;fill:#B61F2D;" d="M1200.701,2497.98     c-169.129-2.523-333.212-60.221-492.228-173.127c137.981,154.196,276.916,253.643,416.809,298.32     C1151.222,2583.074,1178.341,2543.43,1200.701,2497.98 M2656.487,2559.33c-27.71-19.633-32.246-44.892-13.59-75.775     c-23.681,17.335-32.96,48.056-25.981,75.073c4.171,15.769,13.956,30.396,30.008,40.619     c77.108,45.727,147.116,98.054,208.822,157.716c0.081,0.092,0.184,0.181,0.265,0.254     c62.783,60.108,116.637,127.777,162.514,207.741c0.977,1.721,1.975,3.44,2.952,5.179c2.358,4.171,4.698,8.392,7.019,12.623     c-65.756-177.571-182.414-314.604-349.955-411.122C2670.037,2567.815,2662.672,2563.715,2656.487,2559.33z M2566.358,2810.702     c56.804-1.067,101.481,13.337,134.014,43.173c4.617-31.952,17.821-63.019,42.094-92.264     c-44.535-10.162-91.269-16.316-139.323-18.962C2584.343,2766.107,2572.462,2788.792,2566.358,2810.702z M3052.096,2611.138     c-19.45-86.74-61.89-151.324-127.3-193.572c-19.815,7.448-41.035,18.362-63.72,33.112c16.479,28.604,30.844,58.014,42.95,87.921     C2957.39,2536.665,3007.296,2566.482,3052.096,2611.138z M1708.268,2124.71l-0.123,0.01l-9.4,8.698     c-1.688,4.15-5.227,10.773-14.058,21.758l-33.813,40.548l-133.179,136.394l2.89,22.421     C1603.817,2296.708,1666.377,2220.097,1708.268,2124.71z M1898.189,2466.599c-4.496,14.352-6.754,28.481-7.142,41.95     c-68.196,56.194-162.739,67.973-242.635,30.212c-62.927-29.712-107.869-85.958-124.083-151.67     c21.789,167.722,191.791,257.089,326.374,192.462l48.787-23.438l21.3-20.813l-0.548-2.379     c-13.327-66.56,34.056-134.47,79.018-178.783c-0.162-8.433-0.71-16.754-1.708-24.952c-28.442,23.833-50.821,48.46-67.585,72.906     C1923.803,2425.409,1912.978,2447.453,1898.189,2466.599z"/>
		</g>
		<g>
			<path style="fill-rule:evenodd;clip-rule:evenodd;fill:#1176BB;" d="M1348.344,2306.299c-26.875-6.642-50.029-2.99-69.479,10.967     c0,6.948-0.142,13.917-0.508,20.904c37.294-18.585,53.589-3.042,67.627-10.956l21.058-13.783     c-3.927-101.858-36.744-237.202-103.312-344.501C1326.453,2121.842,1354.651,2234.3,1348.344,2306.299 M2402.154,2703.24     c158.406-19.083,282.064-10.527,370.951,25.706c-43.112-36.681-89.864-71.106-142.762-101.633     c-0.141-0.031-0.283-0.071-0.406-0.213c-77.271-48.3-56.967-166.881,31.921-187.154c-51.981,5.308-93.241,46.141-99.06,98.073     c-3.071,27.231,4.05,53.671,18.677,75.052c-38.106-8.758-78.715-13.042-121.887-12.827     C2443.616,2635.482,2424.452,2669.855,2402.154,2703.24z M1280.759,2532.424c-33.306,91.766-74.402,125.275-123.352,100.595     c-7.223,10.946-14.079,21.373-20.304,31.323l-5.962,9.998c-31.779,97.871,19.41,93.039,128.073-36.642     c-1.323,9.919-2.787,19.329-4.396,28.271c12.248-13.073,20.61-22.625,21.648-24.231c21.321-32.644,36.5-92.081,50.985-127.981     c-32.471,2.604-62.765-11.454-81.766-36.458C1249.407,2506.016,1261.084,2524.399,1280.759,2532.424z"/>
		</g>
		<g>
			<path style="fill-rule:evenodd;clip-rule:evenodd;fill:#B7EBF9;" d="M1765.112,2475.266     c-71.533,2.971-134.439-46.865-148.052-117.168c0.692,73.11,57.619,142.996,143.066,142.996     c90.108,0,148.479-77.627,142.741-154.825C1895.218,2417.435,1836.624,2472.295,1765.112,2475.266"/>
		</g>
		<g>
			<path style="fill-rule:evenodd;clip-rule:evenodd;fill:#5697B8;" d="M1861.283,2256.983c-55.866-55.817-146.362-55.867-202.27,0     c-24.679,24.71-37.74,54.281-40.852,84.187c19.104-63.567,78.287-106.567,144.652-105.112     c66.346,1.446,123.616,46.998,140.137,111.298c-0.021-0.366-0.06-0.721-0.102-1.087     C1900.468,2314.662,1887.366,2283.106,1861.283,2256.983"/>
		</g>
		<g>
			<path style="fill-rule:evenodd;clip-rule:evenodd;fill:#9ADDFF;" d="M1230.243,1918.819     c-16.196-12.919-32.533-18.554-57.191-18.554c-31.533,0-23.702,21.31-7.058,60.525c38.838,91.462,93.26,201.151,104.41,323.476     l7.65,7.904c4.108-95.612-23.052-199.127-84.575-315.337c-32.41-56.581-21.038-74.289,34.079-53.183L1230.243,1918.819z      M2506.585,2196.539c157.41,98.073,285.928,233.295,385.578,405.657c-77.535-210.581-158.162-328.266-393.024-440.682     C2501.906,2173.212,2504.387,2184.881,2506.585,2196.539z"/>
		</g>
		<g>
			<path style="fill-rule:evenodd;clip-rule:evenodd;fill:#F7A0A3;" d="M1707.271,2126.002     c145.833,1.892,242.595,69.581,290.283,203.187c-14.262-118.552-115.254-210.227-237.427-210.227L1707.271,2126.002z      M2776.136,3079.97c-115.173-76-186.36-159.668-213.583-251.008C2548.393,2932.498,2661.635,3017.398,2776.136,3079.97z      M2947.584,2410.364c126.139,3.856,212.402,147.654,258.889,431.478c0.917,1.831,1.831,3.663,2.748,5.483     C3185.6,2628.096,3129.406,2363.999,2947.584,2410.364z M3028.455,2981.571l-0.467,0.233     c-49.277-198.312-168.906-368.324-358.928-510.07c14.16,1.129,28.219,3.408,42.217,6.848     c11.983,6.144,23.133,15.014,33.244,23.792C2886.772,2625.961,3023.207,2785.934,3028.455,2981.571z M708.473,2324.854     c195.822-186.675,354.166-269.266,475.036-247.812c-8.035-18.148-15.91-34.962-23.071-50.139l-18.677-40.223     C963.843,2050.298,822.1,2168.452,708.473,2324.854z"/>
		</g>
		<defs>
			<filter id="Adobe_OpacityMaskFilter" filterUnits="userSpaceOnUse" x="2825.086" y="2692.407" width="347.69" height="711.292">
				<feColorMatrix type="matrix" values="1 0 0 0 0  0 1 0 0 0  0 0 1 0 0  0 0 0 1 0"/>
			</filter>
		</defs>
		<mask maskUnits="userSpaceOnUse" x="2825.086" y="2692.407" width="347.69" height="711.292" id="SVGID_1_">
			<g style="filter:url(#Adobe_OpacityMaskFilter);">
				
					<linearGradient id="SVGID_00000124875898456292837530000000306784135667117457_" gradientUnits="userSpaceOnUse" x1="2754.3645" y1="3563.5171" x2="2596.4475" y2="3004.1428" gradientTransform="matrix(1 0 0 1 327.6045 -221.3423)">
					<stop offset="0" style="stop-color:#FFFFFF"/>
					<stop offset="1" style="stop-color:#000000"/>
				</linearGradient>
				
					<rect x="2825.086" y="2692.396" style="fill:url(#SVGID_00000124875898456292837530000000306784135667117457_);" width="347.695" height="711.302"/>
			</g>
		</mask>
		<g style="mask:url(#SVGID_1_);">
			<path style="fill-rule:evenodd;clip-rule:evenodd;fill:#F74848;" d="M3109.225,3262.199     c-150.758-126.006-235.108-277.485-252.97-454.447l-31.169-21.473c6.469,215.666,154.295,437.63,310.566,617.419     c53.487-271.168,86.385-643.552-173.685-711.292C3121.513,2778.009,3170.606,2967.95,3109.225,3262.199"/>
		</g>
		<defs>
			
				<filter id="Adobe_OpacityMaskFilter_00000170270779533313623820000004498346479397861507_" filterUnits="userSpaceOnUse" x="2856.255" y="2692.407" width="278.549" height="569.792">
				<feColorMatrix type="matrix" values="1 0 0 0 0  0 1 0 0 0  0 0 1 0 0  0 0 0 1 0"/>
			</filter>
		</defs>
		
			<mask maskUnits="userSpaceOnUse" x="2856.255" y="2692.407" width="278.549" height="569.792" id="SVGID_00000043429362103625020980000015455007938415566228_">
			<g style="filter:url(#Adobe_OpacityMaskFilter_00000170270779533313623820000004498346479397861507_);">
				
					<linearGradient id="SVGID_00000129917377973655526020000009820599807136981381_" gradientUnits="userSpaceOnUse" x1="2731.8416" y1="3427.2275" x2="2608.0916" y2="3007.645" gradientTransform="matrix(1 0 0 1 329.1006 -228.1343)">
					<stop offset="0" style="stop-color:#FFFFFF"/>
					<stop offset="1" style="stop-color:#000000"/>
				</linearGradient>
				
					<rect x="2856.255" y="2692.396" style="fill:url(#SVGID_00000129917377973655526020000009820599807136981381_);" width="278.543" height="569.803"/>
			</g>
		</mask>
		<g style="mask:url(#SVGID_00000043429362103625020980000015455007938415566228_);">
			<path style="fill-rule:evenodd;clip-rule:evenodd;fill:#F79149;" d="M3081.29,3162.458     c-96.964-77.677-170.368-194.783-220.214-351.357l-4.821-3.348c17.863,176.962,102.212,328.441,252.97,454.447     c61.381-294.249,12.288-484.19-147.258-569.792C3079.398,2813.694,3119.173,2970.371,3081.29,3162.458"/>
		</g>
		<g style="opacity:0.48;">
			<path style="fill-rule:evenodd;clip-rule:evenodd;fill:#FFFFFF;" d="M3148.388,3334.23     c44.189-261.493,52.023-579.709-186.42-641.844c166.402,131.287,228.516,345.347,186.32,642.171L3148.388,3334.23z"/>
		</g>
		<g style="opacity:0.33;">
			<path style="fill-rule:evenodd;clip-rule:evenodd;fill:#271B3D;" d="M3048.8,3060.57h-0.021l0.042,0.042L3048.8,3060.57z      M3010.451,3018.375c-40.529-79.092-98.185-166.239-155.741-227.956l-29.623-4.14c6.51,215.666,154.316,437.651,310.566,617.44     l4.944-25.717c-125.996-139.108-257.75-365.62-269.408-481.943C2859.53,2779.727,2955.253,2959.517,3010.451,3018.375z"/>
		</g>
		<g>
			<path style="fill:#381A46;" d="M1567.135,2549.403c-5.554-6.419-5.271-16.133,0.813-22.208 M1861.283,2256.972     c-25.879-25.848-61.646-41.869-101.156-41.869c-39.448,0-75.235,16.021-101.073,41.89l-0.042-0.021     c-25.837,25.869-41.85,61.635-41.85,101.135c0,39.481,16.012,75.256,41.891,101.106c25.838,25.858,61.604,41.879,101.073,41.879     c39.49,0,75.256-16.021,101.114-41.879c25.879-25.85,41.891-61.625,41.891-101.106c0-39.469-16.012-75.246-41.891-101.114     L1861.283,2256.972z M1760.127,2182.429c48.462,0,92.387,19.683,124.166,51.462l0.04,0.042l0.021-0.042     c31.779,31.769,51.473,75.725,51.473,124.216c0,48.514-19.694,92.448-51.473,124.216s-75.704,51.444-124.227,51.444     c-48.502,0-92.406-19.675-124.185-51.444c-31.779-31.769-51.473-75.702-51.473-124.216c0-48.46,19.694-92.375,51.473-124.154     l0.021-0.021l-0.021-0.042C1667.721,2202.112,1711.646,2182.429,1760.127,2182.429z M2110.467,2065.058     c-34.464,64.85-35.237,140.441-5.9,233.856h-0.019c2.115,6.806-0.408,14.467-6.675,18.514     c-27.363,17.7-50.8,36.123-70.394,54.677l-0.71,0.702h0.019c-31.677,30.212-53.323,60.75-65.306,88.898     c-2.056,4.812-3.804,9.552-5.29,14.189l-0.387,1.273l-0.304,1.027l-0.081,0.233l-0.346,1.231l-0.348,1.16l-0.019,0.102     l-0.021,0.1c-1.669,6.044-2.808,11.944-3.5,17.629c-0.794,6.613-0.875,12.95-0.325,18.902v0.254l0.081,0.59l0.163,1.496     l0.063,0.212l0.081,0.815v0.021l0.121,0.823l0.021,0.162l0.123,0.681l0.061,0.356l0.081,0.448l0.102,0.54l0.04,0.285l0.144,0.721     l0.019,0.092l0.162,0.794v0.113l0.183,0.681l0.063,0.304l0.121,0.51l0.123,0.446l0.06,0.338l0.162,0.629l0.265,0.917l0.042,0.061     l0.854,2.819l0.04,0.181l0.592,1.669l0.202,0.56l0.042,0.061l0.021,0.092c1.931,5.106,4.535,9.796,7.812,13.998     c10.152,13.183,26.998,22.45,50.252,26.063c68.175,10.59,185.058-25.748,346.353-144.481c4.271-19.175,2.788-44.831,1.038-74.889     c-2.929-50.762-6.552-113.373,14.221-185.883l0.204-0.773c3.377-11.75,8.077-22.358,13.813-32.075     c-32.469-38.746-75.175-65.694-121.723-78.99c-50.11-14.302-104.756-12.806-155.985,6.725L2110.467,2065.058z M2602.533,1666.784     c-0.712,0.581-1.506,1.09-2.34,1.537l-6.51,4.281l-1.019,0.733c-46,30.192-90.962,59.702-146.462,68.4     c-9.502,17.558-19.898,34.271-31.21,50.139c30.883-5.064,60.485-12.502,89.152-21.462     c40.689-12.717,79.448-28.546,117.289-45.156c34.952-15.331,48.91-38.452,50.231-57.994c0.388-6.287-0.487-12.177-2.379-17.142     c-1.69-4.415-4.111-7.985-6.938-10.252c-3.969-3.206-9.542-3.846-15.727-0.356c-15.116,8.565-29.644,17.842-43.967,27.2     l-0.081,0.071H2602.533z M1760.025,2042.263c-6.815,14.242-15.562,29.429-25.858,45.287c8.567-0.804,17.254-1.24,25.96-1.24     c75.033,0,143.046,30.446,192.22,79.619l0.875,0.946c41.687,42.094,69.741,97.719,76.925,159.637     c12.227-10.05,25.45-19.938,39.754-29.621c-30.275-103.414-25.148-187.643,19.835-261.17     c12.29-20.079,27.506-39.275,45.798-57.708c-84.9,23.956-183.797,34.606-296.753,31.963h-0.325l-1.81-0.071l-6.023-0.144     c-17.435,0.946-38.308,13.348-60.281,26.408L1760.025,2042.263z M1522.436,2331.864v0.029     c-7.975,71.564,17.152,143.412,67.873,194.62l0.752,0.681c43.254,43.264,103.048,70.05,169.066,70.05     c32.167,0,62.765-6.298,90.577-17.702v0.031l0.039-0.031c25.879-10.579,49.56-25.675,70.048-44.229l-0.283-1.2l-0.244-1.189     h-0.021l-0.244-1.181v-0.021l-0.225-1.179v-0.021l-0.223-1.169l-0.021-0.042l-0.204-1.179v-0.021l-0.162-1.171l-0.04-0.071     l-0.183-1.15v-0.05l-0.144-1.179v-0.073l-0.181-1.169v-0.081l-0.102-1.15l-0.042-0.092l-0.102-1.15v-0.1l-0.121-1.129v-0.134     l-0.102-1.129v-0.131l-0.142-2.392v-0.163l-0.042-1.108v-0.173c-0.163-3.744-0.123-7.579,0.102-11.496l0.04-0.265     c0.144-2.552,0.367-5.127,0.673-7.721l0.244-1.719l0.142-1.087l0.021-0.275l0.448-2.748l0.223-1.373l0.49-2.777l0.244-1.292     l0.04-0.102l0.285-1.383l0.285-1.394l0.021-0.019l0.304-1.394l0.346-1.415l0.021-0.052l0.671-2.785l0.042-0.123     c2.196-8.483,5.167-17.171,8.91-25.96c12.94-30.446,35.461-62.969,67.729-94.787c-1.019-64.148-27.304-122.11-69.256-164.439     l-0.752-0.681c-43.254-43.262-103.066-70.037-169.108-70.037c-9.867,0-19.571,0.589-28.992,1.729h-0.06     c-7.752,0.946-15.339,2.227-22.766,3.856l-1.038,1.444C1655.554,2195.623,1585.771,2272.477,1522.436,2331.864z      M1409.482,2393.824c72.265-65.45,269.651-253.927,322.57-368.601c0.265-0.833,0.671-1.627,1.098-2.4v-0.031l0.042-0.06     c3.031-6.796,5.473-13.296,7.302-19.369c5.698-19.094,4.763-33.254-5.371-40.1c-4.983-3.327-12.146-5.696-21.646-6.906     c-5.331-0.683-10.66,1.648-15.342,5.562c-6.775,5.667-12.023,14.263-14.729,22.971c-0.264,0.844-0.569,1.658-0.956,2.442     c-39.875,80.341-86.019,151.631-140.339,213.947c-48.381,55.531-103.231,103.891-165.812,145.152     c7.446,5.667,14.058,12.421,19.511,19.979C1401.771,2374.67,1406.43,2383.906,1409.482,2393.824z M1360.632,2380.285     c-10.498-10.469-24.983-16.958-40.973-16.958c-16.054,0-30.54,6.45-40.975,16.898l-0.063,0.061     c-10.438,10.438-16.927,24.923-16.927,40.964c0,16.052,6.49,30.548,16.927,40.985l0.063,0.05     c10.435,10.479,24.921,16.927,40.975,16.927c15.99,0,30.475-6.49,40.973-16.977c10.458-10.469,16.948-24.983,16.948-40.985     C1377.58,2405.268,1371.09,2390.741,1360.632,2380.285z M1132.076,2761.671c11.475,4.679,30.233-15.696,37.66-22.665l5.635-5.381     l0.102-0.131c37.331-35.177,70.331-74.36,98.002-116.689c21.341-32.654,39.489-67.158,53.975-103.048     c-2.583,0.194-5.169,0.327-7.792,0.327c-22.808,0-43.744-8.281-59.937-21.983c-5.167-4.385-9.887-9.358-14.019-14.792     c-24.292,58.91-57.86,109.904-86.344,153.208c-12.023,18.292-23.112,35.127-32.002,50.385l-0.06,0.081l-0.61,1.087l-0.021,0.031     l-0.204,0.325c-5.656,9.848-10.438,19.044-13.875,27.487C1102.964,2733.452,1105.568,2750.827,1132.076,2761.671z      M1345.984,2327.224c7.142-4.517,14.14-9.083,21.058-13.794c-2.85-74.158-29.562-201.833-75.298-297.026     c-12.369-25.767-26.042-49.002-40.833-67.789c-1.179-1.1-2.196-2.36-3.031-3.775c-22.581-27.527-47.708-44.575-74.848-44.575     c-15.3,0-21.242,4.273-21.242,11.963c0,11.14,5.19,27.16,13.49,46.885l0.692,1.677c6.552,15.371,14.852,32.95,23.925,52.216     c40.121,84.939,94.787,200.662,88.46,325.153c12.492-6.214,26.55-9.704,41.302-9.704     C1337.561,2328.456,1336.117,2332.779,1345.984,2327.224z M1229.245,2427.445c-0.142-2.046-0.223-4.1-0.223-6.196     c0-19.592,6.285-37.771,16.927-52.633c12.837-130.685-46.896-259.937-85.531-341.714c-6.733-14.263-13.081-27.69-18.656-40.223     c-83.842,29.99-161.62,72.814-233.316,128.458c-72.877,56.56-139.506,126.485-199.952,209.708     c59.346,70.048,122.579,132.587,189.677,187.518c66,54.016,135.579,100.577,208.639,139.577     c7.669-12.338,16.254-25.421,25.369-39.296c33.306-50.629,73.812-112.191,96.477-183.706l0.021,0.021L1229.245,2427.445z      M1574.092,2021.288c-15.806-17.152-28.075-37.06-36.314-58.554c-15.604-40.658-16.806-86.996-0.144-130.758     c17.823-46.692,50.6-74.096,91.594-89.862c39.042-14.975,85.164-19.002,132.589-19.329c85.285-0.548,160.706-8.198,226.033-23.66     c-55.013,10.477-112.631,9.867-172.485-3.804c-140.931-32.269-248.291,13.742-306.172,81.675     c-22.583,26.5-37.598,56.335-44.006,85.987c-6.225,28.881-4.273,57.535,6.917,82.521     C1487.444,1979.875,1520.606,2007.95,1574.092,2021.288z M1433.855,1934.282c-27.202,0.681-54.017,2.379-80.464,5.096     c-21.077,2.167-41.973,5.006-62.683,8.535c63.904,95.691,99.508,253.783,107.441,343.322     c43.906-33.031,83.537-70.16,119.466-111.389c31.942-36.692,61.035-76.66,87.646-120.006     c-87.321-9.948-140.014-49.773-162.922-101.062C1438.798,1950.852,1435.971,1942.663,1433.855,1934.282z M2361.077,1129.963     c-13.286-12.879-31.759-20.844-52.246-20.844c-20.446,0-38.919,7.965-52.204,20.844c-13.165,12.756-21.362,30.385-21.362,49.844     c0,19.46,8.177,37.11,21.362,49.887c13.285,12.848,31.779,20.844,52.204,20.844c20.487,0,38.96-7.975,52.246-20.844     c13.204-12.746,21.362-30.417,21.362-49.887C2382.44,1160.348,2374.281,1142.719,2361.077,1129.963z M2293.411,1282.112     c-23.031-3.265-43.721-13.794-59.51-29.052c-19.327-18.729-31.29-44.648-31.29-73.254c0-28.604,11.963-54.504,31.29-73.21     c9.156-8.871,19.958-16.144,31.923-21.292c-14.04,2.554-27.06,7.873-38.452,15.34l-1.14,0.765l-0.265,0.152l-0.102,0.081     c-4.923,3.306-9.481,7.05-13.712,11.148c-18.535,17.967-30.029,42.777-30.029,70.17c0,27.396,11.494,52.217,30.029,70.192     c7.833,7.548,16.906,13.925,26.938,18.756l0.223,0.112l0.123,0.071l0.365,0.183c13.733,6.49,29.196,10.123,45.573,10.123     C2288.079,1282.398,2290.746,1282.306,2293.411,1282.112z M2263.748,1313.412c-7.223-1.14-14.262-2.817-21.058-5.004     c-19.023,58.177-49.073,111.5-87.91,157.379c-42.665,50.394-95.887,91.827-156.779,120.808     c-60.831,28.962-126.587,44.19-192.606,45.502c-6.694,0.123-13.367,0.123-20.081-0.021c15.667,3.55,31.617,6.379,47.81,8.433     c101.989-5.117,196.776-42.298,273.172-102.639C2178.034,1481.158,2233.596,1403.887,2263.748,1313.412z M2195.875,1083.606     c-75.458-115.602-188.699-193.328-313.657-226.278c-261.616-51.706-476.561,19.512-476.561,311.168     c0,131.387,55.033,250.395,143.981,336.526c74.91,72.5,149.781,96.679,255.147,94.554c61.279-1.242,122.416-15.442,179.198-42.46     c56.702-27.008,106.262-65.552,145.895-112.385c36.925-43.6,65.306-94.514,82.946-150.066     c-8.463-5.219-16.296-11.321-23.375-18.148c-24.721-23.915-40-56.996-40-93.556c0-36.539,15.279-69.631,40-93.545     C2191.523,1087.421,2193.659,1085.457,2195.875,1083.606z M2248.569,1055.763c-72.977-109.231-177.61-188.199-295.407-230.214     c-124.004-44.229-262.614-47.596-394.205-2.359c-3.154,2.888-6.225,5.819-9.319,8.788c-4.965,4.833-9.887,9.787-14.627,14.823     c115.904-45.908,240.395-51.321,355.487-20.987c132.548,34.923,252.543,117.289,332.56,239.737     C2231.134,1061.5,2239.68,1058.205,2248.569,1055.763z M1626.95,770.924c114.46-23.448,230.935-14.037,337.176,23.854     c128.846,45.96,242.839,133.931,320.109,256.072h1.138c37.396,0,71.31,14.74,95.969,38.554l0.854,0.946l1.831,1.831     c-16.804-100.839-66.345-191.12-137.735-260.222c-89.071-86.223-212.22-139.558-348.328-139.558     C1797.806,692.401,1704.666,721.283,1626.95,770.924z M2402.337,1310.25c24.617-21.475,50.15-40.477,76.6-56.956     c34.281-21.352,70.169-38.564,107.646-51.616c-17.417-9.133-36.969-17.129-58.656-23.925     c-30.823-9.693-65.898-17.008-105.102-21.952c0.123,4.21,0.162,8.444,0.162,12.696     C2422.987,1217.7,2415.765,1265.246,2402.337,1310.25z M2665.622,2002.558c35.544-3.55,65.429-11.994,89.621-25.339     c26.691-14.729,46.529-35.623,59.508-62.602c13.367-27.873,19.715-62.519,19.023-103.931     c-2.198-130.991-74.219-325.968-216.085-584.878c-42.46,12.765-82.987,31.198-121.521,55.175     c-36.966,23.06-72.083,51.289-105.306,84.635c57.475,34.292,104.064,73.658,139.629,118.091     c34.667,43.296,58.94,91.279,72.754,143.921c9.012-5.685,18.085-11.229,27.323-16.458c19.408-11.017,38.085-8.098,52.204,3.275     c7.367,5.963,13.267,14.313,17.008,24.058c3.5,9.177,5.169,19.775,4.417,30.925c-1.813,27.171-17.985,58.146-57.027,79.487     c26.021,93.933,35.277,163.483,28.908,212.698C2674.066,1977.127,2670.566,1990.748,2665.622,2002.558z M2643.791,1957.536     c5.698-44.037-2.827-107.777-26.631-194.906c-33.346,14.283-67.546,27.742-103.312,38.9     c-40.302,12.604-82.66,22.35-128.133,27.131c-43.008,51.696-69.702,69.692-155.537,114.45     c-37.902,25.258-68.156,51.514-91.083,79.406c45.837-10.029,92.812-8.229,136.698,4.283     c50.496,14.394,96.944,43.01,133.056,83.954c41.444-42.775,107.829-61.423,165.385-77.556l17.171-4.852l0.712-0.202     C2624.097,2018.938,2639.722,1989.009,2643.791,1957.536z M2346.835,2724.584c65.675-85.806,108.969-179.637,128.114-278.687     c18.615-96.191,14.525-197.51-13.775-301.391c-9.317-3.896-18.777-7.619-28.34-11.19c-12.289,12.513-21.687,27.294-26.796,45.023     l-0.223,0.712c-19.165,66.977-15.706,126.679-12.898,175.1c2.033,35.858,3.804,65.99-3.662,90.972     c-1.14,3.794-3.542,6.877-6.613,8.921c-171.225,126.933-298.522,165.222-374.674,153.391     c-32.002-4.983-55.867-18.606-71.044-38.3l-2.096-2.848c-21.323,17.863-45.492,32.594-71.758,43.356l0.021,0.019     c-31.86,13.063-66.671,20.265-102.966,20.265c-75.031,0-143.004-30.456-192.179-79.621l-0.813-0.904     c-47.202-47.598-76.904-112.6-78.696-184.5c-29.196,27.933-56.621,53-79.794,73.496c-3.458,18.169-12.369,34.383-24.902,46.948     c-4.7,4.689-9.867,8.829-15.462,12.389c-16.702,48.217-39.508,94.156-67.504,136.941c-18.025,27.579-38.229,53.925-60.425,78.837     c136.414,53.813,285.318,89.721,444.701,99.427c151.693,9.256,312.947-5.208,482.094-50.446     C2226.088,2746.759,2286.392,2733.819,2346.835,2724.584z M2744.52,2502.355c-12.167-10.55-24.863-20.173-37.983-26.042     c-11.821-5.281-24.312-7.548-37.477-4.588v0.008c-13.815,3.154-26.021,10.317-35.298,20.162l-0.854,0.815     c-8.871,9.715-15.056,22.023-17.396,35.696l-0.06,0.346c-2.279,13.875-0.306,27.76,5.167,40.008     c5.473,12.256,14.487,22.99,26.306,30.506c94.769,56.183,176.352,120.931,244.629,194.172     c53.914,57.8,99.568,120.931,136.923,189.31c-1.75-72.804-21.444-143.491-58.146-213.052     c-16.094-30.456-35.381-60.7-57.881-90.852l-0.165-0.233l-0.081-0.061l-0.163-0.244l-0.081-0.081l-0.162-0.246l-0.061-0.092     C2867.832,2619.226,2811.903,2560.907,2744.52,2502.355z M2603.143,2742.659c-48.177,60.079-55.014,119.304-20.488,177.591     c31.494,53.183,95.987,106.446,193.502,159.729c-41.892-59.448-66.833-114.044-74.829-163.725     c-9.421-58.685,4.313-110.26,41.137-154.644C2697.931,2751.438,2651.197,2745.294,2603.143,2742.659z M2825.88,2455.032     l-0.021-0.042c-0.427-0.579-0.794-1.19-1.098-1.81c-23.092-38.036-50.11-74.575-80.831-108.856     c-65.775-73.446-148.437-136.698-244.812-182.81c23.702,99.875,25.918,197.408,7.854,290.508     c-18.169,94.085-57.009,183.601-115.215,266.366c54.158-6.623,108.073-10.081,160.887-9.806     c14.406,0.092,28.729,0.438,42.929,1.088h0.406l1.425,0.063c62.337,2.969,122.7,11.585,179.422,26.896l0.385,0.092l0.367,0.111     l0.387,0.102l0.121,0.031l10.356,2.9c-47.608-40.731-100.3-78.237-158.12-112.518l-0.387-0.244     c-17.538-11.079-30.944-26.898-39.063-45.064c-8.056-17.996-10.904-38.29-7.608-58.554l0.102-0.59     c3.417-19.917,12.531-37.944,25.735-52.277l0.917-1.048c13.65-14.475,31.554-25.004,51.777-29.612v0.01l0.061-0.01     c20.875-4.75,40.081-1.392,57.964,6.613c16.621,7.456,31.777,18.829,46,31.179c47.687,41.444,89.862,82.866,126.341,124.46     c-4.171-13.519-8.829-26.977-13.956-40.364l-0.142-0.356l-0.144-0.375C2863.986,2524.876,2846.551,2489.345,2825.88,2455.032z      M2904.005,2538.588c54.3-1.952,109.496,28.371,165.629,91.075c45.471,50.792,91.979,123.394,139.606,217.662     c-20.425-189.504-58.248-318.664-113.483-387.349c-57.006-70.883-135.254-73.964-234.68-9.287     C2877.555,2479.274,2891.92,2508.693,2904.005,2538.588z M3161.063,2825.321c7.773,17.477,14.527,36.235,20.265,56.285     c37.333,130.777,30.6,317.483-20.121,559.986c-0.55,3.621-2.319,7.09-5.269,9.715c-6.735,5.981-17.071,5.4-23.073-1.333     c-114.746-128.683-200.479-250.02-257.201-363.962c-54.889-110.341-82.681-214.029-83.312-310.964     c-4.76-1.465-9.521-2.908-14.302-4.281c-38.35,39.641-53.223,86.464-44.535,140.368c9.521,59.45,46.896,127.96,112.162,205.556     c4.273,4.762,5.513,11.81,2.583,17.935c-3.865,8.117-13.59,11.535-21.688,7.66c-140.014-67.179-230.693-135.702-271.993-205.425     c-38.492-65.023-35.502-130.239,9.012-195.616l-11.067-0.123c-123.087-0.65-253.031,19.764-376.953,52.908     c-172.647,46.162-337.401,60.912-492.409,51.473c-167.664-10.236-323.974-48.788-466.734-106.498     c-6.083,6.175-12.308,12.258-18.617,18.221l-5.494,5.269l-0.263,0.265c-19.796,19.165-42.523,41.208-72.185,29.104l0.021-0.052     l-0.021-0.01c-49.621-20.273-54.85-51.737-37.516-94.146c2.3-5.617,5.025-11.436,8.158-17.467     c-74.808-40.008-145.833-87.535-213.012-142.558c-71.187-58.267-138.366-125.212-201.456-200.795     c-5.269-5.554-6.042-14.221-1.444-20.7c64.187-90.26,135.516-165.893,213.927-226.777     c73.954-57.402,154.216-101.683,240.722-132.831c-6.348-17.081-10.152-31.881-10.152-44.302     c0-28.748,15.096-44.637,53.935-44.637c36.212,0,68.012,19.694,95.479,51.137c26.469-4.965,53.669-8.91,81.583-11.758     c25.798-2.656,52.185-4.375,79.121-5.138c-0.61-15.056,0.754-30.417,4.05-45.746c7.506-34.74,24.962-69.529,51.167-100.292     c51.921-60.902,138.612-106.21,250.651-103.525c-44.881-14.192-87.077-34.089-125.754-58.787l-0.346-0.215l-0.325-0.223     c-29.458-18.881-56.823-40.537-81.725-64.635c-95.115-92.112-153.952-219.351-153.952-359.914     c0-105.581,33.204-203.674,90.048-284.972l0.935-1.313c18.617-26.45,39.694-51.066,62.969-73.589     c3.906-3.804,7.894-7.527,11.921-11.19l0.063-0.05l0.283-0.275l0.592-0.539l0.283-0.265v-0.008     c93.771-84.737,219.624-136.587,357.889-136.587c144.816,0,276.041,56.914,371.032,148.885     c84.717,81.989,140.646,191.843,151.916,314.126c43.621,5.198,82.54,13.154,116.7,23.906     c38.004,11.931,70.313,27.344,96.862,46.152c1.669,1.087,3.215,2.502,4.436,4.212l0.019,0.05l0.673,0.967l0.202,0.356l0,0     l0.225,0.356c148.558,269.185,223.979,473.02,226.297,611.427c0.773,46.498-6.654,86.04-22.238,118.5     c-16.012,33.375-40.406,59.102-73.139,77.179c-33.917,18.696-76.741,29.01-128.46,30.923     c-11.25,10.55-25.085,18.077-41.442,22.787l-0.773,0.173l-17.233,4.884c-40.181,11.281-85.165,23.904-120.3,45.4     c5.554,2.216,11.088,4.506,16.561,6.835c1.241,0.377,2.483,0.896,3.623,1.546c113.362,48.829,209.879,120.087,285.256,204.254     c28.402,31.708,53.793,65.237,75.989,100.108c115.377-74.889,207.743-69.275,276.976,16.846     c67.79,84.258,110.698,249.227,128.662,494.719c0.713,6.825-2.95,13.611-9.521,16.592c-8.221,3.692-17.862,0.05-21.587-8.169     C3199.252,2899.917,3180.046,2860.783,3161.063,2825.321z M2938.957,2654.29c82.073,13.5,145.223,51.208,189.391,113.139     c-28.198-47.058-55.846-85.754-82.987-116.068c-45.104-50.456-88.154-77.098-129.068-80.017     C2925.774,2598.728,2933.342,2626.428,2938.957,2654.29z M2825.086,2786.269c2.665,88.562,29.277,183.644,79.793,285.187     c51.84,104.115,128.762,214.883,230.772,332.243c43.783-221.964,48.543-393.024,14.283-513.172     c-30.681-107.431-93.364-173.472-187.948-198.12c13.815,20.61,26.204,41.281,37.189,62.094     c49.99,94.737,70.354,191.639,59.002,293.081c-0.611,5.473-3.988,10.538-9.379,13.031c-8.158,3.762-17.862,0.181-21.627-7.996     c-40.262-87.158-93.464-166.168-159.506-236.979c-6.246-6.735-12.654-13.377-19.165-19.958     C2840.792,2792.384,2833.001,2789.24,2825.086,2786.269z M2419.671,1722.103c24.273-47.444,45.248-107.339,61.444-157.062     c1.464,45.327,3.031,93.231-14.933,135.223l-0.204,0.508l-0.204,0.488l-0.081,0.183l-0.162,0.296l-0.204,0.508l-0.427,0.987     l-0.202,0.508l-0.225,0.477c38.839-11.352,73.954-34.342,109.741-57.831c-12.085-52.398-35.135-99.841-69.112-142.262     c-33.996-42.46-79-80.108-134.968-112.925c-20.894,41.525-47.444,79.875-78.714,114.116     c-36.519,86.648-99.914,148.812-189.045,189.574c-88.421,40.404-202.25,59.508-340.453,60.444     c-44.027,0.317-86.467,3.877-121.075,17.152c-32.592,12.521-58.612,34.221-72.692,71.075     c-13.692,35.979-12.717,74.106,0.121,107.554c11.15,29.083,31.25,54.646,58.35,72.256c8.994-16.083,17.7-32.573,26.123-49.5     c4.579-13.865,13.225-27.579,24.435-36.977c11.21-9.339,25.004-14.75,40.344-12.818c14.894,1.852,26.775,6.023,35.848,12.137     c19.756,13.335,26.246,33.71,22.36,59.131c16.173-8.869,32.063-15.889,48.319-17.771c1.404-0.314,2.827-0.488,4.313-0.448     l1.16,0.031c3.173-0.123,6.348-0.06,9.562,0.254C2058.242,1982.631,2308.69,1932.4,2419.671,1722.103z M2265.232,1485.664     l0.285-0.306l0.264-0.294c52.775-57.312,91.431-127.085,110.737-204.172c-21.3,18.738-48.665,31.017-78.856,33.66     c-31.413,100.504-92.123,186.331-171.225,248.841c-34.91,27.587-73.425,50.637-114.583,68.419     c90.333-20.66,171.041-65.398,234.456-126.79C2252.802,1498.745,2259.129,1492.276,2265.232,1485.664z"/>
		</g>
	</g>
</g>
</svg>