<svg xmlns="http://www.w3.org/2000/svg" xmlns:xlink="http://www.w3.org/1999/xlink" version="1.1" id="Layer_1" x="0px" y="0px" viewBox="0 0 4000 4000" style="enable-background:new 0 0 4000 4000;" xml:space="preserve">
<g>
	
	<g>
		<g>
			<g>
				<g>
					<path style="fill:#FFFFFF;" d="M2622.307,2569.216c0,0,37.58-40.661,83.615-99.223c8.954-11.502,18.273-23.635,27.71-36.269       c1.533-1.959,3.003-3.98,4.473-6.001c4.472-6.063,9.005-12.252,13.505-18.535c64.628-90.261,127.636-199.335,119.563-272.881       c-13.223-120.175-331.528-423.514-509.419-486.109c-46.883-16.527-112.286,10.046-176.672,50.6       c-0.434,0.256-0.867,0.575-1.3,0.831c-47.205,29.837-93.769,67.132-131.927,100.336c-3.394,2.924-6.725,5.847-9.932,8.705       c-6.507,5.75-12.643,11.306-18.501,16.64c-4.531,4.159-8.909,8.159-13.038,12.031c-29.557,27.517-47.957,46.718-47.957,46.718       l64.076,66.353l32.672,33.824l60.556,62.75l18.334,18.976L2622.307,2569.216z"/>
				</g>
			</g>
			<g style="opacity:0.35;">
				<g>
					<path style="fill:#371A45;" d="M2026.511,1952.41l32.647,33.815l447.162,462.886l116.005,120.085c0,0,0.784-0.853,2.26-2.477       c0.41-0.469,0.912-1.02,1.445-1.597c0.41-0.469,0.881-0.992,1.352-1.516c0.375-0.384,0.723-0.799,1.097-1.182       c0.127-0.167,0.313-0.33,0.44-0.496c0.661-0.744,1.414-1.57,2.171-2.454c0.186-0.163,0.344-0.357,0.533-0.578       c0.63-0.717,1.29-1.461,2.013-2.26c0.973-1.074,1.951-2.206,2.99-3.392c0.726-0.857,1.542-1.737,2.33-2.648       c0.819-0.938,1.638-1.876,2.488-2.842c1.07-1.213,2.175-2.512,3.338-3.807c2.302-2.679,4.76-5.493,7.317-8.506       c2.299-2.62,4.667-5.412,7.132-8.343c2.844-3.372,5.841-6.881,8.908-10.559c11.35-13.579,24.178-29.279,37.751-46.563       c2.638-3.357,5.311-6.799,8.015-10.268c1.877-2.415,3.789-4.915,5.701-7.415c4.62-6.027,9.339-12.252,14.036-18.566       c70.329-94.277,146.328-217.023,137.492-297.374c-10.833-98.966-228.58-322.143-404.503-432.823       c136.697,114.401,262.364,259.461,270.523,334.052c4.041,36.88-12.012,84.782-37.516,135.112       c-10.865,21.442-41.018,22.26-53.617,1.789c-0.101-0.164-0.201-0.327-0.303-0.491c-23.228-37.431-54.075-75.62-96.214-114.134       c-90.307-82.522-231.929-188.438-426.607-186.329C2118.32,1873.553,2076.621,1909.071,2026.511,1952.41z"/>
				</g>
			</g>
			<g>
				<g>
					<path style="fill:#371A45;" d="M2622.598,2594.307l-684.119-708.218l11.499-11.968c2.795-2.91,69.417-72.002,153.167-136.692       c116.006-89.604,204.939-124.443,264.329-103.523c185.703,65.393,506.96,374.146,520.825,500.552       c16.707,152.285-242.292,434.517-253.325,446.455L2622.598,2594.307z M1986.433,1886.135l635.422,657.805       c51.196-57.91,245.291-286.309,232.19-405.723c-5.583-50.908-79.265-150.64-187.715-254.08       c-111.191-106.057-230.093-189.485-310.303-217.732C2263.54,1633.843,2068.135,1804.041,1986.433,1886.135z"/>
				</g>
			</g>
			<g>
				<g>
					<path style="fill:#FFFFFF;" d="M2626.873,1920.963L2526.43,2044.71c-8.967,11.048-9.378,26.742-0.937,38.197       c30.91,41.946,107.329,135.121,170.27,125.962c52.241-7.603,95.59-59.109,98.394-110.629       c3.137-57.63-79.146-141.25-121.833-180.579C2659.053,1905.434,2638.245,1906.952,2626.873,1920.963z"/>
				</g>
			</g>
			<g style="opacity:0.35;">
				<g>
					<path style="fill:#371A45;" d="M2525.514,2082.912c30.879,41.952,107.319,135.116,170.251,125.94       c52.256-7.597,95.591-59.095,98.403-110.637c1.903-35.441-28.483-80.72-62.084-119.461       c13.621,22.71,20.957,45.097,21.235,64.589c1.59,111.678-106.185,92.153-106.185,92.153s9.075,22.844,4.314,29.725       c-19.908,28.768-93.716-50.765-130.952-92.805C2521.448,2076.104,2523.104,2079.669,2525.514,2082.912z"/>
				</g>
			</g>
			<g>
				<g>
					<path style="fill:#371A45;" d="M2687.075,2226.714c-66.672,0-137.808-82.5-175.452-133.589       c-13.081-17.744-12.495-42.119,1.431-59.272l100.442-123.75c8.408-10.359,20.859-16.853,34.158-17.815       c13.308-0.933,26.538,3.669,36.345,12.703c59.919,55.205,130.654,133.706,127.363,194.189       c-3.337,61.289-54.082,118.145-113.118,126.738C2694.541,2226.455,2690.815,2226.714,2687.075,2226.714z M2640.249,1931.819       l-100.442,123.752c-4.031,4.966-4.214,12.002-0.444,17.109c58.979,80.044,116.477,124.526,153.921,119.136       c42.903-6.245,81.221-49.526,83.669-94.512c1.943-35.669-41.536-98.088-116.304-166.973c-2.876-2.654-6.614-3.989-10.508-3.674       c-3.906,0.281-7.419,2.117-9.893,5.164V1931.819z"/>
				</g>
			</g>
			<g>
				<g>
					<path style="fill:#371A45;" d="M2770.851,2179.734c-3.424,1.042-5.413,1.353-7.969,1.797c-2.401,0.371-4.784,0.679-7.124,0.828       c-4.705,0.386-9.337,0.422-13.92,0.164c-9.143-0.559-18.147-1.877-26.716-4.409c-17.253-4.707-33.092-12.69-47.161-22.549       c-6.932-5.071-13.746-10.222-19.946-16.013c-6.495-5.544-12.128-11.472-18.005-17.434       c-5.778-5.996-11.359-12.212-16.635-18.723c-5.259-6.68-10.231-13.003-14.457-21.255c-1.027-2.007-0.233-4.463,1.771-5.488       c1.877-0.962,4.153-0.327,5.277,1.404l0.293,0.457c3.859,5.991,9.548,12.227,15.021,17.842       c5.612,5.691,11.536,11.118,17.655,16.338c6.136,5.115,12.366,10.491,18.815,14.956c6.271,4.814,12.975,8.889,19.659,12.861       c13.535,7.649,28.042,13.127,42.717,15.598c7.31,1.426,14.697,1.704,21.873,1.45c3.59-0.144,7.145-0.535,10.549-1.165       c1.729-0.276,3.373-0.669,4.985-1.084c1.447-0.374,3.44-1.021,3.898-1.262c6.732-3.557,15.071-0.981,18.627,5.75       s0.981,15.071-5.75,18.628c-0.768,0.405-1.555,0.73-2.355,0.979L2770.851,2179.734z"/>
				</g>
			</g>
			<g>
				<g>
					<path style="fill:#371A45;" d="M2180.8,1811.089c11.504-16.128,23.29-31.76,35.37-47.334       c12.084-15.542,24.432-30.903,37.261-45.947c12.828-15.049,25.931-29.927,39.958-44.216       c14.047-14.287,28.56-28.274,45.327-40.989c7.588-5.754,18.405-4.268,24.158,3.32c5.754,7.588,4.268,18.403-3.32,24.158       c-0.322,0.244-0.649,0.474-0.983,0.693l-0.139,0.09c-15.164,9.858-29.843,22.004-44.102,34.604       c-14.303,12.625-28.06,26.16-41.603,39.929c-13.552,13.772-26.752,27.986-39.724,42.422       c-12.939,14.429-25.771,29.148-38.059,44.014l-0.062,0.076c-3.126,3.782-8.727,4.314-12.51,1.187       C2178.762,1820.112,2178.132,1814.849,2180.8,1811.089z"/>
				</g>
			</g>
		</g>
		<g>
			<g>
				<path style="fill:#FFFFFF;" d="M1931.363,1907.386l-96.141,140.199l-160.943,234.612l-8.998,13.12      c-35.637,8.067-70.743,14.228-105.36,18.572c-297.508,37.455-557.695-60.149-802.501-269.052      c-93.836-24.645-164.268-54.741-199.506-101.548c-32.889-43.704-35.017-102.036,3.28-184.081      c52.392-112.23,168.966-94.899,247.377-71.762c42.242,12.455,141.485,42.907,199.861,73.712      c25.797,13.608,53.367,25.974,82.311,37.144c220.427,85.547,519.487,105.537,695.102,109.35      C1874.272,1909.558,1931.363,1907.386,1931.363,1907.386z"/>
			</g>
		</g>
		<g style="opacity:0.25;">
			<g>
				<path style="fill:#371A45;" d="M865.9,1816.441c0.517,1.249,0.818,3.876,0.862,7.581      C865.513,1817.948,865.383,1815.149,865.9,1816.441z"/>
			</g>
		</g>
		<g style="opacity:0.25;">
			<g>
				<path style="fill:#371A45;" d="M1835.222,2047.585l-160.943,234.612l-8.998,13.12c-35.637,8.067-70.743,14.228-105.36,18.572      c-297.508,37.455-557.695-60.149-802.501-269.052c-93.836-24.645-164.268-54.741-199.506-101.548      c56.603,26.861,130.492,49.112,191.661,24.379c68.792-27.792,86.522-127.877,86.256-158.107      c9.884,48.536,88.738,300.257,451.892,356.771C1509.036,2200.772,1752.778,2089.738,1835.222,2047.585z"/>
			</g>
		</g>
		<g>
			<g>
				<path style="fill:#371A45;" d="M1438.127,2338.765c-242.493,0.01-469.592-92.056-688.899-278.252      c-126.78-33.76-192.761-73.347-220.288-132.036c-22.175-47.283-16.729-105.039,16.653-176.567      c43.564-93.337,133.694-120.579,267.864-80.986c63.02,18.601,149.399,46.709,203.03,75.002      c313.032,165.129,908.228,144.487,914.202,144.263c9.592-0.347,17.512,7.056,17.874,16.56      c0.361,9.507-7.051,17.51-16.558,17.874c-24.775,0.942-610.361,21.238-931.597-148.218      c-39.888-21.042-109.744-46.765-196.704-72.432c-116.931-34.502-191.147-14.063-226.885,62.512      c-28.794,61.697-34.25,109.897-16.68,147.361c22.695,48.391,84.888,83.657,201.658,114.348l3.809,1.001l2.996,2.559      c279.583,238.545,571.643,319.253,892.893,246.748c9.287-2.095,18.506,3.735,20.601,13.013      c2.095,9.282-3.73,18.506-13.013,20.601C1590.466,2329.858,1513.54,2338.765,1438.127,2338.765z"/>
			</g>
		</g>
		<g>
			<g>
				<path style="fill:#371A45;" d="M1125.984,2284.414c-6.934,0-13.469-4.219-16.094-11.079c-3.396-8.877,1.035-18.818,9.895-22.236      c0.735-0.283,53.665-21.401,100.295-79.448c62.651-77.983,85.081-182.454,66.665-310.498c-1.355-9.419,5.181-18.152,14.6-19.507      c9.426-1.353,18.152,5.183,19.507,14.6c24.863,172.871-27.166,279.536-75.19,338.579      c-52.559,64.609-111.06,87.505-113.523,88.447C1130.112,2284.043,1128.032,2284.414,1125.984,2284.414z"/>
			</g>
		</g>
		<g>
			<g>
				<path style="fill:#FFFFFF;" d="M1066.048,1788.31c-18.964-4.82-43.078-26.67-49.158-35.375      c-12.522-17.928-30.047-39.541-50.514-67.697c-35.074-48.252-117.113-109.417-155.199-79.228      c-60.78,48.176,40.842,112.763,42.119,128.223s-30.754,92.006,15.119,165.266L1066.048,1788.31z"/>
			</g>
		</g>
		<g>
			<g>
				<path style="fill:#371A45;" d="M1061.804,1805.007c-9.515-2.6-16.786-6.56-23.574-10.742c-6.7-4.253-12.777-8.879-18.59-13.875      c-2.904-2.512-5.727-5.095-8.525-7.937c-2.769-2.827-5.645-5.806-8.61-10.02c-3.767-5.369-7.754-10.762-11.823-16.179      l-24.918-32.871l-12.412-16.765c-3.848-5.286-7.642-10.037-11.897-14.902c-16.936-19.153-37.113-36.489-58.689-49.675      c-10.765-6.521-22.081-11.985-32.963-14.829c-10.927-2.932-20.778-2.573-26.338,1.223c-1.229,0.701-3.364,2.688-5.309,4.375      c-1.643,1.799-3.417,3.535-4.553,5.352c-2.518,3.606-3.812,7.014-4.163,10.701c-0.869,7.263,2.998,17.341,9.663,27.026      c6.583,9.78,15.283,19.224,24.596,28.743c4.675,4.817,9.521,9.548,14.678,15.071c2.581,2.859,5.162,5.552,8.43,10.439      c0.693,0.935,1.835,3.062,2.678,4.912c0.352,0.593,1.101,2.854,1.464,4.529c0.205,0.898,0.369,1.804,0.492,2.703      c0.115,0.894,0.046,0.969,0.073,1.497c0.013,1.68-0.028,3.372-0.127,5.051c-0.042,0.967-0.128,1.414-0.204,1.946l-0.236,1.602      c-1.269,8.455-2.926,14.563-4.197,21.189c-1.365,6.519-2.465,12.866-3.456,19.219c-1.968,12.69-2.738,25.303-2.629,37.837      c0.098,25.159,5.568,49.553,15.05,74.302l0.229,0.598c1.713,4.47-0.521,9.48-4.99,11.191c-3.594,1.377-7.544,0.19-9.841-2.646      c-2.288-2.832-4.608-5.693-6.813-8.657l-3.337-4.453c-0.995-1.553-1.901-3.162-2.858-4.751      c-1.912-3.184-3.762-6.426-5.552-9.714c-1.507-3.394-3.105-6.787-4.536-10.254c-5.479-13.901-9.367-28.696-10.657-43.611      c-1.452-14.912-0.912-29.868,0.67-44.431c0.748-7.283,1.941-14.497,3.215-21.467c1.229-6.887,2.746-14.17,3.529-19.309      l0.148-0.95c0.051-0.315,0.12-0.715,0.067-0.613c-0.039-0.037-0.022-0.063,0.05-0.1c0.016,0.1,0.048-0.261,0.059,0.215      c0.016,0.483,0.075,0.974,0.172,1.455c0.12,0.854,0.782,2.236,0.665,2.092c0.051,0.327,0.508,0.867,0.16,0.425      c-0.533-0.845-2.561-3.293-4.633-5.479c-4.18-4.568-9.088-9.526-13.933-14.624c-9.733-10.264-19.59-21.299-28.138-34.507      c-4.246-6.631-8.154-13.879-11.064-22.183c-2.891-8.245-4.666-17.864-3.578-27.876c1.001-10.01,5.135-19.707,10.636-27.222      c2.694-3.916,5.808-7.056,8.913-10.212c3.248-2.813,6.121-5.564,10.736-8.525c8.668-5.652,18.813-8.035,27.921-8.445      c9.208-0.41,17.694,0.957,25.564,3c15.742,4.189,29.347,11.033,42.08,18.682c25.313,15.544,47.273,34.487,66.777,56.458      c4.803,5.474,9.585,11.477,13.822,17.31l12.123,16.377l24.905,32.852c4.186,5.574,8.374,11.233,12.504,17.117      c0.964,1.436,2.822,3.481,4.872,5.544c2.021,2.058,4.27,4.121,6.564,6.104c4.608,3.965,9.507,7.671,14.415,10.784      c4.858,3.069,9.938,5.488,13.71,6.511l0.563,0.154c9.183,2.49,14.609,11.951,12.119,21.135      c-2.489,9.182-11.952,14.607-21.135,12.119L1061.804,1805.007z"/>
			</g>
		</g>
		<g>
			<g>
				<path style="fill:#FFFFFF;" d="M2851.238,3092.834c-49.879,53.497-140.85,79.556-218.339,53.497      c-111.043-37.344-157.045-208.217-157.045-208.217c-377.194-8.184-466.183-186.68-466.183-186.68l118.366-168.245      l128.186-182.286c55.565,68.831,122.845,112.378,190.901,143.649c122.113,56.082,246.854,72.449,311.334,123.578      c42.47,33.64,73.311,82.27,94.374,138.567c21.752,58.235,32.994,124.698,35.751,191.375      C2890.09,3034.254,2875.531,3066.774,2851.238,3092.834z"/>
			</g>
		</g>
		<g style="opacity:0.25;">
			<g>
				<path style="fill:#371A45;" d="M2852.831,2806.698c-41.437-28.601-96.14-32.391-165.789-27.998      c-148.646,9.433-244.786-68.099-244.786-68.099l4.867-166.048c122.113,56.082,246.854,72.449,311.334,123.578      C2800.928,2701.771,2831.768,2750.401,2852.831,2806.698z"/>
			</g>
		</g>
		<g style="opacity:0.25;">
			<g>
				<path style="fill:#371A45;" d="M2851.238,3092.834c-49.879,53.497-140.85,79.556-218.339,53.497      c-111.043-37.344-157.045-208.217-157.045-208.217c-377.194-8.184-466.183-186.68-466.183-186.68l118.366-168.245      c61.207,56.641,207.872,191.289,207.872,191.289s-5.384,62.844,60.001,97.561c86.405,45.916,259.216-11.242,263.049-12.491      c-4.393,3.058-168.244,117.935-32.736,214.204C2713.101,3135.433,2821.043,3103.645,2851.238,3092.834z"/>
			</g>
		</g>
		<g>
			<g>
				<path style="fill:#371A45;" d="M2696.904,3173.74c-23.784,0-47.363-3.618-69.497-11.064      c-101.504-34.141-151.106-166.064-164.451-207.676c-372.727-11.909-464.939-188.281-468.721-195.864      c-4.248-8.516-0.789-18.862,7.727-23.11c8.494-4.229,18.806-0.806,23.076,7.666c1.245,2.393,91.575,169.399,451.206,177.192      c7.651,0.166,14.275,5.361,16.265,12.749c0.435,1.611,45.002,162.451,145.884,196.387      c58.337,19.614,128.679,7.813,179.202-30.103c36.25-27.197,55.352-63.11,53.784-101.123      c-5.938-144.009-50.994-259.614-123.621-317.173c-34.307-27.188-88.843-44.458-151.992-64.463      c-111.938-35.454-251.25-79.575-352.944-205.405c-5.981-7.402-4.829-18.247,2.571-24.229c7.4-5.986,18.247-4.834,24.231,2.568      c95.178,117.769,229.011,160.156,336.548,194.219c66.387,21.025,123.721,39.185,162.988,70.308      c110.203,87.334,132.917,252.236,136.648,342.759c2.048,49.683-21.936,95.889-67.532,130.103      C2798.044,3157.671,2747.024,3173.74,2696.904,3173.74z"/>
			</g>
		</g>
		<g>
			<g>
				<path style="fill:#371A45;" d="M2281.418,2932.524c-9.517,0-17.229-7.715-17.229-17.231s7.712-17.231,17.229-17.231      c75.73,0,189.189-26.948,259.714-102.896c46.069-49.609,66.621-112.627,61.084-187.3c-0.703-9.492,6.418-17.754,15.908-18.457      c9.509-0.659,17.754,6.416,18.457,15.908c6.274,84.614-17.344,156.377-70.198,213.296      C2488.311,2902.69,2364.08,2932.524,2281.418,2932.524z"/>
			</g>
		</g>
		<g>
			<g>
				<path style="fill:#371A45;" d="M2665.999,2864.575c-1.787,2.485-3.137,4.019-4.727,5.845c-1.549,1.741-3.137,3.357-4.724,5.02      c-3.235,3.169-6.549,6.228-9.985,9.08c-3.385,2.949-6.979,5.525-10.494,8.276c-3.643,2.495-7.235,5.125-10.95,7.51      c-14.814,9.666-30.531,17.625-46.615,24.509c-16.042,7.109-32.611,12.576-49.268,17.788l-25.209,6.829l-25.449,5.693      c-9.301,2.083-18.527-3.772-20.608-13.071s3.772-18.525,13.071-20.608c0.47-0.105,0.94-0.19,1.409-0.254l0.715-0.098      l24.449-3.325l24.235-4.399c15.975-3.555,31.979-7.351,47.393-12.681c15.492-5.117,30.653-11.248,44.888-18.904      c3.575-1.887,6.997-3.984,10.521-5.967c3.331-2.195,6.823-4.255,10.022-6.606c3.286-2.28,6.399-4.707,9.438-7.205      c1.44-1.282,2.938-2.559,4.315-3.862c1.315-1.243,2.842-2.81,3.624-3.684l0.57-0.637c3.168-3.533,8.601-3.831,12.135-0.662      C2668.047,2856.111,2668.506,2861.06,2665.999,2864.575z"/>
			</g>
		</g>
		<g>
			<g>
				<path style="fill:#FFFFFF;" d="M2512.466,2686.824c-376.332,268.304-767.051-12.491-942.058-372.714      c-7.839-16.109-15.248-32.391-22.14-48.802c-27.998-65.988-48.587-133.829-60.518-200.851l302.203-145.114l213.601-102.558      l69.865-33.554c54.186,59.915,106.994,105.961,157.649,144.425c78.351,59.527,151.575,101.05,217.004,148.258      c67.625,48.802,126.894,103.635,174.792,190.643C2708.708,2422.526,2656.288,2584.31,2512.466,2686.824z"/>
			</g>
		</g>
		<g style="opacity:0.25;">
			<g>
				<path style="fill:#371A45;" d="M2512.466,2686.824c-246.811,175.955-499.78,115.738-694.041-48.113      c184.957,128.014,412.384,161.224,634.772,2.67c143.822-102.514,196.242-264.298,110.397-420.267      c-35.751-64.955-77.834-111.948-124.999-151.963c3.187,2.24,6.332,4.479,9.476,6.762      c67.625,48.802,126.894,103.635,174.792,190.643C2708.708,2422.526,2656.288,2584.31,2512.466,2686.824z"/>
			</g>
		</g>
		<g>
			<g>
				<path style="fill:#371A45;" d="M2512.498,2704.058c-5.381,0-10.681-2.515-14.045-7.231c-5.522-7.749-3.718-18.506,4.031-24.028      c143.679-102.427,184.019-254.902,105.278-397.93c-65.449-118.887-153.853-176.504-256.216-243.223      c-87.615-57.104-186.921-121.831-290.923-236.838c-6.382-7.056-5.835-17.952,1.223-24.333      c7.056-6.379,17.949-5.835,24.333,1.223c101.006,111.689,198.323,175.12,284.182,231.082      c106.235,69.243,197.983,129.038,267.585,255.469c86.536,157.188,41.213,330.918-115.464,442.607      C2519.451,2703.018,2515.957,2704.058,2512.498,2704.058z"/>
			</g>
		</g>
		<g>
			<g>
				<path style="fill:#371A45;" d="M1559.299,2269.236c33.311,59.363,67.087,117.534,105.801,172.559      c19.381,27.451,40.074,53.943,62.042,79.275c21.898,25.386,45.026,49.67,69.498,72.456      c24.554,22.668,49.906,44.48,76.821,64.146c26.895,19.673,54.971,37.646,84.108,53.604      c14.674,7.756,29.467,15.342,44.705,21.882c7.518,3.464,15.315,6.482,23.053,9.597c7.604,3.13,15.194,5.71,23.127,8.333      c15.774,5.051,31.653,10.078,47.629,14.968c15.986,4.905,32.032,9.739,48.241,15.303l0.199,0.068      c4.57,1.57,7.003,6.545,5.435,11.116c-1.199,3.489-4.403,5.73-7.875,5.901c-70.929,3.252-139.235-23.528-201.661-54.668      c-31.295-16.013-61.074-34.766-89.459-55.288c-28.423-20.486-55.331-42.961-80.598-67.073      c-50.817-47.974-95.281-102.119-134.156-159.717c-38.889-57.544-71.46-119.639-92.722-185.618      c-1.466-4.551,1.034-9.426,5.583-10.894c3.989-1.284,8.23,0.479,10.203,3.999L1559.299,2269.236z"/>
			</g>
		</g>
		<g>
			<g>
				<path style="fill:#FFFFFF;" d="M3269.911,2827.2c-40.058,74-136.069,111.388-227.298,90.885      c-117.849-26.533-183.191-196.888-183.191-196.888c-216.185,49.19-357.811-26.749-357.811-26.749s-51.731,53.497-174.361,82.141      l34.588-80.719l215.238-502.279c155.581,163.033,394.767,111.646,527.519,186.68c66.29,37.431,178.367,239.316,184.44,359.792      C3290.715,2772.756,3283.522,2802.089,3269.911,2827.2z"/>
			</g>
		</g>
		<g style="opacity:0.25;">
			<g>
				<path style="fill:#371A45;" d="M3269.911,2827.2c-40.058,74-136.069,111.388-227.298,90.885      c-117.849-26.533-183.191-196.888-183.191-196.888c-216.185,49.19-357.811-26.749-357.811-26.749s-51.731,53.497-174.361,82.141      l34.588-80.719c120.562-61.38,160.62-153.47,170.657-153.47c9.993,0,31.185,72.708,142.745,104.41      c274.808,78.049,367.545-100.834,385.765-98.638c18.263,2.197-167.211,203.005-59.786,286.136      C3072.721,2889.614,3192.25,2865.881,3269.911,2827.2z"/>
			</g>
		</g>
		<g>
			<g>
				<path style="fill:#371A45;" d="M2589.542,2181.716c22.22,23.071,47.526,43.003,75.133,59.363      c27.816,16.03,57.579,28.972,88.734,38.579c62.246,19.807,128.383,28.02,195.145,38.489c16.711,2.627,33.512,5.449,50.347,8.835      c16.826,3.337,33.711,7.2,50.499,12.234c16.777,4.998,33.5,10.989,49.736,18.765l12.019,6.27      c1.932,0.923,4.182,2.432,6.299,3.738c2.201,1.323,4.244,2.717,6.119,4.182c7.93,5.693,14.558,11.968,21.03,18.33      c25.149,25.764,44.825,54.192,63.094,83.401c18.137,29.263,34.125,59.641,48.425,90.854      c14.22,31.25,26.608,63.425,36.161,96.843c4.741,16.721,8.651,33.809,11.282,51.372c0.637,4.397,1.121,8.85,1.678,13.274      l1.019,13.501c0.059,4.6,0.253,9.194,0.162,13.801c-0.278,4.612-0.297,9.231-0.829,13.833      c-1.77,18.425-6.367,36.716-13.713,53.845c-7.255,17.188-17.57,32.966-29.697,46.919      c-24.296,28.093-56.516,47.849-90.697,59.746c-34.368,11.672-71.136,15.417-107.041,11.318      c-4.481-0.559-8.948-1.262-13.417-1.914c-4.447-0.903-8.84-1.677-13.325-2.712c-9.12-2.256-18.105-5.022-26.655-8.672      c-17.177-7.163-32.926-16.841-47.211-27.893c-28.585-22.241-51.404-49.639-71.1-78.401c-9.761-14.473-18.73-29.382-26.94-44.68      c-4.128-7.637-8.021-15.393-11.765-23.242c-3.765-7.947-7.23-15.596-10.68-24.287l-0.018-0.049l19.908,10.632l-22.952,4.526      l-11.478,2.256c-3.816,0.801-7.653,1.499-11.533,1.951l-23.201,3.174c-3.872,0.493-7.726,1.128-11.611,1.504l-11.682,0.925      l-23.365,1.833l-23.45,0.569l-11.725,0.261l-11.732-0.356c-7.82-0.298-15.648-0.354-23.459-0.862      c-31.257-1.987-62.385-6.409-93.038-13.359l-11.487-2.654l-11.395-3.115c-7.625-1.951-15.129-4.451-22.659-6.833      c-7.502-2.534-14.974-5.122-22.391-8.13c-3.708-1.477-7.417-2.944-11.124-4.634c-3.793-1.648-7.216-3.228-11.498-5.42      l-0.016-0.007l20.529-3.208c-2.269,2.146-3.794,3.369-5.631,4.875c-1.772,1.492-3.527,2.749-5.291,4.128      c-3.545,2.61-7.072,5.186-10.684,7.532c-7.161,4.844-14.51,9.165-21.921,13.315c-14.852,8.22-30.165,15.212-45.679,21.453      c-15.548,6.165-31.362,11.396-47.313,15.916c-7.947,2.358-16.042,4.131-24.033,6.213l-24.214,5.112      c-4.653,0.984-9.224-1.992-10.206-6.646c-0.927-4.392,1.67-8.706,5.874-10.005l0.414-0.127l22.921-7.004      c7.511-2.693,15.117-5.068,22.509-8c14.852-5.667,29.406-11.965,43.483-19.045c14.031-7.146,27.677-14.915,40.526-23.599      c6.393-4.368,12.683-8.857,18.569-13.66c3.005-2.349,5.824-4.834,8.612-7.29c1.324-1.248,2.773-2.485,3.994-3.733      c1.212-1.167,2.693-2.668,3.296-3.389c4.769-5.688,12.714-7.144,19.07-3.945l1.46,0.737l0.01,0.005      c2.495,1.262,5.964,2.913,9.154,4.275c3.215,1.472,6.582,2.8,9.94,4.138c6.677,2.712,13.597,5.105,20.499,7.439      c6.978,2.2,13.906,4.524,21.03,6.338l10.615,2.908l10.748,2.476c28.684,6.499,57.977,10.674,87.456,12.549      c7.366,0.481,14.764,0.52,22.145,0.808l11.077,0.347l11.088-0.259l22.177-0.527l22.133-1.748l11.067-0.867      c3.683-0.356,7.343-0.967,11.016-1.438l22.018-3.008c3.682-0.42,7.327-1.086,10.957-1.853l10.912-2.153l21.827-4.29l0.374-0.073      c8.376-1.646,16.53,3.027,19.537,10.706l0.011,0.027c2.751,6.934,6.191,14.617,9.634,21.853      c3.492,7.319,7.14,14.59,11.005,21.738c7.686,14.321,16.072,28.247,25.104,41.646c18.192,26.611,39.097,51.421,63.702,70.513      c12.286,9.5,25.453,17.512,39.312,23.293c6.908,2.966,14.041,5.12,21.224,6.926c3.699,0.854,7.592,1.531,11.376,2.317      l11.539,1.646c30.88,3.528,62.584,0.266,91.897-9.688c29.142-10.156,56.14-26.868,75.902-49.797      c20.074-22.654,32.252-51.328,35.076-81.382c1.515-14.988,0.542-30.32-1.814-46.101c-2.349-15.684-5.925-31.44-10.359-47.053      c-8.926-31.235-20.728-61.99-34.353-91.914c-13.696-29.897-29.084-59.131-46.371-87.014      c-17.281-27.739-36.307-54.844-58.208-77.214c-5.499-5.408-11.145-10.71-16.907-14.795c-1.431-1.14-2.859-2.104-4.276-2.93      c-1.467-0.886-2.667-1.799-4.534-2.693l-10.331-5.393c-14.1-6.75-29.105-12.158-44.528-16.75      c-15.411-4.629-31.334-8.286-47.473-11.484c-16.121-3.245-32.478-5.999-48.972-8.589      c-65.88-10.388-133.947-18.665-200.135-39.666c-33.083-10.21-65.394-24.163-95.806-41.724      c-30.237-17.893-58.209-39.912-82.616-65.288c-6.595-6.858-6.383-17.766,0.475-24.36c6.858-6.597,17.765-6.384,24.362,0.474      L2589.542,2181.716z"/>
			</g>
		</g>
		<g>
			<g>
				<path style="fill:#371A45;" d="M3069.243,2550.708c-3.09,12.329-7.257,23.352-12.023,34.585      c-4.707,11.165-10.409,21.887-16.569,32.388c-12.362,20.972-27.568,40.549-45.48,57.737      c-9.03,8.503-18.586,16.555-28.828,23.757c-10.332,7.051-21.108,13.569-32.496,18.906      c-22.694,10.828-47.307,17.534-72.035,20.171c-9.465,1.011-17.958-5.845-18.969-15.31c-0.956-8.962,5.138-17.053,13.823-18.745      l0.37-0.071c21.342-4.094,42.045-10.098,61.639-18.845c9.799-4.37,19.249-9.502,28.485-15.073      c9.122-5.754,17.979-12.034,26.39-18.967c16.775-13.926,31.926-30.164,45.331-47.988c6.714-8.914,12.719-18.372,18.547-27.979      c5.75-9.539,11.029-19.883,15.347-29.639l0.226-0.51c1.926-4.351,7.015-6.318,11.368-4.392      C3068.265,2542.456,3070.248,2546.714,3069.243,2550.708z"/>
			</g>
		</g>
		<g>
			<g>
				<path style="fill:#FFFFFF;" d="M3276.758,1573.853c-9.719,70.988-82.364,120.03-192.002,165.713      c-201.319,226.579-443.707,313.242-629.887,331.784c-17.825,1.836-35.158,3-51.864,3.583      c-9.226,0.358-18.228,0.493-27.051,0.493l-167.415-119.447l-215.874-154.068l-53.118-37.89c0,0,162.891-16.303,358.566-62.12      c173.864-40.667,373.615-104.668,507.886-201.229c51.953-37.353,143.14-79.766,182.06-97.367      c72.197-32.695,181.791-64.852,247.001,35.919C3269.323,1492.161,3281.953,1536.098,3276.758,1573.853z"/>
			</g>
		</g>
		<g style="opacity:0.25;">
			<g>
				<path style="fill:#371A45;" d="M3276.758,1573.853c-9.719,70.988-82.364,120.03-192.002,165.713      c-220.622,248.3-490.554,328.559-681.751,335.366c113.76-35.964,383.02-133.287,473.311-273.381      c75.735-117.387,94.68-176.462,84.334-317.944c-3.404-46.892,37.688,208.145,194.779,155.322      C3212.236,1619.828,3252.08,1600.457,3276.758,1573.853z"/>
			</g>
		</g>
		<g>
			<g>
				<path style="fill:#371A45;" d="M1937.836,1746.887c36.77-3.936,74.049-9.089,110.969-14.68      c36.985-5.625,73.883-11.885,110.654-18.784c73.528-13.838,146.625-29.978,218.749-49.424      c36.1-9.592,71.875-20.259,107.347-31.724c35.515-11.36,70.533-24.07,105.081-37.786      c34.601-13.606,68.448-28.887,101.425-45.618c16.602-8.196,32.589-17.378,48.672-26.404l23.49-14.47      c7.892-4.739,15.229-10.212,22.876-15.278l11.531-7.886c4.042-2.791,8.066-5.659,12.161-8.25      c8.143-5.359,16.367-10.422,24.653-15.291c16.56-9.775,33.326-18.899,50.214-27.69c33.867-17.556,67.848-33.74,102.771-49.329      c35.526-15.344,73.583-28.022,114.6-30.056c20.403-0.894,41.571,1.082,61.775,7.769c20.256,6.421,39.034,17.742,54.595,31.899      c7.638,7.2,14.9,14.81,21.019,23.113c3.291,4.019,5.944,8.381,8.926,12.571l7.765,12.488      c10.072,16.838,19.177,34.561,26.141,53.601c6.946,18.977,11.781,39.495,11.766,60.894c0.242,10.649-1.195,21.443-3.516,31.963      c-2.41,10.554-6.359,20.652-11.014,30.281c-9.819,18.992-23.201,35.413-38.062,49.141      c-14.88,13.789-31.027,25.447-47.611,35.864c-33.262,20.742-68.209,36.86-103.358,51.655l-0.048,0.022l6.249-4.458l-34.662,37.8      l-8.723,9.409c-2.999,3.044-6.145,5.95-9.211,8.931l-18.519,17.781l-18.54,17.771l-19.536,16.687      c-13.141,10.986-25.905,22.454-39.896,32.385c-54.318,41.743-112.667,78.647-174.803,107.82      c-61.934,29.509-127.009,52.439-193.815,67.869l-25.184,5.19c-8.403,1.672-16.763,3.54-25.271,4.663      c-16.99,2.332-33.871,5.237-51.007,6.26l-25.598,1.97l-25.69,0.474l-12.82,0.093c-4.279-0.12-8.56-0.308-12.834-0.53      c-8.55-0.42-17.081-0.935-25.587-1.558c-4.755-0.349-8.326-4.485-7.977-9.241c0.306-4.177,3.535-7.441,7.539-7.937l0.442-0.051      c8.315-1.035,16.604-1.96,24.874-2.793l12.393-1.216l12.352-1.736l24.655-3.188l24.518-4.033      c32.681-5.164,64.955-12.361,97.057-20.044c64.116-15.952,126.25-39.321,185.642-68.044l43.933-22.793l42.791-24.885      c13.945-8.813,27.605-18.091,41.429-27.104c7.014-4.363,13.494-9.497,20.143-14.387l19.873-14.78      c13.536-9.485,25.758-20.649,38.577-31.064l19.126-15.764l18.179-16.863l18.187-16.868c3.014-2.83,6.106-5.581,9.056-8.477      l8.585-8.962l34.567-35.674l3.053-3.152l3.197-1.309l0.046-0.017c34.136-14.348,67.705-29.934,98.306-49.041      c15.249-9.568,29.69-20.076,42.408-31.86c12.748-11.753,23.313-25.068,30.817-39.487c14.988-28.936,13.479-63.32,1.138-95.833      c-5.955-16.296-14.06-32.202-23.286-47.617l-7.128-11.47c-2.499-3.447-4.706-7.173-7.406-10.415      c-5.026-6.868-10.862-12.869-16.863-18.579c-12.264-11.096-26.41-19.639-42.047-24.6c-15.557-5.173-32.454-6.848-49.559-6.108      c-34.388,1.628-69.105,12.773-102.383,27.224c-33.761,15.071-67.726,31.238-100.635,48.311      c-16.472,8.572-32.751,17.437-48.579,26.782c-7.927,4.653-15.72,9.458-23.284,14.436c-3.855,2.437-7.483,5.037-11.182,7.583      l-11.75,8.042c-8.022,5.325-15.803,11.091-24.031,16.045l-24.547,15.115c-16.707,9.395-33.348,18.933-50.483,27.397      c-34.089,17.297-68.889,32.991-104.287,46.917c-35.356,14.036-71.091,26.997-107.22,38.557      c-36.095,11.667-72.433,22.498-109.031,32.224c-73.137,19.717-147.054,36.033-221.36,50.017      c-37.159,6.973-74.431,13.296-111.81,18.982c-37.45,5.662-74.7,10.828-112.725,14.9c-9.462,1.013-17.953-5.837-18.965-15.298      c-1.013-9.46,5.835-17.952,15.297-18.965L1937.836,1746.887z"/>
			</g>
		</g>
		<g>
			<g style="opacity:0.25;">
				<g>
					<path style="fill:#371A45;" d="M2297.314,1720.603c-10.467,65.299-29.979,130.125-59.183,192.452       c-2.283,4.911-4.652,9.778-7.064,14.602c-6.289,12.75-12.922,25.198-19.9,37.301       c-110.311,192.667-297.594,306.855-493.319,317.58c-11.63,0.603-23.259,0.862-34.932,0.819c-0.474,0-0.905,0-1.378-0.043       c-31.573-0.345-63.275-3.403-94.761-9.347c-12.879-2.412-25.715-5.298-38.508-8.658       c-27.998-65.988-48.587-133.829-60.518-200.851l302.203-145.114l213.601-102.558l-51.085-36.44       C1952.469,1780.345,2109.127,1764.667,2297.314,1720.603z"/>
				</g>
			</g>
			<g>
				<g>
					<g>
						<path style="fill:#FFFFFF;" d="M940.406,1784.2c47.208,105.044,121.263,198.814,218.713,270.48        c19.88,14.604,40.651,28.288,62.381,40.943c10.553,6.188,21.42,12.11,32.475,17.873c33.407,17.188,67.569,31.421,102.242,42.8        c29.861,9.879,60.123,17.589,90.481,23.281c36.659,6.893,73.552,10.737,110.31,11.738c13.407,0.32,26.783,0.29,40.126-0.089        c244.223-7.462,477.705-141.196,599.341-370.006c179.252-337.023,47.842-752.583-293.391-928.209        c-65.746-33.779-134.522-56.322-203.951-68.038c-8.101-1.446-16.278-2.664-24.468-3.711        c-21.887-2.948-43.795-4.856-65.666-5.721c-50.584-1.986-101.003,1.534-150.294,10.223        c-49.286,8.633-97.564,22.485-143.811,41.225c-14.709,5.95-29.219,12.377-43.536,19.338        c-21.446,10.443-42.384,21.906-62.768,34.566c-101.644,62.737-188.317,152.106-248.005,264.395        C857.461,1379.151,857.167,1598.971,940.406,1784.2z"/>
					</g>
					<g>
						<path style="fill:#371A45;" d="M1575.408,2193.315c-6.157,0-12.314-0.073-18.442-0.22        c-37.261-1.016-74.47-4.976-110.598-11.772c-30.908-5.796-61.428-13.647-90.708-23.34        c-34.988-11.479-69.475-25.913-102.5-42.905c-12.107-6.309-22.754-12.168-32.559-17.915        c-21.345-12.437-42.388-26.245-62.537-41.045c-95.186-70.002-171.011-163.777-219.282-271.189        c-87.07-193.757-79.697-412.625,20.23-600.479c57.761-108.667,143.74-200.327,248.643-265.076        c19.861-12.331,41.035-23.992,62.925-34.651c14.043-6.829,28.728-13.352,43.65-19.387        c46.367-18.789,94.873-32.695,144.17-41.328c49.763-8.772,100.442-12.217,150.671-10.249        c21.826,0.864,43.977,2.793,65.83,5.735c8.743,1.118,16.777,2.336,24.546,3.726c70.835,11.951,139.626,34.9,204.451,68.206        c166.13,85.503,288.069,229.866,343.35,406.494c54.844,175.227,37.371,361.367-49.199,524.133        c-117.524,221.082-347.761,363.22-600.859,370.95C1589.971,2193.213,1582.69,2193.315,1575.408,2193.315z M942.029,1783.469        c48.02,106.853,123.455,200.142,218.145,269.778c20.046,14.727,40.981,28.467,62.224,40.84        c9.758,5.718,20.354,11.553,32.4,17.832c32.849,16.899,67.161,31.26,101.975,42.686c29.136,9.639,59.497,17.451,90.251,23.223        c35.945,6.758,72.964,10.698,110.034,11.704c13.303,0.322,26.77,0.293,40.024-0.088        c251.821-7.69,480.894-149.106,597.82-369.06c86.121-161.919,103.503-347.09,48.945-521.399        c-54.995-175.713-176.304-319.329-341.58-404.39c-64.497-33.14-132.942-55.974-203.43-67.866        c-7.729-1.379-15.706-2.59-24.402-3.704c-21.755-2.927-43.792-4.849-65.508-5.706c-49.958-1.97-100.398,1.47-149.912,10.195        c-49.053,8.591-97.314,22.427-143.452,41.123c-14.846,6.006-29.458,12.495-43.428,19.289        c-21.78,10.606-42.844,22.205-62.607,34.478c-104.37,64.419-189.907,155.61-247.373,263.716        C862.749,1372.998,855.415,1590.723,942.029,1783.469L942.029,1783.469z"/>
					</g>
				</g>
				<g style="opacity:0.25;">
					<g>
						<path style="fill:#371A45;" d="M2196.472,1821.202c-121.615,228.837-355.132,362.583-599.352,370.006        c-13.344,0.397-26.711,0.43-40.099,0.097c-36.769-0.984-73.653-4.855-110.311-11.72        c-30.359-5.718-60.636-13.408-90.475-23.277c-34.696-11.371-68.841-25.605-102.275-42.796        c-11.026-5.799-21.893-11.693-32.471-17.863c-21.732-12.67-42.478-26.391-62.369-40.979        c-97.45-71.668-171.526-165.409-218.725-270.488c-25.944-57.7-43.784-118.805-52.917-181.414        c47.368,99.227,119.059,187.681,212.026,256.059c19.862,14.644,40.638,28.309,62.37,40.979        c10.535,6.184,21.402,12.078,32.471,17.863c33.434,17.191,67.579,31.425,102.232,42.811        c29.882,9.854,60.117,17.558,90.475,23.276c36.657,6.864,73.584,10.723,110.31,11.722c13.431,0.317,26.797,0.285,40.142-0.112        c244.22-7.424,477.695-141.155,599.352-370.006c71.007-133.482,93.217-279.28,73.013-417.58        C2299.843,1395.98,2302.29,1622.284,2196.472,1821.202z"/>
					</g>
				</g>
				<g>
					<g>
						<path style="fill:#371A45;" d="M1575.4,2205.249c-6.252,0-12.502-0.078-18.721-0.225        c-37.93-1.035-75.771-5.063-112.517-11.973c-31.428-5.894-62.468-13.882-92.253-23.74        c-35.554-11.665-70.627-26.343-104.209-43.623c-12.341-6.431-23.157-12.383-33.135-18.232        c-21.68-12.627-43.079-26.67-63.564-41.724c-96.846-71.218-173.992-166.626-223.103-275.913h-0.002        c-88.591-197.146-81.091-419.836,20.581-610.974c58.752-110.53,146.208-203.765,252.91-269.624        c20.178-12.532,41.711-24.39,63.967-35.225c14.292-6.951,29.229-13.586,44.399-19.722        c47.141-19.102,96.462-33.242,146.587-42.021c50.586-8.916,102.131-12.414,153.196-10.418        c22.205,0.879,44.731,2.839,66.958,5.833c8.86,1.133,17.085,2.38,25.051,3.806c71.929,12.134,141.89,35.471,207.805,69.338        c168.999,86.98,293.042,233.843,349.285,413.542c55.806,178.298,38.03,367.695-50.054,533.303        c-119.529,224.846-353.662,369.412-611.028,377.273C1590.208,2205.142,1582.803,2205.249,1575.4,2205.249z M952.913,1778.579        c47.18,104.98,121.294,196.636,214.331,265.054c19.702,14.478,40.281,27.983,61.16,40.142        c9.614,5.64,20.042,11.377,31.909,17.559c32.234,16.587,65.962,30.703,100.181,41.929        c28.657,9.487,58.501,17.163,88.73,22.837c35.332,6.641,71.719,10.513,108.159,11.509c13.059,0.308,26.318,0.278,39.36-0.088        c247.527-7.563,472.7-146.558,587.622-362.739c84.612-159.08,101.692-340.994,48.096-512.231        c-54.036-172.642-173.24-313.755-335.652-397.346c-63.401-32.573-130.679-55.019-199.956-66.706        c-7.646-1.367-15.432-2.546-23.928-3.633c-21.465-2.891-43.125-4.778-64.468-5.62c-49.104-1.924-98.689,1.44-147.371,10.024        c-48.235,8.447-95.684,22.051-141.04,40.43c-14.604,5.906-28.965,12.285-42.69,18.96        c-21.411,10.425-42.114,21.826-61.533,33.884c-102.595,63.325-186.658,152.942-243.13,259.18        c-97.664,183.601-104.871,397.5-19.778,586.858H952.913z"/>
					</g>
				</g>
				<g>
					<g>
						<path style="fill:#371A45;" d="M1575.4,2209.224c-6.284,0-12.566-0.073-18.816-0.225        c-38.152-1.04-76.206-5.088-113.157-12.036c-31.599-5.928-62.815-13.96-92.769-23.872        c-35.745-11.729-71.011-26.489-104.778-43.862c-12.419-6.475-23.293-12.461-33.328-18.34        c-21.792-12.695-43.308-26.816-63.909-41.948c-97.397-71.628-174.983-167.581-224.375-277.49h-0.002        c-89.099-198.276-81.555-422.244,20.696-614.473c59.085-111.15,147.031-204.912,254.333-271.14        c20.286-12.598,41.938-24.521,64.316-35.417c14.373-6.992,29.392-13.662,44.648-19.834        c47.397-19.206,96.992-33.423,147.393-42.251c50.859-8.967,102.698-12.483,154.038-10.474        c22.332,0.884,44.983,2.856,67.332,5.867c8.901,1.138,17.19,2.395,25.22,3.831c72.297,12.195,142.644,35.662,208.926,69.717        c169.954,87.471,294.697,235.168,351.262,415.894c56.125,179.321,38.247,369.802-50.337,536.357        c-120.198,226.104-355.63,371.475-614.421,379.38C1590.288,2209.121,1582.842,2209.224,1575.4,2209.224z M956.543,1776.948        c46.897,104.355,120.571,195.466,213.057,263.481c19.587,14.39,40.049,27.817,60.806,39.907        c9.565,5.61,19.937,11.313,31.746,17.471c32.029,16.479,65.562,30.513,99.583,41.675        c28.499,9.434,58.167,17.065,88.225,22.705c35.127,6.606,71.301,10.454,107.532,11.44c12.979,0.313,26.165,0.278,39.138-0.088        c246.096-7.515,469.971-145.703,584.226-360.625c84.106-158.135,101.086-338.962,47.81-509.18        c-53.713-171.616-172.217-311.895-333.677-394.995c-63.032-32.385-129.922-54.702-198.799-66.323        c-7.617-1.36-15.337-2.532-23.77-3.608c-21.367-2.878-42.9-4.753-64.119-5.591c-48.833-1.931-98.123,1.433-146.523,9.966        c-47.964,8.401-95.142,21.926-140.239,40.2c-14.521,5.874-28.796,12.214-42.444,18.85        c-21.287,10.366-41.87,21.699-61.172,33.687c-102.007,62.959-185.576,152.051-241.719,257.668        C879.123,1376.096,871.958,1588.721,956.543,1776.948L956.543,1776.948z"/>
					</g>
				</g>
				<g>
					<g>
						<path style="fill:#371A45;" d="M1033.144,1934.682c384.815,311.744,955.561,153.497,1024.178-329.094        c46.683-328.327-243.216-625.845-565.815-648.841c-234.792-16.737-471.773,68.205-598.912,420.431        c0,0-31.885,164.416,4.732,278.261c36.617,113.846,91.74,218.413,91.74,218.413L1033.144,1934.682z"/>
					</g>
				</g>
				<g>
					<g>
						<path style="fill:#220F2D;" d="M2057.302,1605.59c-68.604,482.58-639.363,640.821-1024.164,329.11l-8.923-12.341        c442.101,112.912,910.527-118.029,989.105-604.717C2054.086,1405.885,2071.692,1504.267,2057.302,1605.59z"/>
					</g>
				</g>
				<g>
					<g>
						<path style="fill:#371A45;" d="M1476.948,2183.75c-40.969,0-82.295-3.291-123.564-9.995l-2.681-0.649        c-35.789-11.743-71.055-26.504-104.822-43.877c-12.419-6.475-23.293-12.461-33.328-18.34        c-21.792-12.695-43.308-26.816-63.909-41.948c-97.397-71.628-174.983-167.581-224.375-277.49h-0.002        c-89.099-198.276-81.555-422.244,20.698-614.473c59.082-111.15,147.029-204.912,254.331-271.14l1.545-0.955l1.709-0.62        c86.553-31.428,185.078-43.462,292.791-35.786c193.884,13.821,385.273,115.762,511.965,272.695        c114.082,141.313,163.896,310.63,140.269,476.76c-25.732,180.847-113.245,330.808-253.076,433.674        C1777.288,2137.827,1629.814,2183.75,1476.948,2183.75z M1360.42,2139.053c185.488,29.761,372.439-12.461,513.113-115.947        c132-97.104,214.651-238.933,239.014-410.156c22.231-156.306-24.919-315.959-132.769-449.551        c-120.64-149.436-302.678-246.494-486.951-259.629c-102.019-7.268-195.042,3.87-276.494,33.135        c-101.262,62.878-184.27,151.604-240.129,256.685c-97.08,182.507-104.246,395.132-19.661,583.359        c46.897,104.355,120.571,195.466,213.057,263.481c19.587,14.39,40.049,27.817,60.806,39.907        c9.568,5.61,19.937,11.318,31.746,17.471C1293.767,2114.072,1326.851,2127.959,1360.42,2139.053z"/>
					</g>
				</g>
				<g>
					<g>
						<path style="fill:#371A45;" d="M1477.246,2113.442c-159.775,0-321.611-56.763-455.237-165.012l-1.819-1.475l-46.772-64.854        c-2.28-4.324-56.265-107.244-92.932-221.245c-37.576-116.829-6.594-280.151-5.259-287.048l0.727-2.637        c111.157-307.954,318.633-453.345,616.809-432.07c173.025,12.334,343.813,103.293,456.86,243.32        c101.838,126.14,146.306,277.31,125.212,425.657c-30.571,215.015-161.848,383.018-360.168,460.93        C1638.684,2098.857,1558.23,2113.442,1477.246,2113.442z M1046.089,1922.397c191.248,153.921,442.268,197.51,655.64,113.682        c186.125-73.125,309.351-230.94,338.079-432.981c19.697-138.525-22.107-280.032-117.712-398.45        c-106.995-132.529-268.433-218.606-431.846-230.254c-280.002-19.988-475.283,117.107-580.525,407.439        c-2.817,15.481-28.662,165.261,4.443,268.188c33.77,104.99,84.099,203.159,89.985,214.5L1046.089,1922.397z"/>
					</g>
				</g>
				<g>
					<g>
						<path style="fill:#FFFFFF;" d="M2368.307,1598.77c-2.576,135.718-86.002,248.256-186.37,251.339        c-100.368,3.083-179.64-104.449-177.064-240.167c0-0.85,0.041-1.752,0.088-2.608        c3.556-134.551,86.619-245.679,186.282-248.731c77.535-2.386,142.478,61.249,166.838,152.875        C2365.238,1538.458,2368.89,1567.906,2368.307,1598.77z"/>
					</g>
				</g>
				<g style="opacity:0.25;">
					<g>
						<path style="fill:#371A45;" d="M2368.307,1598.77c-2.576,135.718-86.002,248.256-186.37,251.339        c-100.368,3.083-179.64-104.449-177.064-240.167c0-0.85,0.041-1.752,0.088-2.608c10.77,13.588,27.683,26.776,51.039,21.439        c40.906-9.367,115.696-98.885,115.696-98.885s80.775-8.51,186.385-18.411        C2365.238,1538.458,2368.89,1567.906,2368.307,1598.77z"/>
					</g>
				</g>
				<g>
					<g>
						<path style="fill:#371A45;" d="M2177.651,1867.852c-42.361,0-82.095-17.19-115.198-49.907        c-49.419-48.843-76.853-124.785-75.266-208.352c2.749-144.788,94.053-265.313,203.535-268.672        c44.124-1.333,85.669,15.876,120.024,49.834c49.419,48.84,76.853,124.783,75.269,208.352v0.002        c-2.749,144.783-94.053,265.308-203.535,268.669C2180.869,1867.827,2179.255,1867.852,2177.651,1867.852z M2195.466,1376.23        c-1.218,0-2.437,0.017-3.66,0.056c-90.925,2.788-166.848,107.749-169.243,233.977        c-1.382,72.839,22.827,141.069,64.761,182.515c27.297,26.98,59.836,40.74,94.072,39.634        c90.925-2.791,166.848-107.751,169.243-233.975c1.382-72.842-22.83-141.074-64.763-182.52        C2259.553,1389.902,2228.364,1376.23,2195.466,1376.23z M2368.328,1598.772h0.049H2368.328z"/>
					</g>
				</g>
				<g>
					<g>
						
							<ellipse transform="matrix(0.1147 -0.9934 0.9934 0.1147 372.1691 3669.1238)" style="fill:#FFFFFF;" cx="2244.663" cy="1625.755" rx="195.401" ry="147.71"/>
					</g>
					<g>
						<path style="fill:#371A45;" d="M2234.98,1822.583c-18.833,0-37.363-4.744-54.927-14.197        c-74.69-40.193-106.626-154.761-71.196-255.388c19.751-56.091,56.873-98.245,101.843-115.647        c33.425-12.944,67.51-10.945,98.572,5.774c74.69,40.19,106.626,154.758,71.194,255.388l-1.746-0.615l1.746,0.615        c-19.751,56.089-56.87,98.24-101.838,115.645C2264.104,1819.78,2249.451,1822.583,2234.98,1822.583z M2254.331,1432.637        c-14.023,0-28.218,2.715-42.295,8.164c-43.962,17.014-80.298,58.357-99.688,113.428        c-34.854,98.979-3.694,211.533,69.458,250.901c30.083,16.191,63.101,18.115,95.486,5.579        c43.96-17.014,80.293-58.354,99.683-113.425c34.856-98.982,3.696-211.536-69.456-250.901        C2290.515,1437.231,2272.568,1432.637,2254.331,1432.637z"/>
					</g>
				</g>
				<g style="opacity:0.25;">
					<g>
						<path style="fill:#371A45;" d="M2103.512,1706.339c-8.468-36.021-6.937-74.492,2.562-110.496        c26.329,80.51,99.591,114.31,169.949,75.461c45.475-25.085,79.252-74.778,93.92-130.498c1.694,5.067,3.149,10.39,4.445,15.85        c21.519,91.736-21.669,199.614-96.482,240.942C2203.092,1838.926,2125.03,1798.023,2103.512,1706.339z"/>
					</g>
				</g>
				<g>
					<g>
						<path style="fill:#371A45;" d="M2237.192,1838.787c-31.182,0-60.598-12.778-85.332-37.129        c-39.966-39.351-62.856-105.181-61.23-176.099c2.744-119.644,73.987-219.636,158.811-222.903        c32.849-1.248,63.855,11.548,89.753,37.043c39.968,39.348,62.856,105.181,61.23,176.099l0,0        c-2.744,119.644-73.987,219.636-158.811,222.903C2240.137,1838.757,2238.66,1838.787,2237.192,1838.787z M2253.76,1437.957        c-0.984,0-1.97,0.017-2.957,0.056c-66.492,2.559-122.476,87.056-124.802,188.357c-1.406,61.343,17.542,117.444,50.684,150.073        c18.77,18.477,40.781,27.847,63.567,26.902c66.492-2.559,122.478-87.056,124.802-188.357        c1.406-61.343-17.542-117.446-50.681-150.073C2296.416,1447.236,2275.518,1437.957,2253.76,1437.957z M2382.739,1615.393        h0.049H2382.739z"/>
					</g>
				</g>
				<g style="opacity:0.5;">
					<g>
						<path style="fill:#FFFFFF;" d="M1647.981,1089.307c0,0-317.078-2.643-504.366,164.117c-0.197,0.175-0.393,0.351-0.59,0.526        c-39.387,35.131-68.452,80.116-84.486,129.999c-21.205,65.968-26.026,114.46-28.6,157.306        c-7.768,130.307,13.314,192.723,13.314,192.723c-71.063-72.971-108.76-153.454-103.38-262.051        c0.559-10.704,1.536-21.723,2.902-33.003c0.305-2.6,0.667-5.17,1.071-7.756c-0.056-0.028-0.027-0.083,0.046-0.152        c4.394-22.66,11.308-52.227,21.931-84.944c31.979-98.695,97.416-226.128,228.389-279.752        C1439.105,966.048,1659.677,1076.295,1647.981,1089.307z"/>
					</g>
				</g>
				<g style="opacity:0.5;">
					<g>
						
							<ellipse transform="matrix(0.9772 -0.2125 0.2125 0.9772 -259.8536 428.6519)" style="fill:#FFFFFF;" cx="1863.933" cy="1423.026" rx="93.303" ry="107.177"/>
					</g>
				</g>
				<g style="opacity:0.5;">
					<g>
						
							<ellipse transform="matrix(0.9532 -0.3024 0.3024 0.9532 -398.844 651.2412)" style="fill:#FFFFFF;" cx="1903.696" cy="1613.647" rx="38.514" ry="44.273"/>
					</g>
				</g>
			</g>
		</g>
		<g>
			<g>
				<g>
					<path style="fill:#FFFFFF;" d="M2754.326,1534.42c17.562-7.154,37.8-31.341,42.476-40.507       c9.632-18.879,23.575-41.96,39.471-71.716c27.241-50.992,97.844-120.638,138.428-96.733       c64.764,38.149-24.183,113.689-23.349,128.699c0.834,15.01,41.781,84.224,7.505,160.661L2754.326,1534.42z"/>
				</g>
			</g>
			<g>
				<g>
					<path style="fill:#371A45;" d="M2747.826,1518.464c3.4-1.448,7.924-4.421,12.152-7.993c4.271-3.621,8.464-7.815,12.343-12.214       c1.93-2.2,3.806-4.47,5.463-6.702c1.682-2.241,3.18-4.436,3.89-5.896c3.185-6.208,6.454-12.202,9.731-18.113l19.529-34.854       l9.452-17.329c3.296-6.174,7.098-12.595,10.988-18.499c7.867-11.921,16.515-23.083,25.939-33.621       c9.382-10.564,19.479-20.557,30.656-29.712c11.206-9.109,23.365-17.573,38.011-23.792c7.33-3.059,15.364-5.552,24.379-6.462       c8.918-0.881,19.178,0.01,28.478,4.324c4.961,2.256,8.114,4.539,11.66,6.829c3.461,2.651,6.924,5.286,10.1,8.745       c6.411,6.589,11.814,15.542,14.175,25.234c2.467,9.683,2.001,19.358,0.267,27.773c-1.743,8.486-4.642,16.016-7.908,22.976       c-6.598,13.877-14.749,25.72-22.787,36.843l-11.61,15.747c-1.711,2.354-3.342,4.956-3.739,5.779       c-0.277,0.461,0.098-0.151,0.105-0.498c-0.095,0.146,0.365-1.309,0.364-2.17c0.029-0.491,0.018-0.984-0.032-1.465       c-0.055-0.471,0.023-0.127,0.022-0.229c0.068,0.007,0.079,0.015,0.038,0.042c-0.07-0.103,0.046,0.273,0.134,0.569l0.259,0.886       c1.376,4.817,3.807,11.619,5.862,18.081c2.133,6.533,4.166,13.323,5.92,20.203c3.579,13.75,5.99,28.081,6.541,42.603       c1.288,29.028-6.072,58.896-21.489,82.8c-2.605,4.038-7.992,5.2-12.031,2.595c-3.093-1.995-4.5-5.62-3.818-9.023l0.128-0.623       c2.559-12.607,5.393-24.595,5.791-36.892c0.323-3.022,0.356-6.077,0.367-9.121c-0.031-3.044,0.255-6.04-0.087-9.089       l-0.402-9.063l-1.062-9.043c-1.608-12.034-4.127-23.992-7.587-35.93c-1.731-5.979-3.706-11.902-5.903-17.964       c-2.146-6.177-4.545-11.809-6.951-19.768l-0.448-1.511c-0.148-0.5-0.293-0.918-0.468-1.851       c-0.327-1.614-0.601-3.247-0.819-4.878c-0.045-0.515-0.123-0.579-0.134-1.465c-0.004-0.894,0.032-1.799,0.109-2.705       c0.123-1.682,0.548-3.994,0.807-4.614c0.564-1.917,1.383-4.143,1.924-5.142c2.489-5.186,4.597-8.132,6.68-11.245       c4.171-6.038,8.057-11.328,11.899-16.567c7.609-10.403,14.543-20.691,19.408-30.898c4.961-10.154,7.059-20.098,5.421-26.487       c-0.76-3.276-2.316-6.179-5.083-9.197c-1.265-1.533-3.143-2.927-4.901-4.402c-2.039-1.335-4.323-2.935-5.46-3.418       c-5.355-2.815-14.644-2.114-24.659,2.097c-9.973,4.08-20.096,10.75-29.562,18.374c-18.987,15.364-36.053,34.661-49.706,55.266       c-3.429,5.229-6.425,10.273-9.41,15.85l-9.684,17.756l-19.541,34.873c-3.184,5.74-6.289,11.443-9.186,17.09       c-2.31,4.487-4.686,7.747-6.976,10.845c-2.319,3.11-4.692,5.979-7.153,8.787c-4.932,5.586-10.165,10.854-16.055,15.85       c-5.986,4.939-12.468,9.739-21.34,13.54c-8.745,3.748-18.872-0.303-22.62-9.048s0.303-18.872,9.048-22.62l0.037-0.017       L2747.826,1518.464z"/>
				</g>
			</g>
		</g>
		<g>
			<g>
				<g>
					<path style="fill:#FFFFFF;" d="M1572.042,2505.65l300.837,243.192l234.852-34.126l124.189-18.044       c0,0,84.635-58.864,104.987-73.459c27.636-19.74,6.082-53.802-13.257-70.869c-33.082-29.239-60.973-59.616-85.092-89.327       c-38.912-47.972-68.055-94.33-93.698-131.787c-21.035-30.754-60.176-43.583-95.229-30.865       c-209.166,76.005-420.822,127.063-420.822,127.063L1572.042,2505.65z"/>
				</g>
			</g>
			<g>
				<g>
					<path style="fill:#371A45;" d="M1872.871,2764.048c-3.455,0-6.831-1.182-9.548-3.379l-300.837-243.228       c-6.284-5.083-7.488-14.194-2.739-20.737l56.772-78.184c2.122-2.92,5.215-4.99,8.726-5.84       c2.109-0.508,213.289-51.782,419.209-126.592c41.467-15.059,87.917-0.029,112.957,36.558       c5.642,8.247,11.455,16.919,17.505,25.947c38.081,56.831,85.474,127.554,158.813,192.363       c15.986,14.126,32.646,37.461,31.46,60.591c-0.703,13.667-7.427,25.439-19.446,34.038       c-20.193,14.453-101.682,71.147-105.142,73.555c-1.936,1.343-4.158,2.222-6.489,2.559l-359.055,52.188       C1874.329,2763.994,1873.596,2764.048,1872.871,2764.048z M1592.8,2502.886l284.458,229.985l348.936-50.718       c15.125-10.522,83.982-58.472,101.87-71.274c5.73-4.097,6.636-7.974,6.785-10.889c0.564-10.996-10.256-26.567-21.235-36.27       c-76.279-67.402-124.88-139.937-163.933-198.218c-5.994-8.94-11.75-17.534-17.339-25.698       c-17.212-25.151-49.089-35.498-77.517-25.161c-189.016,68.667-382.346,117.637-416.992,126.226L1592.8,2502.886z"/>
				</g>
			</g>
			<g style="opacity:0.3;">
				<g>
					<path style="fill:#371A45;" d="M2107.731,2714.716l124.189-18.044c0,0,84.635-58.864,104.987-73.459       c21.105-15.063,13.522-38.532,0.158-56.358c-4.145-5.519-8.853-10.461-13.415-14.51       c-33.082-29.239-60.973-59.616-85.092-89.327c-1.118,16.572-26.919,35.844-65.939,31.157       c-17.727-2.13-75.264-65.557-104.09-68.079C1984.418,2418.704,2066.812,2632.946,2107.731,2714.716z"/>
				</g>
			</g>
			<g>
				<g>
					<path style="fill:#FFFFFF;" d="M2562.311,2108.202c21.482,16.408,33.56,43.749,30.197,68.155       c-42.366,307.476-320.487,432.67-385.873,375.153c-59.944-52.73-24.34-108.512-24.34-108.512s215.689-58.601,291.048-322.221       c9.76-34.143,48.783-43.268,80.691-18.896L2562.311,2108.202z"/>
				</g>
			</g>
			<g style="opacity:0.3;">
				<g>
					<path style="fill:#371A45;" d="M2206.623,2551.506c65.404,57.526,343.524-67.669,385.882-375.158       c3.346-24.401-8.7-51.72-30.204-68.155l-8.248-6.316c-11.595-8.862-24.116-13.299-35.835-13.691       c8.854,14.319,12.972,31.061,10.853,46.63c-36.287,263.479-245.668,393.109-346.031,388.636       C2188.362,2532.704,2196.001,2542.161,2206.623,2551.506z"/>
				</g>
			</g>
			<g>
				<g>
					<path style="fill:#371A45;" d="M2251.597,2582.388c-23.403,0-42.756-5.991-56.34-17.944       c-56.189-49.424-42.546-107.114-27.485-130.713l3.582-5.615l6.426-1.743c2.036-0.562,207.39-59.819,279.001-310.332       c5.798-20.278,20.117-35.557,39.29-41.909c21.841-7.231,47.419-1.987,68.423,14.058l8.279,6.323       c26.196,20.01,40.989,53.848,36.804,84.199c-28.35,205.747-163.921,343.564-285.703,388.877       C2297.327,2577.466,2272.8,2582.388,2251.597,2582.388z M2194.18,2457.373c-5.786,12.954-15.144,46.909,23.835,81.201       c15.352,13.501,52.185,12.212,93.84-3.281c112.173-41.738,237.178-169.634,263.584-361.289       c2.505-18.164-7.195-39.59-23.584-52.109h-0.002l-8.276-6.323c-11.941-9.121-25.654-12.388-36.667-8.73       c-8.425,2.793-14.304,9.248-17,18.672C2419.766,2370.898,2234.177,2444.214,2194.18,2457.373z"/>
				</g>
			</g>
			<g>
				<g>
					<path style="fill:#FFFFFF;" d="M1828.801,2710.295c20.08,24.136,42.22,56.159,42.22,56.159s52.805-35.973,56.773-39.274       c13.126-10.921,0.437-47.816-28.342-82.409c-28.779-34.592-62.751-53.782-75.877-42.862       c-9.605,7.991-52.323,36.435-52.323,36.435S1821.081,2701.015,1828.801,2710.295z"/>
				</g>
			</g>
			<g>
				<g>
					
						<ellipse transform="matrix(0.7687 -0.6396 0.6396 0.7687 -1306.6654 1789.9855)" style="fill:#FFFFFF;" cx="1821.827" cy="2701.826" rx="41.159" ry="81.478"/>
				</g>
			</g>
			<g>
				<g>
					<path style="fill:#FFFFFF;" d="M1581.543,2520.606c23.511,25.198,60.726,65.356,101.005,106.198       c57.643,58.425,121.456,118.202,159.952,137.182c66.983,33.011,266.219-18.949,389.461-67.332       c32.342-12.696,42.914-52.534,17.241-75.99c-41.99-38.386-79.616-77.507-110.856-112.219       c-29.578-32.85-53.43-61.721-69.816-82.351c-15.03-18.923-40.778-25.492-63.121-16.294       c-194.12,80.12-345.114,87.037-412.224,84.971C1579.538,2494.351,1572.213,2510.59,1581.543,2520.606z"/>
				</g>
			</g>
			<g style="opacity:0.3;">
				<g>
					<path style="fill:#371A45;" d="M1770.275,2700.107c26.094,23.753,50.652,44.052,70.614,56.578       c4.717,3.007,9.193,5.562,13.356,7.605c64.861,31.966,257.787-18.349,377.126-65.199       c31.318-12.294,41.554-50.871,16.695-73.583c-40.66-37.171-77.095-75.052-107.345-108.664       c2.336,36.533-7.021,118.883-124.355,175.641c-30.388,14.667-64.927,18.733-100.819,15.8       c1.072-16.181-8.375-42.392-25.887-68.225c-24.423-36.077-55.368-57.785-69.036-48.52       c-8.368,5.687-40.345,22.888-50.664,28.444c-1.688,0.589-3.292,1.372-4.795,2.39c-9.671,6.525-12.759,20.708-9.915,37.93       C1757.308,2672.593,1762.381,2686.403,1770.275,2700.107z"/>
				</g>
			</g>
			<g style="opacity:0.3;">
				<g>
					<path style="fill:#371A45;" d="M1823.987,2743.672c-9.499-13.285-16.11-26.965-19.47-39.386       c-21.253-7.539-41.63-15.762-60.36-23.995C1770.52,2702.24,1798.006,2724.318,1823.987,2743.672z"/>
				</g>
			</g>
			<g>
				<g>
					<path style="fill:#371A45;" d="M1904.375,2789.57c-27.878,0-51.567-3.599-68.586-11.987       c-65.769-32.422-196.736-172.974-259.675-240.522l-5.693-6.108c-8.447-9.058-10.603-22.192-5.493-33.467       c5.1-11.255,16.438-18.296,28.74-17.905c70.525,2.192,216.98-5.845,405.938-83.809c28.469-11.738,61.692-3.154,80.811,20.884       l0,0c31.743,39.917,97.212,118.042,179.033,192.803c15.356,14.028,22.031,33.608,18.306,53.706       c-3.982,21.499-19.028,39.307-40.249,47.637C2144.456,2747.324,1999.885,2789.57,1904.375,2789.57z M1592.734,2509.941       l5.603,6.411c56.887,61.055,190.11,204.023,250.884,233.984c55.977,27.593,239.373-13.721,377.185-67.817       c11.389-4.468,19.419-13.774,21.479-24.888c1.04-5.62,1.265-16.436-8.931-25.752       c-83.369-76.172-150.012-155.693-182.314-196.318c-10.74-13.501-29.434-18.33-45.449-11.704       C1816.995,2503.975,1665.635,2512.139,1592.734,2509.941z"/>
				</g>
			</g>
			<g>
				<g>
					<g>
						<path style="fill:#22A7F0;" d="M1828.801,2710.295c20.08,24.136,42.22,56.159,42.22,56.159s52.805-35.973,56.773-39.274        c13.126-10.921,0.437-47.816-28.342-82.409c-28.779-34.592-62.751-53.782-75.877-42.862        c-9.605,7.991-52.323,36.435-52.323,36.435S1821.081,2701.015,1828.801,2710.295z"/>
					</g>
				</g>
				<g style="opacity:0.8;">
					<g>
						<path style="fill:#FFFFFF;" d="M1771.269,2638.348c0,0,49.813,62.642,57.519,71.959        c20.094,24.112,42.224,56.166,42.224,56.166s1.049-0.73,2.845-1.923c-7.649-10.301-16.971-22.632-25.893-33.331        c-7.744-9.296-57.578-71.976-57.578-71.976s42.744-28.441,52.364-36.415c10.623-8.879,35.079,2.1,59.327,25.117        c-0.888-1.062-1.716-2.107-2.604-3.169c-28.79-34.585-62.752-53.785-75.9-42.859        C1813.953,2609.889,1771.269,2638.348,1771.269,2638.348z"/>
					</g>
				</g>
				<g style="opacity:0.3;">
					<g>
						<path style="fill:#371A45;" d="M1838.141,2721.969c17.067,21.627,32.871,44.503,32.871,44.503s52.793-36.001,56.777-39.306        c13.11-10.905,0.435-47.786-28.316-82.392c-9.707-11.668-20.01-21.603-29.921-29.2c22.439,30.982,31.235,61.39,19.567,71.097        C1885.949,2689.276,1851.997,2712.505,1838.141,2721.969z"/>
					</g>
				</g>
				<g>
					<g>
						<path style="fill:#371A45;" d="M1871.033,2779.111c-4.019,0.005-7.969-1.904-10.425-5.459        c-0.217-0.317-22.061-31.855-41.536-55.264c-7.722-9.277-55.691-69.604-57.729-72.168c-2.205-2.773-3.147-6.343-2.598-9.839        c0.549-3.501,2.542-6.611,5.491-8.574c11.726-7.808,43.792-29.429,51.243-35.625c23.008-19.15,64.705,9.639,93.701,44.492        c14.878,17.881,26.287,37.08,32.126,54.063c9.695,28.188,0.767,41.025-5.42,46.172c-4.111,3.423-45.234,31.484-57.739,40.005        C1875.967,2778.398,1873.486,2779.111,1871.033,2779.111z M1789.707,2641.211c14.58,18.315,43.223,54.258,48.823,60.986l0,0        c13.359,16.055,27.4,35.234,35.652,46.777c21.763-14.873,43.01-29.526,45.569-31.572c3.252-4.399-2.839-31.851-30.032-64.536        c-27.192-32.681-53.091-43.657-58.145-41.162C1824.724,2617.417,1803.337,2632.021,1789.707,2641.211z"/>
					</g>
				</g>
				<g>
					<g>
						
							<ellipse transform="matrix(0.7687 -0.6396 0.6396 0.7687 -1306.6654 1789.9855)" style="fill:#22A7F0;" cx="1821.827" cy="2701.826" rx="41.159" ry="81.478"/>
					</g>
				</g>
				<g style="opacity:0.8;">
					<g>
						<path style="fill:#FFFFFF;" d="M1790.197,2728.135c1.899,2.257,3.794,4.416,5.745,6.493        c-17.992-29.282-21.718-58.585-7.32-70.603c16.335-13.59,50.211-0.254,78.069,29.836c-3.807-6.161-8.224-12.337-13.203-18.352        c-28.79-34.585-66.301-50.871-83.754-36.312C1752.26,2653.716,1761.407,2693.55,1790.197,2728.135z"/>
					</g>
				</g>
				<g style="opacity:0.3;">
					<g>
						<path style="fill:#371A45;" d="M1792.712,2731.053c28.394,32.6,64.238,47.502,81.238,33.394        c17.474-14.521,8.289-54.333-20.463-88.939c-15.055-18.08-32.455-31.156-48.161-37.453c0.824,0.947,1.649,1.894,2.434,2.863        c28.752,34.606,37.937,74.418,20.424,88.96C1819.896,2736.816,1807.018,2736.721,1792.712,2731.053z"/>
					</g>
				</g>
				<g>
					<g>
						<path style="fill:#371A45;" d="M1857.607,2782.466c-23.333,0-52.627-16.743-77.151-46.221        c-34.321-41.25-42.419-87.158-18.835-106.787c23.589-19.614,67.256-3.301,101.577,37.949        c34.319,41.255,42.417,87.158,18.835,106.787C1875.3,2779.795,1866.929,2782.466,1857.607,2782.466z M1785.959,2646.567        c-3.491,0-6.282,0.801-8.149,2.354c-8.931,7.432-4.761,38.838,22.107,71.133h0.002c26.865,32.295,56.98,42.119,65.925,34.678        c8.931-7.432,4.761-38.838-22.109-71.133C1822.48,2658.047,1799.187,2646.567,1785.959,2646.567z"/>
					</g>
				</g>
			</g>
			<g>
				<g>
					<path style="fill:#371A45;" d="M2086.233,2755.649c-3.003,0-6.001-1.177-8.237-3.521l-89.412-93.56       c-16.44-17.202-18.63-43.955-5.21-63.604c6.782-9.927,6.455-23.027-0.813-32.598l-83.599-110.117       c-3.806-5.015-2.827-12.158,2.185-15.962c5.005-3.799,12.158-2.822,15.959,2.183l83.599,110.117       c13.208,17.393,13.804,41.196,1.479,59.229c-7.385,10.815-6.179,25.542,2.869,35.01l89.412,93.56       c4.348,4.551,4.185,11.758-0.364,16.108C2091.895,2754.604,2089.06,2755.649,2086.233,2755.649z"/>
				</g>
			</g>
		</g>
		<g>
			<g>
				<path style="fill:#371A45;" d="M2680.776,2754.023c-8.572,0-15.999-6.392-17.078-15.117      c-1.167-9.443,5.542-18.047,14.985-19.214c28.042-3.467,86.931-32.803,125.579-96.758      c32.944-54.517,60.298-151.113,3.513-301.685c-3.357-8.901,1.138-18.843,10.042-22.202c8.906-3.34,18.843,1.138,22.2,10.044      c61.665,163.511,30.63,270.61-6.265,331.665c-45.271,74.917-115.01,108.701-150.84,113.135      C2682.195,2753.979,2681.482,2754.023,2680.776,2754.023z"/>
			</g>
		</g>
		<g>
			<g>
				<path style="fill:#371A45;" d="M2725.046,2018.403c-2.122,0-4.277-0.396-6.37-1.226      c-96.995-38.628-160.129-118.875-182.583-232.063c-16.663-84.016-5.181-155.85-4.683-158.867      c1.548-9.39,10.435-15.732,19.8-14.199c9.385,1.545,15.742,10.405,14.202,19.79c-0.144,0.884-10.979,69.634,4.678,147.546      c20.513,102.08,74.795,171.313,161.335,205.779c8.84,3.521,13.152,13.54,9.631,22.38      C2738.369,2014.292,2731.892,2018.403,2725.046,2018.403z"/>
			</g>
		</g>
		<g>
			<g>
				<path style="fill:#371A45;" d="M2069.105,2339.843c-2.368-2.895-31.703,39.144-57.186,54.726      c-13.228,8.089,46.048,33.447,40.745,15.154C2046.324,2387.855,2071.474,2342.738,2069.105,2339.843z"/>
			</g>
		</g>
	</g>
</g>
</svg>